<svg class="bookExclusiveSVG" xmlns="http://www.w3.org/2000/svg" xmlns:xlink="http://www.w3.org/1999/xlink" width="120" zoomAndPan="magnify" viewBox="0 0 90 89.999999" height="120" preserveAspectRatio="xMidYMid meet" version="1.0"><defs><clipPath id="50a186ddc2"><path d="M 27 44.910156 L 63 44.910156 L 63 45.660156 L 27 45.660156 Z M 27 44.910156 " clip-rule="nonzero"/></clipPath><clipPath id="14433cfbf2"><path d="M 0 12 L 90 12 L 90 77.980469 L 0 77.980469 Z M 0 12 " clip-rule="nonzero"/></clipPath></defs><g clip-path="url(#50a186ddc2)"><path fill="#ffffff" d="M 27 44.914062 L 63 44.914062 L 63 45.082031 L 27 45.082031 Z M 27 44.914062 " fill-opacity="1" fill-rule="nonzero"/></g><g clip-path="url(#14433cfbf2)"><path fill="#ffffff" d="M 89.300781 66.402344 L 86.207031 64.90625 L 84.3125 60.316406 L 83.714844 60.117188 L 71.742188 57.023438 C 77.128906 54.628906 82.117188 53.53125 82.21875 53.53125 L 85.710938 52.730469 L 57.570312 43.351562 L 57.273438 43.453125 C 56.675781 43.652344 42.007812 48.941406 38.015625 57.820312 C 21.453125 50.636719 7.980469 52.632812 5.386719 53.03125 C 4.890625 53.128906 4.488281 53.53125 4.488281 54.027344 C 4.390625 54.527344 4.691406 55.027344 5.1875 55.226562 L 9.679688 57.121094 C 5.488281 57.921875 3.59375 59.617188 3.59375 59.617188 L 3.691406 60.214844 C 3.890625 61.710938 3.890625 63.007812 3.792969 63.609375 L 1.097656 63.90625 C 0.597656 64.007812 0.199219 64.304688 0.101562 64.804688 C 0 65.304688 0.199219 65.800781 0.699219 66.003906 L 24.445312 77.976562 C 24.445312 77.976562 51.683594 72.886719 53.78125 72.785156 C 53.878906 72.886719 54.078125 72.988281 54.28125 73.085938 C 55.175781 73.683594 56.574219 74.683594 58.171875 74.382812 C 59.867188 74.085938 60.664062 73.085938 61.164062 72.488281 C 61.5625 71.988281 61.664062 71.890625 61.863281 71.890625 C 63.457031 71.890625 87.90625 68.597656 88.902344 68.496094 C 88.902344 68.496094 89.699219 68.199219 89.800781 67.597656 C 90 67 89.699219 66.601562 89.300781 66.402344 Z M 82.914062 62.109375 L 84.113281 65.003906 C 79.722656 65.003906 67.25 65.503906 61.664062 68.996094 C 61.464844 68.894531 60.566406 68.496094 60.464844 68.496094 C 65.953125 62.609375 79.824219 62.109375 82.914062 62.109375 Z M 84.414062 67 C 77.628906 67.898438 69.644531 68.996094 65.253906 69.496094 C 71.140625 67.300781 81.019531 67 84.414062 67 Z M 77.027344 60.414062 C 71.441406 61.011719 63.859375 62.511719 59.46875 66.601562 C 61.265625 63.109375 65.054688 60.414062 68.945312 58.320312 Z M 5.886719 63.90625 C 5.886719 63.808594 5.789062 63.808594 5.789062 63.707031 C 5.886719 63.109375 5.886719 62.410156 5.789062 61.511719 L 25.042969 69.59375 C 25.042969 69.59375 42.90625 65.203125 53.78125 69.292969 C 53.78125 69.292969 53.78125 69.292969 53.679688 69.292969 C 44.601562 67.898438 28.136719 72.1875 25.445312 72.988281 C 23.046875 71.890625 9.777344 65.703125 5.886719 63.90625 Z M 57.773438 45.449219 L 78.625 52.433594 C 72.4375 54.226562 59.667969 58.917969 56.972656 67.597656 C 56.675781 67.398438 56.175781 67.101562 55.578125 66.699219 C 52.683594 64.804688 46.894531 61.3125 40.011719 58.519531 C 43.304688 51.136719 55.578125 46.246094 57.773438 45.449219 Z M 38.316406 60.117188 C 40.011719 60.8125 41.609375 61.511719 43.203125 62.210938 C 42.90625 62.109375 42.605469 62.109375 42.304688 62.011719 C 37.714844 61.3125 33.925781 61.113281 31.128906 61.113281 C 28.136719 61.113281 26.242188 61.3125 25.542969 61.414062 L 8.980469 54.628906 C 14.46875 54.128906 25.445312 54.328125 38.316406 60.117188 Z M 25.242188 63.40625 L 25.542969 63.40625 C 25.644531 63.40625 31.929688 62.410156 42.007812 64.007812 C 45.199219 64.503906 47.894531 65.402344 50.089844 66.300781 C 39.8125 64.304688 27.339844 67 25.144531 67.5 L 6.882812 59.914062 C 8.480469 59.21875 10.976562 58.617188 14.367188 59.019531 Z M 24.746094 75.878906 L 4.289062 65.503906 L 4.488281 65.503906 C 7.484375 66.800781 24.746094 74.882812 24.84375 74.980469 L 25.144531 75.183594 L 25.542969 75.082031 C 25.742188 75.082031 41.207031 70.691406 50.886719 71.089844 C 47.394531 71.589844 40.109375 72.886719 24.746094 75.878906 Z M 59.667969 71.191406 C 59.167969 71.789062 58.769531 72.1875 57.871094 72.386719 C 57.074219 72.488281 56.175781 71.890625 55.476562 71.390625 C 55.277344 71.191406 55.078125 71.089844 54.878906 70.992188 C 54.976562 70.890625 55.175781 70.792969 55.277344 70.691406 C 55.578125 70.492188 56.574219 69.792969 57.671875 69.792969 C 59.070312 69.792969 60.167969 70.492188 60.265625 70.492188 C 60.066406 70.691406 59.867188 70.992188 59.667969 71.191406 Z M 13.46875 40.558594 L 17.761719 38.265625 L 22.050781 40.558594 L 21.253906 35.769531 L 24.746094 32.375 L 19.957031 31.679688 L 17.859375 27.386719 L 15.765625 31.679688 L 10.976562 32.375 L 14.46875 35.769531 Z M 16.960938 33.574219 L 17.761719 31.976562 L 18.558594 33.574219 L 20.355469 33.875 L 19.058594 35.171875 L 19.355469 36.964844 L 17.761719 36.070312 L 16.0625 36.964844 L 16.363281 35.171875 L 15.066406 33.875 Z M 27.039062 48.042969 L 27.9375 52.730469 L 31.128906 49.140625 L 35.921875 49.738281 L 33.425781 45.546875 L 35.421875 41.15625 L 30.730469 42.253906 L 27.238281 38.960938 L 26.742188 43.75 L 22.550781 46.144531 Z M 28.734375 44.949219 L 28.9375 43.152344 L 30.234375 44.351562 L 32.027344 43.949219 L 31.230469 45.648438 L 32.128906 47.242188 L 30.332031 47.042969 L 29.136719 48.441406 L 28.734375 46.644531 L 27.039062 45.945312 Z M 54.976562 21.101562 L 57.273438 25.292969 L 59.269531 20.902344 L 64.058594 20.003906 L 60.464844 16.8125 L 61.0625 12.023438 L 56.875 14.417969 L 52.484375 12.320312 L 53.480469 17.011719 L 50.1875 20.503906 Z M 55.277344 15.914062 L 56.972656 16.710938 L 58.570312 15.8125 L 58.371094 17.609375 L 59.765625 18.808594 L 57.972656 19.105469 L 57.273438 20.800781 L 56.375 19.207031 L 54.578125 19.007812 L 55.875 17.710938 Z M 34.625 33.175781 C 36.019531 33.175781 37.21875 31.976562 37.21875 30.582031 C 37.21875 29.183594 36.019531 27.988281 34.625 27.988281 C 33.226562 27.988281 32.027344 29.085938 32.027344 30.582031 C 32.027344 32.078125 33.226562 33.175781 34.625 33.175781 Z M 34.625 29.882812 C 34.921875 29.882812 35.222656 30.183594 35.222656 30.480469 C 35.222656 30.78125 34.921875 31.078125 34.625 31.078125 C 34.324219 31.078125 34.023438 30.878906 34.023438 30.582031 C 34.023438 30.183594 34.324219 29.882812 34.625 29.882812 Z M 54.878906 34.371094 C 53.480469 34.371094 52.285156 35.570312 52.285156 36.964844 C 52.285156 38.363281 53.480469 39.5625 54.878906 39.5625 C 56.273438 39.5625 57.472656 38.363281 57.472656 36.964844 C 57.472656 35.570312 56.375 34.371094 54.878906 34.371094 Z M 54.878906 37.566406 C 54.578125 37.566406 54.28125 37.265625 54.28125 36.964844 C 54.28125 36.667969 54.578125 36.367188 54.878906 36.367188 C 55.175781 36.367188 55.476562 36.667969 55.476562 36.964844 C 55.476562 37.367188 55.277344 37.566406 54.878906 37.566406 Z M 67.25 31.28125 C 68.945312 31.28125 70.34375 29.882812 70.34375 28.1875 C 70.34375 26.488281 68.945312 25.09375 67.25 25.09375 C 65.554688 25.09375 64.058594 26.488281 64.058594 28.1875 C 64.058594 29.882812 65.453125 31.28125 67.25 31.28125 Z M 67.25 26.988281 C 67.847656 26.988281 68.347656 27.488281 68.347656 28.085938 C 68.347656 28.683594 67.847656 29.183594 67.25 29.183594 C 66.652344 29.183594 66.054688 28.683594 66.054688 28.085938 C 66.054688 27.488281 66.550781 26.988281 67.25 26.988281 Z M 67.25 26.988281 " fill-opacity="1" fill-rule="nonzero"/></g></svg>