<svg xmlns="http://www.w3.org/2000/svg" xmlns:xlink="http://www.w3.org/1999/xlink" width="120" zoomAndPan="magnify" viewBox="0 0 90 89.999999" height="120" preserveAspectRatio="xMidYMid meet" version="1.0"><defs><clipPath id="30621b9de1"><path d="M 27 44.910156 L 63 44.910156 L 63 45.660156 L 27 45.660156 Z M 27 44.910156 " clip-rule="nonzero"/></clipPath></defs><g clip-path="url(#30621b9de1)"><path fill="#ffffff" d="M 27 44.914062 L 63 44.914062 L 63 45.082031 L 27 45.082031 Z M 27 44.914062 " fill-opacity="1" fill-rule="nonzero"/></g><path fill="#ffffff" d="M 13.5 27 C 20.941406 27 27 20.945312 27 13.5 C 27 6.054688 20.941406 0 13.5 0 C 6.058594 0 0 6.054688 0 13.5 C 0 20.945312 6.058594 27 13.5 27 Z M 3.121094 12 C 3.78125 7.410156 7.410156 3.78125 12 3.121094 L 12 6 L 15 6 L 15 3.121094 C 19.589844 3.78125 23.21875 7.410156 23.878906 12 L 21 12 L 21 15 L 23.878906 15 C 23.21875 19.589844 19.589844 23.21875 15 23.878906 L 15 21 L 12 21 L 12 23.878906 C 7.410156 23.21875 3.78125 19.589844 3.121094 15 L 6 15 L 6 12 Z M 3.121094 12 " fill-opacity="1" fill-rule="nonzero"/><path fill="#ffffff" d="M 76.5 0 C 69.058594 0 63 6.054688 63 13.5 C 63 20.945312 69.058594 27 76.5 27 C 83.941406 27 90 20.945312 90 13.5 C 90 6.054688 83.941406 0 76.5 0 Z M 76.5 24 C 70.710938 24 66 19.289062 66 13.5 C 66 7.710938 70.710938 3 76.5 3 C 82.289062 3 87 7.710938 87 13.5 C 87 19.289062 82.289062 24 76.5 24 Z M 76.5 24 " fill-opacity="1" fill-rule="nonzero"/><path fill="#ffffff" d="M 13.5 90 C 20.941406 90 27 83.945312 27 76.5 C 27 69.054688 20.941406 63 13.5 63 C 6.058594 63 0 69.054688 0 76.5 C 0 83.945312 6.058594 90 13.5 90 Z M 13.5 66 C 19.289062 66 24 70.710938 24 76.5 C 24 82.289062 19.289062 87 13.5 87 C 7.710938 87 3 82.289062 3 76.5 C 3 70.710938 7.710938 66 13.5 66 Z M 13.5 66 " fill-opacity="1" fill-rule="nonzero"/><path fill="#ffffff" d="M 76.5 63 C 69.058594 63 63 69.054688 63 76.5 C 63 83.945312 69.058594 90 76.5 90 C 83.941406 90 90 83.945312 90 76.5 C 90 69.054688 83.941406 63 76.5 63 Z M 76.5 87 C 70.710938 87 66 82.289062 66 76.5 C 66 70.710938 70.710938 66 76.5 66 C 82.289062 66 87 70.710938 87 76.5 C 87 82.289062 82.289062 87 76.5 87 Z M 76.5 87 " fill-opacity="1" fill-rule="nonzero"/><path fill="#ffffff" d="M 79.683594 71.199219 L 76.5 74.378906 L 73.316406 71.199219 L 71.195312 73.320312 L 74.378906 76.5 L 71.195312 79.679688 L 73.316406 81.800781 L 76.5 78.621094 L 79.683594 81.800781 L 81.804688 79.679688 L 78.621094 76.5 L 81.804688 73.320312 Z M 79.683594 71.199219 " fill-opacity="1" fill-rule="nonzero"/><path fill="#ffffff" d="M 43.5 12.878906 L 41.558594 10.941406 L 39.441406 13.058594 L 43.941406 17.558594 C 44.230469 17.851562 44.617188 18 45 18 C 45.382812 18 45.769531 17.851562 46.058594 17.558594 L 50.558594 13.058594 L 48.441406 10.941406 L 46.5 12.878906 L 46.5 6 L 43.5 6 Z M 43.5 12.878906 " fill-opacity="1" fill-rule="nonzero"/><path fill="#ffffff" d="M 31.5 45 C 31.5 52.445312 37.558594 58.5 45 58.5 C 52.441406 58.5 58.5 52.445312 58.5 45 C 58.5 37.554688 52.441406 31.5 45 31.5 C 37.558594 31.5 31.5 37.554688 31.5 45 Z M 45 34.5 C 50.789062 34.5 55.5 39.210938 55.5 45 C 55.5 50.789062 50.789062 55.5 45 55.5 C 39.210938 55.5 34.5 50.789062 34.5 45 C 34.5 39.210938 39.210938 34.5 45 34.5 Z M 45 34.5 " fill-opacity="1" fill-rule="nonzero"/><path fill="#ffffff" d="M 36.402344 27.105469 L 32.628906 25.3125 C 32.140625 25.082031 31.558594 25.128906 31.117188 25.445312 C 28.917969 27.007812 27.007812 28.914062 25.445312 31.113281 C 25.128906 31.558594 25.078125 32.136719 25.3125 32.628906 L 27.105469 36.40625 L 26.269531 38.414062 L 22.027344 39.820312 C 21.414062 40.023438 21 40.59375 21 41.242188 L 21 48.757812 C 21 49.40625 21.414062 49.976562 22.027344 50.183594 L 26.273438 51.589844 L 27.105469 53.597656 L 25.3125 57.371094 C 25.082031 57.863281 25.132812 58.441406 25.445312 58.882812 C 27.007812 61.082031 28.917969 62.992188 31.117188 64.554688 C 31.558594 64.871094 32.136719 64.917969 32.628906 64.6875 L 36.402344 62.898438 L 38.410156 63.730469 L 39.816406 67.972656 C 40.019531 68.585938 40.59375 69 41.242188 69 L 48.757812 69 C 49.40625 69 49.980469 68.585938 50.183594 67.972656 L 51.566406 63.796875 C 52.277344 63.546875 52.976562 63.253906 53.660156 62.925781 L 57.371094 64.6875 C 57.863281 64.921875 58.441406 64.871094 58.882812 64.554688 C 61.082031 62.992188 62.988281 61.082031 64.554688 58.886719 C 64.867188 58.441406 64.921875 57.863281 64.6875 57.371094 L 62.921875 53.65625 C 63.253906 52.976562 63.546875 52.273438 63.796875 51.5625 L 67.972656 50.179688 C 68.585938 49.976562 69 49.40625 69 48.757812 L 69 41.242188 C 69 40.59375 68.585938 40.023438 67.972656 39.816406 L 63.796875 38.433594 C 63.546875 37.722656 63.253906 37.023438 62.921875 36.339844 L 64.6875 32.625 C 64.917969 32.136719 64.867188 31.558594 64.554688 31.113281 C 62.988281 28.914062 61.082031 27.007812 58.882812 25.445312 C 58.441406 25.125 57.859375 25.078125 57.371094 25.3125 L 53.660156 27.074219 C 52.976562 26.742188 52.277344 26.453125 51.566406 26.203125 L 50.183594 22.027344 C 49.980469 21.414062 49.40625 21 48.757812 21 L 41.242188 21 C 40.59375 21 40.019531 21.414062 39.816406 22.027344 L 38.410156 26.273438 Z M 40.195312 28.78125 C 40.597656 28.613281 40.90625 28.28125 41.042969 27.867188 L 42.324219 24 L 47.675781 24 L 48.953125 27.867188 C 49.105469 28.328125 49.472656 28.6875 49.941406 28.828125 C 50.964844 29.140625 51.96875 29.558594 52.933594 30.070312 C 53.351562 30.292969 53.851562 30.304688 54.277344 30.101562 L 57.84375 28.410156 C 59.246094 29.496094 60.5 30.753906 61.589844 32.15625 L 59.898438 35.722656 C 59.695312 36.148438 59.707031 36.652344 59.929688 37.070312 C 60.441406 38.027344 60.859375 39.035156 61.171875 40.058594 C 61.3125 40.527344 61.671875 40.894531 62.132812 41.042969 L 66 42.324219 L 66 47.675781 L 62.132812 48.957031 C 61.671875 49.109375 61.3125 49.476562 61.171875 49.941406 C 60.859375 50.96875 60.441406 51.972656 59.929688 52.929688 C 59.707031 53.347656 59.695312 53.851562 59.898438 54.277344 L 61.589844 57.84375 C 60.503906 59.246094 59.246094 60.503906 57.84375 61.589844 L 54.277344 59.898438 C 53.851562 59.691406 53.351562 59.703125 52.933594 59.929688 C 51.972656 60.441406 50.964844 60.859375 49.941406 61.171875 C 49.472656 61.3125 49.105469 61.671875 48.953125 62.132812 L 47.675781 66 L 42.324219 66 L 41.046875 62.132812 C 40.910156 61.722656 40.597656 61.386719 40.195312 61.222656 L 36.9375 59.871094 C 36.546875 59.707031 36.105469 59.714844 35.722656 59.902344 L 32.15625 61.59375 C 30.753906 60.503906 29.496094 59.25 28.410156 57.847656 L 30.101562 54.28125 C 30.285156 53.898438 30.296875 53.457031 30.132812 53.0625 L 28.777344 49.804688 C 28.613281 49.402344 28.28125 49.09375 27.867188 48.957031 L 24 47.675781 L 24 42.324219 L 27.867188 41.042969 C 28.277344 40.90625 28.613281 40.597656 28.777344 40.195312 L 30.132812 36.9375 C 30.296875 36.546875 30.285156 36.101562 30.101562 35.722656 L 28.410156 32.15625 C 29.496094 30.75 30.753906 29.496094 32.15625 28.410156 L 35.71875 30.101562 C 36.101562 30.285156 36.542969 30.292969 36.9375 30.132812 Z M 40.195312 28.78125 " fill-opacity="1" fill-rule="nonzero"/><path fill="#ffffff" d="M 39 40.5 L 45 40.5 L 45 43.5 L 39 43.5 Z M 39 40.5 " fill-opacity="1" fill-rule="nonzero"/><path fill="#ffffff" d="M 48 40.5 L 51 40.5 L 51 43.5 L 48 43.5 Z M 48 40.5 " fill-opacity="1" fill-rule="nonzero"/><path fill="#ffffff" d="M 37.5 46.5 L 40.5 46.5 L 40.5 49.5 L 37.5 49.5 Z M 37.5 46.5 " fill-opacity="1" fill-rule="nonzero"/><path fill="#ffffff" d="M 43.5 46.5 L 52.5 46.5 L 52.5 49.5 L 43.5 49.5 Z M 43.5 46.5 " fill-opacity="1" fill-rule="nonzero"/><path fill="#ffffff" d="M 46.5 77.121094 L 48.441406 79.058594 L 50.558594 76.941406 L 46.058594 72.441406 C 45.472656 71.851562 44.527344 71.851562 43.941406 72.441406 L 39.441406 76.941406 L 41.558594 79.058594 L 43.5 77.121094 L 43.5 84 L 46.5 84 Z M 46.5 77.121094 " fill-opacity="1" fill-rule="nonzero"/><path fill="#ffffff" d="M 76.941406 39.441406 L 72.441406 43.941406 C 71.851562 44.527344 71.851562 45.472656 72.441406 46.058594 L 76.941406 50.558594 L 79.058594 48.441406 L 77.121094 46.5 L 84 46.5 L 84 43.5 L 77.121094 43.5 L 79.058594 41.558594 Z M 76.941406 39.441406 " fill-opacity="1" fill-rule="nonzero"/><path fill="#ffffff" d="M 13.058594 50.558594 L 17.558594 46.058594 C 18.148438 45.472656 18.148438 44.527344 17.558594 43.941406 L 13.058594 39.441406 L 10.941406 41.558594 L 12.878906 43.5 L 6 43.5 L 6 46.5 L 12.878906 46.5 L 10.941406 48.441406 Z M 13.058594 50.558594 " fill-opacity="1" fill-rule="nonzero"/><path fill="#ffffff" d="M 12 82.5 C 12.023438 82.5 12.046875 82.5 12.066406 82.5 C 12.488281 82.480469 12.882812 82.285156 13.152344 81.960938 L 20.652344 72.960938 L 18.347656 71.039062 L 11.898438 78.777344 L 8.558594 75.441406 L 6.441406 77.558594 L 10.941406 82.058594 C 11.222656 82.34375 11.601562 82.5 12 82.5 Z M 12 82.5 " fill-opacity="1" fill-rule="nonzero"/><path fill="#ffffff" d="M 10.058594 19.058594 L 12.734375 16.386719 C 12.980469 16.453125 13.234375 16.5 13.5 16.5 C 13.765625 16.5 14.019531 16.453125 14.265625 16.386719 L 18.441406 20.558594 L 20.558594 18.441406 L 16.386719 14.265625 C 16.453125 14.019531 16.5 13.765625 16.5 13.5 C 16.5 11.84375 15.15625 10.5 13.5 10.5 C 11.84375 10.5 10.5 11.84375 10.5 13.5 C 10.5 13.765625 10.546875 14.019531 10.613281 14.265625 L 7.941406 16.941406 Z M 10.058594 19.058594 " fill-opacity="1" fill-rule="nonzero"/><path fill="#ffffff" d="M 75 6 L 78 6 L 78 15 L 75 15 Z M 75 6 " fill-opacity="1" fill-rule="nonzero"/><path fill="#ffffff" d="M 75 18 L 78 18 L 78 21 L 75 21 Z M 75 18 " fill-opacity="1" fill-rule="nonzero"/><path fill="#ffffff" d="M 43.5 0 L 46.5 0 L 46.5 3 L 43.5 3 Z M 43.5 0 " fill-opacity="1" fill-rule="nonzero"/><path fill="#ffffff" d="M 87 43.5 L 90 43.5 L 90 46.5 L 87 46.5 Z M 87 43.5 " fill-opacity="1" fill-rule="nonzero"/><path fill="#ffffff" d="M 43.5 87 L 46.5 87 L 46.5 90 L 43.5 90 Z M 43.5 87 " fill-opacity="1" fill-rule="nonzero"/><path fill="#ffffff" d="M 0 43.5 L 3 43.5 L 3 46.5 L 0 46.5 Z M 0 43.5 " fill-opacity="1" fill-rule="nonzero"/></svg>