<svg xmlns="http://www.w3.org/2000/svg" xmlns:xlink="http://www.w3.org/1999/xlink" width="120" zoomAndPan="magnify" viewBox="0 0 90 89.999999" height="120" preserveAspectRatio="xMidYMid meet" version="1.0"><defs><clipPath id="29d9d1219b"><path d="M 27 44.910156 L 63 44.910156 L 63 45.660156 L 27 45.660156 Z M 27 44.910156 " clip-rule="nonzero"/></clipPath><clipPath id="c4a0ebdbb1"><path d="M 5.34375 0 L 84.84375 0 L 84.84375 90 L 5.34375 90 Z M 5.34375 0 " clip-rule="nonzero"/></clipPath></defs><g clip-path="url(#29d9d1219b)"><path fill="#ffffff" d="M 27 44.914062 L 63 44.914062 L 63 45.082031 L 27 45.082031 Z M 27 44.914062 " fill-opacity="1" fill-rule="nonzero"/></g><path fill="#ffffff" d="M 70.757812 50.746094 C 69.324219 49.890625 69.0625 47.882812 70.21875 46.648438 C 71.332031 45.457031 73.074219 45.507812 74.175781 46.761719 C 74.761719 47.425781 74.886719 47.847656 74.792969 48.832031 C 74.609375 50.730469 72.445312 51.757812 70.753906 50.746094 Z M 70.757812 50.746094 " fill-opacity="1" fill-rule="nonzero"/><path fill="#ffffff" d="M 16.367188 68.523438 C 14.492188 67.402344 14.617188 64.675781 16.589844 63.78125 C 17.410156 63.410156 18.109375 63.421875 18.929688 63.816406 C 20.210938 64.4375 20.78125 65.925781 20.222656 67.191406 C 19.769531 68.210938 18.996094 68.734375 17.84375 68.796875 C 17.101562 68.835938 16.792969 68.777344 16.367188 68.523438 Z M 16.367188 68.523438 " fill-opacity="1" fill-rule="nonzero"/><path fill="#ffffff" d="M 51.996094 56.101562 C 51.738281 55.992188 51.3125 55.636719 51.046875 55.316406 C 50.210938 54.300781 50.246094 52.929688 51.136719 51.867188 C 52.488281 50.261719 55.199219 50.921875 55.757812 52.996094 C 56.316406 55.070312 54.007812 56.980469 51.996094 56.101562 Z M 51.996094 56.101562 " fill-opacity="1" fill-rule="nonzero"/><g clip-path="url(#c4a0ebdbb1)"><path fill="#ffffff" d="M 43.386719 89.507812 C 42.925781 89.378906 39.011719 88.203125 34.6875 86.898438 C 30.363281 85.589844 23.1875 83.429688 18.738281 82.09375 C 13.953125 80.660156 10.207031 79.449219 9.5625 79.136719 C 8.152344 78.445312 6.851562 77.082031 6.046875 75.449219 L 5.460938 74.269531 L 5.421875 53.976562 C 5.375 31.785156 5.332031 32.929688 6.261719 31.019531 C 6.796875 29.914062 8.269531 28.40625 9.351562 27.851562 C 9.832031 27.609375 14.816406 26.09375 20.953125 24.328125 C 27.765625 22.367188 31.695312 21.167969 31.667969 21.054688 C 31.644531 20.960938 30.242188 18.847656 28.558594 16.367188 C 26.871094 13.882812 25.390625 11.609375 25.265625 11.316406 C 24.789062 10.171875 25.441406 8.691406 26.6875 8.085938 L 27.40625 7.738281 L 32.8125 8.460938 C 35.78125 8.859375 38.300781 9.152344 38.40625 9.113281 C 38.515625 9.070312 39.554688 7.332031 40.722656 5.246094 C 41.886719 3.160156 43.050781 1.238281 43.3125 0.972656 C 44.222656 0.0429688 45.703125 -0.0078125 46.726562 0.851562 C 46.976562 1.0625 47.4375 1.695312 47.75 2.261719 C 49.300781 5.058594 51.695312 9.042969 51.859375 9.105469 C 52.042969 9.179688 56.167969 8.667969 60.175781 8.078125 C 62.558594 7.726562 63.195312 7.789062 63.933594 8.4375 C 64.652344 9.066406 64.90625 9.613281 64.90625 10.535156 C 64.90625 11.292969 64.832031 11.421875 61.613281 16.203125 C 59.804688 18.894531 58.34375 21.113281 58.371094 21.132812 C 58.398438 21.15625 58.933594 21.3125 59.5625 21.484375 C 64.898438 22.929688 79.921875 27.417969 80.539062 27.75 C 82.421875 28.761719 84.082031 31.113281 84.429688 33.273438 C 84.65625 34.671875 84.652344 72.566406 84.429688 73.804688 C 84.164062 75.261719 83.445312 76.558594 82.234375 77.765625 C 81.640625 78.355469 80.816406 79.015625 80.394531 79.238281 C 79.976562 79.457031 75.820312 80.785156 71.164062 82.1875 C 66.503906 83.585938 59.050781 85.832031 54.605469 87.171875 C 45.777344 89.832031 45.074219 89.980469 43.386719 89.507812 Z M 51.167969 83.414062 C 53.898438 82.601562 56.90625 81.699219 57.855469 81.414062 C 58.804688 81.125 59.601562 80.890625 59.625 80.890625 C 59.648438 80.890625 59.683594 72.992188 59.699219 63.339844 C 59.722656 51.695312 59.679688 45.789062 59.578125 45.789062 C 59.496094 45.789062 58.890625 45.957031 58.234375 46.160156 C 57.582031 46.363281 54.640625 47.238281 51.703125 48.105469 C 44.476562 50.238281 45.496094 50.257812 37.15625 47.800781 C 33.6875 46.777344 30.785156 45.941406 30.707031 45.941406 C 30.621094 45.941406 30.566406 52.832031 30.566406 63.410156 L 30.566406 80.878906 L 31.140625 81.035156 C 31.453125 81.121094 34.527344 82.050781 37.96875 83.101562 C 43.753906 84.867188 44.300781 85.007812 45.21875 84.953125 C 45.894531 84.910156 47.777344 84.425781 51.167969 83.414062 Z M 26.140625 62.046875 L 26.140625 44.578125 L 25.339844 44.34375 C 24.898438 44.21875 21.257812 43.160156 17.25 42 L 9.964844 39.886719 L 9.964844 56.578125 C 9.964844 72.90625 9.96875 73.285156 10.265625 73.863281 C 10.636719 74.59375 11.199219 75.007812 12.269531 75.332031 C 16.710938 76.695312 25.9375 79.488281 26.027344 79.5 C 26.089844 79.511719 26.140625 71.65625 26.140625 62.046875 Z M 67.421875 78.519531 C 72.488281 77.023438 77.480469 75.539062 78.003906 75.371094 C 78.621094 75.179688 79.492188 74.441406 79.792969 73.855469 C 79.980469 73.488281 80.015625 70.996094 80.015625 56.617188 L 80.015625 39.804688 L 79.621094 39.902344 C 79.332031 39.976562 69.535156 42.84375 64.410156 44.355469 C 64.15625 44.433594 64.140625 45.402344 64.140625 61.972656 C 64.140625 75.933594 64.179688 79.496094 64.332031 79.441406 C 64.4375 79.40625 65.828125 78.992188 67.421875 78.519531 Z M 50.558594 43.640625 C 53.121094 42.902344 56.210938 42 57.425781 41.636719 L 59.640625 40.976562 L 59.640625 39.742188 C 59.640625 38.761719 59.566406 38.355469 59.269531 37.726562 C 59.066406 37.292969 58.835938 36.9375 58.757812 36.9375 C 58.679688 36.9375 55.996094 37.699219 52.792969 38.632812 C 45.789062 40.667969 45.210938 40.800781 44.160156 40.601562 C 43.730469 40.519531 40.753906 39.699219 37.542969 38.773438 C 34.332031 37.847656 31.59375 37.089844 31.460938 37.089844 C 31.3125 37.089844 31.085938 37.390625 30.882812 37.855469 C 30.617188 38.476562 30.5625 38.863281 30.597656 39.863281 L 30.640625 41.097656 L 36.824219 42.914062 C 44.480469 45.160156 44.546875 45.179688 45.292969 45.074219 C 45.628906 45.027344 48 44.382812 50.558594 43.640625 Z M 26.175781 38.5 C 26.222656 37.769531 26.378906 37.035156 26.582031 36.574219 C 26.761719 36.160156 26.878906 35.792969 26.839844 35.753906 C 26.800781 35.714844 23.554688 34.761719 19.625 33.632812 C 13.171875 31.78125 12.429688 31.597656 11.929688 31.742188 C 11.191406 31.953125 10.625 32.421875 10.285156 33.097656 C 9.945312 33.777344 9.753906 34.898438 9.957031 35.027344 C 10.175781 35.160156 25.566406 39.660156 25.855469 39.671875 C 26.054688 39.683594 26.117188 39.464844 26.175781 38.5 Z M 70.324219 37.847656 C 79.230469 35.246094 79.769531 35.082031 79.996094 34.871094 C 80.171875 34.707031 80.175781 34.542969 80.027344 33.933594 C 79.644531 32.394531 78.605469 31.476562 77.421875 31.636719 C 76.773438 31.722656 63.511719 35.554688 63.34375 35.703125 C 63.285156 35.757812 63.40625 36.226562 63.617188 36.75 C 63.828125 37.269531 64.042969 38.140625 64.09375 38.679688 C 64.148438 39.300781 64.246094 39.636719 64.355469 39.601562 C 64.445312 39.566406 67.132812 38.777344 70.324219 37.847656 Z M 51.054688 34.375 C 53.886719 33.558594 56.203125 32.855469 56.203125 32.8125 C 56.207031 32.738281 50.949219 31.273438 46.796875 30.1875 L 45.09375 29.742188 L 43.589844 30.113281 C 40.722656 30.820312 33.769531 32.734375 33.769531 32.820312 C 33.769531 32.863281 35.644531 33.445312 37.929688 34.105469 C 44.335938 35.957031 44.617188 36.027344 45.292969 35.9375 C 45.628906 35.894531 48.222656 35.191406 51.054688 34.375 Z M 30.214844 31.453125 C 29.464844 30.5625 29.496094 29.761719 30.351562 27.640625 C 30.636719 26.933594 30.851562 26.335938 30.832031 26.320312 C 30.769531 26.257812 20.960938 29.074219 20.957031 29.152344 C 20.953125 29.195312 22.753906 29.738281 24.957031 30.363281 C 27.160156 30.988281 29.308594 31.613281 29.726562 31.753906 C 30.148438 31.898438 30.515625 31.992188 30.546875 31.964844 C 30.578125 31.9375 30.429688 31.707031 30.214844 31.453125 Z M 63.566406 30.8125 C 65.605469 30.210938 67.699219 29.613281 68.222656 29.484375 C 68.75 29.355469 69.179688 29.203125 69.179688 29.144531 C 69.179688 29.035156 59.398438 26.21875 59.308594 26.304688 C 59.28125 26.335938 59.460938 26.859375 59.714844 27.46875 C 60.609375 29.636719 60.65625 30.570312 59.917969 31.449219 C 59.707031 31.699219 59.609375 31.902344 59.699219 31.902344 C 59.789062 31.902344 61.527344 31.410156 63.566406 30.8125 Z M 39.875 26.324219 C 45.265625 24.835938 45.015625 24.832031 50.773438 26.46875 C 53.027344 27.109375 54.902344 27.609375 54.929688 27.582031 C 54.960938 27.550781 54.5 26.226562 53.90625 24.640625 C 53.101562 22.480469 52.847656 21.625 52.90625 21.25 C 52.957031 20.929688 53.929688 19.382812 55.585938 16.988281 C 57.015625 14.917969 58.167969 13.210938 58.148438 13.191406 C 58.128906 13.171875 56.296875 13.390625 54.078125 13.675781 C 50.164062 14.179688 50.03125 14.1875 49.511719 13.929688 C 49.0625 13.703125 48.695312 13.160156 47.082031 10.332031 C 46.035156 8.5 45.125 7.058594 45.0625 7.128906 C 44.996094 7.195312 44.171875 8.628906 43.234375 10.304688 C 42.292969 11.984375 41.355469 13.53125 41.152344 13.738281 C 40.671875 14.234375 40.035156 14.21875 35.449219 13.613281 C 33.5625 13.363281 32.003906 13.167969 31.992188 13.183594 C 31.976562 13.195312 33.164062 14.953125 34.625 17.085938 C 36.4375 19.734375 37.28125 21.097656 37.28125 21.375 C 37.28125 21.601562 36.84375 22.945312 36.308594 24.363281 C 35.019531 27.785156 35.050781 27.675781 35.398438 27.570312 C 35.550781 27.523438 37.566406 26.964844 39.875 26.324219 Z M 39.875 26.324219 " fill-opacity="1" fill-rule="nonzero"/></g></svg>