<svg xmlns="http://www.w3.org/2000/svg" xmlns:xlink="http://www.w3.org/1999/xlink" width="40" zoomAndPan="magnify" viewBox="0 0 30 30.000001" height="40" preserveAspectRatio="xMidYMid meet" version="1.0"><defs><clipPath id="1dad4e55ec"><path d="M 8.144531 0.0078125 L 21.933594 0.0078125 L 21.933594 29 L 8.144531 29 Z M 8.144531 0.0078125 " clip-rule="nonzero"/></clipPath></defs><g clip-path="url(#1dad4e55ec)"><path fill="#ffffff" d="M 18.753906 4.828125 L 21.933594 4.828125 L 21.933594 0.0585938 L 17.871094 0.0585938 L 17.871094 0.078125 C 12.53125 0.273438 11.429688 3.246094 11.339844 6.390625 L 11.328125 6.390625 L 11.328125 9.699219 L 8.144531 9.699219 L 8.144531 14.476562 L 11.328125 14.476562 L 11.328125 28.988281 L 17.035156 28.988281 L 17.035156 14.476562 L 21.128906 14.476562 L 21.933594 9.699219 L 17.035156 9.699219 L 17.035156 6.738281 C 17.035156 5.6875 17.746094 4.828125 18.753906 4.828125 Z M 18.753906 4.828125 " fill-opacity="1" fill-rule="nonzero"/></g></svg>