<svg xmlns="http://www.w3.org/2000/svg" xmlns:xlink="http://www.w3.org/1999/xlink" width="120" zoomAndPan="magnify" viewBox="0 0 90 89.999999" height="120" preserveAspectRatio="xMidYMid meet" version="1.0"><defs><clipPath id="683045f924"><path d="M 27 44.910156 L 63 44.910156 L 63 45.660156 L 27 45.660156 Z M 27 44.910156 " clip-rule="nonzero"/></clipPath></defs><g clip-path="url(#683045f924)"><path fill="#ffffff" d="M 27 44.914062 L 63 44.914062 L 63 45.082031 L 27 45.082031 Z M 27 44.914062 " fill-opacity="1" fill-rule="nonzero"/></g><path fill="#ffffff" d="M 56.714844 49.085938 C 56.675781 49.582031 56.238281 49.953125 55.738281 49.914062 C 55.242188 49.871094 54.871094 49.433594 54.914062 48.9375 C 54.953125 48.4375 55.390625 48.070312 55.886719 48.109375 C 56.386719 48.152344 56.757812 48.585938 56.714844 49.085938 Z M 55.625 51.3125 C 55.125 51.269531 54.691406 51.640625 54.648438 52.136719 C 54.605469 52.636719 54.976562 53.074219 55.476562 53.113281 C 55.976562 53.15625 56.410156 52.785156 56.453125 52.285156 C 56.492188 51.789062 56.125 51.351562 55.625 51.3125 Z M 85.417969 27.867188 C 84.957031 28.054688 84.734375 28.582031 84.917969 29.042969 C 85.105469 29.507812 85.632812 29.730469 86.097656 29.546875 C 86.558594 29.355469 86.785156 28.832031 86.597656 28.367188 C 86.410156 27.902344 85.882812 27.679688 85.417969 27.867188 Z M 89.980469 32.929688 C 86.644531 41.546875 80.566406 46.207031 73.339844 49.078125 C 73.546875 50.636719 72.289062 52.4375 70.230469 53.359375 C 67.867188 54.410156 65.34375 53.902344 64.59375 52.226562 C 64.523438 52.070312 64.472656 51.910156 64.4375 51.746094 C 61.058594 52.519531 57.578125 53.113281 54.128906 53.703125 C 53.710938 53.773438 53.296875 53.847656 52.882812 53.917969 C 51.464844 56.035156 48.679688 57.433594 46.105469 57.578125 C 46.105469 57.578125 49.382812 57.035156 51.421875 54.171875 C 47.015625 54.941406 42.742188 55.777344 38.894531 57.042969 C 39.132812 57.976562 38.828125 59.148438 38.003906 60.089844 C 36.820312 61.441406 35.023438 61.800781 33.992188 60.894531 C 33.5625 60.523438 33.339844 59.992188 33.296875 59.40625 C 28.863281 61.8125 25.421875 65.316406 23.632812 70.792969 C 22.894531 73.363281 21.042969 75.558594 18.757812 76.976562 C 18.425781 77.183594 17.863281 77.503906 17.863281 77.503906 C 18.0625 77.949219 19.125 80.40625 19.324219 82.300781 C 19.699219 87.355469 14.617188 89.8125 10.667969 87.617188 C 9.46875 86.898438 8.300781 85.515625 8.367188 84.042969 C 8.410156 81.519531 11.488281 79.539062 13.300781 81.785156 C 13.34375 81.839844 13.367188 81.898438 13.371094 81.957031 C 13.617188 82.339844 13.730469 82.796875 13.65625 83.265625 C 13.480469 84.316406 12.425781 85.019531 11.296875 84.832031 C 10.535156 84.707031 9.933594 84.207031 9.675781 83.570312 C 9.597656 84.015625 9.648438 84.480469 9.871094 84.90625 C 10.140625 85.449219 10.640625 85.902344 11.238281 86.246094 C 11.515625 86.390625 12.492188 86.734375 13.03125 86.757812 C 15.6875 87.0625 17.855469 85.140625 17.664062 82.40625 C 17.550781 81.339844 16.96875 79.792969 16.503906 78.667969 L 16.304688 78.210938 C 16.304688 78.210938 13.730469 79.179688 11.523438 79.179688 C 6.8125 79.25 2.601562 76.460938 1.425781 71.773438 C 0 65.964844 3.902344 61.074219 6.546875 56.183594 C 5.964844 54.921875 5.386719 53.65625 4.84375 52.441406 C 4.226562 51.078125 3.609375 49.753906 3.078125 48.335938 C 2.707031 47.253906 2.269531 46.089844 2.625 44.90625 C 3.140625 43.316406 5.132812 43.089844 6.503906 43.519531 C 9.171875 44.285156 10.925781 46.921875 10.714844 49.65625 C 10.664062 50.492188 10.46875 51.300781 10.171875 52.078125 C 10.023438 52.425781 9.847656 52.796875 9.679688 53.136719 C 9.269531 53.957031 8.304688 55.757812 8.304688 55.757812 L 9.695312 58.941406 C 9.898438 59.398438 10.039062 59.707031 10.039062 59.707031 C 12.25 58.132812 15.050781 57.738281 17.660156 58.816406 C 18.132812 53.539062 19.257812 49.386719 20.839844 46.046875 C 20.71875 45.984375 20.597656 45.917969 20.484375 45.835938 C 18.988281 44.773438 18.988281 42.195312 20.484375 40.089844 C 21.984375 37.980469 24.417969 37.136719 25.914062 38.207031 C 26.058594 38.308594 26.179688 38.425781 26.296875 38.550781 C 29.839844 35.25 34.058594 33.199219 38.214844 31.179688 C 38.832031 30.878906 39.453125 30.574219 40.074219 30.269531 L 36.660156 22.558594 L 37.488281 22.183594 C 38.976562 23.539062 41.679688 23.25 43.070312 23.875 C 44.75 24.628906 45.273438 26.082031 45.304688 27.417969 C 47.246094 26.210938 49.085938 24.828125 50.707031 23.132812 C 54.652344 19.007812 56.898438 13.398438 57.578125 5.976562 C 57.582031 5.925781 57.625 5.890625 57.675781 5.898438 C 57.722656 5.902344 57.761719 5.945312 57.757812 5.996094 C 57.070312 13.457031 54.808594 19.101562 50.835938 23.257812 C 49.175781 24.992188 47.292969 26.402344 45.300781 27.628906 C 45.292969 28.074219 45.238281 28.503906 45.152344 28.878906 C 45.234375 28.910156 45.3125 28.941406 45.386719 28.972656 C 48.609375 30.417969 47.574219 34.441406 46.96875 35.277344 C 48.273438 29.203125 42.828125 31.105469 41.085938 30.101562 L 43.9375 36.375 C 43.941406 36.386719 43.945312 36.402344 43.953125 36.414062 C 48.78125 34.851562 53.628906 33.144531 57.832031 29.652344 L 57.667969 29.460938 L 58.34375 28.855469 C 58.433594 28.898438 58.527344 28.933594 58.621094 28.96875 C 62.011719 25.90625 64.929688 21.5625 67.011719 15.023438 L 59.160156 8.175781 C 62.429688 4.898438 64.105469 0.015625 64.105469 0.015625 L 75.957031 10.148438 C 76.75 10.832031 77.101562 12.148438 76.753906 13.492188 C 76.308594 15.230469 74.867188 16.363281 73.535156 16.019531 C 72.203125 15.679688 71.488281 13.992188 71.933594 12.253906 C 72.207031 11.1875 73.058594 10.113281 73.828125 9.703125 L 69.316406 5.765625 C 68.832031 8.867188 68.214844 11.628906 67.488281 14.09375 L 71.605469 17.613281 C 72.398438 18.296875 72.75 19.609375 72.40625 20.957031 C 71.957031 22.695312 70.515625 23.828125 69.183594 23.484375 C 67.851562 23.144531 67.136719 21.457031 67.582031 19.71875 C 67.855469 18.648438 68.707031 17.578125 69.476562 17.167969 L 67.164062 15.148438 C 65.089844 21.636719 62.191406 25.964844 58.828125 29.03125 C 60.589844 29.523438 62.792969 28.636719 64.179688 28.804688 C 66.105469 29.035156 67.035156 30.390625 67.429688 31.726562 C 73.320312 26.6875 78.355469 19.039062 81.398438 6.5625 C 81.410156 6.515625 81.460938 6.484375 81.507812 6.496094 C 81.554688 6.507812 81.585938 6.558594 81.574219 6.605469 C 78.507812 19.179688 73.425781 26.863281 67.484375 31.921875 C 67.75 32.949219 67.707031 33.9375 67.570312 34.351562 C 67.488281 33.46875 67.324219 32.78125 67.097656 32.25 C 65.972656 33.179688 64.820312 34.015625 63.644531 34.78125 L 68.734375 40.476562 C 68.878906 40.636719 68.996094 40.824219 69.09375 41.027344 C 74.140625 38.351562 78.824219 34.605469 82.671875 28.980469 C 81.53125 26.152344 78.609375 26.132812 77.71875 26.738281 C 77.476562 26.914062 77.304688 27.132812 77.402344 27.339844 C 77.453125 27.449219 77.554688 27.496094 77.648438 27.515625 C 77.738281 27.535156 77.835938 27.53125 77.925781 27.5 C 79.007812 27.164062 80.125 27.570312 80.484375 28.46875 C 80.855469 29.402344 80.269531 30.519531 79.164062 30.992188 C 78.777344 31.175781 78.34375 31.261719 77.929688 31.230469 C 76.5 31.117188 75.457031 29.71875 75.46875 28.335938 C 75.4375 26.363281 77.453125 24.921875 79.335938 24.972656 C 80.871094 25.015625 82.511719 25.871094 83.460938 27.78125 C 83.714844 27.378906 83.964844 26.972656 84.207031 26.554688 C 83.992188 26.464844 83.8125 26.292969 83.71875 26.0625 C 83.53125 25.597656 83.753906 25.070312 84.21875 24.882812 C 84.515625 24.761719 84.839844 24.816406 85.082031 24.988281 C 86.382812 22.546875 87.550781 19.8125 88.554688 16.742188 C 88.574219 16.695312 88.625 16.671875 88.671875 16.6875 C 88.71875 16.703125 88.746094 16.753906 88.726562 16.800781 C 87.714844 19.894531 86.535156 22.652344 85.222656 25.113281 C 85.292969 25.191406 85.355469 25.28125 85.398438 25.382812 C 85.585938 25.847656 85.363281 26.375 84.898438 26.5625 C 84.730469 26.628906 84.554688 26.640625 84.390625 26.609375 C 84.117188 27.078125 83.839844 27.539062 83.558594 27.980469 C 83.730469 28.367188 83.882812 28.785156 83.996094 29.25 C 84.878906 32.402344 82.617188 36.085938 79.734375 37.742188 C 79.734375 37.742188 83.625 34.910156 82.976562 30.003906 C 82.917969 29.714844 82.839844 29.445312 82.75 29.195312 C 78.898438 34.792969 74.210938 38.527344 69.171875 41.199219 C 69.472656 41.964844 69.46875 42.945312 69.082031 43.898438 C 68.410156 45.5625 66.828125 46.492188 65.554688 45.976562 C 64.65625 45.609375 64.152344 44.621094 64.167969 43.488281 C 60.40625 44.976562 56.539062 46.046875 52.746094 47.003906 C 53.695312 48.101562 54.21875 49.769531 53.730469 51.90625 C 53.605469 52.546875 53.355469 53.152344 53.011719 53.707031 C 53.375 53.648438 53.734375 53.582031 54.097656 53.523438 C 57.550781 52.929688 61.027344 52.335938 64.40625 51.566406 C 64.191406 50.003906 65.449219 48.195312 67.515625 47.273438 C 69.878906 46.21875 72.402344 46.726562 73.152344 48.40625 C 73.222656 48.5625 73.273438 48.726562 73.308594 48.890625 C 80.484375 46.035156 86.507812 41.398438 89.8125 32.863281 C 89.832031 32.816406 89.882812 32.792969 89.929688 32.808594 C 89.976562 32.832031 90 32.882812 89.980469 32.929688 Z M 67.335938 13.964844 C 68.0625 11.5 68.671875 8.730469 69.152344 5.625 L 65.570312 2.5 C 65.570312 2.5 64.886719 6.269531 62.105469 9.496094 Z M 62.796875 35.316406 C 57.417969 38.613281 51.625 40.417969 46.128906 42.125 C 41.984375 43.414062 38.019531 44.652344 34.484375 46.425781 L 36.578125 51.429688 C 39.539062 50.214844 42.796875 49.296875 46.210938 48.433594 C 46.234375 48.027344 46.335938 47.621094 46.523438 47.261719 C 47.382812 45.484375 49.828125 45.105469 51.488281 45.996094 C 51.894531 46.210938 52.273438 46.5 52.605469 46.851562 C 56.445312 45.882812 60.363281 44.800781 64.175781 43.289062 C 64.203125 42.875 64.300781 42.449219 64.46875 42.027344 C 64.882812 41.007812 65.871094 40.054688 66.6875 39.753906 Z M 49.507812 47.621094 C 49.945312 47.511719 50.386719 47.402344 50.828125 47.296875 C 50.238281 46.941406 49.640625 46.792969 49.25 46.84375 C 48.957031 46.894531 48.703125 47.011719 48.695312 47.238281 C 48.695312 47.359375 48.765625 47.449219 48.839844 47.507812 C 48.910156 47.570312 49 47.605469 49.09375 47.621094 C 49.167969 47.632812 49.242188 47.648438 49.316406 47.667969 C 49.378906 47.648438 49.441406 47.632812 49.507812 47.621094 Z M 23.3125 64.808594 C 25.027344 59.542969 28.183594 55.789062 33.1875 53.03125 C 34 52.585938 34.847656 52.175781 35.71875 51.792969 L 33.667969 46.851562 C 32.75 47.347656 31.859375 47.878906 31.011719 48.46875 C 26.351562 51.695312 23.441406 56.070312 21.882812 62.207031 C 22.476562 63.003906 22.960938 63.882812 23.3125 64.808594 Z M 60.410156 31.167969 L 63.519531 34.644531 C 64.710938 33.871094 65.878906 33.023438 67.019531 32.078125 C 65.597656 29.164062 62.0625 31.535156 60.410156 31.167969 Z M 44.8125 27.929688 C 44.449219 28.148438 44.082031 28.359375 43.710938 28.566406 C 44.117188 28.628906 44.503906 28.695312 44.84375 28.785156 C 44.859375 28.46875 44.847656 28.1875 44.8125 27.929688 Z M 43.421875 28.523438 C 43.878906 28.269531 44.335938 28.003906 44.785156 27.738281 C 44.226562 24.667969 40.21875 25.835938 38.769531 25.003906 L 39.804688 27.28125 C 40.742188 28.128906 42.152344 28.332031 43.421875 28.523438 Z M 25.695312 39.390625 C 24.167969 40.933594 22.785156 42.746094 21.609375 44.925781 C 22.324219 44.996094 23.175781 44.820312 24.019531 44.367188 C 25.816406 43.402344 26.90625 41.574219 26.449219 40.277344 C 26.3125 39.886719 26.046875 39.585938 25.695312 39.390625 Z M 21.414062 44.898438 C 22.589844 42.695312 23.980469 40.863281 25.515625 39.304688 C 24.707031 38.949219 23.535156 39.054688 22.367188 39.679688 C 20.570312 40.640625 19.484375 42.472656 19.9375 43.765625 C 20.164062 44.390625 20.707031 44.777344 21.414062 44.898438 Z M 17.828125 58.894531 C 18.25 59.082031 18.667969 59.300781 19.078125 59.566406 C 19.304688 59.714844 19.523438 59.871094 19.738281 60.03125 C 21.363281 52.464844 24.222656 47.171875 28.6875 43.453125 C 31.671875 40.960938 35.027344 39.453125 38.597656 38.183594 C 38.726562 37.632812 38.992188 37.078125 39.402344 36.582031 C 40.101562 35.730469 41.328125 35.117188 42.199219 35.070312 L 40.148438 30.433594 C 39.527344 30.738281 38.90625 31.042969 38.292969 31.339844 C 34.148438 33.351562 29.945312 35.394531 26.417969 38.6875 C 27.386719 39.925781 27.21875 42.117188 25.910156 43.953125 C 24.574219 45.828125 22.503906 46.703125 21.007812 46.121094 C 19.421875 49.457031 18.300781 53.609375 17.828125 58.894531 Z M 6.746094 51.632812 C 7.050781 52.386719 7.359375 53.144531 7.667969 53.90625 C 8.015625 53.128906 8.335938 52.347656 8.578125 51.535156 C 8.734375 50.925781 8.808594 50.265625 8.769531 49.644531 C 8.707031 48.195312 7.890625 46.804688 6.601562 46.125 C 6.082031 45.84375 5.433594 45.636719 4.875 45.761719 C 4.871094 45.761719 4.867188 45.765625 4.863281 45.765625 C 4.851562 45.886719 4.871094 46.046875 4.886719 46.1875 C 4.960938 46.660156 5.089844 47.113281 5.242188 47.59375 C 5.675781 48.9375 6.222656 50.300781 6.746094 51.632812 Z M 14.535156 74.160156 L 9.652344 62.96875 C 9.128906 63.546875 8.691406 64.203125 8.375 64.902344 C 7.933594 65.910156 7.714844 67.042969 8.011719 68.105469 C 8.347656 69.175781 9.144531 70.101562 10.195312 70.527344 C 10.507812 70.65625 10.839844 70.753906 11.175781 70.792969 C 11.566406 70.855469 11.539062 71.429688 11.144531 71.453125 C 8.554688 71.546875 6.375 69.277344 6.34375 66.726562 C 6.289062 65.054688 6.859375 63.449219 7.765625 62.074219 C 8.054688 61.636719 8.375 61.234375 8.71875 60.867188 C 8.648438 60.722656 8.582031 60.574219 8.515625 60.429688 C 8.273438 59.910156 8.046875 59.332031 7.8125 58.753906 L 7.292969 57.5625 C 5.433594 61.082031 3.796875 64.914062 4.539062 68.914062 C 4.769531 70.085938 5.246094 71.171875 5.875 72.15625 C 5.945312 72.265625 6.019531 72.371094 6.09375 72.476562 C 8.234375 74.882812 11.507812 75.230469 14.535156 74.160156 Z M 14.167969 60.835938 C 13.007812 60.824219 11.90625 61.207031 10.953125 61.84375 L 16.011719 73.4375 C 16.011719 73.4375 18.238281 72.667969 19.792969 69.511719 C 21.53125 65.765625 18.363281 60.867188 14.167969 60.835938 Z M 21.746094 62.023438 C 23.320312 55.917969 26.246094 51.550781 30.910156 48.320312 C 31.769531 47.722656 32.667969 47.183594 33.597656 46.683594 L 31.917969 42.628906 L 32.753906 42.28125 L 34.414062 46.257812 C 37.957031 44.480469 41.929688 43.242188 46.074219 41.953125 C 51.546875 40.25 57.316406 38.453125 62.671875 35.175781 L 57.957031 29.789062 C 53.734375 33.296875 48.863281 35.011719 44.015625 36.582031 C 44.328125 37.515625 44.066406 38.742188 43.246094 39.742188 C 42.105469 41.128906 40.320312 41.542969 39.257812 40.671875 C 38.628906 40.152344 38.398438 39.292969 38.550781 38.390625 C 35.035156 39.644531 31.734375 41.144531 28.796875 43.589844 C 24.351562 47.296875 21.503906 52.582031 19.894531 60.152344 C 20.585938 60.699219 21.210938 61.328125 21.746094 62.023438 Z M 33.289062 59.199219 C 33.292969 58.410156 33.617188 57.539062 34.257812 56.808594 C 34.984375 55.980469 36.324219 55.367188 37.195312 55.34375 L 35.789062 51.960938 C 34.921875 52.339844 34.082031 52.746094 33.273438 53.191406 C 28.242188 55.960938 25.097656 59.75 23.414062 65.082031 C 23.765625 66.097656 23.964844 67.164062 23.980469 68.25 C 23.984375 68.675781 23.957031 69.09375 23.902344 69.507812 C 25.8125 64.640625 29.121094 61.441406 33.289062 59.199219 Z M 51.566406 53.960938 C 51.921875 53.425781 52.238281 52.816406 52.480469 52.121094 C 53.125 49.742188 52.144531 48.203125 51.03125 47.429688 C 50.566406 47.546875 50.097656 47.660156 49.632812 47.773438 C 50.460938 48.105469 51.007812 48.835938 50.9375 49.632812 C 50.851562 50.636719 49.824219 51.371094 48.625 51.296875 C 48.199219 51.285156 47.773438 51.167969 47.417969 50.953125 C 46.609375 50.460938 46.203125 49.542969 46.203125 48.625 C 42.8125 49.480469 39.582031 50.394531 36.644531 51.597656 L 38.796875 56.742188 C 38.8125 56.785156 38.824219 56.824219 38.839844 56.867188 C 42.753906 55.582031 47.09375 54.742188 51.566406 53.960938 Z M 65.394531 51.335938 C 67.777344 50.761719 70.105469 50.09375 72.332031 49.265625 C 71.851562 48.492188 70.742188 47.933594 69.351562 47.875 C 67.3125 47.792969 65.445312 48.816406 65.183594 50.164062 C 65.097656 50.582031 65.183594 50.980469 65.394531 51.335938 Z M 72.417969 49.429688 C 70.195312 50.253906 67.878906 50.925781 65.503906 51.496094 C 66.023438 52.203125 67.082031 52.699219 68.390625 52.753906 C 70.429688 52.835938 72.292969 51.8125 72.558594 50.46875 C 72.632812 50.101562 72.574219 49.75 72.417969 49.429688 Z M 72.417969 49.429688 " fill-opacity="1" fill-rule="nonzero"/></svg>