<svg xmlns="http://www.w3.org/2000/svg" xmlns:xlink="http://www.w3.org/1999/xlink" width="40" zoomAndPan="magnify" viewBox="0 0 30 30.000001" height="40" preserveAspectRatio="xMidYMid meet" version="1.0"><defs><clipPath id="f26ec116b3"><path d="M 9 0.65625 L 29.460938 0.65625 L 29.460938 24 L 9 24 Z M 9 0.65625 " clip-rule="nonzero"/></clipPath><clipPath id="fd7bce2103"><path d="M 0.484375 9 L 19 9 L 19 22 L 0.484375 22 Z M 0.484375 9 " clip-rule="nonzero"/></clipPath><clipPath id="7411cf39bb"><path d="M 11 26 L 14 26 L 14 28.234375 L 11 28.234375 Z M 11 26 " clip-rule="nonzero"/></clipPath><clipPath id="635b6a7d89"><path d="M 12 26 L 16 26 L 16 28.234375 L 12 28.234375 Z M 12 26 " clip-rule="nonzero"/></clipPath></defs><path fill="#ffd7e9" d="M 10.136719 27.113281 L 11.261719 27.710938 L 12.953125 26.304688 L 12.492188 24.984375 C 12.492188 24.988281 10.117188 27.027344 10.136719 27.113281 Z M 10.136719 27.113281 " fill-opacity="1" fill-rule="evenodd"/><path fill="#000000" d="M 10.054688 27.132812 C 10.054688 27.117188 10.050781 27.097656 10.0625 27.074219 C 10.070312 27.054688 10.09375 27.023438 10.140625 26.976562 C 10.511719 26.582031 12.441406 24.925781 12.441406 24.925781 C 12.460938 24.90625 12.488281 24.898438 12.515625 24.90625 C 12.542969 24.914062 12.5625 24.933594 12.570312 24.960938 L 13.03125 26.277344 C 13.042969 26.3125 13.035156 26.347656 13.007812 26.371094 L 11.3125 27.773438 C 11.289062 27.792969 11.25 27.800781 11.222656 27.785156 L 10.097656 27.1875 C 10.074219 27.175781 10.058594 27.15625 10.054688 27.132812 Z M 10.261719 27.085938 L 11.25 27.613281 L 12.859375 26.277344 L 12.457031 25.128906 C 12.117188 25.417969 10.941406 26.4375 10.429688 26.917969 C 10.359375 26.988281 10.296875 27.046875 10.261719 27.085938 Z M 10.261719 27.085938 " fill-opacity="1" fill-rule="evenodd"/><path fill="#ffd7e9" d="M 27.746094 3.765625 L 24.664062 23.058594 L 11.65625 20.984375 L 14.738281 1.695312 Z M 27.746094 3.765625 " fill-opacity="1" fill-rule="evenodd"/><path fill="#000000" d="M 27.828125 3.78125 L 24.746094 23.070312 C 24.738281 23.117188 24.695312 23.144531 24.652344 23.140625 L 11.640625 21.0625 C 11.597656 21.054688 11.566406 21.015625 11.574219 20.96875 L 14.660156 1.679688 C 14.664062 1.636719 14.707031 1.605469 14.753906 1.613281 L 27.761719 3.6875 C 27.804688 3.695312 27.835938 3.734375 27.828125 3.78125 Z M 27.652344 3.835938 L 14.808594 1.789062 L 11.75 20.914062 L 24.59375 22.964844 Z M 27.652344 3.835938 " fill-opacity="1" fill-rule="evenodd"/><g clip-path="url(#f26ec116b3)"><path fill="#fefefe" d="M 29.367188 5.902344 L 21.714844 23.878906 L 9.589844 18.730469 L 17.246094 0.753906 Z M 29.367188 5.902344 " fill-opacity="1" fill-rule="evenodd"/><path fill="#000000" d="M 29.441406 5.933594 L 21.789062 23.910156 C 21.769531 23.953125 21.722656 23.972656 21.679688 23.953125 L 9.558594 18.804688 C 9.515625 18.789062 9.496094 18.738281 9.515625 18.699219 L 17.171875 0.722656 C 17.1875 0.679688 17.234375 0.660156 17.277344 0.679688 L 29.398438 5.824219 C 29.441406 5.84375 29.460938 5.890625 29.441406 5.933594 Z M 29.261719 5.945312 L 17.289062 0.859375 L 9.699219 18.6875 L 21.671875 23.769531 Z M 29.261719 5.945312 " fill-opacity="1" fill-rule="evenodd"/></g><path fill="#000000" d="M 19.179688 6.542969 L 18.488281 6.285156 C 18.386719 6.246094 18.324219 6.199219 18.300781 6.136719 C 18.273438 6.078125 18.277344 5.996094 18.316406 5.898438 L 18.953125 4.199219 C 18.992188 4.097656 19.039062 4.035156 19.101562 4.007812 C 19.164062 3.980469 19.242188 3.984375 19.339844 4.023438 L 20.074219 4.296875 C 20.179688 4.339844 20.273438 4.378906 20.347656 4.421875 C 20.421875 4.464844 20.484375 4.519531 20.53125 4.582031 C 20.574219 4.632812 20.605469 4.691406 20.628906 4.753906 C 20.652344 4.820312 20.664062 4.886719 20.660156 4.953125 C 20.660156 5.019531 20.648438 5.085938 20.625 5.152344 C 20.539062 5.378906 20.363281 5.5 20.097656 5.523438 C 20.359375 5.726562 20.4375 5.96875 20.335938 6.242188 C 20.289062 6.367188 20.214844 6.46875 20.113281 6.546875 C 20.007812 6.625 19.894531 6.664062 19.765625 6.671875 C 19.683594 6.675781 19.597656 6.664062 19.503906 6.644531 C 19.40625 6.621094 19.300781 6.589844 19.179688 6.542969 Z M 19.523438 5.527344 L 19.046875 5.347656 L 18.796875 6.007812 L 19.289062 6.195312 C 19.601562 6.308594 19.796875 6.257812 19.882812 6.03125 C 19.925781 5.917969 19.914062 5.820312 19.851562 5.738281 C 19.792969 5.660156 19.683594 5.585938 19.523438 5.527344 Z M 19.386719 4.433594 L 19.167969 5.019531 L 19.589844 5.175781 C 19.703125 5.21875 19.796875 5.242188 19.867188 5.246094 C 19.9375 5.246094 20 5.222656 20.054688 5.175781 C 20.097656 5.140625 20.128906 5.097656 20.148438 5.042969 C 20.191406 4.929688 20.179688 4.839844 20.113281 4.769531 C 20.046875 4.703125 19.929688 4.636719 19.761719 4.574219 Z M 19.386719 4.433594 " fill-opacity="1" fill-rule="nonzero"/><path fill="#000000" d="M 20.597656 6.800781 L 21.269531 5.019531 C 21.304688 4.925781 21.351562 4.863281 21.410156 4.832031 C 21.46875 4.804688 21.53125 4.800781 21.597656 4.824219 C 21.667969 4.851562 21.714844 4.894531 21.742188 4.957031 C 21.765625 5.019531 21.761719 5.097656 21.726562 5.191406 L 21.058594 6.972656 C 21.023438 7.066406 20.976562 7.128906 20.914062 7.160156 C 20.855469 7.191406 20.789062 7.191406 20.71875 7.167969 C 20.652344 7.140625 20.609375 7.097656 20.582031 7.035156 C 20.558594 6.972656 20.5625 6.894531 20.597656 6.800781 Z M 20.597656 6.800781 " fill-opacity="1" fill-rule="nonzero"/><path fill="#000000" d="M 22.691406 5.550781 L 22.070312 7.199219 L 23.003906 7.546875 C 23.078125 7.574219 23.128906 7.613281 23.152344 7.664062 C 23.179688 7.714844 23.179688 7.769531 23.160156 7.820312 C 23.140625 7.878906 23.105469 7.914062 23.050781 7.933594 C 23 7.957031 22.9375 7.949219 22.859375 7.921875 L 21.753906 7.507812 C 21.652344 7.46875 21.589844 7.421875 21.5625 7.359375 C 21.535156 7.300781 21.539062 7.21875 21.578125 7.121094 L 22.230469 5.378906 C 22.265625 5.285156 22.3125 5.222656 22.371094 5.191406 C 22.433594 5.164062 22.496094 5.160156 22.5625 5.183594 C 22.632812 5.210938 22.679688 5.253906 22.707031 5.316406 C 22.730469 5.378906 22.726562 5.457031 22.691406 5.550781 Z M 22.691406 5.550781 " fill-opacity="1" fill-rule="nonzero"/><path fill="#000000" d="M 24.601562 6.269531 L 23.984375 7.914062 L 24.914062 8.261719 C 24.988281 8.289062 25.039062 8.332031 25.0625 8.378906 C 25.089844 8.429688 25.09375 8.484375 25.070312 8.539062 C 25.050781 8.59375 25.015625 8.632812 24.960938 8.652344 C 24.910156 8.671875 24.847656 8.667969 24.773438 8.640625 L 23.664062 8.222656 C 23.5625 8.1875 23.5 8.136719 23.472656 8.078125 C 23.445312 8.015625 23.449219 7.9375 23.488281 7.839844 L 24.144531 6.097656 C 24.175781 6.003906 24.222656 5.941406 24.285156 5.910156 C 24.34375 5.878906 24.40625 5.878906 24.476562 5.902344 C 24.542969 5.929688 24.589844 5.972656 24.617188 6.035156 C 24.640625 6.097656 24.636719 6.175781 24.601562 6.269531 Z M 24.601562 6.269531 " fill-opacity="1" fill-rule="nonzero"/><path fill="#000000" d="M 15.699219 6.957031 C 15.65625 6.9375 15.640625 6.890625 15.65625 6.847656 C 15.675781 6.808594 15.722656 6.789062 15.765625 6.804688 L 21.839844 9.382812 C 21.878906 9.402344 21.898438 9.449219 21.882812 9.492188 C 21.863281 9.535156 21.816406 9.550781 21.773438 9.535156 Z M 15.699219 6.957031 " fill-opacity="1" fill-rule="evenodd"/><path fill="#000000" d="M 13.910156 11.164062 C 13.867188 11.144531 13.847656 11.097656 13.863281 11.054688 C 13.882812 11.015625 13.929688 10.996094 13.972656 11.011719 L 20.046875 13.589844 C 20.089844 13.609375 20.105469 13.65625 20.089844 13.699219 C 20.070312 13.742188 20.023438 13.761719 19.980469 13.742188 Z M 13.910156 11.164062 " fill-opacity="1" fill-rule="evenodd"/><path fill="#000000" d="M 12.128906 15.34375 C 12.085938 15.324219 12.066406 15.277344 12.085938 15.234375 C 12.101562 15.191406 12.152344 15.175781 12.195312 15.191406 L 18.269531 17.769531 C 18.308594 17.789062 18.328125 17.835938 18.3125 17.878906 C 18.292969 17.917969 18.246094 17.9375 18.203125 17.921875 Z M 12.128906 15.34375 " fill-opacity="1" fill-rule="evenodd"/><path fill="#000000" d="M 14.769531 9.136719 C 14.726562 9.121094 14.710938 9.070312 14.726562 9.03125 C 14.746094 8.988281 14.792969 8.96875 14.835938 8.988281 L 20.910156 11.566406 C 20.953125 11.582031 20.96875 11.632812 20.953125 11.671875 C 20.933594 11.714844 20.886719 11.734375 20.84375 11.714844 Z M 14.769531 9.136719 " fill-opacity="1" fill-rule="evenodd"/><path fill="#000000" d="M 12.980469 13.347656 C 12.9375 13.328125 12.917969 13.28125 12.9375 13.238281 C 12.953125 13.195312 13.003906 13.179688 13.042969 13.195312 L 19.117188 15.773438 C 19.160156 15.792969 19.179688 15.839844 19.160156 15.878906 C 19.144531 15.921875 19.09375 15.941406 19.054688 15.921875 Z M 12.980469 13.347656 " fill-opacity="1" fill-rule="evenodd"/><path fill="#000000" d="M 11.199219 17.523438 C 11.15625 17.507812 11.140625 17.457031 11.15625 17.417969 C 11.175781 17.375 11.222656 17.355469 11.261719 17.375 L 17.335938 19.953125 C 17.378906 19.96875 17.398438 20.019531 17.378906 20.058594 C 17.363281 20.101562 17.316406 20.121094 17.273438 20.101562 Z M 11.199219 17.523438 " fill-opacity="1" fill-rule="evenodd"/><path fill="#000000" d="M 22.476562 9.832031 C 22.433594 9.816406 22.414062 9.765625 22.433594 9.726562 C 22.449219 9.683594 22.496094 9.664062 22.539062 9.679688 L 25.742188 10.960938 C 25.785156 10.980469 25.804688 11.027344 25.789062 11.070312 C 25.769531 11.109375 25.722656 11.132812 25.679688 11.113281 Z M 22.476562 9.832031 " fill-opacity="1" fill-rule="evenodd"/><path fill="#000000" d="M 20.6875 14.039062 C 20.644531 14.023438 20.621094 13.976562 20.640625 13.933594 C 20.65625 13.890625 20.707031 13.871094 20.746094 13.890625 L 23.949219 15.171875 C 23.992188 15.1875 24.011719 15.234375 23.996094 15.277344 C 23.980469 15.320312 23.929688 15.339844 23.890625 15.324219 Z M 20.6875 14.039062 " fill-opacity="1" fill-rule="evenodd"/><path fill="#000000" d="M 18.90625 18.21875 C 18.863281 18.203125 18.84375 18.15625 18.859375 18.113281 C 18.875 18.070312 18.925781 18.050781 18.96875 18.066406 L 22.171875 19.347656 C 22.210938 19.367188 22.234375 19.414062 22.214844 19.457031 C 22.199219 19.5 22.148438 19.519531 22.109375 19.5 Z M 18.90625 18.21875 " fill-opacity="1" fill-rule="evenodd"/><path fill="#000000" d="M 21.546875 12.015625 C 21.503906 12 21.484375 11.949219 21.5 11.910156 C 21.519531 11.867188 21.566406 11.847656 21.609375 11.863281 L 24.8125 13.144531 C 24.855469 13.164062 24.875 13.210938 24.855469 13.253906 C 24.839844 13.292969 24.792969 13.316406 24.75 13.296875 Z M 21.546875 12.015625 " fill-opacity="1" fill-rule="evenodd"/><path fill="#000000" d="M 19.753906 16.222656 C 19.714844 16.207031 19.691406 16.160156 19.710938 16.117188 C 19.726562 16.074219 19.773438 16.054688 19.816406 16.070312 L 23.019531 17.351562 C 23.0625 17.371094 23.082031 17.417969 23.066406 17.460938 C 23.046875 17.5 23 17.523438 22.957031 17.503906 Z M 19.753906 16.222656 " fill-opacity="1" fill-rule="evenodd"/><path fill="#000000" d="M 17.976562 20.402344 C 17.933594 20.386719 17.914062 20.339844 17.929688 20.296875 C 17.945312 20.253906 17.996094 20.234375 18.039062 20.25 L 21.242188 21.53125 C 21.28125 21.550781 21.300781 21.597656 21.285156 21.640625 C 21.269531 21.679688 21.222656 21.703125 21.179688 21.683594 Z M 17.976562 20.402344 " fill-opacity="1" fill-rule="evenodd"/><g clip-path="url(#fd7bce2103)"><path fill="#a3dd8a" d="M 16.570312 10.164062 L 18.085938 17.667969 C 18.179688 18.144531 17.871094 18.609375 17.394531 18.707031 L 3.171875 21.570312 C 2.695312 21.667969 2.226562 21.359375 2.128906 20.878906 L 0.613281 13.378906 C 0.519531 12.898438 0.828125 12.433594 1.308594 12.335938 L 15.527344 9.472656 C 16.007812 9.378906 16.472656 9.6875 16.570312 10.164062 Z M 16.570312 10.164062 " fill-opacity="1" fill-rule="evenodd"/><path fill="#000000" d="M 16.648438 10.148438 L 18.164062 17.648438 C 18.273438 18.171875 17.929688 18.679688 17.410156 18.785156 L 3.1875 21.652344 C 2.664062 21.757812 2.15625 21.417969 2.050781 20.894531 L 0.535156 13.394531 C 0.429688 12.871094 0.769531 12.363281 1.289062 12.257812 L 15.511719 9.394531 C 16.035156 9.289062 16.542969 9.625 16.648438 10.148438 Z M 16.488281 10.179688 C 16.402344 9.746094 15.976562 9.464844 15.542969 9.554688 L 1.324219 12.417969 C 0.890625 12.503906 0.609375 12.925781 0.695312 13.359375 L 2.210938 20.863281 C 2.296875 21.296875 2.722656 21.578125 3.15625 21.488281 L 17.375 18.625 C 17.808594 18.539062 18.089844 18.117188 18.003906 17.683594 Z M 16.488281 10.179688 " fill-opacity="1" fill-rule="evenodd"/></g><path fill="#ffcb6f" d="M 4.53125 16.195312 L 4.839844 17.746094 L 2.570312 18.191406 L 2.265625 16.644531 Z M 4.53125 16.195312 " fill-opacity="1" fill-rule="evenodd"/><path fill="#000000" d="M 4.613281 16.179688 L 4.917969 17.730469 C 4.925781 17.773438 4.898438 17.816406 4.855469 17.824219 L 2.585938 18.273438 C 2.542969 18.28125 2.5 18.253906 2.492188 18.207031 L 2.1875 16.660156 C 2.175781 16.613281 2.207031 16.570312 2.25 16.5625 L 4.515625 16.117188 C 4.5625 16.109375 4.605469 16.136719 4.613281 16.179688 Z M 4.46875 16.292969 L 2.363281 16.707031 L 2.636719 18.097656 L 4.742188 17.679688 Z M 4.46875 16.292969 " fill-opacity="1" fill-rule="evenodd"/><path fill="#ffcb6f" d="M 7.058594 18.066406 L 7.253906 19.035156 L 2.894531 19.914062 L 2.695312 18.945312 Z M 7.058594 18.066406 " fill-opacity="1" fill-rule="evenodd"/><path fill="#000000" d="M 7.136719 18.050781 L 7.332031 19.015625 C 7.34375 19.0625 7.3125 19.105469 7.269531 19.113281 L 2.910156 19.992188 C 2.863281 20 2.820312 19.972656 2.8125 19.929688 L 2.617188 18.960938 C 2.609375 18.917969 2.636719 18.875 2.679688 18.863281 L 7.042969 17.984375 C 7.085938 17.976562 7.128906 18.003906 7.136719 18.050781 Z M 6.992188 18.164062 L 2.792969 19.007812 L 2.957031 19.816406 L 7.15625 18.96875 Z M 6.992188 18.164062 " fill-opacity="1" fill-rule="evenodd"/><path fill="#ffcb6f" d="M 11.941406 17.082031 L 12.136719 18.050781 L 7.777344 18.929688 L 7.582031 17.960938 Z M 11.941406 17.082031 " fill-opacity="1" fill-rule="evenodd"/><path fill="#000000" d="M 12.019531 17.066406 L 12.214844 18.035156 C 12.226562 18.078125 12.195312 18.121094 12.152344 18.132812 L 7.789062 19.011719 C 7.746094 19.019531 7.703125 18.988281 7.695312 18.945312 L 7.5 17.976562 C 7.488281 17.933594 7.519531 17.890625 7.5625 17.882812 L 11.921875 17.003906 C 11.96875 16.992188 12.011719 17.023438 12.019531 17.066406 Z M 11.875 17.179688 L 7.675781 18.023438 L 7.839844 18.832031 L 12.039062 17.988281 Z M 11.875 17.179688 " fill-opacity="1" fill-rule="evenodd"/><path fill="#ffcb6f" d="M 4.683594 16.964844 L 4.839844 17.746094 L 2.570312 18.191406 L 2.417969 17.414062 Z M 4.683594 16.964844 " fill-opacity="1" fill-rule="evenodd"/><path fill="#000000" d="M 4.765625 16.949219 L 4.921875 17.730469 C 4.929688 17.773438 4.898438 17.816406 4.855469 17.824219 L 2.589844 18.273438 C 2.542969 18.28125 2.5 18.253906 2.492188 18.207031 L 2.339844 17.429688 C 2.328125 17.382812 2.359375 17.339844 2.402344 17.332031 L 4.667969 16.882812 C 4.714844 16.875 4.757812 16.90625 4.765625 16.949219 Z M 4.621094 17.0625 L 2.511719 17.476562 L 2.636719 18.097656 L 4.742188 17.679688 Z M 4.621094 17.0625 " fill-opacity="1" fill-rule="evenodd"/><path fill="#ffcb6f" d="M 3.753906 16.351562 L 4.058594 17.898438 L 3.375 18.035156 L 3.070312 16.484375 Z M 3.753906 16.351562 " fill-opacity="1" fill-rule="evenodd"/><path fill="#000000" d="M 3.832031 16.335938 L 4.140625 17.882812 C 4.148438 17.925781 4.121094 17.972656 4.074219 17.980469 L 3.390625 18.113281 C 3.347656 18.121094 3.304688 18.09375 3.296875 18.046875 L 2.988281 16.5 C 2.980469 16.457031 3.007812 16.414062 3.054688 16.402344 L 3.738281 16.269531 C 3.78125 16.261719 3.824219 16.289062 3.832031 16.335938 Z M 3.6875 16.445312 L 3.167969 16.550781 L 3.441406 17.9375 L 3.964844 17.835938 Z M 3.6875 16.445312 " fill-opacity="1" fill-rule="evenodd"/><path fill="#000000" d="M 1.890625 15.117188 L 1.886719 15.117188 L 1.890625 15.113281 Z M 1.890625 15.117188 " fill-opacity="1" fill-rule="nonzero"/><path fill="#000000" d="M 1.890625 15.117188 L 1.890625 15.113281 L 1.890625 15.117188 C 1.894531 15.117188 1.894531 15.117188 1.890625 15.117188 C 1.894531 15.117188 1.894531 15.117188 1.890625 15.117188 Z M 1.890625 15.117188 Z M 1.890625 15.117188 " fill-opacity="1" fill-rule="nonzero"/><path fill="#000000" d="M 2.875 14.558594 C 2.882812 14.59375 2.878906 14.632812 2.871094 14.679688 C 2.863281 14.722656 2.84375 14.765625 2.816406 14.8125 C 2.785156 14.859375 2.746094 14.898438 2.695312 14.9375 C 2.640625 14.972656 2.578125 14.996094 2.5 15.011719 C 2.445312 15.023438 2.390625 15.027344 2.339844 15.027344 C 2.292969 15.027344 2.246094 15.015625 2.203125 15.003906 C 2.160156 14.988281 2.117188 14.964844 2.078125 14.933594 C 2.042969 14.902344 2.011719 14.871094 1.980469 14.832031 C 1.953125 14.792969 1.929688 14.75 1.910156 14.707031 C 1.890625 14.660156 1.875 14.609375 1.863281 14.554688 C 1.84375 14.46875 1.839844 14.386719 1.855469 14.3125 C 1.867188 14.238281 1.890625 14.171875 1.925781 14.113281 C 1.964844 14.054688 2.011719 14.003906 2.070312 13.964844 C 2.128906 13.925781 2.195312 13.902344 2.269531 13.886719 C 2.355469 13.867188 2.4375 13.871094 2.515625 13.890625 C 2.589844 13.914062 2.652344 13.945312 2.699219 13.988281 C 2.746094 14.035156 2.773438 14.078125 2.785156 14.125 C 2.789062 14.152344 2.785156 14.175781 2.769531 14.199219 C 2.757812 14.21875 2.738281 14.234375 2.710938 14.238281 C 2.683594 14.246094 2.660156 14.242188 2.644531 14.234375 C 2.628906 14.222656 2.609375 14.203125 2.585938 14.171875 C 2.542969 14.125 2.503906 14.089844 2.457031 14.074219 C 2.414062 14.054688 2.363281 14.050781 2.304688 14.0625 C 2.214844 14.082031 2.152344 14.128906 2.109375 14.207031 C 2.070312 14.289062 2.0625 14.390625 2.089844 14.519531 C 2.105469 14.601562 2.132812 14.671875 2.167969 14.722656 C 2.203125 14.773438 2.246094 14.808594 2.292969 14.828125 C 2.34375 14.847656 2.398438 14.851562 2.457031 14.839844 C 2.519531 14.824219 2.570312 14.800781 2.605469 14.757812 C 2.644531 14.71875 2.667969 14.667969 2.675781 14.601562 C 2.679688 14.570312 2.6875 14.542969 2.699219 14.523438 C 2.707031 14.503906 2.730469 14.488281 2.761719 14.484375 C 2.785156 14.476562 2.8125 14.480469 2.832031 14.496094 C 2.855469 14.511719 2.867188 14.535156 2.875 14.558594 Z M 2.875 14.558594 " fill-opacity="1" fill-rule="nonzero"/><path fill="#000000" d="M 3.34375 14.339844 L 3.265625 14.355469 L 3.339844 14.703125 C 3.347656 14.75 3.34375 14.785156 3.328125 14.8125 C 3.3125 14.835938 3.289062 14.851562 3.253906 14.859375 C 3.21875 14.867188 3.191406 14.859375 3.167969 14.84375 C 3.144531 14.824219 3.125 14.792969 3.117188 14.746094 L 2.949219 13.910156 C 2.9375 13.863281 2.941406 13.824219 2.960938 13.800781 C 2.976562 13.773438 3.007812 13.757812 3.058594 13.746094 L 3.414062 13.675781 C 3.464844 13.664062 3.507812 13.660156 3.542969 13.65625 C 3.578125 13.652344 3.613281 13.65625 3.644531 13.664062 C 3.679688 13.671875 3.714844 13.683594 3.746094 13.707031 C 3.777344 13.726562 3.804688 13.753906 3.824219 13.789062 C 3.847656 13.820312 3.859375 13.855469 3.867188 13.894531 C 3.882812 13.976562 3.875 14.046875 3.839844 14.105469 C 3.800781 14.160156 3.738281 14.210938 3.652344 14.25 C 3.695312 14.261719 3.738281 14.285156 3.78125 14.320312 C 3.824219 14.351562 3.867188 14.390625 3.902344 14.429688 C 3.941406 14.46875 3.96875 14.507812 3.992188 14.539062 C 4.015625 14.574219 4.03125 14.597656 4.03125 14.613281 C 4.035156 14.625 4.035156 14.640625 4.027344 14.65625 C 4.019531 14.671875 4.011719 14.6875 3.996094 14.699219 C 3.980469 14.707031 3.964844 14.714844 3.941406 14.722656 C 3.917969 14.726562 3.898438 14.722656 3.875 14.714844 C 3.859375 14.707031 3.839844 14.695312 3.824219 14.679688 C 3.808594 14.664062 3.785156 14.644531 3.757812 14.613281 L 3.640625 14.484375 C 3.597656 14.4375 3.5625 14.402344 3.53125 14.378906 C 3.5 14.355469 3.46875 14.339844 3.441406 14.335938 C 3.417969 14.328125 3.382812 14.332031 3.34375 14.339844 Z M 3.378906 13.855469 L 3.175781 13.894531 L 3.234375 14.195312 L 3.433594 14.15625 C 3.484375 14.144531 3.53125 14.132812 3.566406 14.117188 C 3.597656 14.097656 3.621094 14.078125 3.636719 14.050781 C 3.652344 14.027344 3.65625 13.992188 3.648438 13.953125 C 3.640625 13.925781 3.628906 13.898438 3.609375 13.878906 C 3.589844 13.859375 3.5625 13.847656 3.535156 13.839844 C 3.507812 13.835938 3.453125 13.839844 3.378906 13.855469 Z M 3.378906 13.855469 " fill-opacity="1" fill-rule="nonzero"/><path fill="#000000" d="M 4.769531 13.582031 L 4.273438 13.679688 L 4.324219 13.949219 L 4.785156 13.855469 C 4.816406 13.847656 4.84375 13.851562 4.863281 13.863281 C 4.882812 13.875 4.894531 13.894531 4.902344 13.917969 C 4.90625 13.941406 4.902344 13.964844 4.890625 13.984375 C 4.875 14.003906 4.851562 14.015625 4.820312 14.023438 L 4.359375 14.113281 L 4.421875 14.425781 L 4.9375 14.320312 C 4.972656 14.3125 5 14.316406 5.019531 14.328125 C 5.042969 14.339844 5.054688 14.363281 5.058594 14.390625 C 5.066406 14.414062 5.0625 14.4375 5.046875 14.457031 C 5.03125 14.476562 5.007812 14.492188 4.972656 14.496094 L 4.371094 14.617188 C 4.324219 14.628906 4.289062 14.625 4.261719 14.605469 C 4.238281 14.589844 4.21875 14.558594 4.210938 14.511719 L 4.042969 13.691406 C 4.039062 13.660156 4.039062 13.632812 4.042969 13.613281 C 4.050781 13.589844 4.058594 13.574219 4.078125 13.558594 C 4.097656 13.546875 4.121094 13.535156 4.152344 13.53125 L 4.734375 13.410156 C 4.769531 13.402344 4.796875 13.40625 4.820312 13.417969 C 4.839844 13.429688 4.851562 13.449219 4.855469 13.476562 C 4.863281 13.5 4.855469 13.523438 4.84375 13.542969 C 4.828125 13.558594 4.804688 13.574219 4.769531 13.582031 Z M 4.769531 13.582031 " fill-opacity="1" fill-rule="nonzero"/><path fill="#000000" d="M 5.171875 13.324219 L 5.457031 13.265625 C 5.535156 13.25 5.597656 13.242188 5.65625 13.246094 C 5.710938 13.25 5.765625 13.265625 5.816406 13.296875 C 5.949219 13.371094 6.035156 13.507812 6.074219 13.703125 C 6.089844 13.769531 6.09375 13.828125 6.09375 13.886719 C 6.09375 13.941406 6.085938 13.996094 6.070312 14.042969 C 6.054688 14.089844 6.035156 14.136719 6.003906 14.175781 C 5.976562 14.210938 5.949219 14.238281 5.921875 14.261719 C 5.886719 14.285156 5.855469 14.300781 5.816406 14.316406 C 5.777344 14.332031 5.730469 14.34375 5.683594 14.351562 L 5.394531 14.410156 C 5.355469 14.417969 5.324219 14.417969 5.300781 14.410156 C 5.277344 14.402344 5.261719 14.390625 5.25 14.367188 C 5.238281 14.347656 5.230469 14.320312 5.222656 14.285156 L 5.0625 13.488281 C 5.054688 13.4375 5.058594 13.402344 5.074219 13.378906 C 5.089844 13.351562 5.121094 13.332031 5.171875 13.324219 Z M 5.289062 13.480469 L 5.441406 14.21875 L 5.605469 14.183594 C 5.644531 14.175781 5.671875 14.171875 5.691406 14.164062 C 5.710938 14.15625 5.734375 14.148438 5.753906 14.136719 C 5.773438 14.125 5.792969 14.109375 5.804688 14.089844 C 5.867188 14.015625 5.882812 13.898438 5.851562 13.746094 C 5.828125 13.640625 5.796875 13.5625 5.753906 13.515625 C 5.710938 13.46875 5.664062 13.441406 5.613281 13.4375 C 5.5625 13.433594 5.503906 13.4375 5.4375 13.449219 Z M 5.289062 13.480469 " fill-opacity="1" fill-rule="nonzero"/><path fill="#000000" d="M 6.367188 14.09375 L 6.191406 13.238281 C 6.183594 13.191406 6.1875 13.15625 6.203125 13.132812 C 6.21875 13.105469 6.242188 13.089844 6.273438 13.082031 C 6.308594 13.074219 6.335938 13.082031 6.363281 13.097656 C 6.386719 13.117188 6.402344 13.148438 6.414062 13.191406 L 6.585938 14.050781 C 6.59375 14.097656 6.589844 14.132812 6.574219 14.15625 C 6.558594 14.183594 6.535156 14.199219 6.5 14.207031 C 6.46875 14.214844 6.441406 14.207031 6.417969 14.191406 C 6.390625 14.167969 6.375 14.140625 6.367188 14.09375 Z M 6.367188 14.09375 " fill-opacity="1" fill-rule="nonzero"/><path fill="#000000" d="M 7.382812 13.066406 L 7.140625 13.113281 L 7.300781 13.90625 C 7.308594 13.953125 7.304688 13.988281 7.289062 14.011719 C 7.273438 14.039062 7.25 14.054688 7.21875 14.0625 C 7.1875 14.070312 7.15625 14.0625 7.132812 14.042969 C 7.109375 14.027344 7.089844 13.996094 7.082031 13.949219 L 6.921875 13.160156 L 6.679688 13.207031 C 6.644531 13.214844 6.613281 13.214844 6.59375 13.199219 C 6.570312 13.1875 6.558594 13.167969 6.550781 13.140625 C 6.546875 13.109375 6.550781 13.085938 6.566406 13.066406 C 6.582031 13.046875 6.609375 13.03125 6.644531 13.023438 L 7.347656 12.882812 C 7.386719 12.875 7.414062 12.878906 7.4375 12.890625 C 7.460938 12.90625 7.472656 12.925781 7.480469 12.953125 C 7.484375 12.980469 7.480469 13.003906 7.464844 13.023438 C 7.445312 13.046875 7.421875 13.058594 7.382812 13.066406 Z M 7.382812 13.066406 " fill-opacity="1" fill-rule="nonzero"/><path fill="#000000" d="M 9.050781 13.316406 C 9.054688 13.351562 9.054688 13.390625 9.046875 13.433594 C 9.039062 13.480469 9.019531 13.523438 8.988281 13.570312 C 8.960938 13.617188 8.921875 13.65625 8.867188 13.691406 C 8.816406 13.726562 8.753906 13.753906 8.675781 13.769531 C 8.617188 13.78125 8.566406 13.785156 8.515625 13.785156 C 8.464844 13.78125 8.421875 13.773438 8.378906 13.757812 C 8.335938 13.742188 8.292969 13.71875 8.253906 13.6875 C 8.21875 13.660156 8.183594 13.628906 8.15625 13.589844 C 8.128906 13.550781 8.101562 13.507812 8.082031 13.464844 C 8.0625 13.417969 8.046875 13.367188 8.035156 13.3125 C 8.019531 13.226562 8.015625 13.144531 8.027344 13.070312 C 8.039062 12.996094 8.066406 12.929688 8.101562 12.871094 C 8.140625 12.8125 8.1875 12.761719 8.246094 12.722656 C 8.304688 12.683594 8.371094 12.660156 8.441406 12.644531 C 8.53125 12.625 8.613281 12.628906 8.6875 12.648438 C 8.765625 12.671875 8.828125 12.703125 8.875 12.746094 C 8.921875 12.792969 8.949219 12.835938 8.957031 12.882812 C 8.964844 12.910156 8.960938 12.933594 8.945312 12.957031 C 8.929688 12.976562 8.914062 12.992188 8.886719 12.996094 C 8.859375 13.003906 8.835938 13 8.820312 12.992188 C 8.804688 12.980469 8.78125 12.960938 8.757812 12.929688 C 8.71875 12.882812 8.675781 12.847656 8.632812 12.832031 C 8.589844 12.8125 8.539062 12.808594 8.480469 12.820312 C 8.390625 12.839844 8.324219 12.886719 8.285156 12.964844 C 8.246094 13.046875 8.238281 13.148438 8.265625 13.277344 C 8.28125 13.359375 8.308594 13.429688 8.34375 13.480469 C 8.378906 13.53125 8.421875 13.566406 8.46875 13.585938 C 8.519531 13.605469 8.574219 13.609375 8.632812 13.597656 C 8.695312 13.582031 8.746094 13.558594 8.78125 13.515625 C 8.820312 13.476562 8.84375 13.425781 8.851562 13.359375 C 8.855469 13.328125 8.863281 13.300781 8.875 13.28125 C 8.882812 13.261719 8.90625 13.246094 8.9375 13.242188 C 8.960938 13.234375 8.988281 13.238281 9.007812 13.253906 C 9.03125 13.269531 9.042969 13.289062 9.050781 13.316406 Z M 9.050781 13.316406 " fill-opacity="1" fill-rule="nonzero"/><path fill="#000000" d="M 9.988281 13.355469 L 9.910156 13.230469 L 9.464844 13.320312 L 9.441406 13.46875 C 9.433594 13.527344 9.421875 13.570312 9.414062 13.589844 C 9.402344 13.613281 9.378906 13.625 9.347656 13.632812 C 9.320312 13.636719 9.292969 13.632812 9.269531 13.617188 C 9.242188 13.601562 9.226562 13.582031 9.222656 13.554688 C 9.21875 13.539062 9.21875 13.523438 9.21875 13.507812 C 9.222656 13.492188 9.226562 13.464844 9.230469 13.4375 L 9.367188 12.675781 C 9.371094 12.652344 9.375 12.625 9.378906 12.59375 C 9.386719 12.5625 9.390625 12.539062 9.402344 12.515625 C 9.410156 12.496094 9.421875 12.476562 9.441406 12.460938 C 9.460938 12.445312 9.484375 12.433594 9.515625 12.425781 C 9.546875 12.421875 9.574219 12.421875 9.59375 12.429688 C 9.617188 12.4375 9.640625 12.449219 9.652344 12.464844 C 9.671875 12.480469 9.683594 12.496094 9.699219 12.515625 C 9.710938 12.535156 9.726562 12.5625 9.75 12.59375 L 10.175781 13.238281 C 10.207031 13.289062 10.226562 13.324219 10.234375 13.351562 C 10.238281 13.375 10.230469 13.402344 10.214844 13.425781 C 10.199219 13.449219 10.175781 13.464844 10.144531 13.472656 C 10.128906 13.476562 10.113281 13.476562 10.097656 13.472656 C 10.085938 13.46875 10.074219 13.464844 10.0625 13.453125 C 10.050781 13.445312 10.039062 13.429688 10.027344 13.410156 C 10.011719 13.390625 10 13.371094 9.988281 13.355469 Z M 9.492188 13.140625 L 9.816406 13.078125 L 9.5625 12.660156 Z M 9.492188 13.140625 " fill-opacity="1" fill-rule="nonzero"/><path fill="#000000" d="M 10.617188 12.875 L 10.539062 12.890625 L 10.609375 13.238281 C 10.617188 13.285156 10.613281 13.320312 10.597656 13.347656 C 10.582031 13.375 10.558594 13.390625 10.527344 13.394531 C 10.492188 13.402344 10.460938 13.398438 10.4375 13.378906 C 10.414062 13.359375 10.398438 13.328125 10.386719 13.285156 L 10.21875 12.445312 C 10.210938 12.398438 10.214844 12.363281 10.230469 12.335938 C 10.246094 12.3125 10.28125 12.292969 10.328125 12.285156 L 10.6875 12.210938 C 10.734375 12.203125 10.777344 12.195312 10.8125 12.191406 C 10.851562 12.1875 10.882812 12.191406 10.914062 12.199219 C 10.949219 12.207031 10.988281 12.222656 11.015625 12.242188 C 11.050781 12.265625 11.074219 12.289062 11.097656 12.324219 C 11.117188 12.355469 11.132812 12.390625 11.140625 12.429688 C 11.15625 12.511719 11.144531 12.582031 11.109375 12.640625 C 11.074219 12.695312 11.011719 12.746094 10.921875 12.785156 C 10.964844 12.796875 11.007812 12.820312 11.050781 12.855469 C 11.097656 12.886719 11.136719 12.925781 11.175781 12.964844 C 11.210938 13.003906 11.242188 13.042969 11.265625 13.078125 C 11.289062 13.109375 11.300781 13.132812 11.304688 13.148438 C 11.304688 13.164062 11.304688 13.179688 11.296875 13.191406 C 11.292969 13.207031 11.28125 13.222656 11.265625 13.234375 C 11.253906 13.246094 11.234375 13.253906 11.214844 13.257812 C 11.191406 13.261719 11.167969 13.261719 11.148438 13.253906 C 11.128906 13.246094 11.109375 13.234375 11.097656 13.21875 C 11.082031 13.203125 11.058594 13.179688 11.03125 13.148438 L 10.914062 13.019531 C 10.871094 12.972656 10.832031 12.9375 10.800781 12.914062 C 10.769531 12.890625 10.742188 12.875 10.714844 12.871094 C 10.6875 12.863281 10.652344 12.867188 10.617188 12.875 Z M 10.648438 12.390625 L 10.445312 12.433594 L 10.507812 12.730469 L 10.703125 12.691406 C 10.757812 12.679688 10.800781 12.667969 10.835938 12.652344 C 10.871094 12.632812 10.894531 12.613281 10.910156 12.585938 C 10.921875 12.5625 10.925781 12.527344 10.917969 12.488281 C 10.914062 12.460938 10.898438 12.433594 10.878906 12.414062 C 10.859375 12.394531 10.835938 12.382812 10.804688 12.375 C 10.777344 12.371094 10.726562 12.375 10.648438 12.390625 Z M 10.648438 12.390625 " fill-opacity="1" fill-rule="nonzero"/><path fill="#000000" d="M 11.425781 12.0625 L 11.710938 12.007812 C 11.789062 11.992188 11.851562 11.984375 11.910156 11.988281 C 11.964844 11.992188 12.019531 12.007812 12.070312 12.035156 C 12.203125 12.109375 12.289062 12.246094 12.328125 12.445312 C 12.34375 12.511719 12.351562 12.570312 12.347656 12.625 C 12.347656 12.683594 12.339844 12.734375 12.324219 12.78125 C 12.308594 12.832031 12.289062 12.875 12.257812 12.917969 C 12.234375 12.949219 12.203125 12.976562 12.175781 13 C 12.140625 13.023438 12.109375 13.042969 12.070312 13.054688 C 12.03125 13.070312 11.988281 13.082031 11.9375 13.09375 L 11.648438 13.152344 C 11.609375 13.160156 11.578125 13.160156 11.554688 13.152344 C 11.53125 13.144531 11.515625 13.128906 11.503906 13.109375 C 11.492188 13.085938 11.484375 13.058594 11.476562 13.023438 L 11.316406 12.226562 C 11.304688 12.179688 11.3125 12.144531 11.328125 12.117188 C 11.34375 12.089844 11.378906 12.070312 11.425781 12.0625 Z M 11.546875 12.21875 L 11.695312 12.957031 L 11.863281 12.925781 C 11.898438 12.917969 11.929688 12.910156 11.949219 12.90625 C 11.96875 12.898438 11.988281 12.890625 12.011719 12.875 C 12.03125 12.863281 12.046875 12.847656 12.0625 12.832031 C 12.125 12.753906 12.136719 12.640625 12.105469 12.488281 C 12.085938 12.378906 12.050781 12.300781 12.007812 12.253906 C 11.964844 12.207031 11.917969 12.183594 11.871094 12.175781 C 11.820312 12.171875 11.761719 12.175781 11.691406 12.191406 Z M 11.546875 12.21875 " fill-opacity="1" fill-rule="nonzero"/><path fill="#ffcb6f" d="M 16.863281 16.125 L 17.050781 17.09375 L 12.683594 17.945312 L 12.496094 16.972656 Z M 16.863281 16.125 " fill-opacity="1" fill-rule="evenodd"/><path fill="#000000" d="M 16.941406 16.109375 L 17.128906 17.082031 C 17.140625 17.125 17.109375 17.167969 17.066406 17.175781 L 12.699219 18.023438 C 12.652344 18.03125 12.609375 18.003906 12.601562 17.960938 L 12.414062 16.988281 C 12.40625 16.945312 12.433594 16.902344 12.480469 16.894531 L 16.84375 16.046875 C 16.890625 16.035156 16.933594 16.066406 16.941406 16.109375 Z M 16.796875 16.222656 L 12.589844 17.039062 L 12.75 17.847656 L 16.953125 17.03125 Z M 16.796875 16.222656 " fill-opacity="1" fill-rule="evenodd"/><path fill="#ffd7e9" d="M 8.816406 18.621094 C 11.289062 18.621094 13.292969 20.625 13.292969 23.089844 C 13.292969 25.558594 11.289062 27.558594 8.816406 27.558594 C 6.347656 27.558594 4.339844 25.558594 4.339844 23.089844 C 4.339844 20.625 6.347656 18.621094 8.816406 18.621094 Z M 8.816406 18.621094 " fill-opacity="1" fill-rule="evenodd"/><path fill="#000000" d="M 8.816406 18.539062 C 11.332031 18.539062 13.375 20.578125 13.375 23.089844 C 13.375 25.601562 11.335938 27.640625 8.816406 27.640625 C 6.300781 27.640625 4.257812 25.601562 4.257812 23.089844 C 4.261719 20.578125 6.300781 18.539062 8.816406 18.539062 Z M 8.816406 18.703125 C 6.390625 18.703125 4.421875 20.667969 4.421875 23.089844 C 4.421875 25.511719 6.390625 27.480469 8.816406 27.480469 C 11.242188 27.480469 13.210938 25.511719 13.210938 23.089844 C 13.210938 20.667969 11.242188 18.703125 8.816406 18.703125 Z M 8.816406 18.703125 " fill-opacity="1" fill-rule="evenodd"/><g clip-path="url(#7411cf39bb)"><path fill="#000000" d="M 12.691406 26.53125 C 12.828125 26.589844 12.96875 26.683594 13.09375 26.800781 C 13.34375 27.039062 13.480469 27.328125 13.496094 27.585938 C 13.507812 27.765625 13.457031 27.933594 13.339844 28.050781 C 13.226562 28.171875 13.0625 28.230469 12.878906 28.230469 C 12.625 28.226562 12.328125 28.101562 12.082031 27.867188 C 11.832031 27.632812 11.695312 27.339844 11.679688 27.085938 C 11.667969 26.917969 11.710938 26.765625 11.804688 26.648438 C 11.832031 26.617188 11.894531 26.558594 11.957031 26.609375 C 12.011719 26.652344 11.972656 26.707031 11.949219 26.730469 C 11.867188 26.820312 11.835938 26.941406 11.84375 27.074219 C 11.855469 27.296875 11.980469 27.542969 12.191406 27.746094 C 12.40625 27.949219 12.660156 28.0625 12.882812 28.066406 C 13.015625 28.066406 13.136719 28.027344 13.222656 27.9375 C 13.304688 27.851562 13.339844 27.730469 13.332031 27.59375 C 13.320312 27.375 13.195312 27.125 12.980469 26.921875 C 12.84375 26.792969 12.691406 26.699219 12.539062 26.648438 C 12.589844 26.609375 12.640625 26.566406 12.691406 26.53125 Z M 12.691406 26.53125 " fill-opacity="1" fill-rule="evenodd"/></g><g clip-path="url(#635b6a7d89)"><path fill="#000000" d="M 13.773438 26.699219 C 14.097656 26.589844 14.417969 26.601562 14.652344 26.707031 C 14.820312 26.78125 14.941406 26.902344 14.996094 27.0625 C 15.050781 27.21875 15.027344 27.390625 14.941406 27.550781 C 14.820312 27.773438 14.570312 27.980469 14.25 28.089844 C 13.925781 28.203125 13.601562 28.1875 13.371094 28.085938 C 13.203125 28.007812 13.078125 27.886719 13.023438 27.730469 C 12.972656 27.574219 12.996094 27.402344 13.082031 27.242188 C 13.203125 27.015625 13.449219 26.808594 13.773438 26.699219 Z M 13.828125 26.855469 C 13.546875 26.949219 13.332031 27.125 13.226562 27.320312 C 13.160156 27.4375 13.140625 27.5625 13.179688 27.679688 C 13.21875 27.792969 13.3125 27.878906 13.4375 27.9375 C 13.640625 28.027344 13.917969 28.03125 14.195312 27.9375 C 14.476562 27.84375 14.691406 27.667969 14.796875 27.472656 C 14.859375 27.355469 14.882812 27.230469 14.84375 27.113281 C 14.800781 26.996094 14.710938 26.910156 14.585938 26.855469 C 14.382812 26.765625 14.105469 26.761719 13.828125 26.855469 Z M 13.828125 26.855469 " fill-opacity="1" fill-rule="evenodd"/></g><path fill="#000000" d="M 15.085938 26.160156 C 15.394531 26.015625 15.71875 25.992188 15.960938 26.070312 C 16.136719 26.128906 16.269531 26.234375 16.34375 26.386719 C 16.414062 26.535156 16.410156 26.707031 16.339844 26.878906 C 16.242188 27.113281 16.019531 27.347656 15.710938 27.492188 C 15.402344 27.636719 15.082031 27.660156 14.835938 27.582031 C 14.664062 27.527344 14.527344 27.417969 14.457031 27.269531 C 14.386719 27.117188 14.390625 26.945312 14.460938 26.777344 C 14.554688 26.539062 14.777344 26.304688 15.085938 26.160156 Z M 15.15625 26.308594 C 14.890625 26.433594 14.691406 26.632812 14.609375 26.835938 C 14.558594 26.960938 14.554688 27.089844 14.605469 27.199219 C 14.65625 27.308594 14.757812 27.382812 14.886719 27.425781 C 15.097656 27.492188 15.375 27.46875 15.640625 27.34375 C 15.910156 27.21875 16.105469 27.019531 16.1875 26.816406 C 16.238281 26.691406 16.246094 26.566406 16.191406 26.453125 C 16.140625 26.34375 16.039062 26.269531 15.910156 26.226562 C 15.699219 26.160156 15.421875 26.183594 15.15625 26.308594 Z M 15.15625 26.308594 " fill-opacity="1" fill-rule="evenodd"/><path fill="#000000" d="M 15.914062 25.417969 C 16.125 25.152344 16.40625 24.992188 16.660156 24.957031 C 16.839844 24.929688 17.007812 24.964844 17.140625 25.070312 C 17.269531 25.175781 17.339844 25.332031 17.351562 25.515625 C 17.371094 25.769531 17.273438 26.078125 17.058594 26.34375 C 16.84375 26.605469 16.5625 26.769531 16.3125 26.804688 C 16.128906 26.832031 15.960938 26.792969 15.832031 26.6875 C 15.703125 26.585938 15.628906 26.429688 15.617188 26.246094 C 15.597656 25.992188 15.699219 25.683594 15.914062 25.417969 Z M 16.039062 25.523438 C 15.855469 25.75 15.765625 26.015625 15.78125 26.234375 C 15.792969 26.367188 15.839844 26.484375 15.933594 26.5625 C 16.03125 26.640625 16.15625 26.664062 16.289062 26.644531 C 16.507812 26.609375 16.746094 26.46875 16.929688 26.238281 C 17.113281 26.007812 17.207031 25.746094 17.191406 25.527344 C 17.179688 25.390625 17.132812 25.273438 17.035156 25.199219 C 16.941406 25.121094 16.816406 25.097656 16.683594 25.117188 C 16.464844 25.148438 16.226562 25.292969 16.039062 25.523438 Z M 16.039062 25.523438 " fill-opacity="1" fill-rule="evenodd"/><path fill="#000000" d="M 17.222656 21.8125 C 17.261719 21.472656 17.410156 21.1875 17.605469 21.019531 C 17.746094 20.902344 17.90625 20.839844 18.074219 20.863281 C 18.238281 20.878906 18.382812 20.976562 18.492188 21.121094 C 18.644531 21.328125 18.722656 21.640625 18.683594 21.976562 C 18.648438 22.316406 18.496094 22.601562 18.304688 22.769531 C 18.164062 22.886719 18 22.945312 17.835938 22.925781 C 17.671875 22.910156 17.527344 22.8125 17.417969 22.667969 C 17.265625 22.460938 17.183594 22.148438 17.222656 21.8125 Z M 17.386719 21.828125 C 17.355469 22.121094 17.417969 22.390625 17.550781 22.570312 C 17.628906 22.679688 17.734375 22.75 17.855469 22.765625 C 17.976562 22.78125 18.09375 22.730469 18.199219 22.644531 C 18.367188 22.5 18.488281 22.253906 18.523438 21.960938 C 18.554688 21.667969 18.492188 21.398438 18.359375 21.21875 C 18.28125 21.113281 18.175781 21.039062 18.054688 21.023438 C 17.933594 21.011719 17.816406 21.058594 17.714844 21.144531 C 17.546875 21.289062 17.421875 21.539062 17.386719 21.828125 Z M 17.386719 21.828125 " fill-opacity="1" fill-rule="evenodd"/><path fill="#000000" d="M 16.632812 24.351562 C 16.792969 24.050781 17.03125 23.835938 17.273438 23.75 C 17.445312 23.691406 17.621094 23.691406 17.765625 23.769531 C 17.914062 23.847656 18.015625 23.988281 18.066406 24.164062 C 18.132812 24.410156 18.097656 24.730469 17.9375 25.03125 C 17.78125 25.335938 17.539062 25.546875 17.296875 25.632812 C 17.125 25.695312 16.953125 25.691406 16.804688 25.613281 C 16.65625 25.539062 16.554688 25.398438 16.507812 25.222656 C 16.4375 24.976562 16.476562 24.65625 16.632812 24.351562 Z M 16.777344 24.429688 C 16.644531 24.691406 16.605469 24.964844 16.664062 25.179688 C 16.699219 25.308594 16.773438 25.414062 16.878906 25.46875 C 16.988281 25.523438 17.117188 25.523438 17.242188 25.480469 C 17.449219 25.40625 17.65625 25.21875 17.792969 24.957031 C 17.929688 24.695312 17.964844 24.417969 17.90625 24.207031 C 17.871094 24.078125 17.800781 23.972656 17.691406 23.914062 C 17.582031 23.859375 17.457031 23.859375 17.328125 23.90625 C 17.121094 23.980469 16.914062 24.167969 16.777344 24.429688 Z M 16.777344 24.429688 " fill-opacity="1" fill-rule="evenodd"/><path fill="#000000" d="M 17.261719 20.523438 C 17.234375 20.1875 17.324219 19.875 17.480469 19.675781 C 17.59375 19.53125 17.742188 19.441406 17.90625 19.425781 C 18.074219 19.414062 18.234375 19.476562 18.371094 19.601562 C 18.558594 19.773438 18.699219 20.0625 18.726562 20.402344 C 18.753906 20.742188 18.667969 21.050781 18.507812 21.25 C 18.394531 21.394531 18.25 21.484375 18.082031 21.5 C 17.917969 21.515625 17.753906 21.449219 17.621094 21.328125 C 17.429688 21.15625 17.289062 20.863281 17.261719 20.523438 Z M 17.425781 20.511719 C 17.449219 20.804688 17.566406 21.058594 17.730469 21.207031 C 17.828125 21.296875 17.945312 21.347656 18.070312 21.335938 C 18.191406 21.328125 18.296875 21.257812 18.378906 21.152344 C 18.515625 20.980469 18.589844 20.710938 18.5625 20.417969 C 18.539062 20.125 18.421875 19.871094 18.257812 19.722656 C 18.160156 19.632812 18.042969 19.582031 17.921875 19.589844 C 17.800781 19.601562 17.691406 19.671875 17.609375 19.777344 C 17.472656 19.949219 17.402344 20.21875 17.425781 20.511719 Z M 17.425781 20.511719 " fill-opacity="1" fill-rule="evenodd"/><path fill="#000000" d="M 17.097656 23.136719 C 17.144531 22.796875 17.300781 22.515625 17.5 22.355469 C 17.640625 22.238281 17.804688 22.183594 17.972656 22.207031 C 18.136719 22.230469 18.277344 22.328125 18.382812 22.480469 C 18.53125 22.6875 18.601562 23.003906 18.554688 23.339844 C 18.507812 23.679688 18.351562 23.960938 18.152344 24.121094 C 18.011719 24.238281 17.847656 24.289062 17.679688 24.265625 C 17.515625 24.246094 17.375 24.144531 17.269531 23.996094 C 17.121094 23.785156 17.050781 23.472656 17.097656 23.136719 Z M 17.257812 23.160156 C 17.21875 23.449219 17.277344 23.722656 17.402344 23.902344 C 17.480469 24.011719 17.582031 24.085938 17.703125 24.105469 C 17.824219 24.121094 17.945312 24.078125 18.046875 23.992188 C 18.21875 23.855469 18.351562 23.609375 18.390625 23.320312 C 18.429688 23.027344 18.375 22.753906 18.246094 22.574219 C 18.171875 22.464844 18.070312 22.390625 17.945312 22.371094 C 17.824219 22.355469 17.707031 22.398438 17.601562 22.484375 C 17.429688 22.621094 17.300781 22.867188 17.257812 23.160156 Z M 17.257812 23.160156 " fill-opacity="1" fill-rule="evenodd"/><path fill="#000000" d="M 17 19.25 C 16.859375 18.9375 16.839844 18.617188 16.921875 18.375 C 16.980469 18.203125 17.089844 18.066406 17.242188 18 C 17.394531 17.929688 17.566406 17.9375 17.734375 18.007812 C 17.972656 18.105469 18.199219 18.335938 18.339844 18.644531 C 18.480469 18.953125 18.5 19.277344 18.417969 19.519531 C 18.359375 19.691406 18.25 19.824219 18.101562 19.894531 C 17.949219 19.960938 17.777344 19.957031 17.605469 19.886719 C 17.371094 19.785156 17.140625 19.558594 17 19.25 Z M 17.152344 19.183594 C 17.273438 19.449219 17.46875 19.648438 17.671875 19.734375 C 17.792969 19.785156 17.921875 19.792969 18.03125 19.742188 C 18.144531 19.691406 18.222656 19.59375 18.265625 19.464844 C 18.335938 19.253906 18.3125 18.976562 18.191406 18.710938 C 18.070312 18.441406 17.875 18.242188 17.671875 18.160156 C 17.546875 18.105469 17.421875 18.097656 17.308594 18.148438 C 17.199219 18.199219 17.121094 18.300781 17.078125 18.429688 C 17.007812 18.636719 17.03125 18.914062 17.152344 19.183594 Z M 17.152344 19.183594 " fill-opacity="1" fill-rule="evenodd"/><path fill="#000000" d="M 5.996094 24.707031 L 6.335938 24.367188 C 6.425781 24.28125 6.507812 24.210938 6.589844 24.167969 C 6.671875 24.121094 6.761719 24.09375 6.859375 24.089844 C 7.109375 24.074219 7.359375 24.1875 7.601562 24.433594 C 7.683594 24.511719 7.75 24.589844 7.804688 24.671875 C 7.855469 24.75 7.894531 24.832031 7.921875 24.914062 C 7.945312 24.996094 7.957031 25.078125 7.953125 25.164062 C 7.953125 25.230469 7.941406 25.292969 7.917969 25.355469 C 7.898438 25.414062 7.867188 25.472656 7.828125 25.527344 C 7.789062 25.582031 7.738281 25.640625 7.679688 25.699219 L 7.339844 26.039062 C 7.292969 26.085938 7.25 26.113281 7.210938 26.121094 C 7.171875 26.132812 7.136719 26.125 7.101562 26.105469 C 7.066406 26.085938 7.03125 26.054688 6.984375 26.011719 L 6.003906 25.035156 C 5.945312 24.976562 5.917969 24.921875 5.914062 24.871094 C 5.914062 24.816406 5.941406 24.761719 5.996094 24.707031 Z M 6.3125 24.820312 L 7.21875 25.726562 L 7.417969 25.53125 C 7.460938 25.488281 7.492188 25.453125 7.515625 25.421875 C 7.539062 25.394531 7.558594 25.367188 7.574219 25.328125 C 7.589844 25.292969 7.601562 25.257812 7.601562 25.21875 C 7.613281 25.058594 7.523438 24.882812 7.335938 24.695312 C 7.203125 24.5625 7.085938 24.480469 6.984375 24.453125 C 6.878906 24.425781 6.789062 24.433594 6.714844 24.472656 C 6.640625 24.511719 6.566406 24.570312 6.484375 24.648438 Z M 6.3125 24.820312 " fill-opacity="1" fill-rule="nonzero"/><path fill="#000000" d="M 8.222656 22.902344 L 7.636719 23.488281 L 7.964844 23.816406 L 8.507812 23.277344 C 8.546875 23.238281 8.585938 23.21875 8.625 23.214844 C 8.660156 23.214844 8.695312 23.230469 8.726562 23.261719 C 8.757812 23.289062 8.769531 23.324219 8.769531 23.363281 C 8.769531 23.402344 8.75 23.441406 8.710938 23.480469 L 8.167969 24.023438 L 8.550781 24.402344 L 9.15625 23.796875 C 9.199219 23.753906 9.238281 23.734375 9.28125 23.734375 C 9.320312 23.730469 9.355469 23.746094 9.390625 23.78125 C 9.421875 23.8125 9.4375 23.847656 9.4375 23.886719 C 9.433594 23.929688 9.414062 23.96875 9.371094 24.011719 L 8.664062 24.71875 C 8.609375 24.773438 8.554688 24.804688 8.503906 24.800781 C 8.453125 24.800781 8.398438 24.769531 8.339844 24.710938 L 7.332031 23.707031 C 7.292969 23.667969 7.269531 23.632812 7.253906 23.597656 C 7.242188 23.5625 7.238281 23.527344 7.253906 23.492188 C 7.265625 23.457031 7.289062 23.417969 7.328125 23.382812 L 8.015625 22.695312 C 8.058594 22.652344 8.097656 22.632812 8.136719 22.632812 C 8.175781 22.628906 8.210938 22.644531 8.242188 22.675781 C 8.277344 22.707031 8.289062 22.746094 8.289062 22.78125 C 8.285156 22.820312 8.265625 22.859375 8.222656 22.902344 Z M 8.222656 22.902344 " fill-opacity="1" fill-rule="nonzero"/><path fill="#000000" d="M 10.253906 23.128906 L 9.859375 23.519531 C 9.804688 23.578125 9.75 23.605469 9.699219 23.601562 C 9.648438 23.601562 9.59375 23.570312 9.535156 23.511719 L 8.53125 22.507812 C 8.472656 22.449219 8.441406 22.394531 8.441406 22.34375 C 8.4375 22.292969 8.464844 22.242188 8.523438 22.183594 L 8.9375 21.769531 C 9 21.707031 9.058594 21.660156 9.109375 21.621094 C 9.164062 21.582031 9.21875 21.558594 9.277344 21.546875 C 9.328125 21.535156 9.378906 21.53125 9.429688 21.539062 C 9.480469 21.542969 9.53125 21.558594 9.578125 21.578125 C 9.625 21.601562 9.667969 21.632812 9.707031 21.671875 C 9.839844 21.804688 9.875 21.96875 9.808594 22.15625 C 10.03125 22.046875 10.226562 22.070312 10.386719 22.230469 C 10.464844 22.304688 10.511719 22.390625 10.535156 22.488281 C 10.558594 22.585938 10.550781 22.679688 10.519531 22.769531 C 10.496094 22.824219 10.464844 22.882812 10.417969 22.941406 C 10.375 23 10.320312 23.0625 10.253906 23.128906 Z M 9.640625 22.554688 L 9.367188 22.828125 L 9.757812 23.21875 L 10.039062 22.9375 C 10.214844 22.761719 10.238281 22.609375 10.105469 22.476562 C 10.039062 22.40625 9.964844 22.382812 9.890625 22.398438 C 9.8125 22.414062 9.730469 22.464844 9.640625 22.554688 Z M 8.828125 22.285156 L 9.171875 22.632812 L 9.410156 22.394531 C 9.476562 22.328125 9.519531 22.273438 9.542969 22.222656 C 9.566406 22.175781 9.566406 22.125 9.550781 22.070312 C 9.539062 22.03125 9.519531 21.992188 9.488281 21.960938 C 9.417969 21.894531 9.351562 21.871094 9.28125 21.898438 C 9.214844 21.921875 9.132812 21.980469 9.039062 22.074219 Z M 8.828125 22.285156 " fill-opacity="1" fill-rule="nonzero"/><path fill="#000000" d="M 10.71875 20.441406 L 10.433594 20.726562 L 11.402344 21.695312 C 11.460938 21.75 11.488281 21.804688 11.492188 21.855469 C 11.496094 21.90625 11.476562 21.949219 11.441406 21.988281 C 11.402344 22.027344 11.355469 22.042969 11.304688 22.039062 C 11.253906 22.039062 11.199219 22.007812 11.144531 21.953125 L 10.171875 20.984375 L 9.886719 21.269531 C 9.84375 21.3125 9.796875 21.335938 9.757812 21.335938 C 9.714844 21.335938 9.675781 21.324219 9.644531 21.289062 C 9.609375 21.253906 9.59375 21.214844 9.59375 21.171875 C 9.597656 21.128906 9.621094 21.085938 9.660156 21.042969 L 10.492188 20.21875 C 10.535156 20.171875 10.578125 20.148438 10.621094 20.148438 C 10.664062 20.148438 10.703125 20.164062 10.734375 20.195312 C 10.769531 20.230469 10.785156 20.269531 10.785156 20.308594 C 10.785156 20.351562 10.761719 20.394531 10.71875 20.441406 Z M 10.71875 20.441406 " fill-opacity="1" fill-rule="nonzero"/><path fill="#000000" d="M 5.664062 21.332031 C 5.664062 21.332031 5.835938 21.316406 5.878906 21.324219 C 5.941406 21.332031 5.992188 21.355469 6.039062 21.394531 C 6.179688 21.511719 6.195312 21.648438 6.148438 21.785156 C 6.09375 21.949219 5.9375 22.117188 5.855469 22.242188 C 5.828125 22.292969 5.800781 22.34375 5.789062 22.398438 C 5.765625 22.492188 5.769531 22.589844 5.773438 22.6875 C 5.773438 22.800781 5.773438 22.914062 5.738281 23.023438 C 5.695312 23.160156 5.542969 23.328125 5.394531 23.355469 C 5.285156 23.371094 5.203125 23.351562 5.136719 23.308594 C 5.074219 23.269531 5.03125 23.203125 5 23.128906 C 4.949219 23 4.941406 22.832031 4.945312 22.707031 C 4.945312 22.535156 4.984375 22.367188 5.035156 22.203125 C 5.085938 22.042969 5.140625 21.863281 5.226562 21.707031 C 5.320312 21.539062 5.449219 21.402344 5.644531 21.335938 C 5.652344 21.335938 5.660156 21.335938 5.664062 21.332031 Z M 5.6875 21.496094 C 5.539062 21.546875 5.441406 21.65625 5.371094 21.789062 C 5.289062 21.933594 5.238281 22.101562 5.191406 22.253906 C 5.144531 22.402344 5.109375 22.554688 5.109375 22.710938 C 5.109375 22.816406 5.109375 22.960938 5.152344 23.070312 C 5.167969 23.113281 5.191406 23.148438 5.226562 23.171875 C 5.261719 23.195312 5.308594 23.203125 5.367188 23.191406 C 5.460938 23.175781 5.554688 23.0625 5.582031 22.972656 C 5.613281 22.882812 5.609375 22.785156 5.609375 22.691406 C 5.605469 22.578125 5.601562 22.464844 5.628906 22.359375 C 5.644531 22.285156 5.679688 22.21875 5.71875 22.15625 C 5.78125 22.058594 5.898438 21.929688 5.964844 21.800781 C 6.015625 21.703125 6.035156 21.605469 5.933594 21.519531 C 5.910156 21.5 5.886719 21.488281 5.855469 21.484375 C 5.824219 21.480469 5.722656 21.492188 5.6875 21.496094 Z M 5.6875 21.496094 " fill-opacity="1" fill-rule="evenodd"/><path fill="#000000" d="M 6.222656 20.402344 C 6.222656 20.402344 6.332031 20.394531 6.359375 20.394531 C 6.675781 20.398438 6.839844 20.753906 6.710938 21.019531 C 6.660156 21.128906 6.515625 21.21875 6.402344 21.246094 C 6.25 21.28125 6.109375 21.214844 6.015625 21.101562 C 5.921875 20.992188 5.878906 20.839844 5.90625 20.707031 C 5.9375 20.554688 6.070312 20.46875 6.199219 20.410156 C 6.207031 20.40625 6.214844 20.40625 6.222656 20.402344 Z M 6.253906 20.566406 C 6.175781 20.601562 6.085938 20.648438 6.066406 20.738281 C 6.050781 20.824219 6.082031 20.921875 6.140625 20.992188 C 6.195312 21.058594 6.277344 21.105469 6.367188 21.082031 C 6.4375 21.066406 6.53125 21.015625 6.5625 20.949219 C 6.644531 20.785156 6.550781 20.558594 6.355469 20.554688 C 6.339844 20.558594 6.28125 20.5625 6.253906 20.566406 Z M 6.253906 20.566406 " fill-opacity="1" fill-rule="evenodd"/></svg>