<svg xmlns="http://www.w3.org/2000/svg" xmlns:xlink="http://www.w3.org/1999/xlink" width="40" zoomAndPan="magnify" viewBox="0 0 30 30.000001" height="40" preserveAspectRatio="xMidYMid meet" version="1.0"><defs><clipPath id="fc29eb8134"><path d="M 0.484375 0 L 29.515625 0 L 29.515625 29.03125 L 0.484375 29.03125 Z M 0.484375 0 " clip-rule="nonzero"/></clipPath></defs><g clip-path="url(#fc29eb8134)"><path fill="#d2252d" d="M 29.515625 24.621094 C 29.515625 27.058594 27.539062 29.03125 25.105469 29.03125 L 4.894531 29.03125 C 2.457031 29.03125 0.484375 27.054688 0.484375 24.621094 L 0.484375 4.414062 C 0.484375 1.980469 2.457031 0.00390625 4.894531 0.00390625 L 25.101562 0.00390625 C 27.539062 0.00390625 29.511719 1.980469 29.511719 4.414062 Z M 29.515625 24.621094 " fill-opacity="1" fill-rule="nonzero"/></g><path fill="#ffffff" d="M 14.671875 5.375 C 9.433594 5.375 5.195312 9.621094 5.195312 14.851562 C 5.195312 18.734375 7.53125 22.066406 10.867188 23.535156 C 10.84375 22.875 10.863281 22.082031 11.035156 21.363281 C 11.21875 20.589844 12.253906 16.195312 12.253906 16.195312 C 12.253906 16.195312 11.949219 15.59375 11.949219 14.695312 C 11.949219 13.292969 12.765625 12.242188 13.773438 12.242188 C 14.632812 12.242188 15.050781 12.890625 15.050781 13.664062 C 15.050781 14.53125 14.496094 15.824219 14.214844 17.023438 C 13.972656 18.027344 14.714844 18.851562 15.710938 18.851562 C 17.507812 18.851562 18.714844 16.542969 18.714844 13.808594 C 18.714844 11.730469 17.316406 10.175781 14.773438 10.175781 C 11.898438 10.175781 10.105469 12.320312 10.105469 14.71875 C 10.105469 15.539062 10.351562 16.125 10.734375 16.574219 C 10.910156 16.785156 10.933594 16.863281 10.867188 17.101562 C 10.828125 17.273438 10.71875 17.695312 10.679688 17.855469 C 10.613281 18.097656 10.421875 18.183594 10.207031 18.097656 C 8.882812 17.5625 8.265625 16.113281 8.265625 14.480469 C 8.265625 11.785156 10.53125 8.554688 15.042969 8.554688 C 18.660156 8.554688 21.046875 11.179688 21.046875 13.984375 C 21.046875 17.707031 18.980469 20.480469 15.929688 20.480469 C 14.90625 20.480469 13.945312 19.925781 13.613281 19.296875 C 13.613281 19.296875 13.0625 21.484375 12.945312 21.902344 C 12.746094 22.628906 12.347656 23.367188 11.992188 23.933594 C 12.84375 24.183594 13.75 24.320312 14.679688 24.320312 C 19.917969 24.320312 24.15625 20.074219 24.15625 14.84375 C 24.152344 9.625 19.902344 5.375 14.671875 5.375 Z M 14.671875 5.375 " fill-opacity="1" fill-rule="nonzero"/></svg>