<svg xmlns="http://www.w3.org/2000/svg" xmlns:xlink="http://www.w3.org/1999/xlink" width="120" zoomAndPan="magnify" viewBox="0 0 90 89.999999" height="120" preserveAspectRatio="xMidYMid meet" version="1.0"><defs><clipPath id="bd3e6cfa71"><path d="M 27 44.910156 L 63 44.910156 L 63 45.660156 L 27 45.660156 Z M 27 44.910156 " clip-rule="nonzero"/></clipPath><clipPath id="a143e6a292"><path d="M 58 16 L 79.574219 16 L 79.574219 83 L 58 83 Z M 58 16 " clip-rule="nonzero"/></clipPath><clipPath id="7a481f3230"><path d="M 10.574219 23 L 73 23 L 73 90 L 10.574219 90 Z M 10.574219 23 " clip-rule="nonzero"/></clipPath></defs><g clip-path="url(#bd3e6cfa71)"><path fill="#ffffff" d="M 27 44.914062 L 63 44.914062 L 63 45.082031 L 27 45.082031 Z M 27 44.914062 " fill-opacity="1" fill-rule="nonzero"/></g><path fill="#ffffff" d="M 23.117188 51.027344 C 19.957031 51.027344 17.386719 48.457031 17.386719 45.296875 C 17.386719 42.132812 19.957031 39.5625 23.117188 39.5625 C 26.277344 39.5625 28.851562 42.132812 28.851562 45.296875 C 28.851562 48.457031 26.277344 51.027344 23.117188 51.027344 Z M 23.117188 42.371094 C 21.503906 42.371094 20.191406 43.683594 20.191406 45.296875 C 20.191406 46.910156 21.503906 48.222656 23.117188 48.222656 C 24.730469 48.222656 26.042969 46.910156 26.042969 45.296875 C 26.042969 43.683594 24.730469 42.371094 23.117188 42.371094 Z M 23.117188 42.371094 " fill-opacity="1" fill-rule="nonzero"/><path fill="#ffffff" d="M 64.472656 51.027344 L 55.214844 51.027344 C 54.441406 51.027344 53.8125 50.398438 53.8125 49.625 C 53.8125 48.847656 54.441406 48.222656 55.214844 48.222656 L 63.070312 48.222656 L 63.070312 44.726562 L 32.390625 44.726562 C 31.613281 44.726562 30.984375 44.097656 30.984375 43.324219 C 30.984375 42.546875 31.613281 41.917969 32.390625 41.917969 L 64.472656 41.917969 C 65.25 41.917969 65.878906 42.546875 65.878906 43.324219 L 65.878906 49.625 C 65.878906 50.398438 65.25 51.027344 64.472656 51.027344 Z M 64.472656 51.027344 " fill-opacity="1" fill-rule="nonzero"/><path fill="#ffffff" d="M 47.765625 51.027344 L 33.382812 51.027344 C 32.609375 51.027344 31.980469 50.398438 31.980469 49.625 C 31.980469 48.847656 32.609375 48.222656 33.382812 48.222656 L 47.765625 48.222656 C 48.539062 48.222656 49.167969 48.847656 49.167969 49.625 C 49.167969 50.398438 48.539062 51.027344 47.765625 51.027344 Z M 47.765625 51.027344 " fill-opacity="1" fill-rule="nonzero"/><path fill="#ffffff" d="M 23.117188 66.078125 C 19.957031 66.078125 17.386719 63.503906 17.386719 60.34375 C 17.386719 57.183594 19.957031 54.613281 23.117188 54.613281 C 26.277344 54.613281 28.851562 57.183594 28.851562 60.34375 C 28.851562 63.503906 26.277344 66.078125 23.117188 66.078125 Z M 23.117188 57.417969 C 21.503906 57.417969 20.191406 58.730469 20.191406 60.34375 C 20.191406 61.957031 21.503906 63.269531 23.117188 63.269531 C 24.730469 63.269531 26.042969 61.957031 26.042969 60.34375 C 26.042969 58.730469 24.730469 57.417969 23.117188 57.417969 Z M 23.117188 57.417969 " fill-opacity="1" fill-rule="nonzero"/><path fill="#ffffff" d="M 64.472656 66.078125 L 33.382812 66.078125 C 32.609375 66.078125 31.980469 65.449219 31.980469 64.671875 C 31.980469 63.898438 32.609375 63.269531 33.382812 63.269531 L 63.070312 63.269531 L 63.070312 59.777344 L 32.390625 59.777344 C 31.613281 59.777344 30.984375 59.148438 30.984375 58.371094 C 30.984375 57.597656 31.613281 56.96875 32.390625 56.96875 L 64.472656 56.96875 C 65.25 56.96875 65.878906 57.597656 65.878906 58.371094 L 65.878906 64.671875 C 65.878906 65.449219 65.25 66.078125 64.472656 66.078125 Z M 64.472656 66.078125 " fill-opacity="1" fill-rule="nonzero"/><path fill="#ffffff" d="M 23.117188 81.125 C 19.957031 81.125 17.386719 78.554688 17.386719 75.390625 C 17.386719 72.230469 19.957031 69.660156 23.117188 69.660156 C 26.277344 69.660156 28.851562 72.230469 28.851562 75.390625 C 28.851562 78.554688 26.277344 81.125 23.117188 81.125 Z M 23.117188 72.46875 C 21.503906 72.46875 20.191406 73.777344 20.191406 75.390625 C 20.191406 77.003906 21.503906 78.316406 23.117188 78.316406 C 24.730469 78.316406 26.042969 77.003906 26.042969 75.390625 C 26.042969 73.777344 24.730469 72.46875 23.117188 72.46875 Z M 23.117188 72.46875 " fill-opacity="1" fill-rule="nonzero"/><path fill="#ffffff" d="M 43.675781 74.824219 L 32.390625 74.824219 C 31.613281 74.824219 30.984375 74.195312 30.984375 73.421875 C 30.984375 72.644531 31.613281 72.015625 32.390625 72.015625 L 43.675781 72.015625 C 44.449219 72.015625 45.078125 72.644531 45.078125 73.421875 C 45.078125 74.195312 44.449219 74.824219 43.675781 74.824219 Z M 43.675781 74.824219 " fill-opacity="1" fill-rule="nonzero"/><path fill="#ffffff" d="M 64.472656 81.125 L 33.382812 81.125 C 32.609375 81.125 31.980469 80.496094 31.980469 79.722656 C 31.980469 78.945312 32.609375 78.316406 33.382812 78.316406 L 63.070312 78.316406 L 63.070312 74.824219 L 51.367188 74.824219 C 50.59375 74.824219 49.964844 74.195312 49.964844 73.421875 C 49.964844 72.644531 50.59375 72.015625 51.367188 72.015625 L 64.472656 72.015625 C 65.25 72.015625 65.878906 72.644531 65.878906 73.421875 L 65.878906 79.722656 C 65.878906 80.496094 65.25 81.125 64.472656 81.125 Z M 64.472656 81.125 " fill-opacity="1" fill-rule="nonzero"/><path fill="#ffffff" d="M 38.402344 28.660156 C 38.121094 28.660156 37.832031 28.574219 37.585938 28.394531 C 35.488281 26.882812 34.234375 24.390625 34.234375 21.722656 C 34.234375 19.519531 35.066406 17.460938 36.574219 15.925781 C 37.117188 15.371094 38.003906 15.363281 38.558594 15.90625 C 39.113281 16.449219 39.121094 17.335938 38.578125 17.890625 C 37.585938 18.898438 37.042969 20.261719 37.042969 21.722656 C 37.042969 23.488281 37.859375 25.132812 39.226562 26.117188 C 39.855469 26.570312 39.996094 27.445312 39.542969 28.074219 C 39.269531 28.457031 38.839844 28.660156 38.402344 28.660156 Z M 38.402344 28.660156 " fill-opacity="1" fill-rule="nonzero"/><path fill="#ffffff" d="M 45.171875 12.226562 C 44.496094 12.226562 43.90625 11.746094 43.792969 11.0625 C 43.78125 10.992188 42.730469 4.125 51.585938 2.507812 C 52.347656 2.378906 53.082031 2.875 53.222656 3.636719 C 53.359375 4.398438 52.855469 5.128906 52.09375 5.269531 C 46.121094 6.359375 46.5 10.179688 46.5625 10.613281 C 46.671875 11.375 46.152344 12.089844 45.390625 12.210938 C 45.316406 12.222656 45.242188 12.226562 45.171875 12.226562 Z M 45.171875 12.226562 " fill-opacity="1" fill-rule="nonzero"/><path fill="#ffffff" d="M 41.101562 11.507812 C 40.980469 11.507812 40.863281 11.492188 40.742188 11.460938 C 34.691406 9.855469 34.183594 4.324219 34.761719 1.621094 C 34.886719 1.039062 35.367188 0.597656 35.957031 0.523438 C 39.933594 0.0234375 42.972656 0.667969 45 2.453125 C 47.3125 4.492188 47.339844 7.242188 47.339844 7.359375 C 47.339844 8.132812 46.710938 8.761719 45.933594 8.761719 C 45.164062 8.761719 44.539062 8.140625 44.53125 7.371094 C 44.527344 7.28125 44.46875 5.703125 43.109375 4.527344 C 41.898438 3.484375 39.9375 3.039062 37.398438 3.203125 C 37.335938 4.796875 37.753906 7.761719 41.460938 8.746094 C 42.210938 8.945312 42.65625 9.714844 42.457031 10.464844 C 42.289062 11.09375 41.722656 11.507812 41.101562 11.507812 Z M 41.101562 11.507812 " fill-opacity="1" fill-rule="nonzero"/><path fill="#ffffff" d="M 50.417969 34.828125 C 49.628906 34.828125 48.835938 34.738281 48.066406 34.5625 C 46.175781 34.125 44.175781 34.125 42.285156 34.5625 C 41.515625 34.738281 40.722656 34.828125 39.933594 34.828125 C 33.480469 34.828125 28.230469 28.949219 28.230469 21.726562 C 28.230469 14.5 33.480469 8.621094 39.933594 8.621094 C 40.996094 8.621094 42.050781 8.78125 43.070312 9.101562 C 44.449219 9.535156 45.902344 9.535156 47.28125 9.101562 C 48.300781 8.78125 49.355469 8.621094 50.417969 8.621094 C 56.871094 8.621094 62.125 14.5 62.125 21.726562 C 62.121094 28.949219 56.871094 34.828125 50.417969 34.828125 Z M 45.175781 31.425781 C 46.363281 31.425781 47.546875 31.558594 48.699219 31.824219 C 49.261719 31.957031 49.839844 32.023438 50.417969 32.023438 C 55.324219 32.023438 59.316406 27.402344 59.316406 21.722656 C 59.316406 16.046875 55.324219 11.429688 50.417969 11.429688 C 49.640625 11.429688 48.867188 11.546875 48.121094 11.78125 C 46.195312 12.386719 44.160156 12.386719 42.230469 11.78125 C 41.484375 11.546875 40.710938 11.429688 39.933594 11.429688 C 35.027344 11.429688 31.035156 16.046875 31.035156 21.722656 C 31.035156 27.402344 35.027344 32.023438 39.933594 32.023438 C 40.511719 32.023438 41.089844 31.957031 41.652344 31.824219 C 42.804688 31.558594 43.992188 31.425781 45.175781 31.425781 Z M 45.175781 31.425781 " fill-opacity="1" fill-rule="nonzero"/><g clip-path="url(#a143e6a292)"><path fill="#ffffff" d="M 78.007812 82.769531 L 71.191406 82.769531 C 70.414062 82.769531 69.785156 82.140625 69.785156 81.367188 L 69.785156 26.203125 L 60.347656 26.203125 C 59.917969 26.203125 59.511719 26.007812 59.246094 25.671875 C 58.976562 25.332031 58.882812 24.890625 58.980469 24.472656 C 59.203125 23.550781 59.316406 22.625 59.316406 21.722656 C 59.316406 20.476562 59.113281 19.238281 58.714844 18.035156 C 58.570312 17.609375 58.644531 17.140625 58.90625 16.773438 C 59.171875 16.40625 59.59375 16.191406 60.046875 16.191406 L 78.007812 16.191406 C 78.78125 16.191406 79.410156 16.820312 79.410156 17.59375 L 79.410156 81.367188 C 79.410156 82.140625 78.78125 82.769531 78.007812 82.769531 Z M 72.59375 79.964844 L 76.601562 79.964844 L 76.601562 18.996094 L 61.863281 18.996094 C 62.035156 19.898438 62.121094 20.808594 62.121094 21.722656 C 62.121094 22.277344 62.089844 22.835938 62.023438 23.398438 L 71.191406 23.398438 C 71.964844 23.398438 72.59375 24.027344 72.59375 24.800781 Z M 72.59375 79.964844 " fill-opacity="1" fill-rule="nonzero"/></g><path fill="#ffffff" d="M 30.003906 26.203125 L 18.789062 26.203125 C 18.011719 26.203125 17.386719 25.578125 17.386719 24.800781 L 17.386719 17.59375 C 17.386719 16.820312 18.011719 16.191406 18.789062 16.191406 L 30.304688 16.191406 C 30.757812 16.191406 31.179688 16.40625 31.445312 16.773438 C 31.707031 17.140625 31.78125 17.609375 31.636719 18.035156 C 31.238281 19.238281 31.035156 20.476562 31.035156 21.722656 C 31.035156 22.628906 31.148438 23.550781 31.371094 24.472656 C 31.46875 24.890625 31.375 25.332031 31.105469 25.671875 C 30.839844 26.007812 30.433594 26.203125 30.003906 26.203125 Z M 20.191406 23.398438 L 28.328125 23.398438 C 28.261719 22.835938 28.230469 22.277344 28.230469 21.722656 C 28.230469 20.808594 28.316406 19.898438 28.488281 18.996094 L 20.191406 18.996094 Z M 20.191406 23.398438 " fill-opacity="1" fill-rule="nonzero"/><g clip-path="url(#7a481f3230)"><path fill="#ffffff" d="M 71.191406 89.980469 L 11.96875 89.980469 C 11.195312 89.980469 10.566406 89.351562 10.566406 88.574219 L 10.566406 24.800781 C 10.566406 24.027344 11.195312 23.398438 11.96875 23.398438 L 30.003906 23.398438 C 30.652344 23.398438 31.21875 23.84375 31.371094 24.472656 C 32.433594 28.917969 35.957031 32.019531 39.933594 32.019531 C 40.511719 32.019531 41.089844 31.957031 41.652344 31.824219 C 43.957031 31.292969 46.394531 31.292969 48.699219 31.824219 C 49.261719 31.957031 49.839844 32.019531 50.417969 32.019531 C 54.394531 32.019531 57.917969 28.917969 58.980469 24.472656 C 59.132812 23.84375 59.699219 23.398438 60.347656 23.398438 L 71.191406 23.398438 C 71.964844 23.398438 72.59375 24.027344 72.59375 24.800781 L 72.59375 88.574219 C 72.59375 89.351562 71.964844 89.980469 71.191406 89.980469 Z M 13.375 87.171875 L 69.785156 87.171875 L 69.785156 26.203125 L 61.410156 26.203125 C 59.746094 31.335938 55.359375 34.828125 50.417969 34.828125 C 49.628906 34.828125 48.839844 34.738281 48.070312 34.5625 C 46.175781 34.125 44.175781 34.125 42.285156 34.5625 C 41.511719 34.738281 40.722656 34.828125 39.933594 34.828125 C 34.992188 34.828125 30.605469 31.335938 28.941406 26.203125 L 13.375 26.203125 Z M 13.375 87.171875 " fill-opacity="1" fill-rule="nonzero"/></g></svg>