<svg xmlns="http://www.w3.org/2000/svg" xmlns:xlink="http://www.w3.org/1999/xlink" width="120" zoomAndPan="magnify" viewBox="0 0 90 89.999999" height="120" preserveAspectRatio="xMidYMid meet" version="1.0"><defs><clipPath id="145d75aa54"><path d="M 27 44.910156 L 63 44.910156 L 63 45.660156 L 27 45.660156 Z M 27 44.910156 " clip-rule="nonzero"/></clipPath><clipPath id="f56062e3e1"><path d="M 0 1.6875 L 68 1.6875 L 68 88 L 0 88 Z M 0 1.6875 " clip-rule="nonzero"/></clipPath></defs><g clip-path="url(#145d75aa54)"><path fill="#ffffff" d="M 27 44.914062 L 63 44.914062 L 63 45.082031 L 27 45.082031 Z M 27 44.914062 " fill-opacity="1" fill-rule="nonzero"/></g><path fill="#242424" d="M 7.210938 59.125 C 6.164062 59.160156 2.359375 60.109375 2.199219 60.191406 C 1.703125 60.433594 1.660156 61.132812 1.660156 62.15625 C 1.667969 63.402344 1.707031 64.335938 1.808594 65.988281 C 1.839844 66.503906 2.089844 67.210938 2.558594 67.492188 C 3.539062 68.085938 7.808594 66.648438 8.535156 66.101562 C 9.113281 65.664062 9.257812 65.378906 9.234375 64.699219 C 9.1875 63.34375 9.167969 62.253906 9.160156 60.914062 C 9.15625 60.378906 9.210938 59.367188 8.746094 59.128906 C 8.378906 58.9375 7.605469 59.113281 7.210938 59.125 " fill-opacity="1" fill-rule="evenodd"/><path fill="#008f58" d="M 3.078125 58.167969 C 2.910156 58.28125 2.855469 60.960938 2.890625 61.820312 C 2.902344 62.171875 2.929688 62.652344 3.375 62.597656 C 4.429688 62.46875 7.582031 61.886719 7.726562 61.648438 C 7.992188 61.210938 7.945312 57.828125 7.847656 57.742188 C 7.699219 57.617188 3.902344 58.078125 3.078125 58.167969 " fill-opacity="1" fill-rule="evenodd"/><path fill="#008f58" d="M 3.308594 63.796875 C 3.03125 63.875 3.082031 64.164062 3.082031 64.402344 C 3.082031 64.996094 3.152344 66.355469 3.203125 66.804688 C 3.402344 68.503906 4.257812 70.445312 5.449219 71.710938 C 8.128906 74.550781 11.296875 74.898438 11.472656 74.746094 C 11.519531 74.710938 11.058594 73.167969 11.015625 71.726562 C 10.964844 70.167969 11.328125 68.699219 11.210938 68.632812 C 11.175781 68.613281 9.589844 68.71875 8.488281 66.351562 C 7.988281 65.285156 7.964844 63.898438 7.992188 63.164062 C 8.003906 62.84375 7.839844 62.691406 7.636719 62.753906 C 6.746094 63.023438 4.371094 63.5 3.308594 63.796875 " fill-opacity="1" fill-rule="evenodd"/><g clip-path="url(#f56062e3e1)"><path fill="#004da1" d="M 34.804688 5.148438 C 34.667969 5.195312 34.445312 5.929688 34.34375 6.683594 C 34.242188 7.429688 34.28125 9.0625 34.34375 9.050781 C 34.410156 9.039062 34.949219 8.050781 35.589844 7.1875 C 36.179688 6.390625 36.878906 5.71875 36.835938 5.679688 C 36.742188 5.597656 35.003906 5.171875 34.804688 5.148438 Z M 38.277344 87.429688 C 38.421875 87.542969 35.191406 88.386719 26.375 86.648438 C 18.542969 85.105469 10.683594 79.566406 10.644531 70.8125 C 10.625 66.167969 12.386719 60.882812 14.464844 56.765625 C 15.175781 55.359375 16.464844 54.421875 16.535156 54.132812 C 17.179688 51.4375 19.617188 39.261719 22.320312 30.726562 C 24.542969 23.707031 27.335938 20.042969 27.359375 19.960938 C 27.449219 19.625 24.472656 13.90625 22.429688 12.316406 C 22.292969 12.207031 18.773438 19.875 17.8125 22.597656 C 16.871094 25.273438 15.933594 27.953125 15.199219 30.695312 C 12.351562 41.339844 11.195312 48.917969 10.722656 53.902344 C 10.558594 55.59375 10.347656 56.6875 9.890625 57.269531 C 9.03125 58.378906 7.0625 58.582031 5.714844 58.597656 C 4.851562 58.605469 2.492188 58.710938 1.734375 58.222656 C 0.0273438 57.117188 0.277344 53.878906 0.730469 51.640625 C 1.925781 45.726562 2.820312 39.292969 4.765625 32.824219 C 6.167969 28.160156 7.945312 21.25 10.632812 15.601562 C 13.191406 10.230469 14.328125 7.261719 22.527344 5.332031 C 25.265625 4.6875 26.671875 4.546875 28.359375 5.628906 C 30.042969 6.707031 31.253906 8.242188 31.316406 8.027344 C 31.441406 7.574219 32.082031 5.589844 34.019531 4.515625 C 35.40625 3.742188 36.292969 3.203125 38.46875 3.40625 C 38.824219 3.4375 39.324219 2.398438 40.613281 2.0625 C 42.054688 1.683594 43.613281 1.851562 46.015625 2.148438 C 50.703125 2.726562 52.535156 3.640625 53.777344 8.25 C 54.050781 9.269531 54.613281 11.75 54.671875 12.042969 C 54.710938 12.25 56.644531 12.761719 58.246094 13.796875 C 60.757812 15.417969 61.84375 16.183594 63.210938 17.882812 C 66.292969 21.710938 67.789062 25.179688 67.445312 25.464844 C 67.320312 25.566406 65.054688 23.988281 64.898438 23.910156 C 63.28125 23.113281 61.605469 22.550781 59.8125 22.3125 C 54.855469 21.65625 49.753906 23.40625 45.644531 26.082031 C 40.164062 29.648438 39.042969 35.21875 37.855469 41.242188 C 35.917969 51.042969 35.355469 60.960938 35.1875 70.964844 C 35.003906 81.96875 34.464844 84.429688 38.277344 87.429688 " fill-opacity="1" fill-rule="evenodd"/></g><path fill="#004da1" d="M 34.820312 57.582031 C 34.914062 57.605469 34.339844 79.136719 34.453125 79.253906 C 34.492188 79.289062 40.84375 79.277344 46.234375 78.160156 C 62.246094 74.847656 73.628906 68.597656 76.84375 65.691406 C 76.957031 65.589844 76.796875 63.519531 76.796875 63.023438 C 76.796875 62.921875 78.734375 62.664062 80.5 61.945312 C 84.4375 60.339844 86.507812 59.242188 88.246094 56.160156 C 89.976562 53.09375 87.105469 48.867188 84.386719 46.328125 C 81.632812 43.753906 78.089844 42.171875 74.53125 41.277344 C 72.613281 40.796875 70.042969 41.171875 68.191406 41.617188 C 63.460938 42.746094 57.84375 44.613281 53.382812 46.5625 C 48.59375 48.652344 45.824219 49.492188 40.265625 53.097656 C 38.78125 54.058594 36.066406 56.332031 34.820312 57.582031 " fill-opacity="1" fill-rule="evenodd"/><path fill="#242424" d="M 34.484375 57.613281 C 34.484375 53.332031 35.601562 41.914062 36.523438 37.75 C 37.3125 34.195312 39.148438 30.734375 41.324219 27.757812 C 46.441406 20.777344 59.933594 17.496094 66.429688 24.023438 C 70.070312 27.675781 71.421875 31.574219 71.8125 36.628906 C 71.902344 37.800781 72.03125 41.019531 71.902344 41.085938 C 71.304688 41.386719 66.078125 42.105469 64.421875 42.644531 C 58.207031 44.660156 50.832031 47.222656 45.09375 50.421875 C 42.660156 51.785156 34.8125 57.285156 34.484375 57.613281 " fill-opacity="1" fill-rule="evenodd"/><path fill="#008f58" d="M 34.554688 78.515625 C 34.769531 78.730469 40.859375 78.257812 42.800781 78.054688 C 51.375 77.160156 59.445312 74.585938 67.195312 70.878906 C 69.546875 69.753906 71.90625 68.472656 74.105469 67.074219 C 74.5625 66.785156 76.882812 65.292969 76.882812 65.332031 C 76.96875 68.304688 77.21875 71.105469 74.785156 73.550781 C 73.917969 74.421875 72.699219 75.59375 71.308594 76.566406 C 64.285156 81.472656 54.644531 85.015625 46.332031 86.695312 C 43.5625 87.253906 38.472656 88.691406 36.082031 86.457031 C 34.234375 84.734375 34.554688 80.765625 34.554688 78.515625 " fill-opacity="1" fill-rule="evenodd"/><path fill="#ffffff" d="M 52.09375 59.40625 C 52.03125 59.433594 52.371094 67.257812 52.640625 67.480469 C 52.878906 67.679688 55.761719 67.007812 56.78125 66.738281 C 60.105469 65.855469 63.769531 64.347656 64.089844 64.085938 C 64.199219 63.996094 63.949219 59.183594 63.882812 58.886719 C 63.84375 58.710938 61.171875 57.394531 60.75 57.355469 C 60.539062 57.335938 59.292969 57.859375 57.753906 58.308594 C 56.265625 58.742188 53.617188 59.132812 52.09375 59.40625 " fill-opacity="1" fill-rule="evenodd"/><path fill="#242424" d="M 62.109375 58.445312 C 62.226562 59.425781 62.4375 62.601562 62.433594 63.335938 C 61.886719 63.621094 59.4375 64.554688 56.996094 65.132812 C 56.421875 65.269531 55.273438 65.578125 54.570312 65.703125 C 54.453125 65.726562 54.320312 65.738281 54.230469 65.746094 C 54.214844 65.660156 54.191406 65.542969 54.175781 65.421875 C 54.019531 64.242188 53.871094 61.453125 53.855469 60.640625 C 55.066406 60.4375 56.613281 60.117188 57.75 59.820312 C 58.804688 59.546875 61.332031 58.691406 62.109375 58.445312 Z M 53.558594 60.15625 C 53.539062 60.160156 53.519531 60.164062 53.5 60.171875 C 53.457031 60.191406 53.386719 60.226562 53.351562 60.332031 C 53.347656 60.351562 53.332031 60.433594 53.332031 60.574219 C 53.339844 61.292969 53.496094 64.257812 53.660156 65.492188 C 53.695312 65.773438 53.738281 65.96875 53.773438 66.054688 C 53.804688 66.136719 53.847656 66.179688 53.882812 66.203125 C 53.917969 66.230469 53.972656 66.257812 54.050781 66.269531 C 54.121094 66.28125 54.234375 66.28125 54.375 66.261719 C 55.019531 66.1875 56.449219 65.800781 57.113281 65.644531 C 59.84375 64.996094 62.574219 63.898438 62.835938 63.707031 C 62.863281 63.683594 62.90625 63.644531 62.929688 63.578125 C 62.9375 63.554688 62.949219 63.5 62.953125 63.417969 C 62.972656 62.941406 62.832031 60.660156 62.710938 59.242188 C 62.65625 58.601562 62.597656 58.128906 62.566406 58.039062 C 62.496094 57.855469 62.347656 57.851562 62.289062 57.859375 C 62.167969 57.867188 58.871094 58.988281 57.621094 59.3125 C 56.425781 59.621094 54.78125 59.960938 53.558594 60.15625 " fill-opacity="1" fill-rule="evenodd"/><path fill="#242424" d="M 26.007812 64.027344 C 26.292969 60.980469 26.675781 57.6875 26.882812 55.890625 C 27.605469 49.65625 28.296875 44.9375 29.480469 39.703125 C 30.472656 35.3125 32.230469 29.5 34.9375 25.828125 C 38.792969 20.597656 45.960938 17.472656 52.339844 16.695312 C 56.5625 16.179688 60.441406 16.6875 62.769531 18.328125 C 62.886719 18.410156 63.050781 18.382812 63.132812 18.261719 C 63.21875 18.144531 63.1875 17.980469 63.070312 17.898438 C 60.660156 16.199219 56.648438 15.640625 52.277344 16.171875 C 45.761719 16.96875 38.453125 20.175781 34.519531 25.515625 C 31.773438 29.242188 29.980469 35.132812 28.972656 39.585938 C 27.78125 44.839844 27.085938 49.574219 26.367188 55.832031 C 26.160156 57.628906 25.773438 60.925781 25.488281 63.980469 C 25.476562 64.125 25.582031 64.253906 25.722656 64.265625 C 25.867188 64.28125 25.996094 64.171875 26.007812 64.027344 " fill-opacity="1" fill-rule="evenodd"/><path fill="#242424" d="M 24.230469 63.46875 C 24.4375 61.699219 26.238281 46.707031 27.101562 42.433594 C 28.625 34.894531 30.394531 26.441406 36.644531 21.234375 C 40.242188 18.242188 45.007812 16.496094 49.507812 15.539062 C 52.804688 14.832031 56.773438 14.769531 60.066406 15.714844 C 60.203125 15.753906 60.347656 15.675781 60.386719 15.535156 C 60.429688 15.394531 60.347656 15.25 60.210938 15.210938 C 56.839844 14.246094 52.773438 14.304688 49.398438 15.023438 C 44.820312 16 39.972656 17.785156 36.3125 20.832031 C 29.96875 26.113281 28.136719 34.679688 26.589844 42.328125 C 25.726562 46.613281 23.921875 61.632812 23.710938 63.40625 C 23.695312 63.550781 23.796875 63.679688 23.941406 63.699219 C 24.085938 63.714844 24.214844 63.613281 24.230469 63.46875 " fill-opacity="1" fill-rule="evenodd"/><path fill="#242424" d="M 27.664062 20.449219 C 29.421875 18.285156 31.03125 17.066406 33.125 15.921875 C 38.054688 13.226562 43.734375 12.609375 49.34375 12.347656 C 51.21875 12.261719 52.730469 12.265625 54.265625 12.429688 C 54.410156 12.445312 54.539062 12.34375 54.554688 12.199219 C 54.570312 12.054688 54.464844 11.925781 54.320312 11.910156 C 52.761719 11.742188 51.226562 11.738281 49.320312 11.824219 C 43.628906 12.085938 37.875 12.730469 32.878906 15.460938 C 30.722656 16.640625 29.066406 17.894531 27.257812 20.117188 C 27.167969 20.230469 27.183594 20.394531 27.296875 20.484375 C 27.40625 20.578125 27.574219 20.5625 27.664062 20.449219 " fill-opacity="1" fill-rule="evenodd"/><path fill="#242424" d="M 14.566406 57.308594 C 15.742188 59.167969 16.777344 60.285156 18.046875 61.285156 C 21.964844 64.371094 29.71875 65.503906 34.496094 64.582031 C 34.636719 64.554688 34.730469 64.417969 34.703125 64.273438 C 34.675781 64.132812 34.539062 64.039062 34.398438 64.066406 C 29.742188 64.964844 22.183594 63.878906 18.371094 60.875 C 17.144531 59.90625 16.144531 58.824219 15.007812 57.027344 C 14.929688 56.90625 14.769531 56.871094 14.648438 56.949219 C 14.527344 57.027344 14.492188 57.1875 14.566406 57.308594 " fill-opacity="1" fill-rule="evenodd"/><path fill="#242424" d="M 13.140625 59.886719 C 14.402344 61.910156 15.648438 63.007812 17.011719 64.101562 C 21.230469 67.464844 29.242188 68.410156 34.382812 67.402344 C 34.527344 67.375 34.617188 67.238281 34.589844 67.09375 C 34.5625 66.953125 34.425781 66.859375 34.285156 66.886719 C 29.265625 67.871094 21.449219 66.972656 17.339844 63.6875 C 16.015625 62.632812 14.804688 61.570312 13.582031 59.605469 C 13.503906 59.484375 13.34375 59.449219 13.222656 59.523438 C 13.101562 59.601562 13.0625 59.761719 13.140625 59.886719 " fill-opacity="1" fill-rule="evenodd"/><path fill="#242424" d="M 34.484375 57.3125 C 34.363281 62.609375 34.0625 75.925781 34.148438 81.375 C 34.183594 83.566406 34.59375 84.902344 35.191406 85.777344 C 35.800781 86.671875 36.613281 87.101562 37.476562 87.464844 C 37.609375 87.519531 37.761719 87.457031 37.816406 87.324219 C 37.875 87.191406 37.8125 87.039062 37.675781 86.980469 C 36.90625 86.65625 36.167969 86.28125 35.621094 85.480469 C 35.0625 84.664062 34.703125 83.414062 34.671875 81.367188 C 34.582031 75.921875 34.882812 62.617188 35.003906 57.328125 C 35.007812 57.179688 34.894531 57.0625 34.75 57.058594 C 34.605469 57.054688 34.488281 57.167969 34.484375 57.3125 " fill-opacity="1" fill-rule="evenodd"/><path fill="#242424" d="M 14.890625 9.828125 C 15.777344 9.207031 16.230469 9.015625 17.222656 9.007812 C 18.878906 8.996094 20.5 10.257812 21.972656 11.960938 C 24.257812 14.597656 26.164062 18.308594 27.222656 20.335938 C 27.289062 20.464844 27.445312 20.511719 27.574219 20.445312 C 27.703125 20.378906 27.75 20.21875 27.683594 20.089844 C 26.613281 18.039062 24.679688 14.285156 22.367188 11.617188 C 20.78125 9.78125 19.003906 8.46875 17.21875 8.484375 C 16.101562 8.492188 15.59375 8.695312 14.59375 9.398438 C 14.472656 9.480469 14.445312 9.644531 14.527344 9.765625 C 14.609375 9.882812 14.773438 9.910156 14.890625 9.828125 " fill-opacity="1" fill-rule="evenodd"/><path fill="#242424" d="M 5.660156 58.308594 C 9.3125 29.398438 14.242188 18.601562 19.53125 9.703125 C 19.605469 9.578125 19.5625 9.414062 19.4375 9.339844 C 19.316406 9.265625 19.15625 9.308594 19.082031 9.433594 C 13.769531 18.371094 8.808594 29.210938 5.140625 58.242188 C 5.125 58.386719 5.226562 58.519531 5.367188 58.535156 C 5.511719 58.554688 5.640625 58.453125 5.660156 58.308594 " fill-opacity="1" fill-rule="evenodd"/><path fill="#242424" d="M 22.414062 6.019531 C 22.761719 6.371094 23.144531 6.691406 23.5 7.039062 C 24.222656 7.742188 24.933594 8.457031 25.625 9.191406 C 27.785156 11.480469 29.6875 13.902344 31.324219 16.582031 C 31.402344 16.707031 31.5625 16.746094 31.683594 16.671875 C 31.808594 16.59375 31.84375 16.433594 31.769531 16.308594 C 30.113281 13.597656 28.191406 11.148438 26.007812 8.832031 C 25.308594 8.089844 24.59375 7.371094 23.863281 6.664062 C 23.507812 6.316406 23.128906 5.996094 22.78125 5.648438 C 22.675781 5.546875 22.511719 5.546875 22.410156 5.648438 C 22.308594 5.753906 22.308594 5.917969 22.414062 6.019531 " fill-opacity="1" fill-rule="evenodd"/><path fill="#242424" d="M 32.621094 15.800781 C 32.140625 13.929688 31.910156 12.847656 31.691406 11.785156 C 31.214844 9.457031 31.398438 7.683594 32.207031 6.390625 C 33.011719 5.109375 34.421875 4.324219 36.359375 3.933594 C 36.5 3.90625 36.59375 3.765625 36.566406 3.625 C 36.535156 3.484375 36.398438 3.390625 36.257812 3.417969 C 34.15625 3.84375 32.636719 4.722656 31.765625 6.113281 C 30.898438 7.496094 30.667969 9.394531 31.179688 11.890625 C 31.402344 12.960938 31.632812 14.050781 32.117188 15.929688 C 32.152344 16.070312 32.296875 16.152344 32.4375 16.117188 C 32.574219 16.082031 32.660156 15.9375 32.621094 15.800781 " fill-opacity="1" fill-rule="evenodd"/><path fill="#242424" d="M 36.09375 14.050781 C 35.410156 12.871094 34.410156 9.800781 34.5 7.292969 C 34.558594 5.710938 35.042969 4.34375 36.414062 3.921875 C 36.550781 3.878906 36.628906 3.730469 36.585938 3.59375 C 36.542969 3.453125 36.398438 3.375 36.257812 3.417969 C 34.675781 3.910156 34.046875 5.445312 33.980469 7.277344 C 33.886719 9.886719 34.929688 13.082031 35.640625 14.3125 C 35.714844 14.4375 35.875 14.480469 36 14.410156 C 36.125 14.335938 36.164062 14.175781 36.09375 14.050781 " fill-opacity="1" fill-rule="evenodd"/><path fill="#242424" d="M 34.820312 5.347656 C 36.214844 5.597656 37.125 5.988281 37.738281 6.265625 C 40.3125 7.429688 42.292969 10.015625 43.429688 12.558594 C 43.492188 12.691406 43.644531 12.75 43.777344 12.691406 C 43.90625 12.632812 43.964844 12.476562 43.90625 12.34375 C 42.71875 9.6875 40.640625 7.003906 37.949219 5.789062 C 37.3125 5.5 36.363281 5.089844 34.914062 4.832031 C 34.773438 4.804688 34.636719 4.902344 34.609375 5.042969 C 34.585938 5.1875 34.679688 5.320312 34.820312 5.347656 " fill-opacity="1" fill-rule="evenodd"/><path fill="#242424" d="M 37.316406 13.972656 C 37.472656 13.488281 38.132812 12.164062 38.34375 11.703125 C 38.976562 10.3125 39.675781 9.148438 40.539062 8.0625 C 40.628906 7.949219 40.609375 7.785156 40.5 7.695312 C 40.386719 7.605469 40.222656 7.621094 40.132812 7.734375 C 39.242188 8.851562 38.523438 10.050781 37.867188 11.484375 C 37.652344 11.953125 36.980469 13.316406 36.820312 13.808594 C 36.773438 13.945312 36.851562 14.09375 36.988281 14.140625 C 37.125 14.183594 37.269531 14.109375 37.316406 13.972656 " fill-opacity="1" fill-rule="evenodd"/><path fill="#242424" d="M 46.347656 2.835938 C 47.910156 4.953125 49.542969 9.117188 50.023438 11.957031 C 50.046875 12.097656 50.179688 12.195312 50.324219 12.171875 C 50.464844 12.148438 50.5625 12.011719 50.539062 11.867188 C 50.046875 8.960938 48.367188 4.695312 46.765625 2.523438 C 46.679688 2.40625 46.515625 2.382812 46.398438 2.46875 C 46.285156 2.554688 46.261719 2.71875 46.347656 2.835938 " fill-opacity="1" fill-rule="evenodd"/><path fill="#242424" d="M 36.394531 3.925781 C 39.386719 3.109375 41.691406 4.957031 42.382812 5.492188 C 44.472656 7.097656 46.308594 9.886719 47.507812 12.191406 C 47.578125 12.320312 47.734375 12.367188 47.863281 12.300781 C 47.988281 12.234375 48.039062 12.074219 47.972656 11.949219 C 46.738281 9.582031 44.847656 6.726562 42.703125 5.074219 C 41.957031 4.503906 39.476562 2.542969 36.257812 3.417969 C 36.117188 3.457031 36.035156 3.601562 36.074219 3.738281 C 36.109375 3.878906 36.253906 3.960938 36.394531 3.925781 " fill-opacity="1" fill-rule="evenodd"/><path fill="#242424" d="M 34.890625 57.539062 C 38.519531 56.074219 41.257812 55.222656 42.292969 54.976562 C 46.507812 53.96875 51.753906 54.140625 56.042969 54.613281 C 60.335938 55.085938 64.496094 57.488281 68.664062 59.433594 C 72.917969 61.421875 77.183594 62.929688 81.589844 61.578125 C 81.726562 61.535156 81.804688 61.390625 81.765625 61.25 C 81.722656 61.113281 81.574219 61.035156 81.4375 61.078125 C 77.15625 62.390625 73.019531 60.890625 68.886719 58.960938 C 64.664062 56.988281 60.449219 54.570312 56.097656 54.089844 C 51.753906 53.613281 46.441406 53.445312 42.171875 54.464844 C 41.128906 54.714844 38.363281 55.570312 34.695312 57.050781 C 34.5625 57.105469 34.496094 57.257812 34.550781 57.390625 C 34.601562 57.527344 34.753906 57.59375 34.890625 57.539062 " fill-opacity="1" fill-rule="evenodd"/><path fill="#242424" d="M 35.003906 59.117188 C 38.636719 57.652344 41.375 56.800781 42.40625 56.554688 C 46.625 55.550781 51.867188 55.71875 56.15625 56.191406 C 59.210938 56.527344 61.976562 57.945312 64.738281 59.398438 C 67.550781 60.878906 70.359375 62.402344 73.445312 62.921875 C 75.949219 63.339844 78.328125 63.410156 81.617188 61.632812 C 81.742188 61.566406 81.792969 61.40625 81.722656 61.277344 C 81.65625 61.152344 81.496094 61.101562 81.371094 61.171875 C 78.214844 62.875 75.933594 62.804688 73.53125 62.402344 C 70.5 61.894531 67.742188 60.390625 64.980469 58.933594 C 62.160156 57.449219 59.332031 56.015625 56.214844 55.671875 C 51.871094 55.191406 46.558594 55.027344 42.289062 56.042969 C 41.242188 56.292969 38.480469 57.152344 34.8125 58.628906 C 34.675781 58.683594 34.613281 58.835938 34.664062 58.972656 C 34.71875 59.105469 34.871094 59.171875 35.003906 59.117188 " fill-opacity="1" fill-rule="evenodd"/><path fill="#242424" d="M 48.707031 49.792969 C 54.132812 50.25 57.507812 51.0625 59.886719 51.691406 C 62.359375 52.34375 64.683594 53.246094 66.980469 54.371094 C 69.257812 55.492188 72.066406 57.125 74.925781 58.042969 C 76.867188 58.667969 78.832031 58.964844 80.675781 58.566406 C 83.574219 57.945312 85.089844 56.742188 85.613281 55.269531 C 86.144531 53.796875 85.6875 52.023438 84.558594 50.21875 C 82.382812 46.726562 77.703125 43.085938 73.3125 41.320312 C 73.179688 41.265625 73.027344 41.328125 72.972656 41.464844 C 72.917969 41.597656 72.984375 41.75 73.117188 41.804688 C 77.410156 43.535156 81.988281 47.082031 84.117188 50.496094 C 85.144531 52.140625 85.605469 53.75 85.125 55.09375 C 84.640625 56.441406 83.21875 57.488281 80.566406 58.054688 C 78.808594 58.433594 76.9375 58.140625 75.082031 57.542969 C 72.25 56.632812 69.46875 55.011719 67.210938 53.902344 C 64.882812 52.757812 62.523438 51.847656 60.019531 51.183594 C 57.625 50.546875 54.21875 49.730469 48.75 49.273438 C 48.605469 49.257812 48.480469 49.367188 48.46875 49.511719 C 48.457031 49.65625 48.5625 49.78125 48.707031 49.792969 " fill-opacity="1" fill-rule="evenodd"/><path fill="#fe4200" d="M 34.042969 32.726562 C 34.335938 33.359375 37.589844 39.792969 38.839844 42.09375 C 39.558594 43.414062 41.785156 47.695312 41.925781 47.425781 C 42.433594 46.457031 43.765625 43.261719 43.710938 43.007812 C 43.578125 42.382812 39.574219 35.152344 39.628906 34.828125 C 39.664062 34.625 41.4375 34.40625 42.65625 34.734375 C 44.804688 35.320312 45.699219 36.75 45.808594 36.730469 C 45.914062 36.707031 47.445312 33.0625 47.308594 32.65625 C 47.183594 32.292969 42.691406 27.679688 36.160156 31.40625 C 35.640625 31.703125 34.476562 32.308594 34.042969 32.726562 " fill-opacity="1" fill-rule="evenodd"/><path fill="#242424" d="M 35.585938 34.632812 L 35.734375 34.566406 C 35.988281 34.453125 36.242188 34.339844 36.496094 34.222656 C 36.625 34.164062 36.683594 34.007812 36.625 33.875 C 36.566406 33.742188 36.410156 33.6875 36.28125 33.746094 C 36.027344 33.859375 35.777344 33.976562 35.523438 34.085938 C 35.503906 34.09375 35.382812 34.144531 35.320312 34.179688 C 35.277344 34.203125 35.246094 34.226562 35.230469 34.246094 C 35.148438 34.328125 35.144531 34.417969 35.152344 34.476562 C 35.175781 34.621094 35.308594 34.71875 35.449219 34.695312 C 35.503906 34.6875 35.550781 34.664062 35.585938 34.632812 " fill-opacity="1" fill-rule="evenodd"/><path fill="#242424" d="M 36.84375 37.207031 L 36.988281 37.140625 C 37.246094 37.03125 37.5 36.914062 37.753906 36.796875 C 37.882812 36.738281 37.941406 36.582031 37.882812 36.449219 C 37.824219 36.320312 37.667969 36.261719 37.535156 36.320312 C 37.285156 36.433594 37.035156 36.550781 36.78125 36.660156 C 36.761719 36.671875 36.640625 36.71875 36.578125 36.753906 C 36.535156 36.777344 36.503906 36.800781 36.488281 36.820312 C 36.40625 36.902344 36.398438 36.992188 36.410156 37.054688 C 36.433594 37.195312 36.566406 37.292969 36.707031 37.269531 C 36.761719 37.261719 36.808594 37.238281 36.84375 37.207031 " fill-opacity="1" fill-rule="evenodd"/><path fill="#242424" d="M 38.1875 39.757812 L 38.332031 39.691406 C 38.585938 39.578125 38.839844 39.464844 39.09375 39.347656 C 39.226562 39.289062 39.285156 39.132812 39.226562 39 C 39.164062 38.867188 39.011719 38.8125 38.878906 38.871094 C 38.625 38.984375 38.375 39.101562 38.121094 39.210938 C 38.101562 39.21875 37.984375 39.269531 37.921875 39.304688 C 37.878906 39.328125 37.847656 39.351562 37.828125 39.371094 C 37.746094 39.453125 37.742188 39.542969 37.753906 39.601562 C 37.773438 39.746094 37.90625 39.84375 38.050781 39.820312 C 38.101562 39.8125 38.148438 39.789062 38.1875 39.757812 " fill-opacity="1" fill-rule="evenodd"/><path fill="#242424" d="M 39.519531 42.285156 L 39.667969 42.222656 C 39.921875 42.109375 40.175781 41.996094 40.429688 41.878906 C 40.5625 41.820312 40.617188 41.664062 40.558594 41.53125 C 40.5 41.398438 40.34375 41.34375 40.214844 41.402344 C 39.960938 41.515625 39.710938 41.632812 39.457031 41.742188 C 39.4375 41.75 39.320312 41.796875 39.253906 41.832031 C 39.210938 41.855469 39.179688 41.882812 39.164062 41.898438 C 39.082031 41.984375 39.078125 42.074219 39.085938 42.132812 C 39.109375 42.277344 39.242188 42.375 39.386719 42.351562 C 39.4375 42.34375 39.484375 42.320312 39.519531 42.285156 " fill-opacity="1" fill-rule="evenodd"/><path fill="#242424" d="M 40.929688 44.777344 L 41.078125 44.710938 C 41.332031 44.601562 41.585938 44.484375 41.839844 44.371094 C 41.96875 44.308594 42.027344 44.152344 41.96875 44.023438 C 41.910156 43.890625 41.753906 43.832031 41.625 43.890625 C 41.371094 44.007812 41.121094 44.121094 40.867188 44.234375 C 40.847656 44.242188 40.726562 44.289062 40.664062 44.324219 C 40.621094 44.347656 40.589844 44.371094 40.574219 44.390625 C 40.492188 44.472656 40.488281 44.5625 40.496094 44.625 C 40.519531 44.765625 40.652344 44.863281 40.792969 44.84375 C 40.847656 44.832031 40.894531 44.808594 40.929688 44.777344 " fill-opacity="1" fill-rule="evenodd"/><path fill="#fb9be8" d="M 55.148438 27.136719 C 55.042969 27.109375 56.824219 24.332031 57.40625 23.746094 C 57.507812 23.648438 59.09375 23.296875 59.148438 23.347656 C 60.125 24.328125 70.730469 30.925781 72.96875 32.890625 C 73.984375 33.785156 77.117188 35.925781 76.964844 36.234375 C 76.460938 37.246094 74.679688 40.855469 74.320312 41.21875 C 74.285156 41.25 73.449219 41.109375 72.394531 41.164062 C 71.375 41.214844 70.054688 41.535156 70.035156 41.496094 C 69.347656 40.246094 55.921875 27.914062 55.148438 27.136719 " fill-opacity="1" fill-rule="evenodd"/><path fill="#242424" d="M 58.660156 23.640625 C 58.496094 23.914062 58.136719 24.511719 57.972656 24.78125 C 57.476562 25.59375 57.015625 26.417969 56.554688 27.242188 C 56.484375 27.371094 56.527344 27.53125 56.65625 27.601562 C 56.78125 27.671875 56.941406 27.625 57.011719 27.5 C 57.464844 26.679688 57.925781 25.859375 58.417969 25.058594 C 58.582031 24.785156 58.9375 24.1875 59.105469 23.917969 C 59.183594 23.792969 59.144531 23.632812 59.019531 23.554688 C 58.898438 23.480469 58.738281 23.519531 58.660156 23.640625 " fill-opacity="1" fill-rule="evenodd"/><path fill="#242424" d="M 17.03125 53.246094 C 16.984375 53.246094 16.710938 55.164062 16.652344 56.714844 C 16.582031 58.652344 16.78125 59.800781 16.757812 59.777344 C 16.492188 59.507812 14.496094 57.480469 14.480469 57.117188 C 14.472656 56.808594 14.910156 56.203125 15.046875 55.949219 C 15.144531 55.765625 16.5 53.746094 17.03125 53.246094 " fill-opacity="1" fill-rule="evenodd"/><path fill="#ffffff" d="M 44.882812 20.953125 C 45.210938 20.953125 45.476562 21.210938 45.476562 21.535156 C 45.476562 21.855469 45.210938 22.113281 44.882812 22.113281 C 44.554688 22.113281 44.289062 21.855469 44.289062 21.535156 C 44.289062 21.210938 44.554688 20.953125 44.882812 20.953125 Z M 46.042969 17.054688 C 45.703125 17.222656 43.988281 20.015625 43.59375 21.089844 C 43.296875 21.90625 43.421875 22.808594 44.671875 23.007812 C 45.925781 23.207031 46.191406 21.914062 46.503906 20.816406 C 46.644531 20.328125 46.675781 20.003906 46.828125 19.3125 C 46.839844 19.25 49.234375 18.554688 49.304688 18.410156 C 49.371094 18.28125 48.804688 16.359375 48.648438 16.332031 C 48.285156 16.273438 47.164062 16.492188 46.042969 17.054688 " fill-opacity="1" fill-rule="evenodd"/><path fill="#242424" d="M 46.546875 18.777344 L 46.546875 18.78125 Z M 46.542969 18.785156 C 46.539062 18.804688 46.53125 18.828125 46.527344 18.855469 C 46.53125 18.832031 46.535156 18.808594 46.542969 18.785156 Z M 46.527344 18.867188 L 46.527344 18.871094 L 46.527344 18.863281 Z M 47.019531 18.765625 C 47 18.714844 46.867188 18.367188 46.828125 18.269531 C 46.742188 18.054688 46.554688 17.546875 46.472656 17.328125 C 46.417969 17.195312 46.269531 17.125 46.132812 17.179688 C 46 17.230469 45.933594 17.382812 45.984375 17.519531 C 46.070312 17.738281 46.257812 18.246094 46.34375 18.464844 C 46.386719 18.570312 46.515625 18.925781 46.542969 18.984375 C 46.59375 19.101562 46.683594 19.128906 46.691406 19.132812 C 46.785156 19.167969 46.863281 19.148438 46.925781 19.109375 C 46.964844 19.082031 47.046875 19.023438 47.046875 18.886719 C 47.046875 18.84375 47.035156 18.804688 47.019531 18.765625 " fill-opacity="1" fill-rule="evenodd"/><path fill="#242424" d="M 46.65625 17.738281 C 46.542969 17.757812 46.449219 17.847656 46.4375 17.96875 C 46.421875 18.113281 46.527344 18.242188 46.667969 18.257812 C 46.683594 18.257812 46.710938 18.261719 46.746094 18.253906 C 46.769531 18.25 46.863281 18.226562 46.992188 18.183594 C 47.433594 18.035156 48.425781 17.6875 48.675781 17.617188 L 48.695312 17.613281 C 48.824219 17.597656 48.925781 17.488281 48.925781 17.355469 C 48.925781 17.207031 48.808594 17.089844 48.664062 17.089844 C 48.640625 17.089844 48.535156 17.113281 48.386719 17.160156 C 47.949219 17.296875 46.949219 17.648438 46.683594 17.730469 L 46.65625 17.738281 " fill-opacity="1" fill-rule="evenodd"/><path fill="#ffb700" d="M 49.324219 27.214844 C 48.339844 29.664062 47.941406 30.5625 47.347656 32.179688 C 45.613281 36.925781 43.792969 41.636719 42.082031 46.390625 C 41.472656 48.097656 39.691406 53.808594 39.738281 53.898438 C 39.742188 53.902344 41.960938 52.480469 44.214844 51.320312 C 47.660156 49.542969 58.425781 44.230469 65.292969 42.574219 C 65.785156 42.453125 70.589844 41.417969 70.605469 41.371094 C 70.703125 41.078125 71.273438 38.886719 71.890625 36.898438 C 72.714844 34.25 73.785156 31.28125 73.6875 30.929688 C 73.664062 30.832031 68.128906 29.769531 62.679688 28.492188 C 57.335938 27.238281 51.765625 25.824219 51.671875 25.847656 C 51.132812 25.976562 49.929688 26.804688 49.324219 27.214844 " fill-opacity="1" fill-rule="evenodd"/><path fill="#ffffff" d="M 52.878906 31.304688 C 52.652344 31.75 51.394531 34.78125 51.703125 34.925781 C 52.210938 35.171875 67.808594 38.800781 67.863281 38.691406 C 68.074219 38.25 69.171875 35.402344 69.023438 34.96875 C 68.914062 34.648438 55.820312 31.863281 52.878906 31.304688 " fill-opacity="1" fill-rule="evenodd"/><path fill="#242424" d="M 51.175781 26.207031 C 50.003906 28.375 48.746094 32.074219 48.382812 33.011719 C 45.917969 39.382812 43.78125 45.398438 41.625 52.261719 C 41.578125 52.398438 41.65625 52.546875 41.792969 52.589844 C 41.929688 52.632812 42.078125 52.554688 42.121094 52.417969 C 44.273438 45.570312 46.410156 39.5625 48.871094 33.203125 C 49.230469 32.273438 50.472656 28.605469 51.636719 26.457031 C 51.703125 26.328125 51.65625 26.167969 51.53125 26.101562 C 51.40625 26.03125 51.246094 26.078125 51.175781 26.207031 " fill-opacity="1" fill-rule="evenodd"/><path fill="#242424" d="M 53.621094 33.726562 C 54.746094 33.90625 55.867188 34.113281 56.984375 34.34375 C 60.324219 35.027344 63.675781 35.808594 66.953125 36.796875 C 67.09375 36.839844 67.238281 36.761719 67.28125 36.625 C 67.320312 36.484375 67.242188 36.339844 67.105469 36.296875 C 63.8125 35.304688 60.441406 34.515625 57.089844 33.828125 C 55.964844 33.597656 54.835938 33.390625 53.703125 33.207031 C 53.5625 33.183594 53.425781 33.28125 53.40625 33.425781 C 53.382812 33.570312 53.480469 33.703125 53.621094 33.726562 " fill-opacity="1" fill-rule="evenodd"/></svg>