<svg xmlns="http://www.w3.org/2000/svg" xmlns:xlink="http://www.w3.org/1999/xlink" width="40" zoomAndPan="magnify" viewBox="0 0 30 30.000001" height="40" preserveAspectRatio="xMidYMid meet" version="1.0"><defs><clipPath id="6eab45864f"><path d="M 11 11 L 22 11 L 22 28.160156 L 11 28.160156 Z M 11 11 " clip-rule="nonzero"/></clipPath><clipPath id="2f7214bd7e"><path d="M 27 13 L 29.515625 13 L 29.515625 16 L 27 16 Z M 27 13 " clip-rule="nonzero"/></clipPath><clipPath id="4b400d80cb"><path d="M 5 0.582031 L 6 0.582031 L 6 1 L 5 1 Z M 5 0.582031 " clip-rule="nonzero"/></clipPath><clipPath id="1856d6b9a8"><path d="M 5 0.582031 L 29 0.582031 L 29 15 L 5 15 Z M 5 0.582031 " clip-rule="nonzero"/></clipPath><clipPath id="82e7a1ea56"><path d="M 5 0.582031 L 10 0.582031 L 10 4 L 5 4 Z M 5 0.582031 " clip-rule="nonzero"/></clipPath></defs><path fill="#f4e182" d="M 18.203125 1.757812 C 19.34375 2.890625 23.707031 7.199219 25.558594 9.082031 C 25.613281 9.136719 25.648438 9.207031 25.660156 9.285156 C 25.695312 9.5 25.78125 9.976562 25.828125 10.410156 C 25.839844 10.527344 25.796875 10.648438 25.707031 10.726562 C 24.726562 11.628906 18.847656 17.035156 17.4375 18.160156 C 17.300781 18.273438 17.097656 18.273438 16.953125 18.160156 C 16.664062 17.929688 16.1875 17.539062 16.050781 17.390625 C 16.050781 17.390625 11.5625 12.027344 9.910156 9.480469 C 9.808594 9.324219 9.835938 9.125 9.96875 9 C 11.117188 7.9375 16.175781 3.246094 17.648438 1.765625 C 17.804688 1.609375 18.050781 1.609375 18.203125 1.757812 Z M 18.203125 1.757812 " fill-opacity="1" fill-rule="nonzero"/><path fill="#281c22" d="M 25.203125 9.402344 C 25.257812 9.347656 25.347656 9.433594 25.289062 9.488281 C 22.386719 12.128906 19.207031 14.476562 16.523438 17.339844 C 16.46875 17.390625 16.386719 17.308594 16.441406 17.253906 C 19.128906 14.390625 22.304688 12.046875 25.203125 9.402344 Z M 25.367188 9.582031 C 24.738281 10.265625 24.019531 10.863281 23.328125 11.480469 C 22.605469 12.125 21.882812 12.765625 21.160156 13.410156 C 19.71875 14.695312 18.273438 15.988281 16.832031 17.273438 C 16.769531 17.328125 16.863281 17.410156 16.914062 17.355469 C 18.359375 16.070312 19.800781 14.777344 21.246094 13.492188 C 21.957031 12.863281 22.660156 12.230469 23.367188 11.601562 C 24.074219 10.96875 24.8125 10.363281 25.449219 9.660156 C 25.503906 9.613281 25.417969 9.527344 25.367188 9.582031 Z M 25.539062 9.921875 C 22.804688 12.546875 20.023438 15.128906 17.203125 17.671875 C 17.144531 17.726562 17.234375 17.808594 17.289062 17.753906 C 20.109375 15.214844 22.886719 12.628906 25.625 10.003906 C 25.679688 9.949219 25.59375 9.867188 25.539062 9.921875 Z M 25.550781 10.46875 C 22.898438 12.925781 20.242188 15.386719 17.589844 17.84375 C 17.535156 17.898438 17.621094 17.980469 17.671875 17.929688 C 20.324219 15.46875 22.984375 13.011719 25.636719 10.550781 C 25.695312 10.5 25.613281 10.414062 25.550781 10.46875 Z M 25.550781 10.46875 " fill-opacity="1" fill-rule="nonzero"/><path fill="#ed5a32" d="M 14.289062 16.773438 C 11.882812 13.351562 14.859375 11.226562 12.441406 8.46875 C 10.222656 5.945312 7.460938 7.535156 8.042969 9.925781 C 8.484375 11.699219 12.875 17.96875 13.453125 17.71875 C 13.738281 17.59375 13.988281 17.402344 14.234375 17.191406 C 14.359375 17.089844 14.382812 16.902344 14.289062 16.773438 Z M 11.84375 12.503906 C 11.027344 12.875 10.082031 12.253906 9.542969 11.085938 C 9 9.921875 8.917969 8.640625 9.734375 8.273438 C 10.550781 7.902344 11.714844 8.628906 12.253906 9.796875 C 12.789062 10.960938 12.65625 12.136719 11.84375 12.503906 Z M 12.273438 19.40625 C 12.457031 19.136719 12.621094 18.875 12.710938 18.578125 C 12.890625 17.976562 6.089844 14.390625 4.261719 14.171875 C 1.789062 13.875 0.519531 16.777344 3.3125 18.660156 C 6.359375 20.71875 8.140625 17.539062 11.859375 19.503906 C 12 19.582031 12.175781 19.542969 12.273438 19.40625 Z M 4.617188 18.316406 C 3.382812 17.917969 2.511719 16.863281 2.789062 16.015625 C 3.066406 15.171875 4.359375 15.105469 5.589844 15.5 C 6.824219 15.898438 7.558594 16.75 7.28125 17.601562 C 7.011719 18.453125 5.855469 18.714844 4.617188 18.316406 Z M 4.617188 18.316406 " fill-opacity="1" fill-rule="nonzero"/><path fill="#dbb4c8" d="M 22.585938 25.046875 L 18.183594 22.644531 L 21.109375 26.671875 C 21.210938 26.816406 21.089844 27.007812 20.921875 26.984375 C 19.707031 26.820312 18.316406 26.023438 17.476562 25.035156 C 16.820312 24.269531 14.640625 21.269531 14.089844 20.46875 C 14.070312 20.441406 14.054688 20.410156 14.039062 20.378906 L 12.277344 19.417969 L 12.632812 18.816406 C 12.632812 18.816406 13.386719 19.058594 14.132812 19.082031 C 14.023438 18.339844 13.679688 17.617188 13.679688 17.617188 L 14.238281 17.203125 L 15.429688 18.84375 C 15.464844 18.851562 15.503906 18.863281 15.539062 18.878906 C 16.410156 19.332031 19.671875 21.117188 20.519531 21.671875 C 21.605469 22.386719 22.574219 23.65625 22.875 24.832031 C 22.917969 24.996094 22.738281 25.132812 22.585938 25.046875 Z M 6.300781 21.683594 C 5.878906 22.15625 5.488281 22.660156 5.175781 23.207031 C 4.964844 23.570312 4.785156 24.066406 5.085938 24.441406 C 5.367188 24.792969 5.890625 24.738281 6.238281 24.519531 C 6.75 24.195312 7.128906 23.613281 7.515625 23.15625 C 7.894531 22.695312 8.339844 22.238281 8.542969 21.667969 C 8.683594 21.285156 8.734375 20.683594 8.261719 20.511719 C 7.753906 20.328125 7.382812 20.898438 7.128906 21.226562 C 6.726562 21.742188 6.277344 22.292969 6.003906 22.886719 C 5.84375 23.238281 5.769531 23.78125 6.34375 23.726562 C 6.59375 23.703125 6.78125 23.519531 6.925781 23.328125 C 7.171875 23 7.394531 22.644531 7.625 22.296875 C 7.691406 22.203125 7.535156 22.113281 7.46875 22.207031 C 7.292969 22.464844 7.125 22.71875 6.949219 22.976562 C 6.8125 23.179688 6.515625 23.683594 6.1875 23.542969 C 5.734375 23.34375 6.601562 22.253906 6.761719 22.03125 C 6.914062 21.820312 7.0625 21.613281 7.226562 21.40625 C 7.40625 21.167969 7.648438 20.753906 7.964844 20.679688 C 8.53125 20.535156 8.507812 21.21875 8.410156 21.535156 C 8.332031 21.796875 8.195312 22.03125 8.03125 22.25 C 7.707031 22.695312 7.335938 23.117188 6.972656 23.542969 C 6.65625 23.917969 6.265625 24.5 5.71875 24.519531 C 5.367188 24.53125 5.117188 24.292969 5.117188 23.953125 C 5.117188 23.648438 5.289062 23.382812 5.445312 23.132812 C 5.742188 22.667969 6.070312 22.226562 6.4375 21.816406 C 6.503906 21.726562 6.378906 21.601562 6.300781 21.683594 Z M 6.300781 21.683594 " fill-opacity="1" fill-rule="nonzero"/><g clip-path="url(#6eab45864f)"><path fill="#ff97d5" d="M 20.457031 12.277344 L 21.824219 15.957031 C 21.824219 15.957031 22.347656 17.179688 21.210938 17.570312 C 20.074219 17.964844 18.417969 18.875 17.90625 17.390625 C 16.835938 14.289062 15.6875 12.402344 17.570312 11.457031 C 19.453125 10.511719 20.210938 11.613281 20.457031 12.277344 Z M 11.9375 25.5 C 12.042969 25.78125 12.144531 26.058594 12.253906 26.339844 C 12.320312 26.507812 12.394531 26.679688 12.550781 26.785156 C 12.84375 26.988281 13.1875 26.796875 13.210938 26.453125 C 13.230469 26.226562 13.109375 26.011719 13.019531 25.808594 C 12.886719 25.5 12.753906 25.195312 12.621094 24.886719 C 12.445312 24.480469 12.273438 23.851562 11.742188 23.78125 C 11.394531 23.730469 11.140625 24.011719 11.09375 24.332031 C 11.058594 24.566406 11.128906 24.796875 11.214844 25.011719 C 11.335938 25.328125 11.464844 25.644531 11.59375 25.957031 C 11.808594 26.488281 11.996094 27.054688 12.273438 27.554688 C 12.457031 27.886719 12.773438 28.160156 13.179688 28.089844 C 13.703125 27.996094 13.835938 27.496094 13.726562 27.046875 C 13.554688 26.328125 13.324219 25.621094 13.085938 24.917969 C 13.046875 24.808594 12.875 24.855469 12.910156 24.964844 C 13.066406 25.421875 13.210938 25.882812 13.347656 26.34375 C 13.476562 26.792969 13.882812 27.683594 13.222656 27.898438 C 12.632812 28.089844 12.378906 27.382812 12.207031 26.976562 C 12.015625 26.519531 11.820312 26.058594 11.636719 25.601562 C 11.480469 25.207031 11.101562 24.582031 11.339844 24.167969 C 11.542969 23.816406 11.953125 24 12.132812 24.273438 C 12.265625 24.476562 12.351562 24.71875 12.441406 24.941406 C 12.53125 25.144531 12.617188 25.351562 12.707031 25.554688 C 12.820312 25.816406 13.035156 26.148438 13.03125 26.433594 C 13.019531 26.734375 12.632812 26.714844 12.5 26.488281 C 12.445312 26.394531 12.410156 26.273438 12.367188 26.171875 C 12.277344 25.941406 12.195312 25.707031 12.105469 25.476562 C 12.066406 25.34375 11.894531 25.394531 11.9375 25.5 Z M 11.9375 25.5 " fill-opacity="1" fill-rule="nonzero"/></g><path fill="#281c22" d="M 14.113281 19.101562 C 14.113281 19.023438 14.234375 19.023438 14.234375 19.101562 C 14.246094 19.480469 14.195312 19.84375 14.09375 20.214844 C 14.070312 20.285156 13.957031 20.253906 13.980469 20.183594 C 14.078125 19.828125 14.125 19.46875 14.113281 19.101562 Z M 14.136719 17.171875 C 13.992188 17.289062 13.847656 17.410156 13.703125 17.527344 C 13.644531 17.578125 13.726562 17.660156 13.789062 17.613281 C 13.933594 17.492188 14.078125 17.375 14.222656 17.253906 C 14.289062 17.207031 14.195312 17.125 14.136719 17.171875 Z M 12.5625 18.796875 C 12.476562 18.964844 12.394531 19.128906 12.300781 19.296875 C 12.265625 19.363281 12.367188 19.421875 12.40625 19.355469 C 12.496094 19.191406 12.578125 19.023438 12.664062 18.855469 C 12.699219 18.785156 12.597656 18.726562 12.5625 18.796875 Z M 15.484375 19 C 16.351562 20.207031 17.214844 21.421875 18.082031 22.632812 C 18.125 22.691406 18.234375 22.632812 18.183594 22.570312 C 17.320312 21.363281 16.453125 20.148438 15.585938 18.941406 C 15.542969 18.875 15.441406 18.933594 15.484375 19 Z M 15.515625 20 C 15.4375 20.253906 15.171875 20.398438 14.914062 20.332031 C 14.304688 20.183594 14.5625 19.179688 15.175781 19.363281 C 15.183594 19.363281 15.1875 19.363281 15.1875 19.367188 C 15.453125 19.476562 15.597656 19.71875 15.515625 20 Z M 15.160156 19.480469 C 14.683594 19.328125 14.472656 20.105469 14.941406 20.21875 C 15.417969 20.332031 15.59375 19.660156 15.160156 19.480469 Z M 18.976562 17.605469 C 18.703125 17.25 18.59375 16.703125 18.449219 16.277344 C 18.300781 15.832031 18.140625 15.386719 18 14.941406 C 17.855469 14.515625 17.714844 14.089844 17.601562 13.660156 C 17.480469 13.21875 17.289062 12.640625 17.476562 12.199219 C 17.503906 12.128906 17.402344 12.070312 17.371094 12.140625 C 17.203125 12.535156 17.3125 12.96875 17.402344 13.367188 C 17.515625 13.875 17.679688 14.367188 17.847656 14.863281 C 18.023438 15.386719 18.195312 15.902344 18.378906 16.421875 C 18.519531 16.839844 18.625 17.339844 18.898438 17.691406 C 18.941406 17.75 19.027344 17.664062 18.976562 17.605469 Z M 12.378906 22.523438 C 12.539062 22.773438 12.710938 23.011719 12.902344 23.238281 C 13.046875 23.40625 13.210938 23.589844 13.4375 23.613281 C 13.792969 23.644531 13.921875 23.296875 13.8125 23.019531 C 13.714844 22.773438 13.503906 22.542969 13.347656 22.332031 C 13.167969 22.09375 12.980469 21.863281 12.789062 21.636719 C 12.53125 21.339844 12.105469 20.730469 11.636719 20.785156 C 11.160156 20.839844 11.117188 21.398438 11.230469 21.753906 C 11.394531 22.269531 11.765625 22.691406 12.097656 23.105469 C 12.484375 23.59375 12.875 24.078125 13.324219 24.511719 C 13.636719 24.816406 14.066406 25.160156 14.527344 24.894531 C 15.027344 24.601562 14.757812 24.035156 14.570312 23.648438 C 14.25 23 13.914062 22.355469 13.523438 21.75 C 13.464844 21.65625 13.308594 21.742188 13.367188 21.839844 C 13.644531 22.269531 13.890625 22.707031 14.125 23.15625 C 14.3125 23.519531 14.953125 24.433594 14.445312 24.738281 C 13.933594 25.042969 13.386719 24.328125 13.089844 24 C 12.753906 23.632812 12.441406 23.242188 12.132812 22.851562 C 11.828125 22.464844 11.429688 22.019531 11.371094 21.503906 C 11.347656 21.304688 11.375 21.035156 11.617188 20.964844 C 11.792969 20.917969 11.960938 21.042969 12.078125 21.144531 C 12.273438 21.296875 12.433594 21.492188 12.597656 21.671875 C 12.945312 22.066406 13.308594 22.480469 13.578125 22.933594 C 13.648438 23.054688 13.878906 23.457031 13.425781 23.429688 C 13.28125 23.417969 13.132812 23.214844 13.042969 23.113281 C 12.863281 22.898438 12.699219 22.671875 12.550781 22.433594 C 12.476562 22.332031 12.320312 22.429688 12.378906 22.523438 Z M 12.378906 22.523438 " fill-opacity="1" fill-rule="nonzero"/><g clip-path="url(#2f7214bd7e)"><path fill="#dbb4c8" d="M 29.316406 14.789062 L 29.273438 14.867188 C 29.113281 15.148438 28.75 15.242188 28.46875 15.082031 L 27.632812 14.605469 C 27.351562 14.445312 27.253906 14.089844 27.417969 13.808594 L 27.457031 13.730469 C 27.621094 13.453125 27.980469 13.355469 28.265625 13.515625 L 29.101562 13.992188 C 29.382812 14.152344 29.480469 14.511719 29.316406 14.789062 Z M 29.316406 14.789062 " fill-opacity="1" fill-rule="nonzero"/></g><g clip-path="url(#4b400d80cb)"><path fill="#281c22" d="M 5.753906 0.789062 C 5.820312 0.832031 5.757812 0.9375 5.691406 0.890625 C 5.613281 0.835938 5.535156 0.78125 5.457031 0.730469 C 5.390625 0.6875 5.453125 0.582031 5.519531 0.628906 C 5.601562 0.683594 5.675781 0.734375 5.753906 0.789062 Z M 5.753906 0.789062 " fill-opacity="1" fill-rule="nonzero"/></g><g clip-path="url(#1856d6b9a8)"><path fill="#281c22" d="M 28.058594 13.445312 C 27.96875 13.863281 27.578125 14.410156 27.253906 14.390625 C 26.886719 14.375 8.640625 3.46875 8.640625 3.46875 L 5.632812 0.867188 L 5.71875 0.753906 L 9.363281 2.253906 L 26.5625 12.398438 C 26.789062 12.300781 27.042969 12.128906 26.84375 11.878906 C 26.71875 11.714844 26.449219 11.59375 26.269531 11.492188 C 25.859375 11.253906 25.425781 11.058594 25.003906 10.835938 C 24.089844 10.363281 23.195312 9.84375 22.296875 9.332031 C 22.035156 9.175781 22.273438 8.765625 22.539062 8.921875 C 23.722656 9.605469 24.914062 10.25 26.128906 10.878906 C 26.554688 11.101562 27.265625 11.386719 27.378906 11.910156 C 27.453125 12.25 27.277344 12.503906 27.027344 12.675781 L 27.953125 13.226562 C 28.042969 13.265625 28.078125 13.355469 28.058594 13.445312 Z M 28.058594 13.445312 " fill-opacity="1" fill-rule="nonzero"/></g><g clip-path="url(#82e7a1ea56)"><path fill="#dbb4c8" d="M 8.644531 3.46875 L 5.632812 0.867188 L 5.71875 0.753906 L 9.363281 2.253906 C 9.363281 2.253906 9.558594 3.152344 8.644531 3.46875 Z M 8.644531 3.46875 " fill-opacity="1" fill-rule="nonzero"/></g><path fill="#281c22" d="M 8.921875 2.152344 C 8.90625 2.082031 9.019531 2.046875 9.035156 2.121094 C 9.167969 2.605469 8.945312 3.085938 8.484375 3.289062 C 8.410156 3.320312 8.351562 3.21875 8.421875 3.1875 C 8.839844 2.996094 9.042969 2.585938 8.921875 2.152344 Z M 8.921875 2.152344 " fill-opacity="1" fill-rule="nonzero"/><path fill="#dbb4c8" d="M 10.847656 3.207031 C 10.839844 3.128906 10.960938 3.128906 10.96875 3.207031 C 10.984375 3.683594 10.78125 4.128906 10.402344 4.421875 C 10.34375 4.46875 10.257812 4.382812 10.316406 4.335938 C 10.671875 4.058594 10.863281 3.652344 10.847656 3.207031 Z M 11.714844 3.699219 C 11.695312 4.164062 11.480469 4.574219 11.105469 4.855469 C 11.046875 4.902344 11.105469 5.003906 11.164062 4.957031 C 11.574219 4.652344 11.816406 4.207031 11.832031 3.699219 C 11.832031 3.621094 11.714844 3.621094 11.714844 3.699219 Z M 12.542969 4.207031 C 12.578125 4.683594 12.367188 5.121094 11.964844 5.398438 C 11.898438 5.4375 11.960938 5.546875 12.027344 5.496094 C 12.457031 5.207031 12.699219 4.722656 12.664062 4.207031 C 12.65625 4.132812 12.539062 4.132812 12.542969 4.207031 Z M 13.355469 4.675781 C 13.410156 5.152344 13.222656 5.597656 12.84375 5.898438 C 12.785156 5.945312 12.867188 6.027344 12.929688 5.980469 C 13.324219 5.664062 13.53125 5.175781 13.476562 4.675781 C 13.46875 4.597656 13.347656 4.597656 13.355469 4.675781 Z M 14.09375 5.109375 C 14.136719 5.570312 13.933594 5.996094 13.546875 6.253906 C 13.480469 6.296875 13.542969 6.398438 13.609375 6.355469 C 14.027344 6.074219 14.257812 5.605469 14.214844 5.105469 C 14.210938 5.035156 14.089844 5.035156 14.09375 5.109375 Z M 26.359375 12.324219 C 26.332031 12.789062 26.117188 13.203125 25.746094 13.480469 C 25.683594 13.527344 25.746094 13.628906 25.804688 13.582031 C 26.214844 13.273438 26.453125 12.832031 26.476562 12.320312 C 26.484375 12.25 26.363281 12.25 26.359375 12.324219 Z M 26.917969 12.675781 C 26.90625 13.140625 26.660156 13.558594 26.25 13.789062 C 26.183594 13.828125 26.242188 13.933594 26.308594 13.890625 C 26.753906 13.636719 27.019531 13.183594 27.039062 12.675781 C 27.042969 12.601562 26.921875 12.601562 26.917969 12.675781 Z M 26.917969 12.675781 " fill-opacity="1" fill-rule="nonzero"/></svg>