<svg xmlns="http://www.w3.org/2000/svg" xmlns:xlink="http://www.w3.org/1999/xlink" width="120" zoomAndPan="magnify" viewBox="0 0 90 89.999999" height="120" preserveAspectRatio="xMidYMid meet" version="1.0"><defs><clipPath id="2d3651293f"><path d="M 27 44.910156 L 63 44.910156 L 63 45.660156 L 27 45.660156 Z M 27 44.910156 " clip-rule="nonzero"/></clipPath></defs><g clip-path="url(#2d3651293f)"><path fill="#ffffff" d="M 27 44.914062 L 63 44.914062 L 63 45.082031 L 27 45.082031 Z M 27 44.914062 " fill-opacity="1" fill-rule="nonzero"/></g><path fill="#caddff" d="M 12.683594 7.871094 C 7.601562 11.71875 6.257812 18.105469 5.332031 22.167969 C 1.6875 38.175781 7.515625 59.894531 23.265625 72.582031 C 26.949219 75.550781 46 89.960938 65.359375 80.671875 C 82.472656 72.460938 88.683594 51.074219 86.53125 34.902344 C 84.746094 21.507812 76.496094 5.441406 64.195312 2.121094 C 56.460938 0.0351562 55.1875 5.222656 38.890625 6 C 24.785156 6.675781 18.894531 3.164062 12.683594 7.871094 " fill-opacity="1" fill-rule="nonzero"/><path fill="#99b9ff" d="M 85.96875 65.226562 L 85.296875 65.796875 C 84.917969 66.117188 84.191406 66.417969 83.703125 66.316406 L 10.957031 4.433594 C 10.949219 3.386719 11.5 2.414062 12.398438 1.878906 C 13.039062 1.496094 13.800781 1.367188 14.535156 1.519531 L 85.621094 16.285156 C 86.335938 16.433594 86.851562 17.0625 86.851562 17.792969 L 86.851562 63.320312 C 86.851562 64.054688 86.527344 64.75 85.96875 65.226562 " fill-opacity="1" fill-rule="nonzero"/><path fill="#ffffff" d="M 83.796875 66.179688 L 12.886719 51.449219 C 11.785156 51.222656 10.996094 50.253906 10.996094 49.136719 L 10.996094 4.269531 C 10.996094 3.675781 11.542969 3.234375 12.125 3.355469 L 83.222656 18.125 C 83.9375 18.273438 84.449219 18.902344 84.449219 19.632812 L 84.449219 65.652344 C 84.449219 65.992188 84.132812 66.25 83.796875 66.179688 " fill-opacity="1" fill-rule="nonzero"/><path fill="#000000" d="M 83.910156 66.339844 C 83.859375 66.339844 83.8125 66.335938 83.765625 66.328125 L 76.367188 64.703125 C 76.289062 64.6875 76.238281 64.605469 76.253906 64.527344 C 76.273438 64.445312 76.351562 64.394531 76.433594 64.414062 L 83.828125 66.035156 C 83.945312 66.058594 84.0625 66.03125 84.15625 65.953125 C 84.25 65.878906 84.300781 65.769531 84.300781 65.652344 L 84.300781 19.632812 C 84.300781 18.976562 83.835938 18.40625 83.191406 18.273438 L 82.144531 18.054688 C 82.0625 18.039062 82.011719 17.957031 82.027344 17.878906 C 82.042969 17.796875 82.125 17.746094 82.203125 17.761719 L 83.253906 17.980469 C 84.035156 18.140625 84.601562 18.835938 84.601562 19.632812 L 84.601562 65.652344 C 84.601562 65.859375 84.507812 66.054688 84.34375 66.1875 C 84.21875 66.289062 84.066406 66.339844 83.910156 66.339844 " fill-opacity="1" fill-rule="nonzero"/><path fill="#000000" d="M 71.761719 15.980469 C 71.75 15.980469 71.742188 15.980469 71.730469 15.976562 L 48.382812 11.0625 C 48.304688 11.042969 48.253906 10.964844 48.269531 10.882812 C 48.285156 10.804688 48.367188 10.753906 48.445312 10.769531 L 71.792969 15.6875 C 71.875 15.703125 71.925781 15.78125 71.90625 15.863281 C 71.894531 15.933594 71.832031 15.980469 71.761719 15.980469 " fill-opacity="1" fill-rule="nonzero"/><path fill="#000000" d="M 10.851562 27.753906 C 10.769531 27.753906 10.703125 27.6875 10.703125 27.605469 L 10.847656 4.269531 C 10.847656 3.941406 10.992188 3.636719 11.25 3.429688 C 11.503906 3.222656 11.832031 3.144531 12.15625 3.210938 L 46.070312 10.261719 C 46.152344 10.277344 46.203125 10.355469 46.1875 10.4375 C 46.167969 10.515625 46.089844 10.570312 46.007812 10.550781 L 12.09375 3.503906 C 11.859375 3.453125 11.621094 3.511719 11.4375 3.660156 C 11.253906 3.808594 11.148438 4.03125 11.148438 4.269531 L 11 27.605469 C 11 27.6875 10.933594 27.753906 10.851562 27.753906 " fill-opacity="1" fill-rule="nonzero"/><path fill="#000000" d="M 10.996094 43.65625 C 10.914062 43.65625 10.847656 43.589844 10.847656 43.507812 L 10.847656 31.367188 C 10.847656 31.285156 10.914062 31.21875 10.996094 31.21875 C 11.078125 31.21875 11.148438 31.285156 11.148438 31.367188 L 11.148438 43.507812 C 11.148438 43.589844 11.078125 43.65625 10.996094 43.65625 " fill-opacity="1" fill-rule="nonzero"/><path fill="#ffffff" d="M 73.851562 17.199219 L 80.46875 18.617188 L 84.710938 13.199219 L 73.851562 17.199219 " fill-opacity="1" fill-rule="nonzero"/><path fill="#000000" d="M 74.386719 17.160156 L 80.410156 18.453125 L 84.269531 13.519531 Z M 80.46875 18.769531 C 80.460938 18.769531 80.449219 18.765625 80.4375 18.765625 L 73.820312 17.34375 C 73.753906 17.332031 73.707031 17.273438 73.703125 17.207031 C 73.695312 17.144531 73.738281 17.082031 73.800781 17.058594 L 84.65625 13.058594 C 84.71875 13.035156 84.789062 13.054688 84.828125 13.109375 C 84.871094 13.164062 84.867188 13.234375 84.828125 13.289062 L 80.589844 18.710938 C 80.558594 18.746094 80.515625 18.769531 80.46875 18.769531 " fill-opacity="1" fill-rule="nonzero"/><path fill="#99b9ff" d="M 77.296875 20 L 76.226562 17.707031 L 82.078125 14.832031 L 77.386719 17.957031 L 78.773438 18.253906 L 77.296875 20 " fill-opacity="1" fill-rule="nonzero"/><path fill="#000000" d="M 76.421875 17.777344 L 77.335938 19.726562 L 78.496094 18.347656 L 77.355469 18.101562 C 77.296875 18.089844 77.253906 18.042969 77.242188 17.984375 C 77.230469 17.925781 77.253906 17.867188 77.304688 17.832031 L 80.105469 15.964844 Z M 77.296875 20.148438 C 77.292969 20.148438 77.285156 20.148438 77.277344 20.148438 C 77.226562 20.140625 77.183594 20.109375 77.164062 20.0625 L 76.089844 17.769531 C 76.054688 17.695312 76.085938 17.609375 76.160156 17.574219 L 82.015625 14.695312 C 82.085938 14.664062 82.167969 14.6875 82.210938 14.757812 C 82.25 14.824219 82.226562 14.910156 82.164062 14.953125 L 77.765625 17.886719 L 78.804688 18.109375 C 78.855469 18.121094 78.898438 18.15625 78.914062 18.207031 C 78.929688 18.253906 78.921875 18.308594 78.886719 18.351562 L 77.414062 20.097656 C 77.382812 20.128906 77.34375 20.148438 77.296875 20.148438 " fill-opacity="1" fill-rule="nonzero"/><path fill="#000000" d="M 77.367188 18.824219 C 77.289062 18.824219 77.226562 18.761719 77.230469 18.683594 L 77.238281 17.960938 C 77.242188 17.886719 77.304688 17.820312 77.378906 17.824219 C 77.457031 17.828125 77.519531 17.890625 77.515625 17.964844 L 77.507812 18.6875 C 77.503906 18.765625 77.445312 18.824219 77.367188 18.824219 " fill-opacity="1" fill-rule="nonzero"/><path fill="#ffffff" d="M 20.351562 24.179688 C 20.316406 22.863281 19.3125 21.644531 18.117188 21.488281 C 16.953125 21.339844 16.074219 22.246094 16.125 23.542969 C 16.148438 24.164062 16.386719 24.765625 16.761719 25.238281 C 17.050781 25.601562 17.222656 26.050781 17.234375 26.496094 L 17.242188 26.761719 C 17.246094 26.976562 17.414062 27.179688 17.609375 27.210938 L 19.046875 27.441406 C 19.242188 27.472656 19.398438 27.320312 19.390625 27.105469 L 19.386719 26.839844 C 19.375 26.402344 19.511719 26 19.78125 25.734375 C 20.152344 25.371094 20.367188 24.824219 20.351562 24.179688 " fill-opacity="1" fill-rule="nonzero"/><path fill="#000000" d="M 17.871094 21.621094 C 17.480469 21.621094 17.121094 21.757812 16.839844 22.011719 C 16.457031 22.359375 16.25 22.917969 16.273438 23.535156 C 16.296875 24.109375 16.511719 24.683594 16.882812 25.144531 C 17.195312 25.535156 17.371094 26.015625 17.386719 26.492188 L 17.390625 26.753906 C 17.394531 26.902344 17.507812 27.042969 17.632812 27.0625 L 19.070312 27.292969 C 19.113281 27.300781 19.15625 27.292969 19.183594 27.265625 C 19.222656 27.230469 19.246094 27.171875 19.242188 27.105469 L 19.234375 26.84375 C 19.222656 26.359375 19.382812 25.914062 19.675781 25.628906 C 20.03125 25.28125 20.21875 24.769531 20.203125 24.183594 C 20.167969 22.945312 19.207031 21.78125 18.097656 21.636719 C 18.019531 21.628906 17.945312 21.621094 17.871094 21.621094 Z M 19.097656 27.59375 C 19.074219 27.59375 19.046875 27.59375 19.023438 27.589844 L 17.585938 27.359375 C 17.316406 27.316406 17.101562 27.054688 17.09375 26.761719 L 17.085938 26.5 C 17.074219 26.085938 16.917969 25.671875 16.648438 25.328125 C 16.238281 24.820312 16 24.183594 15.976562 23.546875 C 15.945312 22.839844 16.1875 22.199219 16.640625 21.789062 C 17.039062 21.425781 17.570312 21.269531 18.136719 21.339844 C 19.402344 21.503906 20.464844 22.777344 20.5 24.175781 C 20.519531 24.84375 20.300781 25.433594 19.886719 25.839844 C 19.652344 26.070312 19.523438 26.433594 19.535156 26.835938 L 19.542969 27.097656 C 19.546875 27.253906 19.488281 27.398438 19.382812 27.488281 C 19.300781 27.558594 19.203125 27.59375 19.097656 27.59375 " fill-opacity="1" fill-rule="nonzero"/><path fill="#ffffff" d="M 18.371094 28.925781 C 17.882812 28.847656 17.472656 28.34375 17.457031 27.800781 L 17.441406 27.160156 L 19.21875 27.445312 L 19.234375 28.082031 C 19.25 28.625 18.863281 29.003906 18.371094 28.925781 " fill-opacity="1" fill-rule="nonzero"/><path fill="#000000" d="M 18.394531 28.777344 C 18.574219 28.808594 18.738281 28.761719 18.863281 28.652344 C 19.011719 28.527344 19.089844 28.320312 19.085938 28.085938 L 19.070312 27.570312 L 17.59375 27.335938 L 17.609375 27.796875 C 17.621094 28.269531 17.972656 28.710938 18.394531 28.777344 Z M 18.5 29.085938 C 18.449219 29.085938 18.398438 29.082031 18.347656 29.074219 C 17.792969 28.984375 17.324219 28.414062 17.308594 27.804688 L 17.285156 26.984375 L 19.363281 27.316406 L 19.382812 28.078125 C 19.390625 28.402344 19.273438 28.691406 19.0625 28.878906 C 18.90625 29.015625 18.710938 29.085938 18.5 29.085938 " fill-opacity="1" fill-rule="nonzero"/><path fill="#000000" d="M 18.164062 19.960938 C 18.085938 19.960938 18.019531 19.898438 18.015625 19.816406 L 17.949219 18.238281 C 17.949219 18.15625 18.011719 18.085938 18.09375 18.082031 C 18.179688 18.082031 18.246094 18.144531 18.25 18.226562 L 18.316406 19.804688 C 18.316406 19.886719 18.253906 19.957031 18.171875 19.960938 C 18.167969 19.960938 18.167969 19.960938 18.164062 19.960938 " fill-opacity="1" fill-rule="nonzero"/><path fill="#000000" d="M 14.589844 23.894531 C 14.578125 23.894531 14.570312 23.894531 14.558594 23.890625 L 13.769531 23.722656 C 13.6875 23.707031 13.636719 23.628906 13.65625 23.546875 C 13.671875 23.464844 13.753906 23.414062 13.832031 23.433594 L 14.621094 23.601562 C 14.703125 23.617188 14.753906 23.695312 14.734375 23.777344 C 14.71875 23.847656 14.660156 23.894531 14.589844 23.894531 " fill-opacity="1" fill-rule="nonzero"/><path fill="#000000" d="M 15.316406 20.972656 C 15.273438 20.972656 15.230469 20.957031 15.199219 20.917969 L 14.3125 19.832031 C 14.257812 19.769531 14.269531 19.675781 14.332031 19.625 C 14.398438 19.570312 14.492188 19.582031 14.542969 19.644531 L 15.433594 20.730469 C 15.484375 20.796875 15.476562 20.890625 15.410156 20.941406 C 15.382812 20.964844 15.351562 20.972656 15.316406 20.972656 " fill-opacity="1" fill-rule="nonzero"/><path fill="#000000" d="M 22.710938 25.613281 C 22.699219 25.613281 22.6875 25.609375 22.679688 25.609375 L 21.890625 25.441406 C 21.808594 25.425781 21.757812 25.347656 21.773438 25.265625 C 21.792969 25.1875 21.871094 25.132812 21.953125 25.152344 L 22.738281 25.316406 C 22.820312 25.335938 22.871094 25.414062 22.855469 25.492188 C 22.839844 25.5625 22.777344 25.613281 22.710938 25.613281 " fill-opacity="1" fill-rule="nonzero"/><path fill="#000000" d="M 21.195312 22.21875 C 21.152344 22.21875 21.105469 22.199219 21.078125 22.164062 C 21.027344 22.097656 21.035156 22.003906 21.101562 21.953125 L 21.988281 21.242188 C 22.054688 21.191406 22.148438 21.203125 22.199219 21.265625 C 22.25 21.328125 22.242188 21.421875 22.175781 21.476562 L 21.289062 22.183594 C 21.261719 22.207031 21.226562 22.21875 21.195312 22.21875 " fill-opacity="1" fill-rule="nonzero"/><path fill="#caddff" d="M 34.257812 18.703125 C 34.253906 22.464844 31.441406 24.917969 27.972656 24.183594 C 24.507812 23.445312 21.695312 19.796875 21.699219 16.035156 C 21.703125 12.273438 24.515625 9.820312 27.984375 10.558594 C 31.453125 11.296875 34.261719 14.941406 34.257812 18.703125 " fill-opacity="1" fill-rule="nonzero"/><path fill="#99b9ff" d="M 28.089844 17.417969 L 31.410156 23.78125 C 33.109375 22.921875 34.226562 21.070312 34.230469 18.699219 C 34.230469 17.195312 33.78125 15.707031 33.023438 14.417969 L 28.089844 17.417969 " fill-opacity="1" fill-rule="nonzero"/><path fill="#5479f7" d="M 29.324219 11.007812 L 28.089844 17.417969 L 33.023438 14.421875 C 32.140625 12.921875 30.835938 11.691406 29.324219 11.007812 " fill-opacity="1" fill-rule="nonzero"/><path fill="#ffffff" d="M 29.890625 17.777344 C 29.890625 18.921875 29.035156 19.667969 27.976562 19.445312 C 26.921875 19.21875 26.066406 18.109375 26.066406 16.964844 C 26.066406 15.816406 26.921875 15.070312 27.980469 15.292969 C 29.039062 15.519531 29.894531 16.628906 29.890625 17.777344 " fill-opacity="1" fill-rule="nonzero"/><path fill="#000000" d="M 46.257812 27.550781 C 46.25 27.550781 46.246094 27.546875 46.242188 27.546875 C 46.199219 27.542969 46.164062 27.523438 46.136719 27.492188 L 43.496094 24.066406 C 43.449219 24.003906 43.460938 23.910156 43.527344 23.859375 C 43.589844 23.808594 43.683594 23.820312 43.734375 23.886719 L 46.277344 27.183594 L 58.023438 16.929688 C 58.085938 16.878906 58.183594 16.882812 58.234375 16.945312 C 58.289062 17.007812 58.285156 17.101562 58.222656 17.15625 L 46.355469 27.511719 C 46.328125 27.535156 46.292969 27.550781 46.257812 27.550781 " fill-opacity="1" fill-rule="nonzero"/><path fill="#000000" d="M 19.113281 34.667969 C 19.070312 34.667969 19.03125 34.648438 19 34.617188 C 18.945312 34.554688 18.953125 34.460938 19.015625 34.40625 L 25.902344 28.390625 C 25.933594 28.363281 25.972656 28.351562 26.015625 28.355469 C 26.054688 28.359375 26.09375 28.378906 26.117188 28.414062 L 29.742188 33.109375 L 40.859375 23.398438 C 40.921875 23.347656 41.015625 23.351562 41.070312 23.414062 C 41.125 23.476562 41.117188 23.570312 41.054688 23.625 L 29.816406 33.4375 C 29.789062 33.464844 29.746094 33.480469 29.703125 33.476562 C 29.664062 33.472656 29.625 33.453125 29.601562 33.417969 L 25.976562 28.71875 L 19.210938 34.628906 C 19.183594 34.65625 19.148438 34.667969 19.113281 34.667969 " fill-opacity="1" fill-rule="nonzero"/><path fill="#5479f7" d="M 25.328125 28.363281 C 25.328125 27.960938 25.628906 27.695312 26 27.777344 C 26.371094 27.855469 26.671875 28.242188 26.671875 28.644531 C 26.671875 29.046875 26.371094 29.308594 26 29.230469 C 25.628906 29.152344 25.328125 28.765625 25.328125 28.363281 " fill-opacity="1" fill-rule="nonzero"/><path fill="#000000" d="M 25.871094 27.464844 C 25.390625 27.464844 25.027344 27.851562 25.027344 28.363281 C 25.027344 28.90625 25.425781 29.417969 25.9375 29.523438 C 26 29.539062 26.066406 29.542969 26.128906 29.542969 C 26.609375 29.542969 26.96875 29.15625 26.96875 28.644531 C 26.96875 28.101562 26.570312 27.59375 26.0625 27.484375 C 25.996094 27.46875 25.933594 27.464844 25.871094 27.464844 Z M 25.871094 27.761719 C 25.910156 27.761719 25.953125 27.765625 26 27.777344 C 26.371094 27.855469 26.671875 28.242188 26.671875 28.644531 C 26.671875 29 26.4375 29.246094 26.128906 29.246094 C 26.085938 29.246094 26.042969 29.242188 26 29.230469 C 25.628906 29.152344 25.328125 28.765625 25.328125 28.363281 C 25.328125 28.007812 25.5625 27.761719 25.871094 27.761719 " fill-opacity="1" fill-rule="nonzero"/><path fill="#99b9ff" d="M 45.605469 27.230469 C 45.605469 26.828125 45.90625 26.566406 46.277344 26.644531 C 46.648438 26.722656 46.949219 27.113281 46.949219 27.515625 C 46.949219 27.917969 46.648438 28.179688 46.277344 28.101562 C 45.90625 28.023438 45.605469 27.632812 45.605469 27.230469 " fill-opacity="1" fill-rule="nonzero"/><path fill="#000000" d="M 46.148438 26.335938 C 45.667969 26.335938 45.308594 26.71875 45.308594 27.230469 C 45.308594 27.777344 45.707031 28.285156 46.214844 28.394531 C 46.277344 28.40625 46.34375 28.414062 46.40625 28.414062 C 46.886719 28.414062 47.25 28.027344 47.25 27.515625 C 47.25 26.972656 46.847656 26.460938 46.339844 26.355469 C 46.277344 26.339844 46.210938 26.335938 46.148438 26.335938 Z M 46.148438 26.632812 C 46.191406 26.632812 46.234375 26.636719 46.277344 26.644531 C 46.648438 26.726562 46.949219 27.113281 46.949219 27.515625 C 46.949219 27.871094 46.714844 28.117188 46.40625 28.117188 C 46.363281 28.117188 46.320312 28.113281 46.277344 28.101562 C 45.90625 28.023438 45.605469 27.632812 45.605469 27.230469 C 45.605469 26.878906 45.839844 26.632812 46.148438 26.632812 " fill-opacity="1" fill-rule="nonzero"/><path fill="#5479f7" d="M 57.609375 16.863281 C 57.609375 16.460938 57.910156 16.199219 58.28125 16.277344 C 58.652344 16.355469 58.953125 16.746094 58.953125 17.148438 C 58.953125 17.550781 58.652344 17.8125 58.28125 17.734375 C 57.910156 17.65625 57.609375 17.265625 57.609375 16.863281 " fill-opacity="1" fill-rule="nonzero"/><path fill="#000000" d="M 58.152344 15.964844 C 57.671875 15.964844 57.308594 16.351562 57.308594 16.863281 C 57.308594 17.40625 57.707031 17.917969 58.21875 18.023438 C 58.28125 18.039062 58.347656 18.046875 58.410156 18.046875 C 58.890625 18.046875 59.25 17.660156 59.25 17.148438 C 59.25 16.605469 58.851562 16.09375 58.34375 15.984375 C 58.277344 15.972656 58.214844 15.964844 58.152344 15.964844 Z M 58.152344 16.261719 C 58.195312 16.261719 58.234375 16.269531 58.28125 16.277344 C 58.652344 16.355469 58.953125 16.746094 58.953125 17.148438 C 58.953125 17.5 58.71875 17.746094 58.410156 17.746094 C 58.367188 17.746094 58.324219 17.742188 58.28125 17.734375 C 57.910156 17.65625 57.609375 17.265625 57.609375 16.863281 C 57.609375 16.507812 57.84375 16.261719 58.152344 16.261719 " fill-opacity="1" fill-rule="nonzero"/><path fill="#99b9ff" d="M 29.109375 33.113281 C 29.109375 32.710938 29.410156 32.449219 29.78125 32.527344 C 30.152344 32.605469 30.453125 32.996094 30.453125 33.398438 C 30.453125 33.800781 30.152344 34.0625 29.78125 33.984375 C 29.410156 33.90625 29.109375 33.515625 29.109375 33.113281 " fill-opacity="1" fill-rule="nonzero"/><path fill="#000000" d="M 29.652344 32.214844 C 29.171875 32.214844 28.8125 32.601562 28.8125 33.113281 C 28.8125 33.65625 29.210938 34.167969 29.71875 34.277344 C 29.78125 34.289062 29.847656 34.296875 29.910156 34.296875 C 30.390625 34.296875 30.753906 33.910156 30.753906 33.398438 C 30.753906 32.855469 30.351562 32.34375 29.84375 32.238281 C 29.78125 32.222656 29.714844 32.214844 29.652344 32.214844 Z M 29.652344 32.515625 C 29.695312 32.515625 29.738281 32.519531 29.78125 32.527344 C 30.152344 32.605469 30.453125 32.996094 30.453125 33.398438 C 30.453125 33.753906 30.21875 34 29.910156 34 C 29.867188 34 29.824219 33.996094 29.78125 33.984375 C 29.410156 33.90625 29.109375 33.515625 29.109375 33.113281 C 29.109375 32.761719 29.34375 32.515625 29.652344 32.515625 " fill-opacity="1" fill-rule="nonzero"/><path fill="#5479f7" d="M 41.660156 22.226562 C 41.660156 21.824219 41.960938 21.5625 42.332031 21.640625 C 42.703125 21.71875 43.003906 22.109375 43.003906 22.511719 C 43.003906 22.914062 42.703125 23.175781 42.332031 23.097656 C 41.960938 23.019531 41.660156 22.628906 41.660156 22.226562 " fill-opacity="1" fill-rule="nonzero"/><path fill="#000000" d="M 42.203125 21.328125 C 41.722656 21.328125 41.359375 21.714844 41.359375 22.226562 C 41.359375 22.769531 41.761719 23.28125 42.269531 23.386719 C 42.332031 23.402344 42.398438 23.40625 42.460938 23.40625 C 42.941406 23.40625 43.300781 23.023438 43.300781 22.511719 C 43.300781 21.964844 42.902344 21.457031 42.394531 21.347656 C 42.328125 21.335938 42.265625 21.328125 42.203125 21.328125 Z M 42.203125 21.625 C 42.242188 21.625 42.285156 21.628906 42.332031 21.640625 C 42.703125 21.71875 43.003906 22.109375 43.003906 22.511719 C 43.003906 22.863281 42.769531 23.109375 42.460938 23.109375 C 42.417969 23.109375 42.375 23.105469 42.332031 23.097656 C 41.960938 23.019531 41.660156 22.628906 41.660156 22.226562 C 41.660156 21.871094 41.894531 21.625 42.203125 21.625 " fill-opacity="1" fill-rule="nonzero"/><path fill="#99b9ff" d="M 18.289062 34.402344 C 18.289062 34 18.589844 33.734375 18.960938 33.816406 C 19.332031 33.894531 19.632812 34.28125 19.632812 34.683594 C 19.632812 35.085938 19.332031 35.351562 18.960938 35.269531 C 18.589844 35.191406 18.289062 34.804688 18.289062 34.402344 " fill-opacity="1" fill-rule="nonzero"/><path fill="#000000" d="M 18.832031 33.503906 C 18.351562 33.503906 17.992188 33.890625 17.992188 34.402344 C 17.992188 34.945312 18.390625 35.457031 18.898438 35.5625 C 18.964844 35.578125 19.027344 35.582031 19.089844 35.582031 C 19.570312 35.582031 19.933594 35.199219 19.933594 34.683594 C 19.933594 34.140625 19.53125 33.632812 19.023438 33.523438 C 18.960938 33.507812 18.894531 33.503906 18.832031 33.503906 Z M 18.832031 33.800781 C 18.875 33.800781 18.917969 33.804688 18.960938 33.816406 C 19.332031 33.894531 19.632812 34.28125 19.632812 34.683594 C 19.632812 35.039062 19.398438 35.285156 19.089844 35.285156 C 19.046875 35.285156 19.003906 35.28125 18.960938 35.269531 C 18.589844 35.191406 18.289062 34.804688 18.289062 34.402344 C 18.289062 34.046875 18.523438 33.800781 18.832031 33.800781 " fill-opacity="1" fill-rule="nonzero"/><path fill="#caddff" d="M 24.355469 46.203125 L 23.277344 45.953125 C 22.804688 45.839844 22.425781 45.339844 22.429688 44.828125 L 22.4375 39.21875 C 22.4375 38.691406 22.835938 38.351562 23.320312 38.464844 L 24.390625 38.707031 C 24.863281 38.816406 25.246094 39.316406 25.246094 39.832031 C 25.246094 41.261719 25.246094 43.996094 25.246094 45.449219 C 25.246094 45.980469 24.84375 46.320312 24.355469 46.203125 " fill-opacity="1" fill-rule="nonzero"/><path fill="#caddff" d="M 28.175781 47.011719 L 27.097656 46.761719 C 26.621094 46.648438 26.242188 46.148438 26.246094 45.636719 L 26.257812 36.484375 C 26.257812 35.957031 26.65625 35.617188 27.140625 35.726562 L 28.207031 35.972656 C 28.679688 36.082031 29.0625 36.582031 29.0625 37.097656 C 29.0625 39.167969 29.0625 44.152344 29.0625 46.257812 C 29.0625 46.785156 28.660156 47.128906 28.175781 47.011719 " fill-opacity="1" fill-rule="nonzero"/><path fill="#caddff" d="M 31.992188 47.820312 L 30.914062 47.566406 C 30.441406 47.457031 30.0625 46.957031 30.0625 46.441406 L 30.074219 39.179688 C 30.074219 38.652344 30.472656 38.3125 30.957031 38.421875 L 32.023438 38.667969 C 32.5 38.777344 32.878906 39.277344 32.878906 39.792969 C 32.878906 41.535156 32.878906 45.292969 32.878906 47.066406 C 32.878906 47.59375 32.476562 47.933594 31.992188 47.820312 " fill-opacity="1" fill-rule="nonzero"/><path fill="#caddff" d="M 35.808594 48.628906 L 34.730469 48.375 C 34.257812 48.265625 33.878906 47.765625 33.878906 47.25 L 33.890625 32.957031 C 33.890625 32.429688 34.289062 32.089844 34.773438 32.203125 L 35.839844 32.449219 C 36.316406 32.558594 36.695312 33.058594 36.695312 33.570312 C 36.695312 36.414062 36.695312 44.984375 36.695312 47.875 C 36.695312 48.402344 36.296875 48.742188 35.808594 48.628906 " fill-opacity="1" fill-rule="nonzero"/><path fill="#caddff" d="M 39.625 49.4375 L 38.546875 49.183594 C 38.074219 49.070312 37.695312 48.574219 37.695312 48.058594 L 37.707031 30.085938 C 37.707031 29.558594 38.105469 29.21875 38.589844 29.328125 L 39.65625 29.574219 C 40.132812 29.683594 40.511719 30.183594 40.511719 30.699219 C 40.511719 34.019531 40.511719 45.300781 40.511719 48.679688 C 40.511719 49.210938 40.113281 49.550781 39.625 49.4375 " fill-opacity="1" fill-rule="nonzero"/><path fill="#99b9ff" d="M 43.441406 50.242188 L 42.363281 49.992188 C 41.890625 49.878906 41.511719 49.378906 41.511719 48.867188 L 41.523438 28.15625 C 41.523438 27.628906 41.921875 27.289062 42.410156 27.402344 L 43.476562 27.644531 C 43.949219 27.753906 44.328125 28.253906 44.328125 28.769531 C 44.328125 32.417969 44.328125 45.773438 44.328125 49.488281 C 44.328125 50.015625 43.929688 50.359375 43.441406 50.242188 " fill-opacity="1" fill-rule="nonzero"/><path fill="#caddff" d="M 47.257812 51.050781 L 46.179688 50.796875 C 45.707031 50.6875 45.328125 50.1875 45.328125 49.675781 L 45.339844 34.960938 C 45.339844 34.4375 45.738281 34.097656 46.226562 34.207031 L 47.292969 34.453125 C 47.765625 34.5625 48.148438 35.0625 48.148438 35.574219 C 48.148438 38.476562 48.148438 47.351562 48.148438 50.296875 C 48.148438 50.824219 47.746094 51.164062 47.257812 51.050781 " fill-opacity="1" fill-rule="nonzero"/><path fill="#caddff" d="M 51.074219 51.859375 L 49.996094 51.605469 C 49.523438 51.496094 49.144531 50.996094 49.144531 50.480469 L 49.160156 30.960938 C 49.160156 30.433594 49.558594 30.09375 50.042969 30.203125 L 51.109375 30.449219 C 51.582031 30.558594 51.964844 31.058594 51.964844 31.574219 C 51.964844 35.082031 51.964844 47.535156 51.964844 51.105469 C 51.964844 51.632812 51.5625 51.972656 51.074219 51.859375 " fill-opacity="1" fill-rule="nonzero"/><path fill="#caddff" d="M 54.890625 52.667969 L 53.8125 52.414062 C 53.339844 52.304688 52.960938 51.804688 52.960938 51.289062 L 52.976562 25.902344 C 52.976562 25.378906 53.375 25.035156 53.859375 25.148438 L 54.925781 25.394531 C 55.398438 25.503906 55.78125 26.003906 55.78125 26.515625 C 55.78125 30.6875 55.78125 47.671875 55.78125 51.914062 C 55.78125 52.441406 55.378906 52.78125 54.890625 52.667969 " fill-opacity="1" fill-rule="nonzero"/><path fill="#99b9ff" d="M 58.761719 53.484375 L 57.683594 53.234375 C 57.210938 53.121094 56.832031 52.621094 56.832031 52.109375 L 56.84375 22.78125 C 56.84375 22.253906 57.242188 21.914062 57.726562 22.027344 L 58.792969 22.273438 C 59.269531 22.382812 59.648438 22.878906 59.648438 23.394531 C 59.648438 27.96875 59.648438 48.078125 59.648438 52.730469 C 59.648438 53.261719 59.25 53.601562 58.761719 53.484375 " fill-opacity="1" fill-rule="nonzero"/><path fill="#caddff" d="M 72.109375 22.578125 L 65.21875 21.117188 C 64.679688 21.003906 64.246094 20.441406 64.246094 19.863281 L 64.246094 19.859375 C 64.246094 19.28125 64.679688 18.902344 65.21875 19.015625 L 72.109375 20.476562 C 72.648438 20.589844 73.082031 21.148438 73.082031 21.730469 L 73.082031 21.734375 C 73.082031 22.3125 72.648438 22.691406 72.109375 22.578125 " fill-opacity="1" fill-rule="nonzero"/><path fill="#caddff" d="M 79.816406 24.207031 L 76.550781 23.515625 C 76.015625 23.402344 75.582031 22.839844 75.582031 22.261719 L 75.582031 22.257812 C 75.582031 21.679688 76.015625 21.300781 76.550781 21.414062 L 79.816406 22.105469 C 80.351562 22.21875 80.785156 22.78125 80.785156 23.359375 L 80.785156 23.363281 C 80.785156 23.941406 80.351562 24.320312 79.816406 24.207031 " fill-opacity="1" fill-rule="nonzero"/><path fill="#caddff" d="M 79.933594 28.855469 L 65.410156 25.78125 C 64.875 25.667969 64.441406 25.105469 64.441406 24.527344 L 64.441406 24.523438 C 64.441406 23.945312 64.875 23.566406 65.410156 23.679688 L 79.933594 26.753906 C 80.46875 26.867188 80.902344 27.429688 80.902344 28.007812 L 80.902344 28.011719 C 80.902344 28.589844 80.46875 28.96875 79.933594 28.855469 " fill-opacity="1" fill-rule="nonzero"/><path fill="#caddff" d="M 80.125 33.515625 L 68.683594 31.097656 C 68.144531 30.980469 67.710938 30.421875 67.710938 29.84375 L 67.710938 29.839844 C 67.710938 29.257812 68.144531 28.882812 68.683594 28.996094 L 80.125 31.417969 C 80.664062 31.53125 81.097656 32.089844 81.097656 32.671875 L 81.097656 32.675781 C 81.097656 33.253906 80.664062 33.632812 80.125 33.515625 " fill-opacity="1" fill-rule="nonzero"/><path fill="#caddff" d="M 78.203125 37.734375 L 65.800781 35.109375 C 65.261719 34.996094 64.828125 34.433594 64.828125 33.855469 L 64.828125 33.851562 C 64.828125 33.273438 65.261719 32.894531 65.800781 33.007812 L 78.203125 35.632812 C 78.742188 35.746094 79.175781 36.308594 79.175781 36.886719 L 79.175781 36.890625 C 79.175781 37.46875 78.742188 37.847656 78.203125 37.734375 " fill-opacity="1" fill-rule="nonzero"/><path fill="#caddff" d="M 79.851562 42.582031 L 68.769531 40.234375 C 68.234375 40.121094 67.800781 39.558594 67.800781 38.980469 L 67.800781 38.976562 C 67.800781 38.398438 68.234375 38.019531 68.769531 38.132812 L 79.851562 40.480469 C 80.386719 40.59375 80.824219 41.152344 80.824219 41.734375 L 80.824219 41.738281 C 80.824219 42.316406 80.386719 42.695312 79.851562 42.582031 " fill-opacity="1" fill-rule="nonzero"/><path fill="#ffffff" d="M 54.296875 27.398438 C 54.300781 25.089844 56.027344 23.574219 58.15625 24.015625 C 60.285156 24.457031 62.011719 26.683594 62.007812 28.996094 C 62.003906 31.304688 60.277344 32.820312 58.148438 32.378906 C 56.019531 31.9375 54.292969 29.710938 54.296875 27.398438 " fill-opacity="1" fill-rule="nonzero"/><path fill="#000000" d="M 57.429688 24.089844 C 56.753906 24.089844 56.125 24.304688 55.613281 24.71875 C 54.863281 25.324219 54.449219 26.277344 54.445312 27.402344 C 54.445312 29.640625 56.117188 31.808594 58.175781 32.234375 C 59.113281 32.425781 60.007812 32.230469 60.691406 31.675781 C 61.441406 31.070312 61.855469 30.117188 61.855469 28.996094 C 61.859375 26.753906 60.1875 24.589844 58.125 24.160156 C 57.890625 24.113281 57.65625 24.089844 57.429688 24.089844 Z M 58.875 32.605469 C 58.625 32.605469 58.371094 32.578125 58.117188 32.523438 C 55.925781 32.070312 54.144531 29.773438 54.148438 27.398438 L 54.296875 27.398438 L 54.148438 27.398438 C 54.148438 26.203125 54.613281 25.140625 55.425781 24.484375 C 56.179688 23.875 57.160156 23.65625 58.1875 23.871094 C 60.378906 24.324219 62.160156 26.621094 62.15625 28.996094 C 62.15625 30.191406 61.6875 31.253906 60.878906 31.910156 C 60.3125 32.367188 59.621094 32.605469 58.875 32.605469 " fill-opacity="1" fill-rule="nonzero"/><path fill="#5479f7" d="M 60.105469 26.667969 L 58.933594 27.167969 C 58.871094 27.195312 58.871094 27.289062 58.929688 27.34375 L 59.101562 27.503906 C 59.148438 27.542969 59.160156 27.609375 59.132812 27.648438 L 58.585938 28.457031 C 58.558594 28.496094 58.5 28.5 58.457031 28.460938 L 57.445312 27.542969 C 57.402344 27.503906 57.34375 27.503906 57.3125 27.546875 L 56.097656 29.332031 C 56.070312 29.375 56.082031 29.441406 56.128906 29.480469 L 56.496094 29.816406 C 56.539062 29.855469 56.597656 29.855469 56.628906 29.8125 L 57.503906 28.527344 C 57.53125 28.484375 57.589844 28.484375 57.636719 28.523438 L 58.644531 29.441406 C 58.691406 29.480469 58.75 29.480469 58.777344 29.4375 L 59.660156 28.132812 C 59.6875 28.089844 59.746094 28.085938 59.789062 28.128906 L 59.976562 28.296875 C 60.039062 28.351562 60.117188 28.328125 60.121094 28.253906 L 60.25 26.796875 C 60.257812 26.714844 60.175781 26.640625 60.105469 26.667969 " fill-opacity="1" fill-rule="nonzero"/><path fill="#ffffff" d="M 54.019531 83.476562 L 48.894531 62.304688 L 43.769531 83.476562 L 42.542969 83.476562 L 48.171875 60.042969 L 49.617188 60.039062 L 55.246094 83.476562 L 54.019531 83.476562 " fill-opacity="1" fill-rule="nonzero"/><path fill="#000000" d="M 54.136719 83.324219 L 55.058594 83.324219 L 49.5 60.1875 L 48.289062 60.191406 L 42.730469 83.324219 L 43.652344 83.324219 L 48.75 62.269531 C 48.765625 62.203125 48.824219 62.15625 48.894531 62.15625 C 48.964844 62.15625 49.023438 62.203125 49.039062 62.269531 Z M 55.246094 83.625 L 54.019531 83.625 C 53.949219 83.625 53.890625 83.578125 53.875 83.511719 L 48.894531 62.941406 L 43.914062 83.511719 C 43.898438 83.578125 43.839844 83.625 43.769531 83.625 L 42.542969 83.625 C 42.496094 83.625 42.453125 83.601562 42.425781 83.566406 C 42.394531 83.53125 42.386719 83.484375 42.398438 83.441406 L 48.027344 60.007812 C 48.042969 59.941406 48.101562 59.894531 48.171875 59.894531 L 49.617188 59.890625 C 49.6875 59.890625 49.746094 59.9375 49.761719 60.003906 L 55.390625 83.441406 C 55.402344 83.484375 55.394531 83.53125 55.363281 83.566406 C 55.335938 83.601562 55.292969 83.625 55.246094 83.625 " fill-opacity="1" fill-rule="nonzero"/><path fill="#ffffff" d="M 10.574219 60.050781 L 56.832031 60.050781 L 56.832031 58.253906 L 10.574219 58.253906 L 10.574219 60.050781 " fill-opacity="1" fill-rule="nonzero"/><path fill="#000000" d="M 10.726562 59.902344 L 56.683594 59.902344 L 56.683594 58.402344 L 10.726562 58.402344 Z M 56.832031 60.203125 L 10.574219 60.203125 C 10.492188 60.203125 10.425781 60.136719 10.425781 60.050781 L 10.425781 58.253906 C 10.425781 58.171875 10.492188 58.105469 10.574219 58.105469 L 56.832031 58.105469 C 56.914062 58.105469 56.980469 58.171875 56.980469 58.253906 L 56.980469 60.050781 C 56.980469 60.136719 56.914062 60.203125 56.832031 60.203125 " fill-opacity="1" fill-rule="nonzero"/><path fill="#ffffff" d="M 22.089844 83.476562 L 16.96875 62.300781 L 11.84375 83.476562 L 10.613281 83.476562 L 16.246094 60.039062 L 17.6875 60.039062 L 23.320312 83.476562 L 22.089844 83.476562 " fill-opacity="1" fill-rule="nonzero"/><path fill="#000000" d="M 22.210938 83.324219 L 23.128906 83.324219 L 17.570312 60.1875 L 16.363281 60.1875 L 10.804688 83.324219 L 11.726562 83.324219 L 16.820312 62.265625 C 16.839844 62.199219 16.898438 62.152344 16.96875 62.152344 C 17.035156 62.152344 17.097656 62.199219 17.113281 62.265625 Z M 23.320312 83.625 L 22.089844 83.625 C 22.023438 83.625 21.960938 83.578125 21.945312 83.511719 L 16.96875 62.9375 L 11.988281 83.511719 C 11.972656 83.578125 11.914062 83.625 11.84375 83.625 L 10.613281 83.625 C 10.570312 83.625 10.527344 83.601562 10.496094 83.566406 C 10.46875 83.53125 10.457031 83.484375 10.46875 83.441406 L 16.097656 60.003906 C 16.117188 59.9375 16.175781 59.890625 16.246094 59.890625 L 17.6875 59.886719 C 17.757812 59.886719 17.820312 59.933594 17.835938 60.003906 L 23.464844 83.441406 C 23.476562 83.484375 23.464844 83.53125 23.4375 83.566406 C 23.410156 83.601562 23.367188 83.625 23.320312 83.625 " fill-opacity="1" fill-rule="nonzero"/><path fill="#caddff" d="M 22.515625 59.832031 C 22.433594 59.832031 22.367188 59.765625 22.367188 59.683594 L 22.367188 58.574219 C 22.367188 58.492188 22.433594 58.425781 22.515625 58.425781 C 22.597656 58.425781 22.664062 58.492188 22.664062 58.574219 L 22.664062 59.683594 C 22.664062 59.765625 22.597656 59.832031 22.515625 59.832031 " fill-opacity="1" fill-rule="nonzero"/><path fill="#ffffff" d="M 20.878906 78.875 L 21.355469 81.242188 C 21.371094 81.324219 21.445312 81.375 21.515625 81.359375 L 22.914062 81.003906 C 22.972656 80.992188 23.007812 80.925781 22.996094 80.859375 L 22.59375 78.742188 L 20.878906 78.875 " fill-opacity="1" fill-rule="nonzero"/><path fill="#000000" d="M 21.058594 79.007812 L 21.5 81.210938 L 22.84375 80.867188 L 22.472656 78.898438 Z M 21.488281 81.511719 C 21.4375 81.511719 21.386719 81.496094 21.34375 81.46875 C 21.273438 81.425781 21.226562 81.351562 21.207031 81.273438 L 20.730469 78.902344 C 20.722656 78.859375 20.730469 78.816406 20.757812 78.785156 C 20.785156 78.75 20.824219 78.726562 20.867188 78.726562 L 22.582031 78.59375 C 22.65625 78.585938 22.726562 78.636719 22.738281 78.714844 L 23.140625 80.828125 C 23.171875 80.976562 23.085938 81.113281 22.949219 81.148438 L 21.554688 81.503906 C 21.53125 81.507812 21.511719 81.511719 21.488281 81.511719 " fill-opacity="1" fill-rule="nonzero"/><path fill="#ffffff" d="M 16.375 76.839844 L 15.199219 78.765625 L 16.542969 79.476562 L 17.753906 77.753906 L 16.375 76.839844 " fill-opacity="1" fill-rule="nonzero"/><path fill="#000000" d="M 15.410156 78.710938 L 16.496094 79.285156 L 17.542969 77.792969 L 16.421875 77.050781 Z M 16.542969 79.625 C 16.519531 79.625 16.496094 79.621094 16.472656 79.609375 L 15.128906 78.898438 C 15.09375 78.878906 15.066406 78.847656 15.054688 78.804688 C 15.042969 78.765625 15.050781 78.726562 15.070312 78.691406 L 16.246094 76.761719 C 16.269531 76.730469 16.304688 76.703125 16.34375 76.695312 C 16.382812 76.6875 16.425781 76.695312 16.457031 76.71875 L 17.835938 77.628906 C 17.871094 77.652344 17.894531 77.6875 17.902344 77.726562 C 17.90625 77.765625 17.898438 77.804688 17.875 77.839844 L 16.664062 79.5625 C 16.636719 79.601562 16.589844 79.625 16.542969 79.625 " fill-opacity="1" fill-rule="nonzero"/><path fill="#5479f7" d="M 20.859375 80.199219 C 20.761719 80.542969 20.5625 81.5 20.476562 82.078125 C 20.421875 82.441406 20.652344 82.785156 21.003906 82.878906 C 22 83.148438 24.378906 83.136719 26.359375 83.222656 C 26.496094 83.230469 26.746094 83.164062 26.855469 82.835938 C 27.234375 81.726562 25.152344 81.382812 23.09375 80.253906 C 23.054688 80.230469 23.003906 80.234375 22.96875 80.261719 C 22.945312 80.277344 22.914062 80.296875 22.878906 80.320312 C 22.519531 80.546875 21.925781 80.546875 21.5625 80.328125 L 21.152344 80.085938 C 21.039062 80.015625 20.894531 80.074219 20.859375 80.199219 " fill-opacity="1" fill-rule="nonzero"/><path fill="#000000" d="M 20.859375 80.199219 Z M 21.050781 80.203125 C 21.042969 80.203125 21.035156 80.207031 21.03125 80.207031 C 21.023438 80.210938 21.007812 80.21875 21 80.242188 C 20.90625 80.585938 20.707031 81.546875 20.625 82.101562 C 20.582031 82.386719 20.761719 82.660156 21.042969 82.734375 C 21.769531 82.929688 23.304688 82.976562 24.792969 83.019531 C 25.316406 83.035156 25.859375 83.050781 26.367188 83.074219 C 26.40625 83.074219 26.617188 83.070312 26.714844 82.789062 C 26.921875 82.175781 26.179688 81.820312 24.84375 81.246094 C 24.289062 81.003906 23.664062 80.734375 23.039062 80.394531 C 23.015625 80.410156 22.988281 80.425781 22.957031 80.445312 C 22.558594 80.699219 21.898438 80.703125 21.484375 80.457031 L 21.074219 80.210938 C 21.066406 80.207031 21.058594 80.203125 21.050781 80.203125 Z M 26.378906 83.371094 C 26.371094 83.371094 26.363281 83.371094 26.351562 83.371094 C 25.847656 83.347656 25.308594 83.332031 24.785156 83.316406 C 23.210938 83.269531 21.722656 83.226562 20.964844 83.023438 C 20.539062 82.90625 20.265625 82.492188 20.328125 82.058594 C 20.414062 81.480469 20.613281 80.515625 20.714844 80.160156 C 20.742188 80.054688 20.820312 79.972656 20.921875 79.929688 C 21.023438 79.890625 21.132812 79.902344 21.226562 79.957031 L 21.640625 80.203125 C 21.957031 80.394531 22.488281 80.390625 22.796875 80.195312 C 22.832031 80.175781 22.859375 80.15625 22.878906 80.140625 C 22.964844 80.078125 23.074219 80.074219 23.167969 80.125 C 23.785156 80.460938 24.410156 80.730469 24.964844 80.96875 C 26.273438 81.535156 27.304688 81.980469 27 82.882812 C 26.875 83.246094 26.59375 83.371094 26.378906 83.371094 " fill-opacity="1" fill-rule="nonzero"/><path fill="#ffffff" d="M 20.417969 82.339844 C 20.414062 82.351562 20.414062 82.359375 20.414062 82.359375 C 20.359375 82.722656 20.707031 82.945312 21.035156 83.101562 C 22.015625 83.558594 25.976562 83.296875 26.128906 83.285156 C 26.132812 83.285156 26.132812 83.285156 26.136719 83.285156 C 26.1875 83.285156 26.6875 83.285156 26.835938 82.976562 C 26.851562 82.9375 26.863281 82.882812 26.871094 82.832031 C 26.882812 82.746094 26.875 82.664062 26.855469 82.582031 C 26.84375 82.515625 26.777344 82.472656 26.710938 82.488281 C 25.976562 82.675781 24.25 82.800781 22.542969 82.550781 C 21.914062 82.460938 20.910156 82.179688 20.644531 82.019531 C 20.574219 81.976562 20.480469 82.019531 20.464844 82.101562 C 20.449219 82.171875 20.433594 82.253906 20.417969 82.339844 " fill-opacity="1" fill-rule="nonzero"/><path fill="#000000" d="M 20.5625 82.371094 L 20.5625 82.382812 C 20.53125 82.597656 20.695312 82.777344 21.097656 82.964844 C 21.855469 83.320312 24.714844 83.230469 26.117188 83.136719 C 26.121094 83.136719 26.136719 83.136719 26.140625 83.136719 C 26.296875 83.140625 26.613281 83.09375 26.699219 82.914062 C 26.703125 82.90625 26.710938 82.878906 26.722656 82.8125 C 26.730469 82.757812 26.726562 82.699219 26.714844 82.640625 C 25.882812 82.847656 24.144531 82.933594 22.523438 82.699219 C 21.898438 82.609375 20.925781 82.339844 20.601562 82.167969 Z M 23.644531 83.519531 C 22.566406 83.519531 21.453125 83.460938 20.972656 83.234375 C 20.757812 83.136719 20.1875 82.867188 20.265625 82.339844 C 20.265625 82.335938 20.265625 82.328125 20.269531 82.3125 L 20.316406 82.074219 C 20.335938 81.988281 20.390625 81.914062 20.472656 81.878906 C 20.554688 81.84375 20.644531 81.847656 20.722656 81.894531 C 20.945312 82.027344 21.917969 82.308594 22.566406 82.402344 C 24.363281 82.664062 26.039062 82.507812 26.671875 82.347656 C 26.742188 82.328125 26.816406 82.339844 26.878906 82.375 C 26.941406 82.414062 26.988281 82.476562 27.003906 82.550781 C 27.027344 82.652344 27.03125 82.753906 27.019531 82.851562 C 27.007812 82.929688 26.992188 82.992188 26.96875 83.039062 C 26.789062 83.425781 26.242188 83.433594 26.136719 83.433594 C 25.917969 83.449219 24.804688 83.519531 23.644531 83.519531 " fill-opacity="1" fill-rule="nonzero"/><path fill="#000000" d="M 23.234375 81.300781 C 23.191406 81.300781 23.144531 81.28125 23.117188 81.242188 C 23.066406 81.175781 23.078125 81.082031 23.144531 81.03125 L 23.746094 80.578125 C 23.8125 80.527344 23.90625 80.539062 23.957031 80.605469 C 24.003906 80.671875 23.992188 80.765625 23.925781 80.8125 L 23.328125 81.269531 C 23.300781 81.289062 23.265625 81.300781 23.234375 81.300781 " fill-opacity="1" fill-rule="nonzero"/><path fill="#000000" d="M 24.035156 81.625 C 23.988281 81.625 23.945312 81.605469 23.914062 81.566406 C 23.863281 81.5 23.878906 81.40625 23.945312 81.355469 L 24.46875 80.964844 C 24.535156 80.914062 24.628906 80.929688 24.679688 80.996094 C 24.726562 81.058594 24.714844 81.152344 24.648438 81.203125 L 24.125 81.59375 C 24.097656 81.617188 24.066406 81.625 24.035156 81.625 " fill-opacity="1" fill-rule="nonzero"/><path fill="#5479f7" d="M 16.632812 79.066406 L 15.085938 78.84375 L 14.171875 80.769531 C 14.039062 81.0625 14.144531 81.4375 14.414062 81.605469 C 14.769531 81.832031 15.300781 82.121094 15.90625 82.316406 C 17.054688 82.683594 18.195312 83.734375 19.183594 83.21875 C 20.167969 82.699219 20.101562 82.660156 20.152344 82.308594 C 20.203125 81.953125 19.222656 81.253906 18.5625 80.796875 C 18.023438 80.421875 16.632812 79.066406 16.632812 79.066406 " fill-opacity="1" fill-rule="nonzero"/><path fill="#000000" d="M 15.171875 79.007812 L 14.308594 80.835938 C 14.203125 81.054688 14.289062 81.351562 14.496094 81.480469 C 14.828125 81.691406 15.351562 81.980469 15.953125 82.171875 C 16.324219 82.292969 16.695312 82.480469 17.054688 82.664062 C 17.800781 83.042969 18.507812 83.402344 19.113281 83.085938 C 19.960938 82.640625 19.964844 82.59375 19.996094 82.359375 C 19.996094 82.335938 20 82.3125 20.003906 82.285156 C 20.023438 82.160156 19.769531 81.816406 18.476562 80.917969 C 17.976562 80.570312 16.785156 79.421875 16.5625 79.207031 Z M 18.605469 83.507812 C 18.050781 83.507812 17.476562 83.214844 16.917969 82.929688 C 16.570312 82.753906 16.210938 82.570312 15.859375 82.457031 C 15.230469 82.253906 14.683594 81.953125 14.335938 81.734375 C 14.003906 81.523438 13.871094 81.066406 14.035156 80.707031 L 14.996094 78.679688 L 16.699219 78.925781 L 16.734375 78.957031 C 16.75 78.972656 18.125 80.3125 18.648438 80.675781 C 19.707031 81.410156 20.355469 81.941406 20.300781 82.328125 C 20.296875 82.351562 20.292969 82.375 20.292969 82.394531 C 20.246094 82.773438 20.171875 82.867188 19.253906 83.347656 C 19.039062 83.460938 18.824219 83.507812 18.605469 83.507812 " fill-opacity="1" fill-rule="nonzero"/><path fill="#000000" d="M 17.140625 80.789062 C 17.089844 80.789062 17.042969 80.765625 17.011719 80.722656 C 16.96875 80.652344 16.988281 80.5625 17.058594 80.515625 L 17.753906 80.0625 C 17.824219 80.019531 17.917969 80.039062 17.960938 80.109375 C 18.007812 80.175781 17.988281 80.269531 17.917969 80.3125 L 17.21875 80.765625 C 17.195312 80.78125 17.167969 80.789062 17.140625 80.789062 " fill-opacity="1" fill-rule="nonzero"/><path fill="#000000" d="M 17.636719 81.308594 C 17.585938 81.308594 17.539062 81.285156 17.507812 81.238281 C 17.464844 81.171875 17.484375 81.078125 17.554688 81.035156 L 18.25 80.582031 C 18.320312 80.539062 18.414062 80.558594 18.457031 80.625 C 18.503906 80.695312 18.484375 80.789062 18.414062 80.832031 L 17.714844 81.285156 C 17.691406 81.300781 17.664062 81.308594 17.636719 81.308594 " fill-opacity="1" fill-rule="nonzero"/><path fill="#ffffff" d="M 20.085938 82.574219 C 20.085938 82.574219 19.308594 83.136719 18.457031 82.839844 C 17.601562 82.546875 14.171875 80.75 14.171875 80.75 L 13.996094 81.136719 C 13.90625 81.332031 13.980469 81.5625 14.171875 81.671875 C 15.027344 82.148438 17.304688 83.371094 18.492188 83.453125 C 19.972656 83.550781 20.085938 82.574219 20.085938 82.574219 " fill-opacity="1" fill-rule="nonzero"/><path fill="#000000" d="M 14.242188 80.953125 L 14.128906 81.195312 C 14.074219 81.320312 14.125 81.472656 14.246094 81.539062 C 14.945312 81.933594 17.324219 83.222656 18.503906 83.304688 C 19.222656 83.351562 19.585938 83.128906 19.765625 82.910156 C 19.433594 83.046875 18.9375 83.164062 18.40625 82.980469 C 17.640625 82.71875 14.902344 81.300781 14.242188 80.953125 Z M 18.699219 83.609375 C 18.628906 83.609375 18.558594 83.605469 18.484375 83.601562 C 17.277344 83.519531 15.015625 82.3125 14.097656 81.800781 C 13.84375 81.65625 13.738281 81.335938 13.859375 81.074219 L 14.035156 80.6875 C 14.050781 80.648438 14.085938 80.621094 14.125 80.609375 C 14.164062 80.59375 14.207031 80.597656 14.242188 80.617188 C 14.277344 80.636719 17.671875 82.414062 18.503906 82.699219 C 19.273438 82.964844 19.988281 82.457031 19.996094 82.453125 C 20.042969 82.417969 20.109375 82.414062 20.160156 82.445312 C 20.210938 82.472656 20.238281 82.53125 20.234375 82.589844 C 20.230469 82.601562 20.097656 83.609375 18.699219 83.609375 " fill-opacity="1" fill-rule="nonzero"/><path fill="#5479f7" d="M 17.664062 63.75 C 17.664062 63.75 22.992188 65.90625 24.957031 68.277344 C 26.832031 70.542969 18.375 78.765625 18.375 78.765625 C 18.363281 78.804688 15.5 77.195312 15.5 77.144531 L 17.695312 72.382812 C 18.558594 70.523438 20.292969 69.460938 19.585938 68.808594 C 18.941406 68.214844 15.371094 68.523438 13.539062 68.457031 C 10.28125 68.34375 10.3125 63.617188 10.3125 63.617188 L 17.664062 63.75 " fill-opacity="1" fill-rule="nonzero"/><path fill="#5479f7" d="M 22.203125 69.621094 C 22.660156 71.335938 23.097656 76.488281 23.199219 79.367188 C 23.199219 79.40625 20.269531 79.4375 20.261719 79.382812 C 20.234375 79.128906 18.066406 71.328125 16.855469 69.265625 C 16.210938 68.167969 12.0625 68.480469 11.136719 68.300781 C 8.664062 67.808594 8.828125 62.84375 8.828125 62.84375 L 20.394531 67.445312 C 21.386719 67.59375 21.941406 68.652344 22.203125 69.621094 " fill-opacity="1" fill-rule="nonzero"/><path fill="#caddff" d="M 19.773438 77.472656 C 19.742188 77.472656 19.707031 77.460938 19.679688 77.4375 C 19.617188 77.386719 19.605469 77.292969 19.65625 77.230469 L 21.976562 74.339844 C 22.027344 74.277344 22.125 74.265625 22.1875 74.316406 C 22.253906 74.367188 22.261719 74.460938 22.210938 74.527344 L 19.890625 77.414062 C 19.863281 77.453125 19.820312 77.472656 19.773438 77.472656 " fill-opacity="1" fill-rule="nonzero"/><path fill="#000000" d="M 8.085938 54.976562 C 8.085938 54.976562 8.1875 51.015625 10.527344 50.246094 C 10.726562 50.179688 10.933594 50.148438 11.144531 50.140625 L 13.207031 50.0625 C 13.820312 50.058594 14.328125 50.207031 14.984375 50.445312 C 15.53125 50.644531 16.140625 51.015625 16.5 51.339844 C 18.070312 52.757812 18.085938 57.527344 19.441406 57.414062 C 19.898438 57.378906 20.660156 56.617188 21.417969 55.691406 C 22.023438 54.949219 23.066406 54.035156 23.066406 54.035156 L 24.878906 54.949219 C 24.449219 55.675781 24.058594 56.429688 23.742188 57.214844 C 23.078125 58.855469 21.988281 60.234375 20.621094 61.410156 C 20.167969 61.800781 19.527344 61.882812 18.988281 61.613281 C 18.121094 61.183594 16.816406 60.488281 16.003906 59.828125 C 15.707031 60.855469 15.972656 61.972656 16.707031 62.765625 C 16.925781 63 17.167969 63.21875 17.417969 63.398438 C 17.664062 63.570312 17.722656 63.917969 17.554688 64.167969 C 17.28125 64.574219 16.734375 65.039062 15.691406 64.933594 C 14.320312 64.789062 10.417969 64.804688 8.695312 64.820312 C 8.234375 64.820312 7.867188 64.445312 7.878906 63.984375 L 8.085938 54.976562 " fill-opacity="1" fill-rule="nonzero"/><path fill="#99b9ff" d="M 16.03125 60 C 16 60 15.964844 59.988281 15.941406 59.96875 C 15.695312 59.777344 14.960938 59.097656 14.570312 58.53125 C 14.523438 58.460938 14.542969 58.371094 14.609375 58.324219 C 14.679688 58.277344 14.773438 58.292969 14.820312 58.363281 C 15.1875 58.902344 15.890625 59.550781 16.125 59.734375 C 16.1875 59.785156 16.199219 59.878906 16.148438 59.941406 C 16.121094 59.980469 16.074219 60 16.03125 60 " fill-opacity="1" fill-rule="nonzero"/><path fill="#ffffff" d="M 23.292969 54.085938 L 23.570312 52.589844 C 23.570312 52.589844 23.796875 51.449219 24.074219 51.296875 C 24.277344 51.1875 24.414062 51.609375 24.371094 52.144531 C 24.363281 52.234375 24.484375 52.265625 24.519531 52.183594 C 24.664062 51.867188 24.816406 51.492188 24.828125 51.296875 C 24.855469 50.917969 24.929688 50.132812 25.285156 50.207031 C 25.636719 50.285156 26.265625 51.5 25.789062 52.539062 C 25.308594 53.578125 24.199219 54.542969 24.199219 54.542969 L 23.292969 54.085938 " fill-opacity="1" fill-rule="nonzero"/><path fill="#000000" d="M 23.460938 54.003906 L 24.175781 54.363281 C 24.429688 54.128906 25.261719 53.324219 25.652344 52.476562 C 25.933594 51.871094 25.800781 51.1875 25.582031 50.753906 C 25.445312 50.484375 25.308594 50.367188 25.253906 50.355469 C 25.234375 50.351562 25.222656 50.351562 25.207031 50.363281 C 25.15625 50.402344 25.027344 50.574219 24.980469 51.308594 C 24.96875 51.488281 24.863281 51.796875 24.65625 52.246094 C 24.609375 52.347656 24.5 52.402344 24.390625 52.371094 C 24.28125 52.34375 24.210938 52.246094 24.222656 52.132812 C 24.253906 51.742188 24.179688 51.503906 24.132812 51.4375 C 24 51.546875 23.816406 52.121094 23.714844 52.621094 Z M 24.199219 54.691406 C 24.175781 54.691406 24.152344 54.6875 24.132812 54.675781 L 23.222656 54.21875 C 23.164062 54.1875 23.132812 54.125 23.144531 54.058594 L 23.421875 52.5625 C 23.480469 52.277344 23.6875 51.339844 24 51.167969 C 24.09375 51.117188 24.195312 51.121094 24.28125 51.175781 C 24.4375 51.273438 24.507812 51.527344 24.523438 51.800781 C 24.648438 51.492188 24.675781 51.351562 24.679688 51.289062 C 24.722656 50.632812 24.832031 50.273438 25.027344 50.125 C 25.113281 50.0625 25.210938 50.039062 25.316406 50.0625 C 25.574219 50.117188 25.773438 50.472656 25.851562 50.621094 C 26.097656 51.117188 26.25 51.898438 25.925781 52.601562 C 25.4375 53.660156 24.34375 54.613281 24.296875 54.65625 C 24.269531 54.679688 24.234375 54.691406 24.199219 54.691406 " fill-opacity="1" fill-rule="nonzero"/><path fill="#ffffff" d="M 13.9375 50.671875 C 13.996094 50.664062 14.007812 50.585938 13.957031 50.554688 C 13.785156 50.457031 13.542969 50.277344 13.558594 50.058594 L 13.519531 49.222656 C 13.523438 49.121094 13.589844 49.03125 13.6875 49 L 14.292969 48.816406 C 14.386719 48.789062 14.449219 48.703125 14.449219 48.605469 L 14.429688 47.714844 L 14.722656 47.480469 C 14.746094 47.460938 14.75 47.425781 14.730469 47.402344 L 14.308594 46.84375 C 14.171875 46.636719 14.042969 46.140625 13.921875 46.171875 C 13.921875 46.171875 11.414062 45.777344 11.210938 47.019531 C 11.179688 47.207031 11.226562 47.402344 11.332031 47.5625 L 11.542969 47.886719 C 11.757812 48.210938 11.859375 48.605469 11.804688 48.988281 C 11.785156 49.113281 11.503906 50.226562 11.503906 50.226562 C 11.503906 50.226562 11 50.453125 10.691406 50.539062 C 10.625 50.558594 10.621094 50.648438 10.6875 50.671875 L 11.25 50.808594 C 11.8125 50.941406 12.394531 50.953125 12.964844 50.851562 L 13.9375 50.671875 " fill-opacity="1" fill-rule="nonzero"/><path fill="#000000" d="M 13.910156 50.527344 Z M 13.9375 50.671875 Z M 10.996094 50.59375 L 11.285156 50.664062 C 11.828125 50.789062 12.386719 50.804688 12.9375 50.703125 L 13.703125 50.566406 C 13.5 50.410156 13.398438 50.238281 13.40625 50.058594 L 13.371094 49.226562 C 13.371094 49.226562 13.371094 49.222656 13.371094 49.21875 C 13.375 49.050781 13.484375 48.90625 13.644531 48.859375 L 14.25 48.675781 C 14.277344 48.667969 14.300781 48.636719 14.296875 48.605469 L 14.28125 47.71875 C 14.277344 47.671875 14.300781 47.628906 14.335938 47.597656 L 14.558594 47.421875 L 14.1875 46.933594 C 14.1875 46.933594 14.183594 46.929688 14.183594 46.925781 C 14.121094 46.835938 14.070312 46.707031 14.019531 46.585938 C 13.980469 46.496094 13.925781 46.367188 13.890625 46.316406 C 13.726562 46.292969 11.53125 45.996094 11.359375 47.042969 C 11.335938 47.191406 11.371094 47.347656 11.457031 47.480469 L 11.671875 47.804688 C 11.914062 48.175781 12.011719 48.601562 11.953125 49.011719 C 11.933594 49.136719 11.675781 50.148438 11.648438 50.261719 C 11.636719 50.308594 11.605469 50.34375 11.566406 50.363281 C 11.550781 50.371094 11.269531 50.496094 10.996094 50.59375 Z M 12.207031 51.066406 C 11.875 51.066406 11.542969 51.03125 11.214844 50.953125 L 10.652344 50.820312 C 10.644531 50.816406 10.640625 50.816406 10.636719 50.8125 C 10.542969 50.78125 10.488281 50.695312 10.488281 50.597656 C 10.492188 50.503906 10.558594 50.421875 10.652344 50.394531 C 10.882812 50.332031 11.230469 50.183594 11.375 50.121094 C 11.484375 49.6875 11.644531 49.046875 11.65625 48.96875 C 11.707031 48.632812 11.621094 48.277344 11.417969 47.96875 L 11.207031 47.644531 C 11.078125 47.449219 11.027344 47.214844 11.0625 46.996094 C 11.277344 45.671875 13.648438 45.980469 13.921875 46.019531 C 14.097656 46.003906 14.191406 46.222656 14.292969 46.472656 C 14.339844 46.578125 14.386719 46.691406 14.429688 46.757812 L 14.851562 47.3125 C 14.917969 47.402344 14.902344 47.523438 14.816406 47.59375 L 14.582031 47.785156 L 14.597656 48.601562 C 14.601562 48.765625 14.492188 48.914062 14.335938 48.960938 L 13.730469 49.144531 C 13.695312 49.152344 13.671875 49.183594 13.671875 49.222656 L 13.707031 50.054688 C 13.707031 50.058594 13.707031 50.066406 13.707031 50.070312 C 13.699219 50.171875 13.820312 50.304688 14.03125 50.425781 C 14.109375 50.472656 14.152344 50.558594 14.136719 50.648438 C 14.121094 50.734375 14.050781 50.804688 13.964844 50.820312 L 12.992188 50.996094 C 12.730469 51.042969 12.46875 51.066406 12.207031 51.066406 " fill-opacity="1" fill-rule="nonzero"/><path fill="#000000" d="M 14.089844 44.238281 C 13.511719 44.183594 14.21875 44.808594 12.09375 44.105469 C 11.246094 43.828125 11.644531 44.839844 11.425781 44.765625 C 10.613281 44.5 10.640625 44.507812 10.238281 44.601562 C 9.96875 44.660156 9.78125 45.144531 9.816406 45.511719 C 9.867188 45.992188 10.378906 46.78125 10.835938 47.605469 C 11.070312 48.035156 11.515625 48.09375 12.082031 47.492188 C 12.144531 47.429688 11.867188 47.027344 12.027344 46.867188 C 12.445312 46.445312 12.59375 47.113281 12.925781 46.921875 C 13.242188 46.738281 13.378906 46.617188 13.71875 46.335938 C 14.128906 45.996094 14.769531 46.582031 15.035156 45.785156 C 15.171875 45.371094 14.882812 44.3125 14.089844 44.238281 " fill-opacity="1" fill-rule="nonzero"/><path fill="#99b9ff" d="M 11.945312 83.402344 L 13.761719 83.402344 L 13.761719 68.65625 L 11.945312 68.65625 L 11.945312 83.402344 " fill-opacity="1" fill-rule="nonzero"/><path fill="#99b9ff" d="M 8.472656 81.351562 L 17.238281 81.351562 C 18.34375 81.351562 19.242188 82.246094 19.242188 83.347656 L 19.242188 83.648438 L 6.464844 83.648438 L 6.464844 83.347656 C 6.464844 82.246094 7.363281 81.351562 8.472656 81.351562 " fill-opacity="1" fill-rule="nonzero"/><path fill="#000000" d="M 12.023438 78.359375 C 11.9375 78.359375 11.871094 78.292969 11.871094 78.210938 L 11.871094 71.214844 C 11.871094 71.132812 11.9375 71.066406 12.023438 71.066406 C 12.105469 71.066406 12.171875 71.132812 12.171875 71.214844 L 12.171875 78.210938 C 12.171875 78.292969 12.105469 78.359375 12.023438 78.359375 " fill-opacity="1" fill-rule="nonzero"/><path fill="#99b9ff" d="M 7.433594 55.261719 L 8.347656 55.261719 C 10.78125 55.261719 12.886719 56.964844 13.410156 59.355469 L 14.472656 64.238281 C 14.71875 65.378906 15.726562 66.195312 16.890625 66.195312 L 18.808594 66.195312 C 19.8125 66.195312 20.628906 67.011719 20.628906 68.019531 C 20.628906 69.03125 19.8125 69.847656 18.808594 69.847656 L 15.691406 69.847656 L 15.695312 69.855469 L 10.207031 69.855469 C 8.289062 69.855469 6.628906 68.511719 6.21875 66.628906 L 4.53125 58.882812 C 4.128906 57.023438 5.539062 55.261719 7.433594 55.261719 " fill-opacity="1" fill-rule="nonzero"/><path fill="#000000" d="M 15.695312 70.003906 L 10.207031 70.003906 C 8.234375 70.003906 6.492188 68.597656 6.070312 66.660156 L 4.386719 58.914062 C 4.367188 58.835938 4.417969 58.753906 4.5 58.738281 C 4.582031 58.71875 4.660156 58.769531 4.679688 58.851562 L 6.363281 66.59375 C 6.757812 68.398438 8.375 69.707031 10.207031 69.707031 L 15.695312 69.707031 C 15.777344 69.707031 15.84375 69.773438 15.84375 69.855469 C 15.84375 69.9375 15.777344 70.003906 15.695312 70.003906 " fill-opacity="1" fill-rule="nonzero"/><path fill="#000000" d="M 15.695312 70.003906 L 10.207031 70.003906 C 8.234375 70.003906 6.492188 68.597656 6.070312 66.660156 L 4.386719 58.914062 C 4.367188 58.835938 4.417969 58.753906 4.5 58.738281 C 4.582031 58.71875 4.660156 58.769531 4.679688 58.851562 L 6.363281 66.59375 C 6.757812 68.398438 8.375 69.707031 10.207031 69.707031 L 15.695312 69.707031 C 15.777344 69.707031 15.84375 69.773438 15.84375 69.855469 C 15.84375 69.9375 15.777344 70.003906 15.695312 70.003906 " fill-opacity="1" fill-rule="nonzero"/><path fill="#000000" d="M 32.8125 67.535156 C 33.386719 70.140625 31.121094 77.265625 30.644531 79 C 30.582031 79.226562 30.375 79.386719 30.136719 79.386719 L 28.027344 79.386719 C 27.734375 79.386719 27.496094 79.148438 27.5 78.859375 C 27.519531 76.800781 27.894531 69.289062 26.605469 67.128906 C 25.859375 65.878906 24.492188 65.3125 23.578125 64.71875 C 21.382812 63.289062 22.207031 60.121094 22.207031 60.121094 L 30.5 65.023438 C 31.648438 65.191406 32.566406 66.414062 32.8125 67.535156 " fill-opacity="1" fill-rule="nonzero"/><path fill="#000000" d="M 29.667969 60.941406 C 29.667969 60.941406 36.90625 61.003906 39.1875 63.710938 C 41.238281 66.144531 38.199219 76.859375 37.5625 79 C 37.496094 79.222656 37.289062 79.375 37.054688 79.375 L 34.335938 79.375 C 34.28125 79.375 34.234375 79.328125 34.234375 79.273438 L 34.234375 67.921875 C 34.234375 67.207031 34.09375 67.589844 33.484375 67.203125 C 32.632812 66.660156 31.085938 67.121094 28.957031 67.136719 C 22.195312 67.1875 23.28125 60.847656 23.28125 60.847656 L 29.667969 60.941406 " fill-opacity="1" fill-rule="nonzero"/><path fill="#ffffff" d="M 28.007812 79.394531 L 27.867188 81.234375 L 29.558594 81.242188 L 29.90625 79.410156 L 28.007812 79.394531 " fill-opacity="1" fill-rule="nonzero"/><path fill="#000000" d="M 28.027344 81.085938 L 29.433594 81.09375 L 29.726562 79.554688 L 28.148438 79.546875 Z M 29.679688 81.390625 L 27.703125 81.382812 L 27.871094 79.246094 L 30.085938 79.261719 L 29.679688 81.390625 " fill-opacity="1" fill-rule="nonzero"/><path fill="#ffffff" d="M 34.691406 79.394531 L 34.71875 81.234375 L 36.460938 81.242188 L 36.769531 79.410156 L 34.691406 79.394531 " fill-opacity="1" fill-rule="nonzero"/><path fill="#000000" d="M 34.867188 81.085938 L 36.335938 81.09375 L 36.59375 79.558594 L 34.84375 79.546875 Z M 36.589844 81.390625 L 34.570312 81.382812 L 34.542969 79.246094 L 36.949219 79.261719 L 36.589844 81.390625 " fill-opacity="1" fill-rule="nonzero"/><path fill="#5479f7" d="M 36.4375 81.007812 L 34.816406 81.007812 C 34.699219 81.007812 34.597656 81.078125 34.554688 81.183594 C 34.410156 81.527344 34.117188 82.335938 34.15625 83.101562 C 34.167969 83.308594 34.34375 83.472656 34.554688 83.472656 L 39.3125 83.472656 C 39.53125 83.472656 39.695312 83.277344 39.652344 83.066406 C 39.601562 82.8125 39.417969 82.476562 38.898438 82.175781 C 38.054688 81.691406 36.992188 81.207031 36.65625 81.054688 C 36.589844 81.023438 36.511719 81.007812 36.4375 81.007812 " fill-opacity="1" fill-rule="nonzero"/><path fill="#5479f7" d="M 29.5 81.007812 L 27.878906 81.007812 C 27.761719 81.007812 27.660156 81.078125 27.617188 81.183594 C 27.472656 81.527344 27.179688 82.335938 27.21875 83.101562 C 27.230469 83.308594 27.40625 83.472656 27.617188 83.472656 L 32.375 83.472656 C 32.59375 83.472656 32.757812 83.277344 32.714844 83.066406 C 32.664062 82.8125 32.480469 82.476562 31.960938 82.175781 C 31.117188 81.691406 30.054688 81.207031 29.71875 81.054688 C 29.652344 81.023438 29.574219 81.007812 29.5 81.007812 " fill-opacity="1" fill-rule="nonzero"/><path fill="#ffffff" d="M 36.347656 57.40625 L 37.207031 57.085938 C 37.570312 56.949219 37.96875 56.953125 38.328125 57.101562 C 38.777344 57.285156 39.386719 57.582031 39.804688 57.972656 C 39.90625 58.074219 39.84375 58.253906 39.703125 58.253906 L 36.390625 58.253906 L 36.347656 57.40625 " fill-opacity="1" fill-rule="nonzero"/><path fill="#000000" d="M 36.53125 58.105469 L 39.703125 58.105469 C 39.703125 58.105469 39.703125 58.097656 39.703125 58.09375 C 39.707031 58.089844 39.703125 58.085938 39.699219 58.082031 C 39.296875 57.703125 38.703125 57.414062 38.273438 57.238281 C 37.949219 57.109375 37.589844 57.101562 37.257812 57.226562 L 36.503906 57.507812 Z M 39.703125 58.402344 L 36.246094 58.402344 L 36.195312 57.304688 L 37.15625 56.945312 C 37.554688 56.796875 37.992188 56.804688 38.386719 56.964844 C 38.839844 57.148438 39.46875 57.453125 39.90625 57.867188 C 40 57.953125 40.03125 58.089844 39.980469 58.210938 C 39.933594 58.328125 39.824219 58.402344 39.703125 58.402344 " fill-opacity="1" fill-rule="nonzero"/><path fill="#5479f7" d="M 29.375 50.765625 C 30.671875 51.878906 30.957031 54.730469 31.789062 55.453125 C 32.507812 56.082031 35.601562 56.902344 36.414062 57.109375 C 36.53125 57.136719 36.609375 57.238281 36.609375 57.355469 L 36.605469 58.140625 L 31.695312 58.140625 C 31.011719 58.140625 30.355469 57.863281 29.878906 57.375 C 28.296875 55.753906 24.710938 52.101562 23.945312 49.882812 L 26.375 49.746094 C 26.375 49.746094 27.9375 49.53125 29.375 50.765625 " fill-opacity="1" fill-rule="nonzero"/><path fill="#5479f7" d="M 28.832031 56.066406 C 28.832031 56.066406 28.9375 56.695312 28.652344 57.445312 C 28.292969 58.382812 28.464844 59.441406 29.148438 60.171875 C 29.4375 60.480469 29.765625 60.757812 30.109375 60.921875 C 30.109375 60.921875 29.890625 61.957031 28.289062 62.027344 C 27.640625 62.058594 25.921875 62.117188 24.644531 62.046875 C 22.902344 61.949219 21.613281 61.628906 21.613281 61.628906 L 21.75 53.605469 C 21.75 53.605469 21.652344 50.230469 24.015625 49.882812 L 28.832031 56.066406 " fill-opacity="1" fill-rule="nonzero"/><path fill="#caddff" d="M 28.957031 56.746094 C 28.917969 56.746094 28.878906 56.730469 28.847656 56.695312 C 28.191406 55.992188 27.679688 55.179688 27.335938 54.285156 C 27.304688 54.207031 27.34375 54.121094 27.421875 54.089844 C 27.496094 54.0625 27.582031 54.101562 27.613281 54.175781 C 27.945312 55.039062 28.4375 55.816406 29.066406 56.496094 C 29.125 56.554688 29.121094 56.648438 29.058594 56.703125 C 29.03125 56.730469 28.992188 56.746094 28.957031 56.746094 " fill-opacity="1" fill-rule="nonzero"/><path fill="#ffffff" d="M 27.824219 45.558594 C 27.824219 45.558594 27.914062 46.367188 28.324219 46.816406 C 28.355469 46.851562 28.359375 46.898438 28.335938 46.9375 L 28.167969 47.21875 C 28.152344 47.242188 28.140625 47.269531 28.132812 47.296875 L 27.855469 48.109375 C 27.828125 48.1875 27.761719 48.238281 27.683594 48.246094 C 27.507812 48.261719 27.066406 48.191406 27.03125 48.308594 C 26.988281 48.4375 27.019531 49.484375 27.035156 49.941406 C 27.039062 50.0625 26.957031 50.167969 26.835938 50.191406 L 25.890625 50.363281 C 25.46875 50.441406 25.03125 50.390625 24.636719 50.21875 C 24.511719 50.160156 24.453125 50.011719 24.511719 49.886719 C 24.730469 49.429688 25.199219 48.332031 25.136719 47.664062 L 24.71875 46.496094 C 24.730469 45.9375 25.199219 45.492188 25.765625 45.507812 L 27.824219 45.558594 " fill-opacity="1" fill-rule="nonzero"/><path fill="#000000" d="M 24.871094 46.472656 L 25.289062 47.648438 C 25.351562 48.332031 24.914062 49.382812 24.648438 49.949219 C 24.636719 49.972656 24.636719 50 24.644531 50.023438 C 24.65625 50.050781 24.675781 50.070312 24.699219 50.082031 C 25.066406 50.242188 25.46875 50.289062 25.867188 50.214844 L 26.808594 50.042969 C 26.855469 50.035156 26.890625 49.992188 26.886719 49.945312 C 26.835938 48.433594 26.875 48.304688 26.886719 48.265625 C 26.945312 48.074219 27.203125 48.082031 27.476562 48.09375 C 27.554688 48.097656 27.625 48.101562 27.671875 48.097656 C 27.691406 48.09375 27.707031 48.082031 27.710938 48.0625 L 27.992188 47.246094 C 28.003906 47.210938 28.019531 47.175781 28.039062 47.140625 L 28.191406 46.890625 C 27.867188 46.519531 27.738281 45.957031 27.695312 45.703125 L 25.761719 45.65625 C 25.527344 45.648438 25.304688 45.734375 25.136719 45.894531 C 24.972656 46.050781 24.878906 46.253906 24.871094 46.472656 Z M 25.5 50.546875 C 25.183594 50.546875 24.871094 50.480469 24.578125 50.351562 C 24.480469 50.308594 24.402344 50.230469 24.367188 50.128906 C 24.328125 50.03125 24.332031 49.921875 24.378906 49.824219 C 24.578125 49.394531 25.039062 48.332031 24.992188 47.695312 L 24.570312 46.519531 L 24.570312 46.492188 C 24.574219 46.183594 24.703125 45.894531 24.929688 45.679688 C 25.15625 45.464844 25.453125 45.347656 25.769531 45.355469 L 27.957031 45.410156 L 27.972656 45.539062 C 27.972656 45.546875 28.0625 46.308594 28.433594 46.714844 C 28.511719 46.800781 28.523438 46.921875 28.464844 47.015625 L 28.296875 47.296875 C 28.289062 47.308594 28.28125 47.328125 28.273438 47.34375 L 27.996094 48.160156 C 27.953125 48.289062 27.832031 48.382812 27.695312 48.394531 C 27.632812 48.398438 27.550781 48.394531 27.464844 48.390625 C 27.382812 48.390625 27.238281 48.382812 27.167969 48.394531 C 27.15625 48.539062 27.152344 49.007812 27.1875 49.9375 C 27.191406 50.132812 27.058594 50.300781 26.863281 50.335938 L 25.917969 50.507812 C 25.78125 50.535156 25.640625 50.546875 25.5 50.546875 " fill-opacity="1" fill-rule="nonzero"/><path fill="#000000" d="M 28.015625 45.269531 C 28.097656 45.398438 28.046875 45.570312 27.910156 45.632812 L 27.824219 45.671875 L 26.207031 46.464844 C 26.164062 46.484375 26.117188 46.484375 26.078125 46.457031 C 26.011719 46.40625 25.890625 46.347656 25.769531 46.425781 C 25.601562 46.53125 25.570312 47.101562 26 47.253906 C 26.058594 47.273438 26.089844 47.332031 26.066406 47.390625 C 26.042969 47.449219 26.003906 47.527344 25.953125 47.613281 C 25.574219 48.269531 24.628906 48.304688 24.175781 47.703125 C 23.839844 47.253906 23.535156 46.523438 23.910156 45.519531 C 24.503906 43.945312 26.921875 43.609375 28.015625 45.269531 " fill-opacity="1" fill-rule="nonzero"/><path fill="#000000" d="M 24.074219 44.90625 C 24.074219 44.90625 23.371094 44.074219 22.335938 44.394531 C 21.304688 44.71875 21.25 46.460938 21.132812 47.542969 C 20.710938 51.367188 19.773438 52.757812 19.46875 53.101562 C 19.136719 53.484375 21.773438 53.222656 22.664062 52.921875 C 25.226562 52.050781 23.878906 49.59375 23.757812 49.152344 C 23.636719 48.710938 22.679688 46.234375 23.867188 45.945312 L 24.472656 45.433594 L 24.074219 44.90625 " fill-opacity="1" fill-rule="nonzero"/><path fill="#5479f7" d="M 23.75 46.097656 L 23.761719 46.105469 C 23.875 46.144531 24 46.085938 24.042969 45.976562 L 24.355469 45.128906 C 24.398438 45.019531 24.339844 44.894531 24.226562 44.855469 L 24.214844 44.847656 C 24.101562 44.808594 23.976562 44.863281 23.9375 44.976562 L 23.621094 45.824219 C 23.582031 45.933594 23.636719 46.058594 23.75 46.097656 " fill-opacity="1" fill-rule="nonzero"/><path fill="#99b9ff" d="M 26.617188 83.402344 L 28.429688 83.402344 L 28.429688 68.65625 L 26.617188 68.65625 L 26.617188 83.402344 " fill-opacity="1" fill-rule="nonzero"/><path fill="#99b9ff" d="M 23.140625 81.351562 L 31.90625 81.351562 C 33.015625 81.351562 33.914062 82.246094 33.914062 83.347656 L 33.914062 83.648438 L 21.132812 83.648438 L 21.132812 83.347656 C 21.132812 82.246094 22.03125 81.351562 23.140625 81.351562 " fill-opacity="1" fill-rule="nonzero"/><path fill="#000000" d="M 26.691406 78.359375 C 26.609375 78.359375 26.542969 78.292969 26.542969 78.210938 L 26.542969 71.214844 C 26.542969 71.132812 26.609375 71.066406 26.691406 71.066406 C 26.773438 71.066406 26.839844 71.132812 26.839844 71.214844 L 26.839844 78.210938 C 26.839844 78.292969 26.773438 78.359375 26.691406 78.359375 " fill-opacity="1" fill-rule="nonzero"/><path fill="#99b9ff" d="M 22.105469 55.261719 L 23.015625 55.261719 C 25.453125 55.261719 27.558594 56.964844 28.078125 59.355469 L 29.140625 64.238281 C 29.390625 65.378906 30.398438 66.195312 31.5625 66.195312 L 33.480469 66.195312 C 34.484375 66.195312 35.296875 67.011719 35.296875 68.019531 C 35.296875 69.03125 34.484375 69.847656 33.480469 69.847656 L 30.363281 69.847656 L 30.363281 69.855469 L 24.878906 69.855469 C 22.957031 69.855469 21.296875 68.511719 20.886719 66.628906 L 19.203125 58.882812 C 18.796875 57.023438 20.207031 55.261719 22.105469 55.261719 " fill-opacity="1" fill-rule="nonzero"/><path fill="#000000" d="M 30.363281 70.003906 L 24.878906 70.003906 C 22.902344 70.003906 21.164062 68.597656 20.742188 66.660156 L 19.054688 58.914062 C 19.039062 58.835938 19.089844 58.753906 19.171875 58.738281 C 19.25 58.71875 19.332031 58.769531 19.347656 58.851562 L 21.035156 66.59375 C 21.425781 68.398438 23.042969 69.707031 24.878906 69.707031 L 30.363281 69.707031 C 30.445312 69.707031 30.515625 69.773438 30.515625 69.855469 C 30.515625 69.9375 30.445312 70.003906 30.363281 70.003906 " fill-opacity="1" fill-rule="nonzero"/><path fill="#000000" d="M 30.363281 70.003906 L 24.878906 70.003906 C 22.902344 70.003906 21.164062 68.597656 20.742188 66.660156 L 19.054688 58.914062 C 19.039062 58.835938 19.089844 58.753906 19.171875 58.738281 C 19.25 58.71875 19.332031 58.769531 19.347656 58.851562 L 21.035156 66.59375 C 21.425781 68.398438 23.042969 69.707031 24.878906 69.707031 L 30.363281 69.707031 C 30.445312 69.707031 30.515625 69.773438 30.515625 69.855469 C 30.515625 69.9375 30.445312 70.003906 30.363281 70.003906 " fill-opacity="1" fill-rule="nonzero"/><path fill="#000000" d="M 60.230469 4.753906 L 60.234375 4.753906 Z M 60.496094 4.84375 C 60.425781 4.84375 60.359375 4.859375 60.292969 4.886719 C 60.039062 5.003906 59.921875 5.308594 60.035156 5.566406 C 60.089844 5.695312 60.191406 5.792969 60.316406 5.84375 C 60.441406 5.890625 60.574219 5.886719 60.695312 5.832031 C 60.953125 5.71875 61.070312 5.410156 60.957031 5.152344 C 60.902344 5.023438 60.800781 4.925781 60.671875 4.878906 C 60.617188 4.855469 60.554688 4.84375 60.496094 4.84375 Z M 60.496094 6.171875 C 60.398438 6.171875 60.300781 6.15625 60.207031 6.121094 C 60.007812 6.042969 59.847656 5.886719 59.761719 5.6875 C 59.582031 5.277344 59.765625 4.796875 60.171875 4.617188 C 60.367188 4.527344 60.582031 4.523438 60.78125 4.601562 C 60.984375 4.679688 61.144531 4.832031 61.230469 5.035156 C 61.40625 5.441406 61.222656 5.921875 60.820312 6.105469 C 60.714844 6.148438 60.605469 6.171875 60.496094 6.171875 " fill-opacity="1" fill-rule="nonzero"/><path fill="#000000" d="M 40.035156 3.542969 C 40 3.542969 39.960938 3.53125 39.929688 3.5 L 39.488281 3.058594 C 39.429688 3 39.429688 2.90625 39.488281 2.847656 C 39.546875 2.789062 39.644531 2.789062 39.699219 2.847656 L 40.144531 3.289062 C 40.199219 3.347656 40.199219 3.441406 40.140625 3.5 C 40.113281 3.53125 40.074219 3.542969 40.035156 3.542969 " fill-opacity="1" fill-rule="nonzero"/><path fill="#000000" d="M 41.582031 5.09375 C 41.546875 5.09375 41.507812 5.078125 41.476562 5.050781 L 41.035156 4.605469 C 40.976562 4.550781 40.976562 4.453125 41.035156 4.394531 C 41.09375 4.339844 41.191406 4.339844 41.25 4.398438 L 41.691406 4.839844 C 41.75 4.898438 41.75 4.992188 41.691406 5.050781 C 41.660156 5.078125 41.621094 5.09375 41.582031 5.09375 " fill-opacity="1" fill-rule="nonzero"/><path fill="#000000" d="M 39.59375 5.09375 C 39.554688 5.09375 39.519531 5.078125 39.488281 5.050781 C 39.429688 4.992188 39.429688 4.898438 39.488281 4.839844 L 39.929688 4.398438 C 39.988281 4.339844 40.082031 4.339844 40.140625 4.394531 C 40.199219 4.453125 40.199219 4.550781 40.144531 4.605469 L 39.699219 5.050781 C 39.671875 5.078125 39.632812 5.09375 39.59375 5.09375 " fill-opacity="1" fill-rule="nonzero"/><path fill="#000000" d="M 41.140625 3.542969 C 41.105469 3.542969 41.066406 3.53125 41.035156 3.5 C 40.976562 3.441406 40.976562 3.347656 41.035156 3.289062 L 41.476562 2.847656 C 41.535156 2.789062 41.632812 2.789062 41.691406 2.847656 C 41.75 2.90625 41.75 3 41.691406 3.058594 L 41.25 3.5 C 41.21875 3.53125 41.179688 3.542969 41.140625 3.542969 " fill-opacity="1" fill-rule="nonzero"/><path fill="#000000" d="M 6.261719 37.015625 C 6.222656 37.015625 6.1875 37 6.15625 36.96875 L 5.714844 36.527344 C 5.65625 36.46875 5.65625 36.375 5.714844 36.316406 C 5.773438 36.257812 5.867188 36.257812 5.925781 36.316406 L 6.367188 36.761719 C 6.425781 36.816406 6.425781 36.914062 6.367188 36.96875 C 6.339844 37 6.300781 37.015625 6.261719 37.015625 " fill-opacity="1" fill-rule="nonzero"/><path fill="#000000" d="M 7.808594 38.5625 C 7.773438 38.5625 7.734375 38.546875 7.703125 38.519531 L 7.261719 38.078125 C 7.203125 38.019531 7.203125 37.925781 7.261719 37.867188 C 7.320312 37.808594 7.414062 37.808594 7.472656 37.867188 L 7.917969 38.308594 C 7.972656 38.367188 7.972656 38.460938 7.914062 38.519531 C 7.886719 38.546875 7.847656 38.5625 7.808594 38.5625 " fill-opacity="1" fill-rule="nonzero"/><path fill="#000000" d="M 5.820312 38.5625 C 5.78125 38.5625 5.746094 38.546875 5.714844 38.519531 C 5.65625 38.460938 5.65625 38.367188 5.714844 38.308594 L 6.15625 37.867188 C 6.214844 37.808594 6.308594 37.808594 6.367188 37.867188 C 6.425781 37.925781 6.425781 38.019531 6.367188 38.078125 L 5.925781 38.519531 C 5.898438 38.546875 5.859375 38.5625 5.820312 38.5625 " fill-opacity="1" fill-rule="nonzero"/><path fill="#000000" d="M 7.367188 37.015625 C 7.328125 37.015625 7.292969 37 7.261719 36.96875 C 7.203125 36.914062 7.203125 36.816406 7.261719 36.761719 L 7.703125 36.316406 C 7.761719 36.257812 7.855469 36.257812 7.914062 36.316406 C 7.972656 36.375 7.972656 36.46875 7.917969 36.527344 L 7.472656 36.96875 C 7.445312 37 7.40625 37.015625 7.367188 37.015625 " fill-opacity="1" fill-rule="nonzero"/><path fill="#000000" d="M 65.757812 7.285156 C 65.375 7.285156 65.058594 7.597656 65.058594 7.984375 C 65.058594 8.371094 65.375 8.683594 65.757812 8.683594 C 66.148438 8.683594 66.460938 8.371094 66.460938 7.984375 C 66.460938 7.597656 66.148438 7.285156 65.757812 7.285156 Z M 65.757812 8.980469 C 65.207031 8.980469 64.757812 8.535156 64.757812 7.984375 C 64.757812 7.433594 65.207031 6.988281 65.757812 6.988281 C 66.3125 6.988281 66.761719 7.433594 66.761719 7.984375 C 66.761719 8.535156 66.3125 8.980469 65.757812 8.980469 " fill-opacity="1" fill-rule="nonzero"/><path fill="#000000" d="M 74.15625 35.3125 C 74.683594 35.867188 74.289062 36.238281 74.90625 37.4375 C 75.355469 38.320312 75.800781 38.574219 75.722656 39.105469 C 75.648438 39.585938 75.207031 39.882812 74.917969 40.078125 C 73.605469 40.972656 71.980469 40.664062 70.980469 40.472656 C 70.175781 40.320312 69.066406 40.109375 68.976562 39.585938 C 68.886719 39.066406 69.890625 38.835938 70.097656 37.859375 C 70.261719 37.070312 69.707031 36.777344 69.921875 36.085938 C 70.203125 35.195312 71.394531 34.867188 71.585938 34.816406 C 72.351562 34.605469 73.507812 34.628906 74.15625 35.3125 " fill-opacity="1" fill-rule="nonzero"/><path fill="#000000" d="M 73.488281 35.144531 C 73.488281 35.144531 73.28125 33.585938 74.585938 33.628906 C 75.890625 33.671875 75.117188 35.242188 74.253906 35.605469 C 73.390625 35.96875 73.488281 35.144531 73.488281 35.144531 " fill-opacity="1" fill-rule="nonzero"/><path fill="#ffffff" d="M 65.378906 60.429688 C 65.378906 60.429688 63.992188 67.046875 64.050781 67.515625 C 64.109375 67.984375 61.585938 78.140625 61.585938 78.140625 L 62.640625 78.984375 C 62.640625 78.984375 66.570312 69.785156 66.664062 68.558594 C 66.753906 67.332031 69.519531 60.304688 69.519531 60.304688 L 65.378906 60.429688 " fill-opacity="1" fill-rule="nonzero"/><path fill="#000000" d="M 61.753906 78.085938 L 62.578125 78.746094 C 63.128906 77.449219 66.429688 69.640625 66.511719 68.546875 C 66.597656 67.417969 68.828125 61.660156 69.296875 60.460938 L 65.5 60.574219 C 64.964844 63.132812 64.160156 67.179688 64.199219 67.5 C 64.257812 67.960938 62.226562 76.191406 61.753906 78.085938 Z M 62.640625 79.136719 C 62.605469 79.136719 62.570312 79.125 62.546875 79.101562 L 61.492188 78.257812 C 61.449219 78.222656 61.429688 78.160156 61.441406 78.105469 C 62.445312 74.070312 63.925781 67.921875 63.902344 67.53125 C 63.84375 67.054688 65.089844 61.078125 65.230469 60.398438 C 65.246094 60.332031 65.304688 60.28125 65.371094 60.277344 L 69.515625 60.15625 C 69.566406 60.152344 69.613281 60.175781 69.640625 60.21875 C 69.667969 60.257812 69.675781 60.3125 69.65625 60.359375 C 69.628906 60.429688 66.902344 67.378906 66.8125 68.570312 C 66.71875 69.804688 62.9375 78.667969 62.777344 79.042969 C 62.757812 79.085938 62.722656 79.121094 62.675781 79.128906 C 62.664062 79.132812 62.652344 79.136719 62.640625 79.136719 " fill-opacity="1" fill-rule="nonzero"/><path fill="#ffffff" d="M 74.988281 59.605469 C 74.988281 59.605469 74.277344 66.320312 74.082031 67.800781 C 73.886719 69.28125 73.988281 69.941406 73.832031 70.878906 C 73.578125 72.441406 72.308594 78.074219 72.308594 78.074219 L 70.882812 78.007812 C 70.882812 78.007812 71.351562 61.0625 71.199219 60.257812 C 71.046875 59.453125 71.574219 59.210938 71.574219 59.210938 L 74.988281 59.605469 " fill-opacity="1" fill-rule="nonzero"/><path fill="#000000" d="M 71.035156 77.863281 L 72.191406 77.917969 C 72.378906 77.089844 73.457031 72.269531 73.6875 70.855469 C 73.757812 70.414062 73.773438 70.039062 73.789062 69.597656 C 73.808594 69.113281 73.832031 68.5625 73.933594 67.78125 C 74.113281 66.441406 74.71875 60.730469 74.824219 59.738281 L 71.605469 59.367188 C 71.511719 59.429688 71.238281 59.664062 71.34375 60.230469 C 71.492188 61.007812 71.085938 76.097656 71.035156 77.863281 Z M 72.308594 78.222656 C 72.304688 78.222656 72.304688 78.222656 72.300781 78.222656 L 70.875 78.15625 C 70.796875 78.152344 70.730469 78.082031 70.734375 78.003906 C 70.894531 72.148438 71.167969 60.910156 71.050781 60.285156 C 70.878906 59.378906 71.488281 59.089844 71.511719 59.074219 C 71.539062 59.066406 71.566406 59.058594 71.59375 59.0625 L 75.003906 59.457031 C 75.085938 59.46875 75.144531 59.542969 75.136719 59.621094 C 75.128906 59.691406 74.425781 66.355469 74.230469 67.820312 C 74.128906 68.585938 74.109375 69.132812 74.089844 69.609375 C 74.070312 70.058594 74.054688 70.445312 73.980469 70.902344 C 73.730469 72.453125 72.46875 78.050781 72.453125 78.105469 C 72.441406 78.175781 72.378906 78.222656 72.308594 78.222656 " fill-opacity="1" fill-rule="nonzero"/><path fill="#5479f7" d="M 70.125 78.261719 C 70.359375 78.050781 70.761719 78.261719 70.761719 78.261719 L 70.929688 77.917969 L 72.539062 78.113281 L 72.691406 78.78125 C 72.691406 78.78125 73.539062 79.515625 73.703125 80.546875 C 73.734375 80.738281 73.597656 80.910156 73.402344 80.921875 C 72.730469 80.960938 71.175781 81.023438 70.335938 80.839844 C 70.199219 80.808594 70.097656 80.691406 70.085938 80.554688 C 70.039062 79.96875 69.933594 78.433594 70.125 78.261719 " fill-opacity="1" fill-rule="nonzero"/><path fill="#000000" d="M 70.125 78.261719 Z M 70.222656 78.371094 Z M 70.230469 78.367188 C 70.15625 78.488281 70.128906 79.214844 70.238281 80.542969 C 70.242188 80.617188 70.296875 80.679688 70.367188 80.695312 C 71.195312 80.875 72.761719 80.808594 73.394531 80.773438 C 73.445312 80.769531 73.488281 80.75 73.519531 80.710938 C 73.550781 80.671875 73.5625 80.621094 73.554688 80.570312 C 73.402344 79.601562 72.601562 78.898438 72.59375 78.890625 C 72.570312 78.871094 72.554688 78.84375 72.546875 78.8125 L 72.414062 78.25 L 71.019531 78.078125 L 70.894531 78.328125 C 70.875 78.363281 70.84375 78.390625 70.804688 78.402344 C 70.765625 78.417969 70.726562 78.414062 70.6875 78.394531 C 70.6875 78.390625 70.382812 78.238281 70.230469 78.367188 Z M 72.023438 81.113281 C 71.410156 81.113281 70.757812 81.082031 70.304688 80.984375 C 70.101562 80.941406 69.957031 80.773438 69.9375 80.566406 C 69.761719 78.390625 69.949219 78.21875 70.023438 78.152344 C 70.230469 77.960938 70.519531 78.015625 70.6875 78.070312 L 70.796875 77.851562 C 70.824219 77.796875 70.886719 77.761719 70.949219 77.769531 L 72.554688 77.964844 C 72.617188 77.972656 72.667969 78.019531 72.683594 78.082031 L 72.828125 78.699219 C 73 78.859375 73.699219 79.5625 73.851562 80.523438 C 73.871094 80.65625 73.835938 80.792969 73.75 80.898438 C 73.667969 81 73.542969 81.0625 73.410156 81.070312 C 73.105469 81.089844 72.578125 81.113281 72.023438 81.113281 " fill-opacity="1" fill-rule="nonzero"/><path fill="#000000" d="M 70.578125 80.507812 C 70.457031 80.507812 70.382812 80.460938 70.367188 80.449219 L 70.542969 80.207031 C 70.589844 80.230469 70.796875 80.210938 71.113281 79.792969 C 71.679688 79.042969 73.101562 79.53125 73.113281 79.539062 C 73.191406 79.566406 73.230469 79.652344 73.203125 79.730469 C 73.171875 79.808594 73.085938 79.84375 73.011719 79.816406 C 72.988281 79.808594 71.777344 79.410156 71.351562 79.96875 C 71.019531 80.410156 70.75 80.507812 70.578125 80.507812 " fill-opacity="1" fill-rule="nonzero"/><path fill="#5479f7" d="M 63.347656 78.167969 C 63.441406 78.183594 63.480469 79.335938 63.261719 80.253906 C 63.234375 80.367188 63.132812 80.445312 63.015625 80.445312 L 57.515625 80.445312 C 57.335938 80.445312 57.210938 80.261719 57.28125 80.101562 C 57.644531 79.289062 59.894531 77.824219 60.609375 77.871094 C 61.289062 77.914062 61.429688 78.363281 61.503906 78.539062 C 61.503906 78.539062 62.605469 78.058594 63.347656 78.167969 " fill-opacity="1" fill-rule="nonzero"/><path fill="#000000" d="M 63.324219 78.316406 Z M 60.574219 78.019531 C 59.910156 78.019531 57.765625 79.390625 57.417969 80.164062 C 57.402344 80.199219 57.417969 80.230469 57.425781 80.246094 C 57.445312 80.277344 57.480469 80.296875 57.515625 80.296875 L 63.015625 80.296875 C 63.0625 80.296875 63.105469 80.265625 63.117188 80.21875 C 63.296875 79.453125 63.289062 78.554688 63.246094 78.304688 C 62.554688 78.246094 61.574219 78.671875 61.566406 78.675781 C 61.527344 78.691406 61.488281 78.691406 61.449219 78.679688 C 61.414062 78.664062 61.382812 78.636719 61.367188 78.597656 L 61.351562 78.558594 C 61.273438 78.371094 61.140625 78.054688 60.601562 78.019531 C 60.589844 78.019531 60.582031 78.019531 60.574219 78.019531 Z M 63.015625 80.59375 L 57.515625 80.59375 C 57.378906 80.59375 57.25 80.523438 57.175781 80.410156 C 57.101562 80.296875 57.089844 80.160156 57.144531 80.042969 C 57.515625 79.210938 59.824219 77.671875 60.621094 77.722656 C 61.242188 77.765625 61.476562 78.117188 61.585938 78.347656 C 61.914062 78.21875 62.746094 77.929688 63.371094 78.019531 C 63.417969 78.027344 63.457031 78.054688 63.484375 78.097656 C 63.621094 78.296875 63.601562 79.464844 63.40625 80.289062 C 63.363281 80.46875 63.203125 80.59375 63.015625 80.59375 " fill-opacity="1" fill-rule="nonzero"/><path fill="#000000" d="M 62.152344 80.050781 C 60.976562 80.050781 59.179688 79.953125 58.441406 79.386719 C 58.375 79.335938 58.363281 79.242188 58.414062 79.175781 C 58.464844 79.113281 58.558594 79.101562 58.621094 79.148438 C 59.652344 79.9375 63.191406 79.726562 63.226562 79.726562 C 63.308594 79.722656 63.378906 79.78125 63.386719 79.867188 C 63.390625 79.949219 63.328125 80.019531 63.246094 80.023438 C 63.195312 80.027344 62.753906 80.050781 62.152344 80.050781 " fill-opacity="1" fill-rule="nonzero"/><path fill="#000000" d="M 66.152344 54.933594 C 65.996094 58.40625 64.578125 62.59375 63.707031 66.789062 C 63.277344 69.015625 62.425781 72.722656 61.570312 76.445312 L 63.757812 76.785156 C 65.351562 73.324219 66.875 69.925781 66.964844 67.808594 C 68.207031 65.503906 69.542969 62.757812 70.527344 59.644531 L 70.78125 68.160156 C 70.371094 70.277344 70.480469 73.488281 70.578125 76.671875 L 72.972656 76.875 L 74.394531 68.359375 C 74.746094 64.519531 76.074219 59.441406 75.769531 54.78125 L 66.152344 54.933594 " fill-opacity="1" fill-rule="nonzero"/><path fill="#5479f7" d="M 32.535156 21.375 L 58.796875 41.796875 L 59.714844 40.480469 L 32.84375 21.273438 L 32.535156 21.375 " fill-opacity="1" fill-rule="nonzero"/><path fill="#5479f7" d="M 77.265625 55.726562 C 77.265625 55.726562 81.5 51.253906 76.5 45.988281 C 76.5 45.988281 77.101562 50.011719 77.101562 50.855469 C 77.101562 51.699219 78.101562 55.671875 75.292969 56.011719 C 72.480469 56.351562 63.960938 57.386719 64.371094 53.554688 C 64.785156 49.722656 65.550781 46.789062 65.550781 46.789062 C 65.550781 46.789062 62.003906 47.273438 58.949219 45.382812 C 55.894531 43.488281 54.621094 39.109375 54.621094 39.109375 L 55.40625 38.324219 C 55.40625 38.324219 57.519531 41.4375 60.433594 41.722656 C 63.351562 42.007812 72.683594 39.847656 75.925781 40.542969 C 79.164062 41.238281 83.867188 47.996094 82.96875 51.277344 C 82.070312 54.558594 78.023438 56.398438 78.023438 56.398438 L 77.265625 55.726562 " fill-opacity="1" fill-rule="nonzero"/><path fill="#ffffff" d="M 55.40625 38.324219 C 55.457031 38.269531 55.027344 37.527344 54.988281 37.457031 C 54.773438 37.0625 54.589844 36.652344 54.246094 36.347656 C 54.09375 36.527344 54.164062 36.800781 54.097656 37.027344 C 53.945312 37.539062 53.523438 37.34375 53.15625 37.261719 C 52.90625 37.207031 52.660156 37.234375 52.410156 37.148438 C 52.34375 37.125 51.785156 36.785156 51.792969 36.78125 C 51.75 36.800781 51.761719 36.863281 51.78125 36.90625 C 51.929688 37.234375 52.175781 37.507812 52.414062 37.777344 C 52.578125 37.960938 52.929688 38.027344 53.160156 38.140625 C 53.449219 38.285156 53.746094 38.414062 54.039062 38.542969 C 54.117188 38.574219 54.792969 38.933594 54.859375 38.871094 C 54.859375 38.871094 55.40625 38.324219 55.40625 38.324219 " fill-opacity="1" fill-rule="nonzero"/><path fill="#000000" d="M 55.40625 38.324219 Z M 52.085938 37.136719 C 52.214844 37.328125 52.375 37.507812 52.527344 37.679688 C 52.613281 37.773438 52.785156 37.835938 52.957031 37.898438 C 53.046875 37.933594 53.144531 37.96875 53.226562 38.007812 C 53.484375 38.136719 53.753906 38.253906 54.019531 38.367188 L 54.101562 38.40625 C 54.117188 38.410156 54.15625 38.429688 54.207031 38.457031 C 54.507812 38.605469 54.707031 38.695312 54.796875 38.722656 C 54.894531 38.625 55.136719 38.382812 55.246094 38.273438 C 55.21875 38.195312 55.132812 38.015625 54.890625 37.585938 C 54.875 37.558594 54.863281 37.535156 54.855469 37.527344 C 54.828125 37.472656 54.796875 37.417969 54.769531 37.363281 C 54.625 37.089844 54.488281 36.828125 54.296875 36.609375 C 54.289062 36.65625 54.285156 36.710938 54.28125 36.765625 C 54.277344 36.863281 54.269531 36.964844 54.242188 37.066406 C 54.070312 37.652344 53.585938 37.527344 53.265625 37.445312 C 53.21875 37.429688 53.167969 37.417969 53.121094 37.410156 C 53.027344 37.386719 52.929688 37.378906 52.828125 37.371094 C 52.679688 37.359375 52.523438 37.34375 52.359375 37.289062 C 52.34375 37.28125 52.308594 37.269531 52.085938 37.136719 Z M 54.835938 39.027344 C 54.722656 39.027344 54.519531 38.945312 54.070312 38.722656 C 54.027344 38.699219 53.996094 38.683594 53.980469 38.675781 L 53.898438 38.640625 C 53.632812 38.527344 53.359375 38.40625 53.09375 38.273438 C 53.023438 38.242188 52.941406 38.210938 52.851562 38.179688 C 52.648438 38.105469 52.4375 38.027344 52.304688 37.878906 C 52.058594 37.601562 51.804688 37.316406 51.644531 36.964844 C 51.585938 36.832031 51.617188 36.707031 51.722656 36.648438 C 51.769531 36.625 51.828125 36.625 51.871094 36.65625 C 51.878906 36.660156 51.882812 36.664062 51.886719 36.667969 C 51.960938 36.714844 52.402344 36.980469 52.464844 37.007812 C 52.585938 37.050781 52.71875 37.0625 52.855469 37.074219 C 52.960938 37.082031 53.074219 37.09375 53.1875 37.117188 C 53.238281 37.128906 53.289062 37.140625 53.339844 37.15625 C 53.726562 37.253906 53.871094 37.265625 53.953125 36.984375 C 53.972656 36.914062 53.976562 36.835938 53.984375 36.75 C 53.992188 36.585938 54.003906 36.402344 54.128906 36.25 C 54.15625 36.21875 54.195312 36.203125 54.234375 36.199219 C 54.273438 36.195312 54.3125 36.210938 54.34375 36.234375 C 54.660156 36.515625 54.851562 36.875 55.035156 37.222656 C 55.0625 37.277344 55.089844 37.332031 55.121094 37.386719 C 55.125 37.394531 55.136719 37.414062 55.152344 37.441406 C 55.613281 38.261719 55.605469 38.332031 55.515625 38.429688 C 55.515625 38.429688 55.515625 38.429688 55.511719 38.429688 C 54.964844 38.976562 54.964844 38.976562 54.960938 38.980469 C 54.925781 39.011719 54.890625 39.027344 54.835938 39.027344 " fill-opacity="1" fill-rule="nonzero"/><path fill="#000000" d="M 74.988281 53.757812 C 74.921875 53.757812 74.859375 53.710938 74.84375 53.644531 C 74.824219 53.5625 74.875 53.480469 74.953125 53.464844 C 76.5625 53.089844 76.183594 50.9375 76.179688 50.914062 C 76.164062 50.835938 76.21875 50.757812 76.300781 50.742188 C 76.382812 50.726562 76.460938 50.78125 76.476562 50.863281 C 76.480469 50.886719 76.902344 53.316406 75.023438 53.753906 C 75.011719 53.757812 75 53.757812 74.988281 53.757812 " fill-opacity="1" fill-rule="nonzero"/><path fill="#ffffff" d="M 71.371094 38.851562 L 70.894531 38.855469 C 70.703125 38.855469 70.546875 38.699219 70.542969 38.507812 C 70.542969 38.351562 70.546875 38.195312 70.558594 38.039062 C 70.570312 37.90625 70.507812 37.78125 70.398438 37.707031 C 70.304688 37.640625 70.28125 37.511719 70.34375 37.417969 L 70.753906 36.5625 C 70.871094 36.121094 71.015625 35.742188 71.015625 35.742188 C 72.425781 36.890625 72.679688 35.976562 73.039062 36.265625 C 73.394531 36.558594 72.984375 37.09375 72.984375 37.09375 C 72.984375 37.09375 73.371094 37.023438 73.460938 37.476562 C 73.550781 37.933594 72.652344 38.214844 72.652344 38.214844 L 73.277344 40.695312 C 72.40625 42.015625 70.515625 41.039062 70.515625 41.039062 L 70.867188 40.75 C 71.148438 40.519531 71.316406 40.183594 71.332031 39.828125 L 71.371094 38.851562 " fill-opacity="1" fill-rule="nonzero"/><path fill="#000000" d="M 70.796875 41.003906 C 71.28125 41.199219 72.472656 41.554688 73.113281 40.664062 L 72.507812 38.25 C 72.488281 38.171875 72.53125 38.09375 72.605469 38.070312 C 72.859375 37.992188 73.363281 37.75 73.3125 37.507812 C 73.257812 37.222656 73.066406 37.230469 73.011719 37.238281 C 72.949219 37.25 72.890625 37.222656 72.859375 37.167969 C 72.828125 37.117188 72.828125 37.050781 72.867188 37.003906 C 72.871094 37 73.183594 36.578125 72.941406 36.382812 C 72.894531 36.34375 72.867188 36.34375 72.714844 36.398438 C 72.417969 36.503906 71.980469 36.65625 71.085938 35.988281 C 71.035156 36.136719 70.960938 36.359375 70.898438 36.601562 C 70.894531 36.609375 70.890625 36.617188 70.886719 36.625 L 70.480469 37.480469 C 70.476562 37.488281 70.472656 37.492188 70.46875 37.5 C 70.449219 37.527344 70.457031 37.566406 70.484375 37.582031 C 70.636719 37.6875 70.722656 37.867188 70.707031 38.050781 C 70.695312 38.207031 70.691406 38.359375 70.695312 38.503906 C 70.695312 38.617188 70.785156 38.707031 70.894531 38.707031 L 71.371094 38.703125 C 71.410156 38.703125 71.449219 38.71875 71.476562 38.75 C 71.507812 38.777344 71.519531 38.816406 71.519531 38.859375 L 71.480469 39.832031 C 71.464844 40.234375 71.273438 40.609375 70.964844 40.863281 Z M 71.917969 41.53125 C 71.15625 41.53125 70.457031 41.179688 70.445312 41.171875 C 70.402344 41.148438 70.371094 41.105469 70.367188 41.054688 C 70.363281 41.007812 70.382812 40.957031 70.421875 40.925781 L 70.773438 40.636719 C 71.019531 40.433594 71.167969 40.136719 71.179688 39.820312 L 71.214844 39 L 70.894531 39.003906 C 70.621094 39.003906 70.398438 38.78125 70.394531 38.511719 C 70.390625 38.355469 70.398438 38.195312 70.410156 38.027344 C 70.417969 37.949219 70.378906 37.871094 70.3125 37.828125 C 70.15625 37.71875 70.113281 37.503906 70.214844 37.34375 L 70.613281 36.511719 C 70.730469 36.074219 70.867188 35.703125 70.875 35.6875 C 70.890625 35.644531 70.929688 35.609375 70.976562 35.597656 C 71.023438 35.585938 71.070312 35.59375 71.109375 35.625 C 71.984375 36.339844 72.351562 36.210938 72.617188 36.117188 C 72.773438 36.0625 72.949219 36 73.132812 36.152344 C 73.414062 36.378906 73.351562 36.722656 73.230469 36.972656 C 73.386719 37.027344 73.550781 37.160156 73.609375 37.449219 C 73.699219 37.910156 73.109375 38.199219 72.828125 38.308594 L 73.421875 40.65625 C 73.429688 40.699219 73.421875 40.742188 73.398438 40.777344 C 73.015625 41.359375 72.453125 41.53125 71.917969 41.53125 " fill-opacity="1" fill-rule="nonzero"/><path fill="#ffffff" d="M 72.101562 38.605469 C 72.101562 38.605469 71.96875 38.796875 71.371094 38.851562 L 72.101562 38.605469 " fill-opacity="1" fill-rule="nonzero"/><path fill="#000000" d="M 71.371094 39 C 71.292969 39 71.230469 38.941406 71.222656 38.867188 C 71.214844 38.785156 71.273438 38.710938 71.355469 38.703125 C 71.851562 38.65625 71.980469 38.515625 71.980469 38.515625 C 72.027344 38.449219 72.117188 38.433594 72.1875 38.480469 C 72.253906 38.527344 72.269531 38.625 72.222656 38.691406 C 72.195312 38.734375 72.019531 38.941406 71.382812 39 C 71.378906 39 71.375 39 71.371094 39 " fill-opacity="1" fill-rule="nonzero"/><path fill="#ffffff" d="M 77.265625 55.726562 C 77.265625 55.726562 75.441406 56.023438 75.046875 56.492188 C 74.648438 56.960938 74.632812 57.820312 74.632812 57.820312 C 74.632812 57.820312 75.347656 57.492188 75.746094 57.355469 C 76.144531 57.222656 77.789062 57.203125 78.023438 56.398438 L 77.265625 55.726562 " fill-opacity="1" fill-rule="nonzero"/><path fill="#000000" d="M 77.21875 55.882812 C 76.679688 55.980469 75.441406 56.253906 75.160156 56.589844 C 74.925781 56.867188 74.835938 57.308594 74.804688 57.582031 C 75.050781 57.472656 75.4375 57.304688 75.699219 57.214844 C 75.804688 57.179688 75.96875 57.152344 76.179688 57.121094 C 76.726562 57.035156 77.621094 56.898438 77.84375 56.441406 Z M 74.632812 57.96875 C 74.605469 57.96875 74.578125 57.960938 74.550781 57.945312 C 74.507812 57.917969 74.484375 57.867188 74.484375 57.816406 C 74.484375 57.78125 74.507812 56.898438 74.933594 56.398438 C 75.351562 55.902344 77.046875 55.609375 77.238281 55.578125 C 77.285156 55.570312 77.328125 55.585938 77.363281 55.613281 L 78.121094 56.285156 C 78.164062 56.324219 78.179688 56.382812 78.164062 56.4375 C 77.960938 57.148438 76.917969 57.308594 76.222656 57.414062 C 76.039062 57.445312 75.875 57.46875 75.792969 57.496094 C 75.410156 57.628906 74.703125 57.953125 74.695312 57.957031 C 74.675781 57.964844 74.65625 57.96875 74.632812 57.96875 " fill-opacity="1" fill-rule="nonzero"/></svg>