<svg xmlns="http://www.w3.org/2000/svg" xmlns:xlink="http://www.w3.org/1999/xlink" width="120" zoomAndPan="magnify" viewBox="0 0 90 89.999999" height="120" preserveAspectRatio="xMidYMid meet" version="1.0"><defs><filter x="0%" y="0%" width="100%" height="100%" id="aeaa820a6a"><feColorMatrix values="0 0 0 0 1 0 0 0 0 1 0 0 0 0 1 0 0 0 1 0" color-interpolation-filters="sRGB"/></filter><clipPath id="31db00c366"><path d="M 27 44.910156 L 63 44.910156 L 63 45.660156 L 27 45.660156 Z M 27 44.910156 " clip-rule="nonzero"/></clipPath><mask id="c85bd5a5f9"><g filter="url(#aeaa820a6a)"><rect x="-9" width="108" fill="#000000" y="-9" height="107.999999" fill-opacity="0.31"/></g></mask><clipPath id="23e19bbaab"><path d="M 0.28125 0.199219 L 7 0.199219 L 7 23 L 0.28125 23 Z M 0.28125 0.199219 " clip-rule="nonzero"/></clipPath><clipPath id="55dda21384"><path d="M 18 0.199219 L 25 0.199219 L 25 23 L 18 23 Z M 18 0.199219 " clip-rule="nonzero"/></clipPath><clipPath id="29022283d5"><path d="M 27 0.199219 L 33.398438 0.199219 L 33.398438 23 L 27 23 Z M 27 0.199219 " clip-rule="nonzero"/></clipPath><clipPath id="43315ba22e"><rect x="0" width="34" y="0" height="23"/></clipPath><clipPath id="529a5c15e9"><path d="M 58.375 84 L 63 84 L 63 86.847656 L 58.375 86.847656 Z M 58.375 84 " clip-rule="nonzero"/></clipPath><clipPath id="c3f4b8beab"><path d="M 65.175781 80.484375 C 65.175781 80.484375 64.109375 82.195312 62.675781 81.195312 L 58.632812 86.847656 L 67.167969 82.53125 Z M 65.175781 80.484375 " clip-rule="nonzero"/></clipPath><clipPath id="3a4e96c374"><path d="M 52.160156 86 L 56 86 L 56 88.398438 L 52.160156 88.398438 Z M 52.160156 86 " clip-rule="nonzero"/></clipPath><clipPath id="41a1b17b94"><path d="M 60.894531 85.425781 C 60.894531 85.425781 59.195312 86.507812 58.332031 84.992188 L 52.242188 88.339844 L 61.804688 88.132812 Z M 60.894531 85.425781 " clip-rule="nonzero"/></clipPath></defs><g clip-path="url(#31db00c366)"><path fill="#ffffff" d="M 27 44.914062 L 63 44.914062 L 63 45.082031 L 27 45.082031 Z M 27 44.914062 " fill-opacity="1" fill-rule="nonzero"/></g><path fill="#ffffff" d="M 70.820312 40.195312 L 85.386719 40.195312 C 87.636719 40.195312 89.320312 42.066406 88.855469 44.058594 L 84.203125 64.160156 L 84.203125 65.871094 C 84.203125 66.921875 83.265625 67.773438 82.105469 67.773438 L 63.347656 67.773438 L 63.347656 60.523438 L 76.304688 59.617188 Z M 70.820312 40.195312 " fill-opacity="1" fill-rule="nonzero"/><path fill="#ffad65" d="M 75.402344 46.253906 L 77.640625 54.792969 C 77.835938 55.742188 78.804688 56.320312 79.734375 56.042969 C 80.511719 55.8125 81.003906 55.050781 80.898438 54.25 L 79.617188 47.144531 Z M 75.402344 46.253906 " fill-opacity="1" fill-rule="nonzero"/><path fill="#000000" d="M 3.792969 0 L 64.734375 0 L 64.734375 41.574219 L 3.792969 41.574219 Z M 3.792969 0 " fill-opacity="1" fill-rule="nonzero"/><path fill="#ffffff" d="M 63.601562 1.132812 L 63.601562 40.441406 L 4.925781 40.441406 L 4.925781 1.132812 Z M 63.601562 1.132812 " fill-opacity="1" fill-rule="nonzero"/><path fill="#000000" d="M 24.601562 86.707031 L 26.953125 87.835938 C 27.203125 87.957031 27.355469 88.230469 27.277344 88.488281 C 27.214844 88.695312 27.015625 88.851562 26.492188 88.859375 C 25.328125 88.882812 20.183594 88.132812 20.183594 88.132812 L 20.183594 88.660156 L 17.796875 88.394531 C 17.796875 88.394531 17.628906 85.738281 18.355469 85.347656 Z M 24.601562 86.707031 " fill-opacity="1" fill-rule="nonzero"/><path fill="#ffad65" d="M 21.449219 84.460938 L 24.601562 86.707031 C 24.601562 86.707031 24.195312 87.722656 22.402344 87.042969 C 20.605469 86.367188 18.355469 85.347656 18.355469 85.347656 L 18.582031 83.832031 Z M 21.449219 84.460938 " fill-opacity="1" fill-rule="nonzero"/><path fill="#ffad65" d="M 18.570312 84.171875 L 18.867188 76.023438 L 22.777344 75.800781 L 22.136719 85.511719 Z M 18.570312 84.171875 " fill-opacity="1" fill-rule="nonzero"/><path fill="#000000" d="M 12.9375 86.707031 L 15.292969 87.835938 C 15.539062 87.957031 15.691406 88.230469 15.613281 88.488281 C 15.554688 88.695312 15.351562 88.851562 14.828125 88.859375 C 13.667969 88.882812 8.519531 88.132812 8.519531 88.132812 L 8.519531 88.660156 L 6.132812 88.394531 C 6.132812 88.394531 5.964844 85.738281 6.691406 85.347656 Z M 12.9375 86.707031 " fill-opacity="1" fill-rule="nonzero"/><path fill="#ffad65" d="M 9.789062 84.460938 L 12.941406 86.707031 C 12.941406 86.707031 12.535156 87.722656 10.738281 87.042969 C 8.941406 86.367188 6.695312 85.347656 6.695312 85.347656 L 6.921875 83.832031 Z M 9.789062 84.460938 " fill-opacity="1" fill-rule="nonzero"/><path fill="#ffad65" d="M 6.90625 84.171875 L 7.207031 76.023438 L 11.117188 75.800781 L 10.476562 85.511719 Z M 6.90625 84.171875 " fill-opacity="1" fill-rule="nonzero"/><path fill="#000000" d="M 15.945312 5.988281 C 15.769531 5.984375 15.40625 6.449219 15.296875 6.585938 C 15.042969 6.898438 14.792969 7.210938 14.582031 7.550781 C 13.769531 8.886719 13.734375 10.367188 13.632812 11.878906 C 13.527344 13.378906 13.304688 14.898438 12.636719 16.246094 C 12.308594 16.90625 11.878906 17.515625 11.609375 18.203125 C 11.34375 18.886719 11.257812 19.695312 11.617188 20.339844 C 11.652344 20.398438 11.691406 20.457031 11.75 20.492188 C 13.472656 21.472656 15.644531 21.777344 17.582031 21.335938 C 18.117188 21.214844 18.648438 21.050781 19.121094 20.765625 C 20.457031 19.964844 21.097656 18.34375 21.230469 16.792969 C 21.359375 15.242188 21.074219 13.6875 21.007812 12.132812 C 20.960938 10.996094 21.023438 9.804688 20.519531 8.785156 C 20.289062 8.320312 19.949219 7.914062 19.617188 7.515625 C 19.261719 7.09375 18.898438 6.667969 18.421875 6.390625 C 17.738281 5.992188 16.738281 6.011719 15.945312 5.988281 Z M 15.945312 5.988281 " fill-opacity="1" fill-rule="nonzero"/><path fill="#3f2952" d="M 24.109375 34.75 C 24.109375 34.75 25.417969 35.59375 25.65625 42.648438 C 25.703125 44.097656 25.675781 46.113281 25.585938 47.558594 L 23.414062 81.804688 L 17.644531 81.804688 L 18.8125 45 L 11.4375 81.804688 L 5.820312 81.644531 L 12.144531 34.75 L 17.820312 34.058594 Z M 24.109375 34.75 " fill-opacity="1" fill-rule="nonzero"/><path fill="#000000" d="M 18.589844 45.085938 C 18.550781 45.085938 18.515625 45.054688 18.507812 45.015625 C 18.5 44.96875 18.53125 44.925781 18.574219 44.917969 L 21.878906 44.371094 C 21.925781 44.367188 21.96875 44.394531 21.976562 44.441406 C 21.984375 44.484375 21.953125 44.527344 21.90625 44.535156 L 18.601562 45.082031 C 18.597656 45.082031 18.59375 45.085938 18.589844 45.085938 Z M 18.589844 45.085938 " fill-opacity="1" fill-rule="nonzero"/><path fill="#ffad65" d="M 27.773438 36.261719 L 37.039062 26.902344 L 36.011719 25.378906 C 36.011719 25.378906 29.394531 30.019531 25.171875 33.351562 C 24.5 33.882812 24.910156 35.484375 25.492188 36.109375 C 26.035156 36.695312 27.1875 36.804688 27.773438 36.261719 Z M 27.773438 36.261719 " fill-opacity="1" fill-rule="nonzero"/><path fill="#ffad65" d="M 36.199219 27.160156 C 36.199219 27.160156 37.792969 27.28125 38.917969 26.003906 L 40.523438 25.558594 C 40.773438 25.488281 40.929688 25.25 40.886719 24.996094 C 40.84375 24.71875 40.585938 24.523438 40.304688 24.550781 L 39.300781 24.652344 L 39.578125 24.445312 C 40.019531 24.113281 40.5625 23.945312 41.125 23.957031 L 42.71875 24 C 42.898438 24.007812 43.066406 23.914062 43.152344 23.757812 C 43.324219 23.460938 43.128906 23.082031 42.78125 23.03125 L 40.691406 22.714844 C 39.882812 22.589844 39.070312 22.816406 38.457031 23.332031 L 35.167969 26.101562 Z M 36.199219 27.160156 " fill-opacity="1" fill-rule="nonzero"/><path fill="#ffad65" d="M 22.328125 22.929688 C 22.328125 22.929688 23.125 29.90625 24.765625 35.222656 C 24.964844 35.863281 26.191406 36.726562 26.859375 36.773438 C 27.871094 36.839844 28.695312 35.976562 28.578125 34.972656 L 26.574219 22.519531 Z M 22.328125 22.929688 " fill-opacity="1" fill-rule="nonzero"/><path fill="#f89a00" d="M 24.234375 18.589844 C 24.234375 18.589844 27.632812 20.613281 28.289062 26.085938 L 23.441406 28.746094 Z M 24.234375 18.589844 " fill-opacity="1" fill-rule="nonzero"/><path fill="#f89a00" d="M 23.441406 28.746094 L 28.945312 27.101562 L 28.476562 25.5625 L 23.566406 26.878906 Z M 23.441406 28.746094 " fill-opacity="1" fill-rule="nonzero"/><path fill="#f89a00" d="M 17.75 16.882812 C 16.078125 17.023438 14.429688 17.390625 12.871094 18.011719 C 12.488281 18.164062 12.113281 18.332031 11.769531 18.511719 C 10.6875 19.078125 11.011719 20.300781 11.148438 21.546875 L 11.78125 38.417969 L 25.417969 38.070312 L 25.957031 22.105469 C 26.078125 20.363281 25.046875 18.765625 23.453125 18.207031 C 21.667969 17.578125 19.488281 16.871094 18.539062 16.816406 Z M 17.75 16.882812 " fill-opacity="1" fill-rule="nonzero"/><path fill="#000000" d="M 25.558594 27.980469 C 25.558594 27.980469 25.554688 27.980469 25.554688 27.980469 C 25.507812 27.976562 25.472656 27.9375 25.476562 27.890625 L 25.816406 22.949219 C 25.820312 22.90625 25.859375 22.871094 25.902344 22.871094 C 25.949219 22.875 25.984375 22.914062 25.980469 22.960938 L 25.640625 27.902344 C 25.636719 27.945312 25.601562 27.980469 25.558594 27.980469 Z M 25.558594 27.980469 " fill-opacity="1" fill-rule="nonzero"/><path fill="#f89a00" d="M 22.648438 17.925781 C 22.648438 17.925781 20.140625 16.945312 18.539062 16.816406 C 18.539062 16.816406 16.347656 16.90625 14.84375 17.371094 C 14.84375 17.371094 15.679688 19.148438 19.519531 19.441406 C 23.363281 19.730469 22.648438 17.925781 22.648438 17.925781 Z M 22.648438 17.925781 " fill-opacity="1" fill-rule="nonzero"/><path fill="#ffad65" d="M 4.167969 26.449219 L 10.578125 36.226562 L 8.851562 38.183594 L 1.773438 31 Z M 4.167969 26.449219 " fill-opacity="1" fill-rule="nonzero"/><path fill="#ffad65" d="M 16.46875 36.671875 L 13.726562 35.226562 L 13.996094 34.601562 C 14.09375 34.375 14.035156 34.109375 13.847656 33.953125 C 13.65625 33.789062 13.382812 33.785156 13.1875 33.941406 L 10.484375 36.136719 L 8.851562 38.179688 C 10.335938 39.496094 11.300781 39.480469 11.859375 39.222656 C 11.925781 39.246094 11.988281 39.269531 12.054688 39.292969 L 14.335938 39.96875 C 14.546875 40.0625 14.789062 39.96875 14.894531 39.757812 C 14.96875 39.605469 14.996094 39.355469 14.558594 39.125 L 14.996094 39.355469 C 15.21875 39.457031 15.476562 39.355469 15.582031 39.128906 C 15.679688 38.929688 15.558594 38.664062 15.300781 38.488281 L 15.636719 38.625 C 15.882812 38.734375 16.167969 38.609375 16.257812 38.34375 C 16.335938 38.113281 16.21875 37.855469 16.007812 37.746094 L 15.523438 37.492188 L 16.097656 37.636719 C 16.363281 37.734375 16.660156 37.585938 16.746094 37.300781 C 16.820312 37.054688 16.691406 36.789062 16.46875 36.671875 Z M 16.46875 36.671875 " fill-opacity="1" fill-rule="nonzero"/><path fill="#000000" d="M 15.667969 37.617188 C 15.660156 37.617188 15.652344 37.617188 15.644531 37.613281 L 14.023438 36.820312 C 13.996094 36.804688 13.988281 36.773438 14 36.746094 C 14.011719 36.722656 14.046875 36.710938 14.070312 36.722656 L 15.691406 37.515625 C 15.71875 37.527344 15.730469 37.5625 15.71875 37.585938 C 15.707031 37.605469 15.6875 37.617188 15.667969 37.617188 Z M 15.667969 37.617188 " fill-opacity="1" fill-rule="nonzero"/><path fill="#000000" d="M 15.234375 38.511719 C 15.226562 38.511719 15.21875 38.511719 15.210938 38.507812 L 13.648438 37.835938 C 13.621094 37.824219 13.609375 37.792969 13.621094 37.765625 C 13.632812 37.738281 13.664062 37.722656 13.691406 37.738281 L 15.253906 38.410156 C 15.28125 38.421875 15.292969 38.453125 15.28125 38.480469 C 15.273438 38.5 15.253906 38.511719 15.234375 38.511719 Z M 15.234375 38.511719 " fill-opacity="1" fill-rule="nonzero"/><path fill="#000000" d="M 14.703125 39.238281 C 14.695312 39.238281 14.6875 39.238281 14.683594 39.234375 L 13.355469 38.695312 C 13.328125 38.683594 13.316406 38.652344 13.328125 38.625 C 13.339844 38.597656 13.371094 38.585938 13.398438 38.59375 L 14.722656 39.136719 C 14.75 39.148438 14.761719 39.179688 14.75 39.207031 C 14.742188 39.226562 14.722656 39.238281 14.703125 39.238281 Z M 14.703125 39.238281 " fill-opacity="1" fill-rule="nonzero"/><path fill="#ffad65" d="M 13.160156 23.753906 L 5.007812 31.039062 C 4.246094 31.835938 3.046875 31.957031 2.148438 31.328125 C 1.019531 30.539062 0.824219 28.894531 1.738281 27.84375 L 9.40625 20.085938 C 10.320312 19.03125 11.875 18.902344 12.941406 19.789062 C 14.136719 20.78125 14.238281 22.628906 13.160156 23.753906 Z M 13.160156 23.753906 " fill-opacity="1" fill-rule="nonzero"/><path fill="#f89a00" d="M 13.339844 17.832031 C 13.339844 17.832031 10.066406 18.496094 6 23.53125 L 9.480469 28.195312 L 14.785156 24.261719 Z M 13.339844 17.832031 " fill-opacity="1" fill-rule="nonzero"/><path fill="#f89a00" d="M 9.378906 28.265625 L 10.792969 27.21875 L 6.980469 21.949219 L 5.535156 23.015625 Z M 9.378906 28.265625 " fill-opacity="1" fill-rule="nonzero"/><path fill="#000000" d="M 11.28125 26.941406 C 11.257812 26.941406 11.230469 26.929688 11.214844 26.910156 C 11.1875 26.871094 11.195312 26.820312 11.234375 26.792969 L 14.308594 24.511719 C 14.347656 24.484375 14.398438 24.492188 14.425781 24.527344 C 14.453125 24.566406 14.445312 24.617188 14.410156 24.644531 L 11.332031 26.925781 C 11.316406 26.9375 11.300781 26.941406 11.28125 26.941406 Z M 11.28125 26.941406 " fill-opacity="1" fill-rule="nonzero"/><path fill="#000000" d="M 19.054688 4.859375 C 19.054688 4.859375 22.210938 3.929688 23.742188 5.289062 C 25.980469 7.277344 23.210938 8.777344 23.210938 8.777344 Z M 19.054688 4.859375 " fill-opacity="1" fill-rule="nonzero"/><path fill="#000000" d="M 23.859375 9.28125 C 23.871094 9.582031 23.851562 9.878906 23.800781 10.179688 C 23.75 10.476562 23.667969 10.765625 23.558594 11.050781 C 23.449219 11.332031 23.308594 11.601562 23.140625 11.859375 C 22.976562 12.117188 22.785156 12.355469 22.570312 12.578125 C 22.351562 12.796875 22.117188 12.996094 21.859375 13.175781 C 21.601562 13.351562 21.332031 13.503906 21.042969 13.628906 C 20.753906 13.753906 20.457031 13.855469 20.148438 13.925781 C 19.839844 13.996094 19.527344 14.035156 19.210938 14.046875 C 18.894531 14.058594 18.582031 14.039062 18.269531 13.992188 C 17.957031 13.945312 17.652344 13.871094 17.355469 13.765625 C 17.058594 13.660156 16.777344 13.527344 16.507812 13.371094 C 16.238281 13.214844 15.988281 13.03125 15.753906 12.828125 C 15.523438 12.621094 15.316406 12.398438 15.128906 12.152344 C 14.945312 11.910156 14.789062 11.648438 14.65625 11.375 C 14.523438 11.101562 14.421875 10.816406 14.351562 10.523438 C 14.277344 10.230469 14.234375 9.933594 14.226562 9.632812 C 14.214844 9.332031 14.234375 9.03125 14.285156 8.734375 C 14.335938 8.433594 14.417969 8.144531 14.527344 7.863281 C 14.636719 7.578125 14.777344 7.308594 14.945312 7.050781 C 15.109375 6.792969 15.300781 6.554688 15.515625 6.335938 C 15.734375 6.113281 15.96875 5.914062 16.226562 5.738281 C 16.484375 5.558594 16.753906 5.40625 17.042969 5.28125 C 17.332031 5.15625 17.628906 5.058594 17.9375 4.988281 C 18.246094 4.917969 18.558594 4.875 18.875 4.863281 C 19.191406 4.855469 19.503906 4.871094 19.816406 4.917969 C 20.128906 4.964844 20.433594 5.042969 20.730469 5.148438 C 21.027344 5.25 21.308594 5.382812 21.578125 5.539062 C 21.847656 5.699219 22.097656 5.878906 22.332031 6.085938 C 22.5625 6.289062 22.769531 6.515625 22.957031 6.757812 C 23.140625 7.003906 23.296875 7.261719 23.429688 7.535156 C 23.5625 7.808594 23.664062 8.09375 23.734375 8.386719 C 23.808594 8.679688 23.847656 8.976562 23.859375 9.28125 Z M 23.859375 9.28125 " fill-opacity="1" fill-rule="nonzero"/><path fill="#ffad65" d="M 24.855469 11.015625 C 24.855469 11.179688 24.824219 11.339844 24.761719 11.492188 C 24.699219 11.644531 24.609375 11.777344 24.492188 11.894531 C 24.375 12.011719 24.238281 12.101562 24.085938 12.164062 C 23.933594 12.230469 23.773438 12.261719 23.609375 12.261719 C 23.445312 12.261719 23.285156 12.230469 23.132812 12.164062 C 22.980469 12.101562 22.84375 12.011719 22.726562 11.894531 C 22.609375 11.777344 22.519531 11.644531 22.457031 11.492188 C 22.394531 11.339844 22.363281 11.179688 22.363281 11.015625 C 22.363281 10.851562 22.394531 10.691406 22.457031 10.539062 C 22.519531 10.386719 22.609375 10.25 22.726562 10.132812 C 22.84375 10.015625 22.980469 9.925781 23.132812 9.863281 C 23.285156 9.800781 23.445312 9.769531 23.609375 9.769531 C 23.773438 9.769531 23.933594 9.800781 24.085938 9.863281 C 24.238281 9.925781 24.375 10.015625 24.492188 10.132812 C 24.609375 10.25 24.699219 10.386719 24.761719 10.539062 C 24.824219 10.691406 24.855469 10.851562 24.855469 11.015625 Z M 24.855469 11.015625 " fill-opacity="1" fill-rule="nonzero"/><path fill="#ffad65" d="M 20.726562 13.898438 L 20.800781 18.648438 L 17.273438 18.574219 L 17.757812 11.371094 Z M 20.726562 13.898438 " fill-opacity="1" fill-rule="nonzero"/><path fill="#000000" d="M 20.765625 16.402344 L 18.125 13.582031 L 20.726562 13.898438 Z M 20.765625 16.402344 " fill-opacity="1" fill-rule="nonzero"/><path fill="#ffad65" d="M 23.136719 6.585938 C 23.460938 6.839844 23.671875 7.203125 23.769531 7.601562 C 24.050781 8.785156 24.597656 10.867188 24.21875 12.144531 C 23.730469 13.808594 22.4375 15.023438 20.261719 14.691406 C 20.261719 14.691406 17.664062 14.523438 17.011719 11.269531 C 15.972656 6.085938 20.359375 4.410156 23.136719 6.585938 Z M 23.136719 6.585938 " fill-opacity="1" fill-rule="nonzero"/><path fill="#000000" d="M 22.703125 11.683594 C 22.667969 11.683594 22.636719 11.660156 22.628906 11.625 C 22.621094 11.585938 22.648438 11.546875 22.6875 11.539062 L 22.992188 11.46875 C 23.015625 11.460938 23.03125 11.433594 23.023438 11.402344 L 22.808594 10.878906 C 22.792969 10.839844 22.8125 10.796875 22.851562 10.78125 C 22.886719 10.765625 22.933594 10.785156 22.949219 10.824219 L 23.167969 11.355469 C 23.195312 11.472656 23.136719 11.582031 23.03125 11.613281 L 22.71875 11.683594 C 22.714844 11.683594 22.707031 11.683594 22.703125 11.683594 Z M 22.703125 11.683594 " fill-opacity="1" fill-rule="nonzero"/><path fill="#000000" d="M 21.519531 10.304688 C 21.519531 10.390625 21.488281 10.460938 21.429688 10.519531 C 21.371094 10.582031 21.296875 10.609375 21.214844 10.609375 C 21.128906 10.609375 21.058594 10.582031 21 10.519531 C 20.9375 10.460938 20.910156 10.390625 20.910156 10.304688 C 20.910156 10.222656 20.9375 10.148438 21 10.089844 C 21.058594 10.03125 21.128906 10 21.214844 10 C 21.296875 10 21.371094 10.03125 21.429688 10.089844 C 21.488281 10.148438 21.519531 10.222656 21.519531 10.304688 Z M 21.519531 10.304688 " fill-opacity="1" fill-rule="nonzero"/><path fill="#000000" d="M 23.347656 10.199219 C 23.347656 10.355469 23.472656 10.484375 23.628906 10.484375 C 23.785156 10.484375 23.914062 10.355469 23.914062 10.199219 C 23.914062 10.046875 23.785156 9.917969 23.628906 9.917969 C 23.472656 9.917969 23.347656 10.046875 23.347656 10.199219 Z M 23.347656 10.199219 " fill-opacity="1" fill-rule="nonzero"/><path fill="#000000" d="M 22.324219 12.53125 C 22.003906 12.53125 21.621094 12.449219 21.269531 12.15625 C 21.238281 12.128906 21.234375 12.082031 21.257812 12.050781 C 21.285156 12.019531 21.332031 12.015625 21.363281 12.039062 C 22.085938 12.636719 22.96875 12.261719 22.976562 12.257812 C 23.015625 12.242188 23.058594 12.257812 23.074219 12.296875 C 23.09375 12.332031 23.074219 12.378906 23.039062 12.394531 C 23.015625 12.402344 22.71875 12.53125 22.324219 12.53125 Z M 22.324219 12.53125 " fill-opacity="1" fill-rule="nonzero"/><path fill="#000000" d="M 23.207031 8.535156 C 23.207031 8.535156 23.09375 8.878906 23.519531 8.949219 C 23.84375 9 24.046875 9.03125 24.226562 9.109375 C 24.332031 9.152344 24.449219 9.117188 24.511719 9.023438 C 24.5625 8.949219 24.5625 8.851562 24.515625 8.777344 C 24.414062 8.621094 24.199219 8.386719 23.804688 8.316406 C 23.300781 8.226562 23.207031 8.535156 23.207031 8.535156 Z M 23.207031 8.535156 " fill-opacity="1" fill-rule="nonzero"/><path fill="#000000" d="M 21.714844 8.550781 C 21.714844 8.550781 21.84375 8.894531 21.292969 8.957031 C 20.878906 9 20.378906 9.15625 20.144531 9.230469 C 20.007812 9.273438 19.855469 9.234375 19.78125 9.140625 C 19.722656 9.0625 19.726562 8.96875 19.792969 8.894531 C 19.925781 8.742188 20.445312 8.378906 20.953125 8.316406 C 21.605469 8.238281 21.714844 8.550781 21.714844 8.550781 Z M 21.714844 8.550781 " fill-opacity="1" fill-rule="nonzero"/><path fill="#000000" d="M 22.128906 5.65625 C 22.128906 5.65625 22.628906 8.355469 16.097656 7.992188 C 16.097656 7.992188 15.71875 4.21875 22.128906 5.65625 Z M 22.128906 5.65625 " fill-opacity="1" fill-rule="nonzero"/><path fill="#000000" d="M 18.125 7.441406 L 17.757812 11.371094 L 14.671875 8.753906 Z M 18.125 7.441406 " fill-opacity="1" fill-rule="nonzero"/><path fill="#ffad65" d="M 15.339844 11.960938 C 15.597656 12.707031 16.410156 13.101562 17.160156 12.847656 C 17.90625 12.589844 18.304688 11.777344 18.046875 11.03125 C 17.789062 10.285156 16.976562 9.890625 16.230469 10.144531 C 15.480469 10.402344 15.085938 11.214844 15.339844 11.960938 Z M 15.339844 11.960938 " fill-opacity="1" fill-rule="nonzero"/><path fill="#000000" d="M 17.222656 11.882812 C 17.191406 11.882812 17.160156 11.855469 17.152344 11.820312 C 17.085938 11.519531 16.949219 11.3125 16.753906 11.207031 C 16.441406 11.035156 16.0625 11.171875 16.058594 11.171875 C 16.019531 11.1875 15.976562 11.167969 15.964844 11.128906 C 15.949219 11.089844 15.96875 11.046875 16.007812 11.03125 C 16.023438 11.027344 16.449219 10.871094 16.824219 11.074219 C 17.0625 11.203125 17.222656 11.445312 17.296875 11.789062 C 17.304688 11.832031 17.28125 11.871094 17.238281 11.878906 C 17.234375 11.878906 17.230469 11.882812 17.222656 11.882812 Z M 17.222656 11.882812 " fill-opacity="1" fill-rule="nonzero"/><path fill="#ffffff" d="M 19.941406 18.703125 L 17.425781 17.011719 L 17.449219 16.066406 L 17.015625 16.066406 C 16.835938 16.066406 16.664062 16.140625 16.539062 16.273438 L 15.75 17.09375 L 17.5625 19.929688 C 17.75 20.226562 18.144531 20.285156 18.40625 20.054688 Z M 19.941406 18.703125 " fill-opacity="1" fill-rule="nonzero"/><path fill="#ffffff" d="M 20.726562 16.066406 L 21.054688 16.066406 C 21.28125 16.066406 21.492188 16.183594 21.617188 16.378906 L 22.160156 17.230469 L 21.925781 19.6875 C 21.902344 19.9375 21.621094 20.0625 21.433594 19.910156 L 19.941406 18.703125 L 20.78125 17.234375 Z M 20.726562 16.066406 " fill-opacity="1" fill-rule="nonzero"/><path fill="#ffffff" d="M 20.199219 19.875 C 20.199219 20.023438 20.082031 20.144531 19.941406 20.144531 C 19.796875 20.144531 19.679688 20.023438 19.679688 19.875 C 19.679688 19.722656 19.796875 19.601562 19.941406 19.601562 C 20.082031 19.601562 20.199219 19.722656 20.199219 19.875 Z M 20.199219 19.875 " fill-opacity="1" fill-rule="nonzero"/><path fill="#ffffff" d="M 20.257812 20.957031 C 20.257812 21.109375 20.140625 21.230469 19.996094 21.230469 C 19.855469 21.230469 19.738281 21.109375 19.738281 20.957031 C 19.738281 20.808594 19.855469 20.6875 19.996094 20.6875 C 20.140625 20.6875 20.257812 20.808594 20.257812 20.957031 Z M 20.257812 20.957031 " fill-opacity="1" fill-rule="nonzero"/><path fill="#ffffff" d="M 59.371094 67.773438 L 55.898438 90.003906 L 53.617188 90.003906 L 56.492188 67.449219 Z M 59.371094 67.773438 " fill-opacity="1" fill-rule="nonzero"/><path fill="#ffffff" d="M 71.84375 67.449219 L 74.496094 90.003906 L 77.144531 90.003906 L 75.027344 67.449219 Z M 71.84375 67.449219 " fill-opacity="1" fill-rule="nonzero"/><path fill="#ffffff" d="M 80.34375 67.773438 L 83.8125 90.003906 L 86.097656 90.003906 L 83.21875 67.449219 Z M 80.34375 67.773438 " fill-opacity="1" fill-rule="nonzero"/><path fill="#ffffff" d="M 59.371094 67.773438 L 55.898438 90.003906 L 53.617188 90.003906 L 56.492188 67.449219 Z M 59.371094 67.773438 " fill-opacity="1" fill-rule="nonzero"/><path fill="#ffffff" d="M 71.84375 67.449219 L 74.496094 90.003906 L 77.144531 90.003906 L 75.027344 67.449219 Z M 71.84375 67.449219 " fill-opacity="1" fill-rule="nonzero"/><path fill="#ffffff" d="M 80.34375 67.773438 L 83.8125 90.003906 L 86.097656 90.003906 L 83.21875 67.449219 Z M 80.34375 67.773438 " fill-opacity="1" fill-rule="nonzero"/><g mask="url(#c85bd5a5f9)"><g transform="matrix(1, 0, 0, 1, 53, 67)"><g clip-path="url(#43315ba22e)"><g clip-path="url(#23e19bbaab)"><path fill="#000000" d="M 6.371094 0.773438 L 2.898438 23.003906 L 0.617188 23.003906 L 3.492188 0.449219 Z M 6.371094 0.773438 " fill-opacity="1" fill-rule="nonzero"/></g><g clip-path="url(#55dda21384)"><path fill="#000000" d="M 18.84375 0.449219 L 21.496094 23.003906 L 24.144531 23.003906 L 22.027344 0.449219 Z M 18.84375 0.449219 " fill-opacity="1" fill-rule="nonzero"/></g><g clip-path="url(#29022283d5)"><path fill="#000000" d="M 27.34375 0.773438 L 30.8125 23.003906 L 33.097656 23.003906 L 30.21875 0.449219 Z M 27.34375 0.773438 " fill-opacity="1" fill-rule="nonzero"/></g></g></g></g><path fill="#ffffff" d="M 54.875 88.339844 L 56.492188 87.738281 L 60.886719 87.800781 L 61.804688 88.132812 L 60.3125 88.65625 L 55.480469 88.65625 Z M 54.875 88.339844 " fill-opacity="1" fill-rule="nonzero"/><path fill="#ffffff" d="M 67.167969 82.53125 L 62.363281 84.433594 L 57.359375 86.722656 L 57.71875 87.675781 L 63.167969 84.777344 L 67.097656 82.746094 Z M 67.167969 82.53125 " fill-opacity="1" fill-rule="nonzero"/><path fill="#ffffff" d="M 63.621094 77.265625 L 65.535156 81.355469 L 63.488281 82.46875 L 61.191406 78.476562 Z M 63.621094 77.265625 " fill-opacity="1" fill-rule="nonzero"/><path fill="#000000" d="M 65.175781 80.484375 C 65.175781 80.484375 64.109375 82.195312 62.675781 81.195312 L 58.632812 86.847656 L 67.167969 82.53125 Z M 65.175781 80.484375 " fill-opacity="1" fill-rule="nonzero"/><g clip-path="url(#529a5c15e9)"><g clip-path="url(#c3f4b8beab)"><path fill="#ffffff" d="M 58.746094 84.621094 C 58.746094 84.621094 61.015625 83.886719 62.164062 86.589844 L 58.003906 87.410156 Z M 58.746094 84.621094 " fill-opacity="1" fill-rule="nonzero"/></g></g><path fill="#ffffff" d="M 58.628906 86.847656 L 67.164062 82.53125 L 67.542969 83.277344 L 59.007812 87.59375 Z M 58.628906 86.847656 " fill-opacity="1" fill-rule="nonzero"/><path fill="#ffffff" d="M 62.734375 82.945312 C 62.707031 82.949219 62.679688 82.945312 62.652344 82.929688 C 62.101562 82.660156 61.660156 82.613281 61.65625 82.613281 C 61.570312 82.601562 61.511719 82.527344 61.523438 82.441406 C 61.535156 82.359375 61.617188 82.296875 61.703125 82.304688 C 61.722656 82.308594 62.203125 82.359375 62.804688 82.65625 C 62.882812 82.691406 62.910156 82.785156 62.871094 82.859375 C 62.839844 82.910156 62.789062 82.941406 62.734375 82.945312 Z M 62.734375 82.945312 " fill-opacity="1" fill-rule="nonzero"/><path fill="#ffffff" d="M 62.210938 83.644531 C 62.183594 83.644531 62.152344 83.640625 62.128906 83.628906 C 61.578125 83.359375 61.136719 83.3125 61.132812 83.308594 C 61.046875 83.300781 60.984375 83.226562 61 83.140625 C 61.011719 83.054688 61.09375 82.996094 61.179688 83.003906 C 61.199219 83.003906 61.675781 83.058594 62.28125 83.351562 C 62.359375 83.390625 62.386719 83.484375 62.34375 83.558594 C 62.316406 83.609375 62.265625 83.640625 62.210938 83.644531 Z M 62.210938 83.644531 " fill-opacity="1" fill-rule="nonzero"/><path fill="#ffffff" d="M 61.683594 84.339844 C 61.65625 84.34375 61.628906 84.339844 61.601562 84.328125 C 61.054688 84.058594 60.613281 84.007812 60.605469 84.007812 C 60.519531 84 60.460938 83.921875 60.472656 83.839844 C 60.484375 83.753906 60.566406 83.691406 60.652344 83.703125 C 60.671875 83.703125 61.152344 83.753906 61.757812 84.050781 C 61.832031 84.085938 61.863281 84.179688 61.820312 84.257812 C 61.792969 84.308594 61.738281 84.335938 61.683594 84.339844 Z M 61.683594 84.339844 " fill-opacity="1" fill-rule="nonzero"/><path fill="#ffffff" d="M 60.886719 81.855469 L 60.84375 86.367188 L 58.511719 86.488281 L 58.171875 81.898438 Z M 60.886719 81.855469 " fill-opacity="1" fill-rule="nonzero"/><path fill="#000000" d="M 60.894531 85.425781 C 60.894531 85.425781 59.195312 86.507812 58.332031 84.992188 L 52.242188 88.339844 L 61.804688 88.132812 Z M 60.894531 85.425781 " fill-opacity="1" fill-rule="nonzero"/><g clip-path="url(#3a4e96c374)"><g clip-path="url(#41a1b17b94)"><path fill="#ffffff" d="M 53.304688 86.382812 C 53.304688 86.382812 55.671875 86.699219 55.535156 89.632812 L 51.429688 88.578125 Z M 53.304688 86.382812 " fill-opacity="1" fill-rule="nonzero"/></g></g><path fill="#ffffff" d="M 52.242188 88.34375 L 61.808594 88.136719 L 61.828125 88.972656 L 52.261719 89.175781 Z M 52.242188 88.34375 " fill-opacity="1" fill-rule="nonzero"/><path fill="#ffffff" d="M 57.628906 86.59375 C 57.601562 86.585938 57.578125 86.566406 57.5625 86.546875 C 57.183594 86.066406 56.804688 85.832031 56.800781 85.828125 C 56.726562 85.78125 56.707031 85.6875 56.753906 85.617188 C 56.800781 85.546875 56.902344 85.527344 56.976562 85.570312 C 56.992188 85.582031 57.402344 85.835938 57.820312 86.363281 C 57.871094 86.429688 57.859375 86.523438 57.785156 86.574219 C 57.738281 86.609375 57.679688 86.613281 57.628906 86.59375 Z M 57.628906 86.59375 " fill-opacity="1" fill-rule="nonzero"/><path fill="#ffffff" d="M 56.855469 86.996094 C 56.828125 86.988281 56.804688 86.96875 56.785156 86.949219 C 56.40625 86.46875 56.03125 86.234375 56.027344 86.230469 C 55.953125 86.183594 55.929688 86.089844 55.980469 86.019531 C 56.027344 85.949219 56.128906 85.929688 56.199219 85.972656 C 56.21875 85.984375 56.628906 86.238281 57.042969 86.765625 C 57.097656 86.832031 57.082031 86.929688 57.011719 86.976562 C 56.964844 87.011719 56.902344 87.015625 56.855469 86.996094 Z M 56.855469 86.996094 " fill-opacity="1" fill-rule="nonzero"/><path fill="#ffffff" d="M 56.078125 87.398438 C 56.050781 87.390625 56.027344 87.371094 56.011719 87.351562 C 55.632812 86.871094 55.253906 86.636719 55.25 86.632812 C 55.175781 86.585938 55.15625 86.492188 55.203125 86.421875 C 55.25 86.351562 55.351562 86.332031 55.425781 86.375 C 55.441406 86.386719 55.851562 86.640625 56.269531 87.167969 C 56.320312 87.234375 56.304688 87.328125 56.234375 87.378906 C 56.1875 87.414062 56.128906 87.417969 56.078125 87.398438 Z M 56.078125 87.398438 " fill-opacity="1" fill-rule="nonzero"/><path fill="#ffad65" d="M 66.941406 55.171875 C 66.941406 55.324219 66.9375 55.476562 66.933594 55.628906 C 66.878906 58.035156 66.59375 60.410156 66.398438 62.808594 C 66.183594 64.199219 65.609375 64.628906 65.152344 64.746094 C 65.128906 64.789062 65.101562 64.832031 65.074219 64.871094 L 64.074219 66.28125 C 63.996094 66.425781 63.808594 66.488281 63.644531 66.421875 C 63.523438 66.371094 63.386719 66.253906 63.523438 65.929688 L 63.386719 66.25 C 63.304688 66.40625 63.101562 66.472656 62.925781 66.394531 C 62.769531 66.332031 62.707031 66.132812 62.773438 65.921875 L 62.644531 66.148438 C 62.554688 66.316406 62.328125 66.382812 62.140625 66.28125 C 61.980469 66.191406 61.921875 66 61.988281 65.84375 L 62.132812 65.515625 L 62.148438 65.484375 L 61.882812 65.824219 C 61.777344 66 61.53125 66.054688 61.335938 65.9375 C 61.167969 65.839844 61.113281 65.640625 61.1875 65.472656 L 62.074219 63.441406 L 61.609375 63.226562 C 61.4375 63.152344 61.339844 62.976562 61.367188 62.808594 C 61.398438 62.632812 61.558594 62.507812 61.75 62.5 L 64.402344 62.453125 C 63.730469 57.46875 63.152344 52.492188 62.675781 47.488281 C 62.664062 46.351562 63.691406 45.414062 64.90625 45.414062 C 64.949219 45.414062 64.992188 45.414062 65.035156 45.414062 C 66.175781 45.476562 66.179688 46.660156 66.40625 47.695312 C 66.933594 50.085938 66.96875 52.582031 66.941406 55.171875 Z M 66.941406 55.171875 " fill-opacity="1" fill-rule="nonzero"/><path fill="#000000" d="M 62.097656 65.628906 C 62.09375 65.628906 62.085938 65.628906 62.082031 65.625 C 62.0625 65.617188 62.054688 65.59375 62.0625 65.574219 L 62.617188 64.402344 C 62.628906 64.382812 62.652344 64.375 62.671875 64.386719 C 62.691406 64.394531 62.699219 64.417969 62.691406 64.4375 L 62.132812 65.605469 C 62.128906 65.621094 62.113281 65.628906 62.097656 65.628906 Z M 62.097656 65.628906 " fill-opacity="1" fill-rule="nonzero"/><path fill="#000000" d="M 62.800781 65.914062 C 62.792969 65.914062 62.785156 65.910156 62.78125 65.910156 C 62.761719 65.898438 62.753906 65.875 62.765625 65.855469 L 63.34375 64.777344 C 63.355469 64.757812 63.378906 64.75 63.398438 64.761719 C 63.417969 64.773438 63.425781 64.796875 63.414062 64.816406 L 62.835938 65.894531 C 62.828125 65.90625 62.8125 65.914062 62.800781 65.914062 Z M 62.800781 65.914062 " fill-opacity="1" fill-rule="nonzero"/><path fill="#000000" d="M 63.472656 66.0625 C 63.464844 66.0625 63.457031 66.0625 63.453125 66.058594 C 63.433594 66.046875 63.425781 66.023438 63.4375 66.003906 L 63.945312 65.105469 C 63.953125 65.089844 63.980469 65.082031 63.996094 65.09375 C 64.015625 65.101562 64.023438 65.128906 64.011719 65.144531 L 63.507812 66.042969 C 63.5 66.054688 63.484375 66.0625 63.472656 66.0625 Z M 63.472656 66.0625 " fill-opacity="1" fill-rule="nonzero"/><path fill="#f89a00" d="M 76.867188 57.503906 L 76.867188 62.449219 C 76.867188 64.695312 75 66.492188 72.753906 66.410156 L 64.363281 66.101562 L 63.324219 74.085938 L 65.050781 79.320312 L 62.535156 80.148438 L 62.0625 83.757812 L 57.363281 83.398438 L 57.28125 73.195312 L 54.382812 67.296875 C 53.492188 65.480469 54.308594 63.324219 56.214844 62.453125 L 58.199219 61.550781 C 59.023438 60.503906 60.238281 59.789062 61.617188 59.597656 Z M 76.867188 57.503906 " fill-opacity="1" fill-rule="nonzero"/><path fill="#3f2952" d="M 65.785156 41.765625 C 65.785156 41.765625 62.78125 43.550781 62.199219 48.390625 L 66.484375 50.742188 Z M 65.785156 41.765625 " fill-opacity="1" fill-rule="nonzero"/><path fill="#3f2952" d="M 71.519531 40.253906 C 72.996094 40.378906 74.453125 40.703125 75.832031 41.253906 C 76.367188 41.464844 76.960938 41.726562 77.289062 42.226562 C 77.722656 42.894531 77.382812 43.652344 77.355469 44.378906 C 77.355469 44.378906 76.949219 59.296875 76.949219 59.296875 L 64.703125 59.296875 L 64.261719 44.871094 C 64.15625 43.332031 65.066406 41.917969 66.476562 41.421875 C 68.054688 40.867188 69.980469 40.246094 70.820312 40.195312 Z M 71.519531 40.253906 " fill-opacity="1" fill-rule="nonzero"/><path fill="#000000" d="M 64.503906 49.855469 C 64.46875 49.855469 64.4375 49.828125 64.433594 49.789062 L 64.324219 45.414062 C 64.324219 45.375 64.355469 45.34375 64.390625 45.339844 C 64.429688 45.34375 64.460938 45.371094 64.464844 45.410156 L 64.574219 49.785156 C 64.574219 49.824219 64.542969 49.855469 64.507812 49.855469 C 64.503906 49.855469 64.503906 49.855469 64.503906 49.855469 Z M 64.503906 49.855469 " fill-opacity="1" fill-rule="nonzero"/><path fill="#ffad65" d="M 67.1875 41.175781 C 67.1875 41.175781 69.40625 40.308594 70.820312 40.195312 C 70.820312 40.195312 72.757812 40.277344 74.085938 40.6875 C 74.085938 40.6875 73.347656 42.257812 69.953125 42.515625 C 66.554688 42.773438 67.1875 41.175781 67.1875 41.175781 Z M 67.1875 41.175781 " fill-opacity="1" fill-rule="nonzero"/><path fill="#3f2952" d="M 76.644531 41.636719 C 76.644531 41.636719 79.988281 43.433594 80.535156 50.398438 L 75.625 51.957031 L 73.847656 46.398438 Z M 76.644531 41.636719 " fill-opacity="1" fill-rule="nonzero"/><path fill="#000000" d="M 57.203125 73.113281 C 57.160156 73.113281 57.128906 73.078125 57.128906 73.035156 C 57.128906 72.996094 57.171875 68.878906 57.125 65.875 C 57.078125 62.84375 58.09375 61.558594 58.136719 61.503906 C 58.164062 61.472656 58.210938 61.46875 58.242188 61.492188 C 58.277344 61.519531 58.28125 61.566406 58.253906 61.597656 C 58.246094 61.613281 57.230469 62.902344 57.277344 65.871094 C 57.320312 68.878906 57.28125 72.996094 57.28125 73.039062 C 57.28125 73.078125 57.246094 73.113281 57.203125 73.113281 Z M 57.203125 73.113281 " fill-opacity="1" fill-rule="nonzero"/><path fill="#000000" d="M 62.535156 80.222656 C 62.53125 80.222656 62.527344 80.222656 62.527344 80.222656 C 62.484375 80.21875 62.453125 80.179688 62.460938 80.140625 L 63.230469 74.21875 C 63.238281 74.175781 63.273438 74.148438 63.316406 74.152344 C 63.359375 74.160156 63.386719 74.195312 63.382812 74.238281 L 62.609375 80.160156 C 62.605469 80.195312 62.574219 80.222656 62.535156 80.222656 Z M 62.535156 80.222656 " fill-opacity="1" fill-rule="nonzero"/><path fill="#000000" d="M 75.761719 51.988281 C 75.722656 51.988281 75.691406 51.960938 75.6875 51.921875 L 75.035156 46.261719 C 75.03125 46.222656 75.0625 46.183594 75.101562 46.179688 C 75.144531 46.171875 75.183594 46.203125 75.1875 46.246094 L 75.835938 51.902344 C 75.839844 51.945312 75.8125 51.984375 75.769531 51.988281 C 75.765625 51.988281 75.761719 51.988281 75.761719 51.988281 Z M 75.761719 51.988281 " fill-opacity="1" fill-rule="nonzero"/><path fill="#ffffff" d="M 52.242188 88.339844 L 53.898438 88.042969 L 55.386719 88.273438 L 54.480469 88.589844 L 52.800781 88.589844 Z M 52.242188 88.339844 " fill-opacity="1" fill-rule="nonzero"/><path fill="#ffffff" d="M 42.636719 55.082031 L 84.125 55.082031 L 84.125 56.78125 L 42.636719 56.78125 Z M 42.636719 55.082031 " fill-opacity="1" fill-rule="nonzero"/><path fill="#000000" d="M 42.636719 55.082031 L 84.125 55.082031 L 84.125 56.78125 L 42.636719 56.78125 Z M 42.636719 55.082031 " fill-opacity="0.27" fill-rule="nonzero"/><path fill="#ffad65" d="M 69.390625 55.140625 L 79.195312 55.09375 C 79.972656 55.085938 80.757812 54.097656 80.734375 53.324219 C 80.710938 52.460938 79.808594 51.554688 78.960938 51.726562 L 69.375 53.640625 Z M 69.390625 55.140625 " fill-opacity="1" fill-rule="nonzero"/><path fill="#ffad65" d="M 69.910156 53.589844 C 69.910156 53.589844 65.609375 52.566406 65.609375 55.140625 L 69.394531 55.140625 Z M 69.910156 53.589844 " fill-opacity="1" fill-rule="nonzero"/><path fill="#000000" d="M 75.769531 33.316406 C 75.769531 33.316406 81.335938 31.90625 78.808594 37.824219 C 78.371094 38.847656 78.113281 39.683594 77.980469 40.363281 C 77.632812 42.164062 74.953125 42.003906 74.855469 40.175781 C 74.808594 39.300781 75.058594 38.179688 75.765625 36.75 C 75.765625 36.75 76.902344 34.664062 75.582031 34.183594 Z M 75.769531 33.316406 " fill-opacity="1" fill-rule="nonzero"/><path fill="#f89a00" d="M 76.238281 33.660156 C 76.238281 33.796875 76.210938 33.929688 76.15625 34.058594 C 76.105469 34.1875 76.027344 34.300781 75.929688 34.398438 C 75.832031 34.496094 75.71875 34.570312 75.589844 34.625 C 75.460938 34.675781 75.328125 34.703125 75.191406 34.703125 C 75.050781 34.703125 74.917969 34.675781 74.789062 34.625 C 74.660156 34.570312 74.546875 34.496094 74.449219 34.398438 C 74.351562 34.300781 74.277344 34.1875 74.222656 34.058594 C 74.167969 33.929688 74.144531 33.796875 74.144531 33.660156 C 74.144531 33.519531 74.167969 33.386719 74.222656 33.257812 C 74.277344 33.128906 74.351562 33.019531 74.449219 32.917969 C 74.546875 32.820312 74.660156 32.746094 74.789062 32.691406 C 74.917969 32.640625 75.050781 32.613281 75.191406 32.613281 C 75.328125 32.613281 75.460938 32.640625 75.589844 32.691406 C 75.71875 32.746094 75.832031 32.820312 75.929688 32.917969 C 76.027344 33.019531 76.105469 33.128906 76.15625 33.257812 C 76.210938 33.386719 76.238281 33.519531 76.238281 33.660156 Z M 76.238281 33.660156 " fill-opacity="1" fill-rule="nonzero"/><path fill="#000000" d="M 72.074219 29.558594 C 72.074219 29.558594 69.492188 28.15625 67.898438 29.050781 C 65.570312 30.367188 67.703125 32.199219 67.703125 32.199219 Z M 72.074219 29.558594 " fill-opacity="1" fill-rule="nonzero"/><path fill="#000000" d="M 72.226562 29.597656 C 72.5 29.664062 72.765625 29.761719 73.023438 29.878906 C 73.277344 30 73.519531 30.140625 73.746094 30.304688 C 73.976562 30.46875 74.183594 30.652344 74.375 30.855469 C 74.566406 31.058594 74.734375 31.277344 74.882812 31.511719 C 75.027344 31.742188 75.152344 31.988281 75.246094 32.246094 C 75.34375 32.5 75.414062 32.761719 75.457031 33.03125 C 75.5 33.296875 75.519531 33.566406 75.503906 33.835938 C 75.492188 34.105469 75.453125 34.371094 75.386719 34.632812 C 75.320312 34.894531 75.230469 35.144531 75.109375 35.386719 C 74.992188 35.628906 74.847656 35.859375 74.683594 36.074219 C 74.515625 36.289062 74.328125 36.484375 74.121094 36.664062 C 73.914062 36.839844 73.691406 37 73.449219 37.132812 C 73.210938 37.269531 72.957031 37.378906 72.691406 37.46875 C 72.425781 37.554688 72.15625 37.617188 71.875 37.652344 C 71.597656 37.6875 71.316406 37.695312 71.035156 37.679688 C 70.753906 37.664062 70.476562 37.621094 70.203125 37.550781 C 69.929688 37.480469 69.664062 37.386719 69.40625 37.265625 C 69.152344 37.148438 68.910156 37.003906 68.683594 36.839844 C 68.453125 36.675781 68.246094 36.492188 68.054688 36.289062 C 67.863281 36.089844 67.695312 35.871094 67.546875 35.636719 C 67.402344 35.402344 67.277344 35.15625 67.183594 34.902344 C 67.085938 34.644531 67.015625 34.382812 66.972656 34.117188 C 66.929688 33.847656 66.914062 33.578125 66.925781 33.308594 C 66.9375 33.039062 66.976562 32.773438 67.042969 32.511719 C 67.109375 32.253906 67.199219 32 67.320312 31.757812 C 67.4375 31.515625 67.582031 31.285156 67.746094 31.074219 C 67.914062 30.859375 68.101562 30.660156 68.308594 30.484375 C 68.515625 30.304688 68.738281 30.148438 68.980469 30.011719 C 69.21875 29.875 69.472656 29.765625 69.738281 29.679688 C 70.003906 29.589844 70.273438 29.527344 70.554688 29.492188 C 70.832031 29.457031 71.113281 29.449219 71.394531 29.464844 C 71.675781 29.484375 71.953125 29.527344 72.226562 29.597656 Z M 72.226562 29.597656 " fill-opacity="1" fill-rule="nonzero"/><path fill="#ffad65" d="M 69.003906 37.449219 L 68.933594 41.691406 L 72.085938 41.628906 L 71.652344 35.191406 Z M 69.003906 37.449219 " fill-opacity="1" fill-rule="nonzero"/><path fill="#000000" d="M 68.964844 39.6875 L 71.324219 37.167969 L 69.003906 37.449219 Z M 68.964844 39.6875 " fill-opacity="1" fill-rule="nonzero"/><path fill="#ffad65" d="M 68.140625 30.320312 C 67.832031 30.472656 67.597656 30.738281 67.449219 31.046875 C 66.980469 32.023438 66.101562 33.753906 66.1875 34.949219 C 66.300781 36.492188 67.203125 37.796875 69.164062 37.917969 C 69.164062 37.917969 71.464844 38.261719 72.648438 35.542969 C 74.542969 31.1875 70.984375 28.898438 68.140625 30.320312 Z M 68.140625 30.320312 " fill-opacity="1" fill-rule="nonzero"/><path fill="#000000" d="M 67.613281 34.835938 C 67.601562 34.835938 67.59375 34.832031 67.585938 34.828125 L 67.332031 34.710938 C 67.242188 34.660156 67.207031 34.554688 67.25 34.46875 L 67.546875 34.035156 C 67.570312 34.003906 67.609375 33.996094 67.640625 34.015625 C 67.671875 34.039062 67.679688 34.078125 67.65625 34.109375 L 67.367188 34.535156 C 67.359375 34.550781 67.367188 34.578125 67.390625 34.59375 L 67.640625 34.707031 C 67.671875 34.722656 67.6875 34.761719 67.671875 34.796875 C 67.664062 34.820312 67.636719 34.835938 67.613281 34.835938 Z M 67.613281 34.835938 " fill-opacity="1" fill-rule="nonzero"/><path fill="#000000" d="M 69.429688 33.910156 C 69.429688 33.984375 69.40625 34.046875 69.351562 34.101562 C 69.296875 34.152344 69.234375 34.179688 69.160156 34.179688 C 69.085938 34.179688 69.019531 34.152344 68.96875 34.101562 C 68.914062 34.046875 68.886719 33.984375 68.886719 33.910156 C 68.886719 33.835938 68.914062 33.769531 68.96875 33.71875 C 69.019531 33.664062 69.085938 33.636719 69.160156 33.636719 C 69.234375 33.636719 69.296875 33.664062 69.351562 33.71875 C 69.40625 33.769531 69.429688 33.835938 69.429688 33.910156 Z M 69.429688 33.910156 " fill-opacity="1" fill-rule="nonzero"/><path fill="#000000" d="M 67.316406 33.417969 C 67.285156 33.550781 67.152344 33.636719 67.015625 33.609375 C 66.878906 33.582031 66.792969 33.445312 66.824219 33.308594 C 66.851562 33.175781 66.984375 33.089844 67.121094 33.117188 C 67.257812 33.144531 67.34375 33.28125 67.316406 33.417969 Z M 67.316406 33.417969 " fill-opacity="1" fill-rule="nonzero"/><path fill="#000000" d="M 68.097656 35.679688 C 67.582031 35.679688 67.195312 35.40625 67.171875 35.390625 C 67.144531 35.367188 67.136719 35.324219 67.160156 35.296875 C 67.179688 35.265625 67.222656 35.257812 67.253906 35.28125 C 67.257812 35.285156 67.960938 35.78125 68.699219 35.394531 C 68.734375 35.378906 68.773438 35.390625 68.789062 35.421875 C 68.808594 35.457031 68.796875 35.496094 68.761719 35.511719 C 68.527344 35.636719 68.300781 35.679688 68.097656 35.679688 Z M 68.097656 35.679688 " fill-opacity="1" fill-rule="nonzero"/><path fill="#000000" d="M 67.753906 31.988281 C 67.753906 31.988281 67.789062 32.308594 67.402344 32.289062 C 67.109375 32.277344 66.925781 32.261719 66.753906 32.296875 C 66.65625 32.316406 66.558594 32.261719 66.519531 32.167969 C 66.492188 32.09375 66.507812 32.007812 66.566406 31.953125 C 66.683594 31.835938 66.914062 31.671875 67.269531 31.683594 C 67.726562 31.699219 67.753906 31.988281 67.753906 31.988281 Z M 67.753906 31.988281 " fill-opacity="1" fill-rule="nonzero"/><path fill="#000000" d="M 69.054688 32.28125 C 69.054688 32.28125 68.875 32.558594 69.34375 32.714844 C 69.699219 32.832031 70.105469 33.0625 70.296875 33.171875 C 70.40625 33.234375 70.546875 33.230469 70.628906 33.160156 C 70.695312 33.105469 70.710938 33.019531 70.667969 32.941406 C 70.578125 32.785156 70.191406 32.371094 69.761719 32.21875 C 69.207031 32.03125 69.054688 32.28125 69.054688 32.28125 Z M 69.054688 32.28125 " fill-opacity="1" fill-rule="nonzero"/><path fill="#000000" d="M 69.238281 29.675781 C 69.238281 29.675781 68.292969 31.941406 74.0625 32.851562 C 74.0625 32.851562 75.105469 29.628906 69.238281 29.675781 Z M 69.238281 29.675781 " fill-opacity="1" fill-rule="nonzero"/><path fill="#000000" d="M 72.398438 31.988281 L 71.976562 35.488281 L 75.164062 33.785156 Z M 72.398438 31.988281 " fill-opacity="1" fill-rule="nonzero"/><path fill="#ffad65" d="M 73.976562 36.457031 C 73.609375 37.058594 72.824219 37.253906 72.222656 36.890625 C 71.617188 36.527344 71.421875 35.742188 71.789062 35.136719 C 72.152344 34.535156 72.9375 34.339844 73.542969 34.707031 C 74.144531 35.070312 74.339844 35.855469 73.976562 36.457031 Z M 73.976562 36.457031 " fill-opacity="1" fill-rule="nonzero"/><path fill="#000000" d="M 72.359375 36.035156 C 72.351562 36.035156 72.339844 36.035156 72.332031 36.03125 C 72.296875 36.015625 72.285156 35.976562 72.300781 35.941406 C 72.429688 35.652344 72.617188 35.472656 72.847656 35.402344 C 73.210938 35.296875 73.554688 35.511719 73.566406 35.523438 C 73.597656 35.542969 73.609375 35.582031 73.589844 35.613281 C 73.566406 35.644531 73.527344 35.652344 73.496094 35.632812 C 73.492188 35.632812 73.1875 35.441406 72.882812 35.53125 C 72.691406 35.589844 72.535156 35.746094 72.421875 35.996094 C 72.410156 36.019531 72.386719 36.035156 72.359375 36.035156 Z M 72.359375 36.035156 " fill-opacity="1" fill-rule="nonzero"/><path fill="#000000" d="M 44.851562 56.78125 L 47.0625 56.78125 L 47.0625 90.003906 L 44.851562 90.003906 Z M 44.851562 56.78125 " fill-opacity="1" fill-rule="nonzero"/><path fill="#000000" d="M 79.007812 56.78125 L 81.214844 56.78125 L 81.214844 90.003906 L 79.007812 90.003906 Z M 79.007812 56.78125 " fill-opacity="1" fill-rule="nonzero"/><path fill="#000000" d="M 35.753906 15.140625 C 35.804688 14.972656 35.859375 14.816406 35.90625 14.664062 C 35.957031 14.511719 36 14.371094 36.035156 14.242188 C 36.074219 14.109375 36.105469 13.996094 36.128906 13.898438 C 36.148438 13.796875 36.160156 13.71875 36.164062 13.660156 C 36.179688 13.601562 36.203125 13.558594 36.242188 13.523438 C 36.277344 13.492188 36.320312 13.472656 36.367188 13.472656 C 36.394531 13.472656 36.421875 13.480469 36.441406 13.492188 C 36.460938 13.507812 36.476562 13.523438 36.492188 13.546875 C 36.503906 13.566406 36.511719 13.59375 36.519531 13.617188 C 36.523438 13.644531 36.527344 13.671875 36.527344 13.699219 C 36.527344 13.722656 36.527344 13.738281 36.523438 13.757812 C 36.519531 13.773438 36.519531 13.789062 36.515625 13.804688 C 36.488281 13.914062 36.453125 14.027344 36.414062 14.144531 C 36.378906 14.265625 36.339844 14.382812 36.296875 14.503906 C 36.257812 14.625 36.21875 14.746094 36.179688 14.867188 C 36.140625 14.984375 36.101562 15.105469 36.070312 15.222656 L 36.039062 15.34375 C 36.023438 15.40625 36.007812 15.464844 35.996094 15.519531 C 35.984375 15.578125 35.980469 15.621094 35.980469 15.65625 C 35.980469 15.675781 35.980469 15.691406 35.988281 15.703125 C 35.996094 15.714844 36.011719 15.71875 36.03125 15.71875 C 36.082031 15.71875 36.136719 15.710938 36.203125 15.695312 C 36.269531 15.679688 36.339844 15.660156 36.410156 15.636719 C 36.480469 15.613281 36.550781 15.585938 36.621094 15.558594 C 36.691406 15.53125 36.753906 15.503906 36.8125 15.480469 C 36.84375 15.464844 36.871094 15.457031 36.894531 15.445312 C 36.917969 15.4375 36.945312 15.425781 36.976562 15.410156 C 37.007812 15.398438 37.054688 15.378906 37.109375 15.355469 C 37.164062 15.332031 37.242188 15.300781 37.335938 15.261719 C 37.355469 15.253906 37.367188 15.25 37.382812 15.246094 C 37.394531 15.242188 37.40625 15.238281 37.417969 15.238281 C 37.4375 15.238281 37.453125 15.242188 37.464844 15.25 C 37.480469 15.257812 37.492188 15.265625 37.5 15.277344 C 37.507812 15.289062 37.511719 15.304688 37.515625 15.320312 C 37.519531 15.335938 37.519531 15.351562 37.519531 15.367188 C 37.519531 15.394531 37.519531 15.414062 37.515625 15.4375 C 37.511719 15.457031 37.503906 15.472656 37.5 15.484375 C 37.488281 15.507812 37.46875 15.527344 37.445312 15.546875 C 37.421875 15.566406 37.398438 15.582031 37.375 15.59375 C 37.347656 15.609375 37.324219 15.621094 37.300781 15.628906 C 37.273438 15.640625 37.253906 15.648438 37.238281 15.652344 C 37.21875 15.660156 37.195312 15.667969 37.164062 15.679688 C 37.132812 15.691406 37.097656 15.707031 37.058594 15.71875 C 37.023438 15.734375 36.984375 15.75 36.945312 15.765625 C 36.90625 15.78125 36.867188 15.792969 36.832031 15.808594 C 36.796875 15.820312 36.765625 15.832031 36.742188 15.839844 C 36.714844 15.851562 36.695312 15.859375 36.683594 15.863281 C 36.632812 15.882812 36.574219 15.902344 36.511719 15.925781 C 36.449219 15.949219 36.386719 15.972656 36.324219 15.996094 C 36.261719 16.015625 36.203125 16.035156 36.144531 16.050781 C 36.089844 16.066406 36.042969 16.074219 36.007812 16.074219 C 35.960938 16.074219 35.925781 16.070312 35.898438 16.0625 C 35.875 16.054688 35.851562 16.042969 35.832031 16.03125 C 35.808594 16.019531 35.789062 16.003906 35.769531 15.988281 C 35.746094 15.96875 35.71875 15.949219 35.683594 15.925781 C 35.652344 15.90625 35.632812 15.882812 35.617188 15.847656 C 35.605469 15.8125 35.597656 15.777344 35.597656 15.738281 C 35.597656 15.722656 35.601562 15.699219 35.601562 15.671875 C 35.605469 15.648438 35.609375 15.621094 35.613281 15.59375 C 35.621094 15.566406 35.625 15.539062 35.628906 15.511719 C 35.636719 15.488281 35.644531 15.464844 35.648438 15.445312 Z M 35.753906 15.140625 " fill-opacity="1" fill-rule="nonzero"/><path fill="#000000" d="M 37.714844 15.371094 C 37.714844 15.320312 37.730469 15.277344 37.757812 15.242188 C 37.785156 15.207031 37.820312 15.179688 37.867188 15.167969 C 37.878906 15.144531 37.898438 15.105469 37.925781 15.0625 C 37.957031 15.015625 37.988281 14.96875 38.03125 14.914062 C 38.070312 14.863281 38.117188 14.808594 38.171875 14.757812 C 38.222656 14.703125 38.28125 14.65625 38.34375 14.613281 C 38.40625 14.566406 38.472656 14.53125 38.546875 14.503906 C 38.617188 14.476562 38.695312 14.464844 38.777344 14.464844 C 38.847656 14.464844 38.90625 14.472656 38.960938 14.488281 C 39.011719 14.503906 39.054688 14.527344 39.085938 14.558594 C 39.121094 14.589844 39.144531 14.625 39.164062 14.664062 C 39.179688 14.707031 39.1875 14.75 39.1875 14.800781 C 39.1875 14.839844 39.183594 14.878906 39.171875 14.914062 C 39.15625 14.984375 39.125 15.042969 39.078125 15.09375 C 39.03125 15.140625 38.976562 15.1875 38.917969 15.222656 C 38.855469 15.261719 38.789062 15.292969 38.714844 15.316406 C 38.640625 15.34375 38.570312 15.363281 38.496094 15.382812 C 38.425781 15.398438 38.355469 15.410156 38.289062 15.421875 C 38.21875 15.429688 38.164062 15.4375 38.113281 15.441406 C 38.101562 15.460938 38.09375 15.488281 38.085938 15.523438 C 38.078125 15.554688 38.074219 15.585938 38.074219 15.617188 C 38.074219 15.6875 38.101562 15.742188 38.15625 15.78125 C 38.210938 15.820312 38.289062 15.835938 38.386719 15.835938 C 38.441406 15.835938 38.496094 15.832031 38.546875 15.820312 C 38.597656 15.804688 38.648438 15.789062 38.695312 15.769531 C 38.738281 15.75 38.785156 15.730469 38.824219 15.707031 C 38.863281 15.683594 38.902344 15.660156 38.9375 15.636719 C 38.980469 15.609375 39.019531 15.582031 39.058594 15.5625 C 39.097656 15.542969 39.132812 15.535156 39.164062 15.535156 C 39.191406 15.535156 39.210938 15.542969 39.21875 15.554688 C 39.230469 15.570312 39.234375 15.585938 39.234375 15.605469 C 39.234375 15.613281 39.234375 15.621094 39.230469 15.632812 C 39.230469 15.640625 39.230469 15.648438 39.230469 15.65625 C 39.222656 15.6875 39.210938 15.714844 39.191406 15.746094 C 39.175781 15.777344 39.152344 15.804688 39.125 15.828125 C 39 15.925781 38.871094 15.996094 38.742188 16.039062 C 38.609375 16.082031 38.46875 16.101562 38.320312 16.101562 C 38.292969 16.101562 38.257812 16.101562 38.21875 16.097656 C 38.179688 16.09375 38.140625 16.085938 38.097656 16.074219 C 38.054688 16.0625 38.011719 16.046875 37.972656 16.027344 C 37.933594 16.007812 37.894531 15.980469 37.863281 15.945312 C 37.832031 15.914062 37.804688 15.871094 37.785156 15.824219 C 37.765625 15.773438 37.757812 15.714844 37.757812 15.644531 C 37.757812 15.589844 37.765625 15.527344 37.78125 15.457031 C 37.765625 15.453125 37.75 15.445312 37.738281 15.433594 C 37.722656 15.417969 37.714844 15.398438 37.714844 15.371094 Z M 38.84375 14.875 C 38.84375 14.867188 38.84375 14.863281 38.84375 14.859375 C 38.84375 14.851562 38.84375 14.847656 38.84375 14.84375 C 38.84375 14.808594 38.832031 14.785156 38.808594 14.769531 C 38.785156 14.753906 38.757812 14.746094 38.722656 14.746094 C 38.671875 14.746094 38.617188 14.757812 38.566406 14.785156 C 38.515625 14.8125 38.46875 14.847656 38.425781 14.890625 C 38.378906 14.929688 38.339844 14.976562 38.304688 15.023438 C 38.269531 15.070312 38.242188 15.113281 38.222656 15.152344 C 38.308594 15.144531 38.390625 15.132812 38.460938 15.117188 C 38.53125 15.101562 38.59375 15.078125 38.648438 15.054688 C 38.703125 15.03125 38.746094 15.003906 38.777344 14.972656 C 38.8125 14.941406 38.832031 14.910156 38.84375 14.875 Z M 38.84375 14.875 " fill-opacity="1" fill-rule="nonzero"/><path fill="#000000" d="M 39.605469 15.746094 C 39.613281 15.746094 39.625 15.75 39.632812 15.75 C 39.640625 15.753906 39.648438 15.757812 39.65625 15.757812 C 39.667969 15.761719 39.675781 15.765625 39.691406 15.769531 C 39.703125 15.769531 39.71875 15.769531 39.738281 15.769531 C 39.792969 15.769531 39.855469 15.765625 39.925781 15.753906 C 39.992188 15.742188 40.058594 15.726562 40.121094 15.707031 C 40.179688 15.6875 40.234375 15.664062 40.277344 15.640625 C 40.320312 15.617188 40.347656 15.589844 40.351562 15.566406 C 40.355469 15.550781 40.359375 15.539062 40.359375 15.527344 C 40.359375 15.507812 40.347656 15.488281 40.328125 15.46875 C 40.308594 15.449219 40.285156 15.433594 40.253906 15.414062 C 40.222656 15.398438 40.191406 15.382812 40.15625 15.367188 C 40.121094 15.355469 40.089844 15.339844 40.058594 15.328125 L 39.996094 15.304688 C 39.964844 15.292969 39.9375 15.277344 39.90625 15.261719 C 39.875 15.242188 39.847656 15.222656 39.820312 15.199219 C 39.796875 15.175781 39.773438 15.152344 39.753906 15.121094 C 39.734375 15.089844 39.71875 15.054688 39.710938 15.015625 C 39.707031 15 39.699219 14.980469 39.699219 14.964844 C 39.695312 14.949219 39.695312 14.929688 39.695312 14.910156 C 39.695312 14.878906 39.703125 14.84375 39.726562 14.804688 C 39.746094 14.761719 39.773438 14.722656 39.808594 14.683594 C 39.84375 14.644531 39.886719 14.605469 39.929688 14.570312 C 39.976562 14.535156 40.023438 14.503906 40.070312 14.480469 C 40.109375 14.457031 40.140625 14.433594 40.175781 14.414062 C 40.210938 14.394531 40.242188 14.375 40.277344 14.359375 C 40.3125 14.347656 40.347656 14.335938 40.382812 14.328125 C 40.417969 14.320312 40.457031 14.3125 40.496094 14.3125 C 40.53125 14.3125 40.570312 14.316406 40.613281 14.320312 C 40.652344 14.324219 40.691406 14.332031 40.726562 14.34375 C 40.761719 14.359375 40.789062 14.378906 40.8125 14.402344 C 40.835938 14.429688 40.847656 14.464844 40.847656 14.507812 C 40.847656 14.519531 40.847656 14.539062 40.84375 14.558594 C 40.839844 14.582031 40.832031 14.601562 40.824219 14.625 C 40.816406 14.644531 40.808594 14.664062 40.796875 14.679688 C 40.78125 14.695312 40.769531 14.703125 40.75 14.703125 C 40.722656 14.703125 40.703125 14.695312 40.683594 14.6875 C 40.664062 14.675781 40.648438 14.664062 40.636719 14.652344 C 40.621094 14.636719 40.605469 14.625 40.589844 14.617188 C 40.574219 14.605469 40.554688 14.597656 40.53125 14.597656 C 40.503906 14.597656 40.472656 14.605469 40.4375 14.613281 C 40.398438 14.625 40.363281 14.636719 40.324219 14.65625 C 40.285156 14.671875 40.246094 14.695312 40.210938 14.714844 C 40.175781 14.738281 40.140625 14.761719 40.113281 14.785156 C 40.082031 14.808594 40.058594 14.832031 40.042969 14.859375 C 40.023438 14.878906 40.015625 14.902344 40.015625 14.921875 C 40.015625 14.941406 40.019531 14.957031 40.035156 14.972656 C 40.046875 14.984375 40.0625 14.996094 40.085938 15.003906 C 40.109375 15.019531 40.140625 15.035156 40.175781 15.050781 C 40.210938 15.0625 40.242188 15.078125 40.277344 15.09375 C 40.3125 15.105469 40.347656 15.121094 40.378906 15.136719 C 40.414062 15.148438 40.441406 15.164062 40.464844 15.175781 C 40.5 15.191406 40.527344 15.207031 40.554688 15.222656 C 40.578125 15.242188 40.601562 15.257812 40.617188 15.277344 C 40.636719 15.296875 40.652344 15.316406 40.660156 15.34375 C 40.667969 15.367188 40.675781 15.394531 40.675781 15.425781 C 40.675781 15.441406 40.671875 15.457031 40.671875 15.472656 C 40.667969 15.488281 40.664062 15.507812 40.660156 15.527344 C 40.65625 15.546875 40.648438 15.566406 40.640625 15.589844 C 40.632812 15.613281 40.621094 15.636719 40.613281 15.660156 C 40.601562 15.683594 40.59375 15.707031 40.582031 15.722656 C 40.570312 15.742188 40.5625 15.753906 40.554688 15.761719 C 40.507812 15.804688 40.453125 15.84375 40.386719 15.882812 C 40.324219 15.921875 40.257812 15.953125 40.191406 15.980469 C 40.121094 16.007812 40.050781 16.03125 39.984375 16.046875 C 39.914062 16.066406 39.851562 16.074219 39.792969 16.074219 C 39.765625 16.074219 39.730469 16.066406 39.699219 16.054688 C 39.664062 16.046875 39.628906 16.03125 39.601562 16.011719 C 39.570312 15.992188 39.546875 15.972656 39.527344 15.949219 C 39.507812 15.925781 39.496094 15.898438 39.496094 15.875 C 39.496094 15.863281 39.5 15.851562 39.507812 15.835938 C 39.515625 15.820312 39.523438 15.804688 39.535156 15.792969 C 39.546875 15.78125 39.558594 15.769531 39.570312 15.761719 C 39.582031 15.753906 39.59375 15.746094 39.605469 15.746094 Z M 39.605469 15.746094 " fill-opacity="1" fill-rule="nonzero"/><path fill="#000000" d="M 41.128906 15.746094 C 41.140625 15.746094 41.148438 15.75 41.15625 15.75 C 41.164062 15.753906 41.171875 15.757812 41.179688 15.757812 C 41.191406 15.761719 41.203125 15.765625 41.214844 15.769531 C 41.226562 15.769531 41.242188 15.769531 41.261719 15.769531 C 41.316406 15.769531 41.378906 15.765625 41.449219 15.753906 C 41.519531 15.742188 41.582031 15.726562 41.644531 15.707031 C 41.707031 15.6875 41.757812 15.664062 41.800781 15.640625 C 41.84375 15.617188 41.871094 15.589844 41.875 15.566406 C 41.878906 15.550781 41.882812 15.539062 41.882812 15.527344 C 41.882812 15.507812 41.871094 15.488281 41.851562 15.46875 C 41.832031 15.449219 41.808594 15.433594 41.777344 15.414062 C 41.746094 15.398438 41.714844 15.382812 41.679688 15.367188 C 41.644531 15.355469 41.613281 15.339844 41.582031 15.328125 L 41.523438 15.304688 C 41.492188 15.292969 41.460938 15.277344 41.429688 15.261719 C 41.398438 15.242188 41.371094 15.222656 41.347656 15.199219 C 41.320312 15.175781 41.296875 15.152344 41.277344 15.121094 C 41.257812 15.089844 41.242188 15.054688 41.234375 15.015625 C 41.230469 15 41.226562 14.980469 41.222656 14.964844 C 41.21875 14.949219 41.21875 14.929688 41.21875 14.910156 C 41.21875 14.878906 41.226562 14.84375 41.25 14.804688 C 41.269531 14.761719 41.296875 14.722656 41.335938 14.683594 C 41.371094 14.644531 41.410156 14.605469 41.453125 14.570312 C 41.5 14.535156 41.546875 14.503906 41.597656 14.480469 C 41.632812 14.457031 41.667969 14.433594 41.699219 14.414062 C 41.734375 14.394531 41.769531 14.375 41.800781 14.359375 C 41.835938 14.347656 41.871094 14.335938 41.90625 14.328125 C 41.941406 14.320312 41.980469 14.3125 42.019531 14.3125 C 42.054688 14.3125 42.09375 14.316406 42.136719 14.320312 C 42.179688 14.324219 42.214844 14.332031 42.25 14.34375 C 42.285156 14.359375 42.316406 14.378906 42.339844 14.402344 C 42.363281 14.429688 42.375 14.464844 42.375 14.507812 C 42.375 14.519531 42.371094 14.539062 42.367188 14.558594 C 42.363281 14.582031 42.359375 14.601562 42.351562 14.625 C 42.339844 14.644531 42.332031 14.664062 42.320312 14.679688 C 42.308594 14.695312 42.292969 14.703125 42.277344 14.703125 C 42.25 14.703125 42.226562 14.695312 42.207031 14.6875 C 42.191406 14.675781 42.171875 14.664062 42.160156 14.652344 C 42.144531 14.636719 42.128906 14.625 42.113281 14.617188 C 42.097656 14.605469 42.078125 14.597656 42.054688 14.597656 C 42.027344 14.597656 41.996094 14.605469 41.960938 14.613281 C 41.921875 14.625 41.886719 14.636719 41.847656 14.65625 C 41.808594 14.671875 41.773438 14.695312 41.734375 14.714844 C 41.699219 14.738281 41.664062 14.761719 41.636719 14.785156 C 41.605469 14.808594 41.582031 14.832031 41.566406 14.859375 C 41.546875 14.878906 41.539062 14.902344 41.539062 14.921875 C 41.539062 14.941406 41.546875 14.957031 41.558594 14.972656 C 41.570312 14.984375 41.589844 14.996094 41.609375 15.003906 C 41.636719 15.019531 41.664062 15.035156 41.699219 15.050781 C 41.734375 15.0625 41.769531 15.078125 41.804688 15.09375 C 41.835938 15.105469 41.871094 15.121094 41.90625 15.136719 C 41.9375 15.148438 41.964844 15.164062 41.992188 15.175781 C 42.023438 15.191406 42.050781 15.207031 42.078125 15.222656 C 42.101562 15.242188 42.125 15.257812 42.144531 15.277344 C 42.160156 15.296875 42.175781 15.316406 42.183594 15.34375 C 42.195312 15.367188 42.199219 15.394531 42.199219 15.425781 C 42.199219 15.441406 42.199219 15.457031 42.195312 15.472656 C 42.191406 15.488281 42.1875 15.507812 42.183594 15.527344 C 42.179688 15.546875 42.175781 15.566406 42.164062 15.589844 C 42.15625 15.613281 42.148438 15.636719 42.136719 15.660156 C 42.125 15.683594 42.117188 15.707031 42.105469 15.722656 C 42.09375 15.742188 42.085938 15.753906 42.078125 15.761719 C 42.03125 15.804688 41.976562 15.84375 41.914062 15.882812 C 41.847656 15.921875 41.78125 15.953125 41.714844 15.980469 C 41.644531 16.007812 41.574219 16.03125 41.507812 16.046875 C 41.4375 16.066406 41.375 16.074219 41.316406 16.074219 C 41.289062 16.074219 41.257812 16.066406 41.222656 16.054688 C 41.1875 16.046875 41.15625 16.03125 41.125 16.011719 C 41.097656 15.992188 41.070312 15.972656 41.050781 15.949219 C 41.03125 15.925781 41.023438 15.898438 41.023438 15.875 C 41.023438 15.863281 41.027344 15.851562 41.03125 15.835938 C 41.039062 15.820312 41.050781 15.804688 41.058594 15.792969 C 41.070312 15.78125 41.082031 15.769531 41.09375 15.761719 C 41.109375 15.753906 41.117188 15.746094 41.128906 15.746094 Z M 41.128906 15.746094 " fill-opacity="1" fill-rule="nonzero"/><path fill="#000000" d="M 42.628906 15.378906 C 42.644531 15.304688 42.675781 15.226562 42.710938 15.144531 C 42.75 15.0625 42.800781 14.980469 42.859375 14.898438 C 42.921875 14.8125 42.996094 14.730469 43.082031 14.652344 C 43.167969 14.570312 43.265625 14.496094 43.378906 14.425781 C 43.398438 14.414062 43.425781 14.402344 43.460938 14.390625 C 43.5 14.378906 43.539062 14.371094 43.578125 14.367188 C 43.625 14.316406 43.6875 14.292969 43.765625 14.292969 C 43.859375 14.292969 43.9375 14.316406 44.003906 14.363281 C 44.066406 14.410156 44.121094 14.476562 44.160156 14.558594 C 44.175781 14.582031 44.1875 14.609375 44.199219 14.632812 C 44.210938 14.660156 44.21875 14.6875 44.226562 14.714844 C 44.234375 14.742188 44.242188 14.773438 44.246094 14.804688 C 44.25 14.835938 44.253906 14.875 44.253906 14.914062 C 44.253906 15.007812 44.238281 15.105469 44.207031 15.203125 C 44.179688 15.300781 44.136719 15.398438 44.082031 15.492188 C 44.027344 15.585938 43.957031 15.675781 43.878906 15.757812 C 43.800781 15.84375 43.714844 15.921875 43.617188 15.992188 C 43.554688 16.039062 43.480469 16.074219 43.402344 16.097656 C 43.324219 16.125 43.238281 16.136719 43.140625 16.136719 C 43.046875 16.136719 42.96875 16.125 42.898438 16.101562 C 42.832031 16.078125 42.773438 16.042969 42.730469 15.996094 C 42.683594 15.949219 42.652344 15.894531 42.628906 15.832031 C 42.605469 15.769531 42.597656 15.699219 42.597656 15.621094 C 42.597656 15.542969 42.605469 15.464844 42.628906 15.378906 Z M 42.925781 15.402344 C 42.921875 15.429688 42.914062 15.453125 42.910156 15.480469 C 42.910156 15.503906 42.90625 15.527344 42.90625 15.550781 C 42.90625 15.589844 42.914062 15.625 42.921875 15.660156 C 42.933594 15.695312 42.949219 15.722656 42.972656 15.75 C 42.996094 15.773438 43.023438 15.792969 43.058594 15.804688 C 43.09375 15.820312 43.132812 15.828125 43.183594 15.828125 C 43.273438 15.828125 43.359375 15.804688 43.4375 15.757812 C 43.515625 15.710938 43.585938 15.652344 43.648438 15.585938 C 43.707031 15.515625 43.757812 15.441406 43.800781 15.359375 C 43.84375 15.28125 43.871094 15.207031 43.886719 15.140625 C 43.898438 15.097656 43.910156 15.058594 43.917969 15.023438 C 43.925781 14.984375 43.929688 14.949219 43.929688 14.917969 C 43.929688 14.886719 43.921875 14.859375 43.910156 14.832031 C 43.898438 14.804688 43.882812 14.773438 43.867188 14.742188 C 43.855469 14.722656 43.84375 14.699219 43.835938 14.675781 C 43.824219 14.65625 43.8125 14.632812 43.804688 14.613281 C 43.796875 14.628906 43.785156 14.644531 43.773438 14.65625 C 43.765625 14.667969 43.75 14.679688 43.726562 14.691406 C 43.703125 14.699219 43.675781 14.710938 43.636719 14.71875 C 43.601562 14.726562 43.550781 14.734375 43.492188 14.738281 C 43.453125 14.753906 43.414062 14.773438 43.371094 14.800781 C 43.332031 14.828125 43.289062 14.859375 43.253906 14.898438 C 43.214844 14.933594 43.175781 14.976562 43.140625 15.019531 C 43.105469 15.0625 43.074219 15.105469 43.046875 15.148438 C 43.015625 15.195312 42.992188 15.238281 42.972656 15.28125 C 42.949219 15.324219 42.9375 15.363281 42.925781 15.402344 Z M 42.925781 15.402344 " fill-opacity="1" fill-rule="nonzero"/><path fill="#000000" d="M 45.835938 14.589844 C 45.796875 14.589844 45.75 14.601562 45.703125 14.621094 C 45.65625 14.640625 45.605469 14.667969 45.554688 14.699219 C 45.5 14.734375 45.449219 14.773438 45.394531 14.8125 C 45.34375 14.855469 45.289062 14.902344 45.238281 14.945312 C 45.210938 14.96875 45.1875 14.988281 45.164062 15.007812 C 45.140625 15.027344 45.113281 15.039062 45.089844 15.050781 C 45.074219 15.078125 45.054688 15.113281 45.039062 15.160156 C 45.019531 15.203125 45 15.253906 44.984375 15.308594 C 44.964844 15.359375 44.949219 15.414062 44.929688 15.46875 C 44.914062 15.527344 44.902344 15.578125 44.890625 15.625 C 44.886719 15.652344 44.878906 15.675781 44.875 15.699219 C 44.871094 15.722656 44.867188 15.75 44.863281 15.777344 C 44.859375 15.804688 44.851562 15.832031 44.847656 15.863281 C 44.839844 15.894531 44.832031 15.929688 44.820312 15.96875 C 44.816406 15.988281 44.808594 16.007812 44.792969 16.023438 C 44.78125 16.035156 44.765625 16.046875 44.753906 16.054688 C 44.738281 16.0625 44.722656 16.066406 44.710938 16.066406 C 44.699219 16.070312 44.6875 16.070312 44.679688 16.070312 C 44.632812 16.070312 44.597656 16.058594 44.570312 16.039062 C 44.539062 16.015625 44.523438 15.972656 44.523438 15.910156 C 44.523438 15.894531 44.527344 15.875 44.527344 15.859375 C 44.527344 15.839844 44.53125 15.820312 44.539062 15.796875 C 44.5625 15.683594 44.589844 15.582031 44.613281 15.488281 C 44.640625 15.398438 44.664062 15.3125 44.6875 15.234375 C 44.714844 15.15625 44.738281 15.085938 44.765625 15.015625 C 44.792969 14.945312 44.816406 14.878906 44.84375 14.808594 C 44.871094 14.738281 44.898438 14.664062 44.929688 14.589844 C 44.957031 14.515625 44.992188 14.433594 45.023438 14.339844 C 45.03125 14.320312 45.050781 14.304688 45.082031 14.289062 C 45.113281 14.277344 45.144531 14.269531 45.179688 14.269531 C 45.222656 14.269531 45.261719 14.28125 45.292969 14.300781 C 45.320312 14.320312 45.335938 14.347656 45.335938 14.386719 C 45.335938 14.390625 45.335938 14.398438 45.332031 14.40625 C 45.328125 14.417969 45.324219 14.425781 45.320312 14.4375 L 45.242188 14.625 C 45.292969 14.585938 45.34375 14.546875 45.398438 14.507812 C 45.453125 14.464844 45.511719 14.429688 45.566406 14.398438 C 45.625 14.367188 45.683594 14.34375 45.742188 14.320312 C 45.800781 14.300781 45.855469 14.292969 45.914062 14.292969 C 46.027344 14.292969 46.117188 14.324219 46.183594 14.382812 C 46.246094 14.445312 46.28125 14.542969 46.28125 14.671875 C 46.28125 14.746094 46.265625 14.832031 46.242188 14.925781 C 46.214844 15.019531 46.183594 15.121094 46.144531 15.230469 C 46.105469 15.335938 46.0625 15.453125 46.019531 15.570312 C 45.972656 15.691406 45.929688 15.8125 45.894531 15.933594 C 45.882812 15.96875 45.871094 15.996094 45.859375 16.019531 C 45.847656 16.042969 45.835938 16.058594 45.820312 16.074219 C 45.804688 16.085938 45.785156 16.097656 45.765625 16.101562 C 45.742188 16.109375 45.71875 16.113281 45.6875 16.113281 C 45.640625 16.113281 45.609375 16.105469 45.589844 16.085938 C 45.574219 16.070312 45.5625 16.042969 45.5625 16.003906 C 45.5625 15.96875 45.570312 15.929688 45.578125 15.878906 C 45.589844 15.832031 45.601562 15.777344 45.621094 15.71875 C 45.640625 15.660156 45.660156 15.601562 45.6875 15.535156 C 45.710938 15.46875 45.738281 15.402344 45.765625 15.332031 C 45.789062 15.277344 45.8125 15.222656 45.835938 15.167969 C 45.855469 15.113281 45.875 15.058594 45.894531 15.007812 C 45.910156 14.957031 45.925781 14.90625 45.9375 14.859375 C 45.945312 14.8125 45.953125 14.769531 45.953125 14.730469 C 45.953125 14.695312 45.945312 14.660156 45.929688 14.632812 C 45.914062 14.605469 45.882812 14.589844 45.835938 14.589844 Z M 45.835938 14.589844 " fill-opacity="1" fill-rule="nonzero"/><path fill="#000000" d="M 49.21875 13.792969 C 49.1875 13.804688 49.121094 13.828125 49.023438 13.867188 C 48.8125 13.945312 48.679688 13.988281 48.625 13.988281 C 48.585938 13.988281 48.558594 13.976562 48.539062 13.953125 C 48.519531 13.929688 48.511719 13.90625 48.511719 13.875 C 48.511719 13.792969 48.546875 13.726562 48.625 13.683594 C 48.699219 13.640625 48.855469 13.589844 49.09375 13.53125 C 49.332031 13.472656 49.476562 13.441406 49.527344 13.441406 C 49.601562 13.441406 49.636719 13.476562 49.636719 13.546875 C 49.636719 13.59375 49.613281 13.664062 49.5625 13.75 C 49.4375 13.960938 49.289062 14.304688 49.117188 14.78125 C 48.941406 15.261719 48.835938 15.648438 48.792969 15.941406 C 48.789062 15.984375 48.765625 16.019531 48.730469 16.042969 C 48.695312 16.066406 48.65625 16.082031 48.609375 16.082031 C 48.503906 16.082031 48.449219 16.03125 48.449219 15.9375 C 48.449219 15.78125 48.539062 15.457031 48.710938 14.964844 C 48.886719 14.472656 49.054688 14.082031 49.21875 13.792969 Z M 49.21875 13.792969 " fill-opacity="1" fill-rule="nonzero"/></svg>