<svg xmlns="http://www.w3.org/2000/svg" xmlns:xlink="http://www.w3.org/1999/xlink" width="40" zoomAndPan="magnify" viewBox="0 0 30 30.000001" height="40" preserveAspectRatio="xMidYMid meet" version="1.0"><defs><clipPath id="ec94cc31a6"><path d="M 0.484375 0 L 29.515625 0 L 29.515625 29.03125 L 0.484375 29.03125 Z M 0.484375 0 " clip-rule="nonzero"/></clipPath></defs><g clip-path="url(#ec94cc31a6)"><path fill="#000000" d="M 15 29.03125 C 6.996094 29.03125 0.484375 22.519531 0.484375 14.515625 C 0.484375 6.511719 6.996094 0 15 0 C 23.003906 0 29.515625 6.511719 29.515625 14.515625 C 29.515625 22.519531 23.003906 29.03125 15 29.03125 Z M 15 2.105469 C 8.15625 2.105469 2.585938 7.671875 2.585938 14.515625 C 2.585938 21.359375 8.15625 26.925781 15 26.925781 C 21.84375 26.925781 27.414062 21.359375 27.414062 14.515625 C 27.414062 7.671875 21.84375 2.105469 15 2.105469 Z M 15 2.105469 " fill-opacity="1" fill-rule="nonzero"/></g><path fill="#000000" d="M 15.300781 22.050781 C 15.1875 22.007812 15.066406 21.9375 15.066406 21.644531 C 15.066406 21.523438 15.085938 21.386719 15.128906 21.214844 L 16.960938 12.324219 C 17.003906 12.117188 17.023438 11.898438 17.023438 11.679688 C 17.023438 11.105469 16.847656 10.667969 16.496094 10.378906 C 15.714844 9.738281 14.34375 9.863281 12.066406 10.632812 L 11.84375 10.707031 L 11.753906 11.855469 L 12.136719 11.855469 C 13.296875 11.855469 13.578125 11.945312 13.636719 11.972656 C 13.714844 12.011719 13.757812 12.054688 13.757812 12.183594 C 13.757812 12.257812 13.746094 12.339844 13.726562 12.429688 C 13.707031 12.550781 13.679688 12.691406 13.652344 12.839844 L 11.972656 21.003906 C 11.894531 21.414062 11.851562 21.769531 11.851562 22.050781 C 11.851562 22.699219 12.039062 23.203125 12.40625 23.542969 C 12.765625 23.875 13.257812 24.042969 13.871094 24.042969 C 14.585938 24.042969 15.546875 23.84375 16.804688 23.4375 L 17.03125 23.363281 L 17.121094 22.203125 L 16.742188 22.203125 C 15.882812 22.203125 15.484375 22.117188 15.300781 22.050781 Z M 15.300781 22.050781 " fill-opacity="1" fill-rule="nonzero"/><path fill="#000000" d="M 17.710938 5.488281 C 17.367188 5.160156 16.921875 4.988281 16.394531 4.988281 C 15.84375 4.988281 15.378906 5.171875 15.011719 5.523438 C 14.644531 5.882812 14.457031 6.363281 14.457031 6.953125 C 14.457031 7.496094 14.636719 7.949219 14.988281 8.300781 C 15.339844 8.652344 15.789062 8.832031 16.320312 8.832031 C 16.867188 8.832031 17.328125 8.640625 17.695312 8.269531 C 18.058594 7.902344 18.242188 7.421875 18.242188 6.839844 C 18.242188 6.277344 18.066406 5.820312 17.710938 5.488281 Z M 17.710938 5.488281 " fill-opacity="1" fill-rule="nonzero"/></svg>