<svg xmlns="http://www.w3.org/2000/svg" xmlns:xlink="http://www.w3.org/1999/xlink" width="40" zoomAndPan="magnify" viewBox="0 0 30 30.000001" height="40" preserveAspectRatio="xMidYMid meet" version="1.0"><defs><clipPath id="280ad40d3c"><path d="M 1.410156 0 L 28.265625 0 L 28.265625 29.03125 L 1.410156 29.03125 Z M 1.410156 0 " clip-rule="nonzero"/></clipPath></defs><g clip-path="url(#280ad40d3c)"><path fill="#ffffff" d="M 19.328125 19.5 L 22.375 15.328125 C 22.703125 14.875 22.992188 14.394531 23.234375 13.890625 C 23.476562 13.386719 23.667969 12.863281 23.816406 12.320312 C 23.960938 11.78125 24.054688 11.230469 24.101562 10.671875 C 24.144531 10.113281 24.140625 9.558594 24.082031 9 C 24.023438 8.441406 23.914062 7.894531 23.757812 7.359375 C 23.597656 6.820312 23.394531 6.304688 23.140625 5.804688 C 22.886719 5.304688 22.589844 4.832031 22.246094 4.386719 C 21.90625 3.941406 21.527344 3.53125 21.113281 3.15625 C 20.695312 2.78125 20.25 2.449219 19.773438 2.15625 C 19.296875 1.863281 18.796875 1.617188 18.273438 1.414062 C 17.75 1.214844 17.210938 1.0625 16.660156 0.960938 C 16.109375 0.859375 15.554688 0.808594 14.996094 0.808594 C 14.433594 0.808594 13.878906 0.859375 13.328125 0.960938 C 12.777344 1.0625 12.242188 1.214844 11.71875 1.414062 C 11.195312 1.617188 10.695312 1.863281 10.21875 2.15625 C 9.742188 2.449219 9.292969 2.78125 8.878906 3.15625 C 8.460938 3.53125 8.085938 3.941406 7.742188 4.386719 C 7.402344 4.832031 7.105469 5.304688 6.851562 5.804688 C 6.597656 6.304688 6.390625 6.820312 6.234375 7.359375 C 6.074219 7.894531 5.96875 8.441406 5.910156 9 C 5.851562 9.558594 5.84375 10.113281 5.890625 10.671875 C 5.933594 11.230469 6.03125 11.78125 6.175781 12.320312 C 6.320312 12.863281 6.515625 13.386719 6.757812 13.890625 C 7 14.394531 7.285156 14.875 7.617188 15.328125 L 10.664062 19.5 C 5.601562 20.0625 1.410156 21.628906 1.410156 24.132812 C 1.410156 27.332031 8.242188 29.003906 14.996094 29.003906 C 21.746094 29.003906 28.582031 27.332031 28.582031 24.132812 C 28.582031 21.628906 24.390625 20.0625 19.328125 19.5 Z M 8.859375 14.421875 C 8.585938 14.042969 8.347656 13.644531 8.144531 13.226562 C 7.945312 12.804688 7.78125 12.371094 7.660156 11.921875 C 7.539062 11.472656 7.460938 11.015625 7.421875 10.550781 C 7.386719 10.085938 7.390625 9.621094 7.4375 9.160156 C 7.488281 8.695312 7.578125 8.238281 7.707031 7.792969 C 7.839844 7.347656 8.011719 6.914062 8.222656 6.5 C 8.433594 6.085938 8.679688 5.691406 8.964844 5.324219 C 9.246094 4.953125 9.5625 4.613281 9.90625 4.300781 C 10.253906 3.988281 10.625 3.710938 11.023438 3.464844 C 11.417969 3.222656 11.835938 3.019531 12.269531 2.851562 C 12.707031 2.683594 13.152344 2.558594 13.609375 2.472656 C 14.066406 2.386719 14.53125 2.34375 14.996094 2.34375 C 15.460938 2.34375 15.921875 2.386719 16.382812 2.472656 C 16.839844 2.558594 17.285156 2.683594 17.71875 2.851562 C 18.15625 3.019531 18.570312 3.222656 18.96875 3.464844 C 19.367188 3.710938 19.738281 3.988281 20.082031 4.300781 C 20.429688 4.613281 20.742188 4.953125 21.027344 5.324219 C 21.308594 5.691406 21.558594 6.085938 21.769531 6.5 C 21.980469 6.914062 22.152344 7.347656 22.28125 7.792969 C 22.414062 8.238281 22.503906 8.695312 22.550781 9.160156 C 22.601562 9.621094 22.605469 10.085938 22.566406 10.550781 C 22.53125 11.015625 22.453125 11.472656 22.332031 11.921875 C 22.207031 12.371094 22.046875 12.804688 21.847656 13.226562 C 21.644531 13.644531 21.40625 14.042969 21.132812 14.421875 L 14.996094 22.828125 Z M 14.996094 27.464844 C 7.640625 27.464844 2.949219 25.492188 2.949219 24.132812 C 2.949219 22.992188 6.28125 21.417969 11.714844 20.945312 L 14.375 24.585938 C 14.445312 24.6875 14.539062 24.765625 14.648438 24.820312 C 14.757812 24.875 14.871094 24.902344 14.996094 24.902344 C 15.117188 24.902344 15.234375 24.875 15.34375 24.820312 C 15.453125 24.765625 15.542969 24.6875 15.617188 24.585938 L 18.273438 20.945312 C 23.710938 21.414062 27.042969 22.992188 27.042969 24.132812 C 27.042969 25.492188 22.351562 27.464844 14.996094 27.464844 Z M 14.996094 27.464844 " fill-opacity="1" fill-rule="nonzero"/></g><path fill="#ffffff" d="M 19.476562 9.941406 C 19.476562 9.648438 19.449219 9.355469 19.390625 9.066406 C 19.335938 8.777344 19.25 8.5 19.136719 8.226562 C 19.023438 7.953125 18.886719 7.695312 18.722656 7.453125 C 18.558594 7.207031 18.375 6.980469 18.164062 6.773438 C 17.957031 6.566406 17.730469 6.378906 17.484375 6.214844 C 17.242188 6.050781 16.984375 5.914062 16.710938 5.800781 C 16.4375 5.6875 16.160156 5.601562 15.871094 5.546875 C 15.582031 5.488281 15.289062 5.460938 14.996094 5.460938 C 14.703125 5.460938 14.410156 5.488281 14.121094 5.546875 C 13.832031 5.601562 13.550781 5.6875 13.28125 5.800781 C 13.007812 5.914062 12.75 6.050781 12.503906 6.214844 C 12.261719 6.378906 12.035156 6.5625 11.828125 6.773438 C 11.617188 6.980469 11.433594 7.207031 11.269531 7.453125 C 11.105469 7.695312 10.96875 7.953125 10.855469 8.226562 C 10.742188 8.5 10.65625 8.777344 10.597656 9.066406 C 10.542969 9.355469 10.511719 9.648438 10.511719 9.941406 C 10.511719 10.234375 10.542969 10.527344 10.597656 10.816406 C 10.65625 11.105469 10.742188 11.386719 10.855469 11.65625 C 10.96875 11.929688 11.105469 12.1875 11.269531 12.433594 C 11.433594 12.675781 11.617188 12.902344 11.824219 13.113281 C 12.035156 13.320312 12.261719 13.503906 12.503906 13.667969 C 12.75 13.832031 13.007812 13.96875 13.28125 14.082031 C 13.550781 14.195312 13.832031 14.28125 14.121094 14.339844 C 14.410156 14.394531 14.699219 14.425781 14.996094 14.425781 C 15.289062 14.425781 15.582031 14.394531 15.871094 14.335938 C 16.15625 14.28125 16.4375 14.195312 16.710938 14.082031 C 16.980469 13.96875 17.238281 13.832031 17.484375 13.667969 C 17.730469 13.503906 17.957031 13.316406 18.164062 13.109375 C 18.371094 12.902344 18.558594 12.675781 18.722656 12.429688 C 18.882812 12.1875 19.023438 11.929688 19.136719 11.65625 C 19.25 11.386719 19.332031 11.105469 19.390625 10.816406 C 19.449219 10.527344 19.476562 10.238281 19.476562 9.941406 Z M 12.050781 9.941406 C 12.050781 9.550781 12.125 9.175781 12.273438 8.816406 C 12.425781 8.453125 12.636719 8.136719 12.914062 7.859375 C 13.191406 7.585938 13.507812 7.371094 13.867188 7.222656 C 14.230469 7.074219 14.605469 6.996094 14.996094 6.996094 C 15.386719 6.996094 15.761719 7.074219 16.121094 7.222656 C 16.484375 7.371094 16.800781 7.585938 17.078125 7.859375 C 17.355469 8.136719 17.566406 8.453125 17.714844 8.816406 C 17.863281 9.175781 17.941406 9.550781 17.941406 9.941406 C 17.941406 10.332031 17.863281 10.707031 17.714844 11.070312 C 17.566406 11.429688 17.355469 11.746094 17.078125 12.023438 C 16.800781 12.300781 16.484375 12.511719 16.121094 12.664062 C 15.761719 12.8125 15.386719 12.886719 14.996094 12.886719 C 14.605469 12.886719 14.230469 12.8125 13.871094 12.660156 C 13.507812 12.511719 13.191406 12.300781 12.914062 12.023438 C 12.636719 11.746094 12.425781 11.429688 12.277344 11.066406 C 12.125 10.707031 12.050781 10.332031 12.050781 9.941406 Z M 12.050781 9.941406 " fill-opacity="1" fill-rule="nonzero"/></svg>