<svg xmlns="http://www.w3.org/2000/svg" xmlns:xlink="http://www.w3.org/1999/xlink" width="40" zoomAndPan="magnify" viewBox="0 0 30 30.000001" height="40" preserveAspectRatio="xMidYMid meet" version="1.0"><defs><clipPath id="8bc00e078a"><path d="M 0.484375 6.796875 L 29.242188 6.796875 L 29.242188 22.035156 L 0.484375 22.035156 Z M 0.484375 6.796875 " clip-rule="nonzero"/></clipPath></defs><g clip-path="url(#8bc00e078a)"><path fill="#ffffff" d="M 7.160156 15 L 14.863281 17.6875 L 22.566406 15 L 22.566406 19.652344 C 22.566406 21.109375 19.117188 22.285156 14.863281 22.285156 C 10.609375 22.285156 7.160156 21.109375 7.160156 19.652344 Z M 14.863281 6.796875 L 29.242188 11.8125 L 27.117188 12.554688 L 27.117188 16.675781 L 27.175781 16.691406 C 27.496094 16.828125 27.71875 17.144531 27.71875 17.511719 C 27.71875 17.757812 27.617188 17.980469 27.457031 18.140625 L 27.445312 18.152344 L 27.941406 21.066406 L 25.71875 21.066406 L 26.214844 18.152344 L 26.199219 18.140625 C 26.039062 17.980469 25.941406 17.757812 25.941406 17.511719 C 25.941406 17.144531 26.164062 16.828125 26.484375 16.691406 L 26.542969 16.675781 L 26.542969 12.753906 L 14.863281 16.828125 L 0.484375 11.8125 Z M 14.863281 6.796875 " fill-opacity="1" fill-rule="evenodd"/></g></svg>