<svg xmlns="http://www.w3.org/2000/svg" xmlns:xlink="http://www.w3.org/1999/xlink" width="40" zoomAndPan="magnify" viewBox="0 0 30 30.000001" height="40" preserveAspectRatio="xMidYMid meet" version="1.0"><defs><clipPath id="c62b9e1824"><path d="M 0.484375 0 L 29.515625 0 L 29.515625 29.03125 L 0.484375 29.03125 Z M 0.484375 0 " clip-rule="nonzero"/></clipPath></defs><path fill="#ffffff" d="M 24.921875 9.875 C 24.921875 9.851562 24.921875 9.828125 24.917969 9.804688 C 24.898438 9.410156 24.804688 9.035156 24.640625 8.675781 C 24.476562 8.316406 24.253906 8 23.96875 7.730469 C 23.679688 7.457031 23.355469 7.246094 22.988281 7.097656 C 22.625 6.953125 22.242188 6.878906 21.847656 6.875 L 8.152344 6.875 C 7.757812 6.878906 7.375 6.953125 7.011719 7.097656 C 6.644531 7.246094 6.320312 7.457031 6.03125 7.730469 C 5.746094 8 5.523438 8.316406 5.359375 8.675781 C 5.195312 9.035156 5.101562 9.410156 5.082031 9.804688 C 5.082031 9.828125 5.078125 9.851562 5.078125 9.875 C 5.074219 9.898438 5.066406 9.933594 5.066406 9.960938 L 5.066406 19.070312 C 5.070312 19.480469 5.148438 19.875 5.304688 20.25 C 5.460938 20.628906 5.683594 20.960938 5.972656 21.25 C 6.261719 21.539062 6.59375 21.765625 6.972656 21.921875 C 7.351562 22.078125 7.742188 22.15625 8.152344 22.15625 L 21.847656 22.15625 C 22.257812 22.15625 22.648438 22.078125 23.027344 21.921875 C 23.40625 21.761719 23.738281 21.539062 24.027344 21.25 C 24.316406 20.960938 24.539062 20.628906 24.695312 20.25 C 24.851562 19.875 24.929688 19.480469 24.933594 19.070312 L 24.933594 9.960938 C 24.933594 9.933594 24.925781 9.902344 24.921875 9.875 Z M 8.152344 8.402344 L 21.847656 8.402344 C 22.195312 8.40625 22.503906 8.511719 22.78125 8.71875 C 23.058594 8.929688 23.242188 9.199219 23.335938 9.53125 L 15 14.394531 L 6.664062 9.53125 C 6.757812 9.199219 6.941406 8.929688 7.21875 8.71875 C 7.496094 8.511719 7.804688 8.40625 8.152344 8.402344 Z M 21.847656 20.628906 L 8.152344 20.628906 C 7.945312 20.628906 7.746094 20.589844 7.558594 20.507812 C 7.367188 20.429688 7.199219 20.316406 7.050781 20.171875 C 6.90625 20.027344 6.792969 19.859375 6.714844 19.667969 C 6.636719 19.476562 6.597656 19.277344 6.597656 19.070312 L 6.597656 11.261719 L 14.617188 15.941406 C 14.875 16.089844 15.132812 16.089844 15.386719 15.941406 L 23.402344 11.261719 L 23.402344 19.070312 C 23.402344 19.277344 23.363281 19.476562 23.285156 19.667969 C 23.207031 19.859375 23.09375 20.027344 22.949219 20.171875 C 22.800781 20.316406 22.632812 20.429688 22.441406 20.507812 C 22.253906 20.589844 22.054688 20.628906 21.847656 20.628906 Z M 21.847656 20.628906 " fill-opacity="1" fill-rule="nonzero"/><g clip-path="url(#c62b9e1824)"><path fill="#ffffff" d="M 15 0 C 14.046875 0 13.101562 0.09375 12.167969 0.277344 C 11.234375 0.464844 10.324219 0.738281 9.445312 1.105469 C 8.5625 1.46875 7.726562 1.917969 6.933594 2.445312 C 6.144531 2.976562 5.410156 3.578125 4.734375 4.25 C 4.0625 4.925781 3.460938 5.660156 2.929688 6.453125 C 2.402344 7.242188 1.953125 8.082031 1.589844 8.960938 C 1.222656 9.839844 0.949219 10.75 0.761719 11.683594 C 0.578125 12.617188 0.484375 13.5625 0.484375 14.515625 C 0.484375 15.46875 0.578125 16.414062 0.761719 17.347656 C 0.949219 18.28125 1.222656 19.191406 1.589844 20.070312 C 1.953125 20.953125 2.402344 21.789062 2.929688 22.582031 C 3.460938 23.375 4.0625 24.105469 4.734375 24.78125 C 5.410156 25.453125 6.144531 26.054688 6.933594 26.585938 C 7.726562 27.117188 8.5625 27.5625 9.445312 27.925781 C 10.324219 28.292969 11.234375 28.566406 12.167969 28.753906 C 13.101562 28.9375 14.046875 29.03125 15 29.03125 C 15.953125 29.03125 16.898438 28.9375 17.832031 28.753906 C 18.765625 28.566406 19.675781 28.292969 20.554688 27.925781 C 21.4375 27.5625 22.273438 27.117188 23.066406 26.585938 C 23.855469 26.054688 24.589844 25.453125 25.265625 24.78125 C 25.9375 24.105469 26.539062 23.375 27.070312 22.582031 C 27.597656 21.789062 28.046875 20.953125 28.410156 20.070312 C 28.777344 19.191406 29.050781 18.28125 29.238281 17.347656 C 29.421875 16.414062 29.515625 15.46875 29.515625 14.515625 C 29.515625 13.5625 29.421875 12.621094 29.234375 11.683594 C 29.046875 10.75 28.773438 9.84375 28.40625 8.964844 C 28.042969 8.082031 27.59375 7.246094 27.066406 6.457031 C 26.535156 5.664062 25.933594 4.929688 25.257812 4.257812 C 24.585938 3.582031 23.851562 2.980469 23.0625 2.453125 C 22.269531 1.921875 21.433594 1.472656 20.550781 1.109375 C 19.671875 0.742188 18.765625 0.46875 17.832031 0.28125 C 16.894531 0.09375 15.953125 0 15 0 Z M 15 27.503906 C 14.148438 27.503906 13.300781 27.421875 12.464844 27.253906 C 11.628906 27.089844 10.816406 26.84375 10.03125 26.515625 C 9.242188 26.1875 8.492188 25.789062 7.785156 25.316406 C 7.074219 24.839844 6.417969 24.304688 5.816406 23.699219 C 5.214844 23.097656 4.675781 22.441406 4.199219 21.730469 C 3.726562 21.023438 3.328125 20.273438 3 19.488281 C 2.675781 18.699219 2.429688 17.886719 2.261719 17.050781 C 2.09375 16.214844 2.011719 15.367188 2.011719 14.515625 C 2.011719 13.664062 2.09375 12.820312 2.261719 11.980469 C 2.429688 11.144531 2.675781 10.332031 3 9.546875 C 3.328125 8.757812 3.726562 8.007812 4.199219 7.300781 C 4.675781 6.589844 5.214844 5.933594 5.816406 5.332031 C 6.417969 4.730469 7.074219 4.191406 7.785156 3.71875 C 8.492188 3.242188 9.242188 2.84375 10.03125 2.515625 C 10.816406 2.191406 11.628906 1.945312 12.464844 1.777344 C 13.300781 1.609375 14.148438 1.527344 15 1.527344 C 15.851562 1.527344 16.699219 1.609375 17.535156 1.777344 C 18.371094 1.945312 19.183594 2.191406 19.96875 2.515625 C 20.757812 2.84375 21.507812 3.242188 22.214844 3.71875 C 22.925781 4.191406 23.582031 4.730469 24.183594 5.332031 C 24.785156 5.933594 25.324219 6.589844 25.800781 7.300781 C 26.273438 8.007812 26.671875 8.757812 27 9.546875 C 27.324219 10.332031 27.570312 11.144531 27.738281 11.980469 C 27.90625 12.820312 27.988281 13.664062 27.988281 14.515625 C 27.988281 15.367188 27.902344 16.214844 27.734375 17.050781 C 27.570312 17.886719 27.324219 18.695312 26.996094 19.484375 C 26.667969 20.273438 26.269531 21.019531 25.792969 21.726562 C 25.320312 22.4375 24.78125 23.09375 24.179688 23.695312 C 23.578125 24.296875 22.921875 24.835938 22.210938 25.3125 C 21.503906 25.785156 20.753906 26.183594 19.96875 26.511719 C 19.179688 26.839844 18.367188 27.085938 17.53125 27.253906 C 16.695312 27.417969 15.851562 27.503906 15 27.503906 Z M 15 27.503906 " fill-opacity="1" fill-rule="nonzero"/></g></svg>