<svg xmlns="http://www.w3.org/2000/svg" xmlns:xlink="http://www.w3.org/1999/xlink" width="40" zoomAndPan="magnify" viewBox="0 0 30 30.000001" height="40" preserveAspectRatio="xMidYMid meet" version="1.0"><defs><clipPath id="23f6171a36"><path d="M 0.808594 0.328125 L 29.117188 0.328125 L 29.117188 28.632812 L 0.808594 28.632812 Z M 0.808594 0.328125 " clip-rule="nonzero"/></clipPath></defs><g clip-path="url(#23f6171a36)"><path fill="#ffffff" d="M 20.597656 1.40625 C 22.3125 2.117188 23.828125 3.136719 25.101562 4.410156 C 26.375 5.683594 27.394531 7.199219 28.105469 8.914062 C 28.800781 10.621094 29.183594 12.507812 29.183594 14.515625 C 29.183594 16.519531 28.800781 18.40625 28.105469 20.113281 C 27.394531 21.828125 26.375 23.34375 25.101562 24.617188 C 23.828125 25.890625 22.3125 26.910156 20.597656 27.621094 C 18.890625 28.316406 17.003906 28.699219 14.996094 28.699219 C 12.992188 28.699219 11.105469 28.316406 9.398438 27.621094 C 7.683594 26.910156 6.167969 25.890625 4.894531 24.617188 C 3.621094 23.34375 2.601562 21.828125 1.890625 20.113281 C 1.195312 18.40625 0.808594 16.519531 0.808594 14.515625 C 0.808594 12.507812 1.195312 10.621094 1.890625 8.914062 C 2.601562 7.199219 3.621094 5.683594 4.894531 4.410156 C 6.167969 3.136719 7.683594 2.117188 9.398438 1.40625 C 11.105469 0.710938 12.992188 0.328125 14.996094 0.328125 C 17.003906 0.328125 18.890625 0.710938 20.597656 1.40625 Z M 20.257812 26.765625 C 21.84375 26.117188 23.273438 25.15625 24.464844 23.980469 C 25.640625 22.789062 26.601562 21.359375 27.25 19.777344 C 27.910156 18.164062 28.273438 16.398438 28.273438 14.515625 C 28.273438 12.628906 27.910156 10.863281 27.25 9.253906 C 26.601562 7.667969 25.640625 6.238281 24.464844 5.046875 C 23.273438 3.871094 21.84375 2.910156 20.257812 2.261719 C 18.648438 1.601562 16.882812 1.238281 14.996094 1.238281 C 13.113281 1.238281 11.347656 1.601562 9.734375 2.261719 C 8.148438 2.910156 6.722656 3.871094 5.53125 5.046875 C 4.355469 6.238281 3.394531 7.667969 2.746094 9.253906 C 2.082031 10.863281 1.722656 12.628906 1.722656 14.515625 C 1.722656 16.398438 2.082031 18.164062 2.746094 19.777344 C 3.394531 21.359375 4.355469 22.789062 5.53125 23.980469 C 6.722656 25.15625 8.148438 26.117188 9.734375 26.765625 C 11.347656 27.429688 13.113281 27.789062 14.996094 27.789062 C 16.882812 27.789062 18.648438 27.429688 20.257812 26.765625 Z M 20.257812 26.765625 " fill-opacity="1" fill-rule="evenodd"/></g><path fill="#ffffff" d="M 12.621094 8.773438 C 12.59375 8.773438 12.570312 8.785156 12.546875 8.796875 C 12.488281 8.820312 12.4375 8.855469 12.390625 8.890625 C 12.355469 8.941406 12.320312 8.988281 12.292969 9.046875 C 12.28125 9.070312 12.269531 9.097656 12.269531 9.121094 C 12.257812 9.144531 12.257812 9.15625 12.257812 9.179688 L 12.257812 9.648438 L 17.664062 9.648438 L 17.664062 9.179688 C 17.664062 9.15625 17.664062 9.144531 17.652344 9.121094 C 17.652344 9.097656 17.640625 9.070312 17.628906 9.046875 C 17.605469 9 17.570312 8.941406 17.519531 8.902344 C 17.472656 8.855469 17.425781 8.820312 17.363281 8.796875 C 17.339844 8.785156 17.316406 8.773438 17.292969 8.773438 C 17.269531 8.757812 17.257812 8.757812 17.230469 8.757812 L 12.679688 8.757812 C 12.65625 8.757812 12.644531 8.757812 12.621094 8.773438 Z M 11.347656 9.179688 C 11.347656 9.085938 11.359375 9 11.382812 8.914062 C 11.394531 8.832031 11.429688 8.746094 11.464844 8.664062 C 11.527344 8.507812 11.632812 8.375 11.753906 8.253906 C 11.875 8.136719 12.007812 8.027344 12.164062 7.96875 C 12.246094 7.929688 12.332031 7.894531 12.414062 7.882812 C 12.5 7.859375 12.582031 7.847656 12.679688 7.847656 L 17.230469 7.847656 C 17.328125 7.847656 17.414062 7.859375 17.496094 7.882812 C 17.582031 7.894531 17.664062 7.929688 17.75 7.96875 C 17.90625 8.027344 18.035156 8.136719 18.15625 8.253906 C 18.289062 8.363281 18.386719 8.507812 18.457031 8.664062 C 18.492188 8.734375 18.53125 8.820312 18.542969 8.902344 C 18.566406 9 18.578125 9.085938 18.578125 9.179688 L 18.578125 9.648438 L 21.894531 9.648438 C 22.589844 9.648438 23.296875 10.34375 23.296875 11.042969 L 23.296875 12.304688 L 16.007812 14.695312 C 15.957031 14.671875 15.910156 14.65625 15.875 14.644531 C 15.828125 14.632812 15.765625 14.632812 15.71875 14.632812 L 14.203125 14.632812 C 14.15625 14.632812 14.097656 14.632812 14.046875 14.644531 C 14.011719 14.65625 13.964844 14.671875 13.929688 14.683594 L 6.636719 12.304688 L 6.636719 11.042969 C 6.636719 10.34375 7.332031 9.648438 8.03125 9.648438 L 11.347656 9.648438 Z M 14.191406 15.246094 L 15.730469 15.246094 C 15.742188 15.246094 15.753906 15.246094 15.765625 15.246094 C 15.777344 15.257812 15.800781 15.269531 15.816406 15.292969 C 15.839844 15.308594 15.851562 15.332031 15.863281 15.34375 C 15.863281 15.355469 15.863281 15.355469 15.863281 15.367188 L 15.875 15.378906 L 15.875 15.894531 L 15.863281 15.90625 C 15.863281 15.917969 15.863281 15.929688 15.863281 15.929688 C 15.851562 15.957031 15.839844 15.980469 15.816406 15.992188 C 15.800781 16.015625 15.777344 16.027344 15.753906 16.039062 C 15.753906 16.039062 15.742188 16.039062 15.730469 16.039062 L 15.71875 16.050781 L 14.203125 16.050781 L 14.191406 16.039062 C 14.179688 16.039062 14.167969 16.039062 14.167969 16.039062 C 14.144531 16.027344 14.121094 16.015625 14.109375 15.992188 C 14.085938 15.980469 14.074219 15.957031 14.0625 15.929688 C 14.0625 15.929688 14.0625 15.917969 14.0625 15.90625 L 14.0625 15.367188 C 14.0625 15.355469 14.0625 15.355469 14.0625 15.34375 C 14.074219 15.332031 14.085938 15.308594 14.109375 15.292969 C 14.121094 15.269531 14.144531 15.257812 14.15625 15.246094 C 14.167969 15.246094 14.179688 15.246094 14.191406 15.246094 Z M 16.464844 15.222656 C 16.464844 15.210938 16.453125 15.199219 16.453125 15.1875 L 23.296875 12.941406 L 23.296875 19.257812 C 23.296875 19.957031 22.589844 20.664062 21.894531 20.664062 L 8.03125 20.664062 C 7.332031 20.664062 6.636719 19.957031 6.636719 19.257812 L 6.636719 12.941406 L 13.472656 15.1875 C 13.472656 15.199219 13.460938 15.210938 13.460938 15.222656 C 13.449219 15.269531 13.449219 15.332031 13.449219 15.378906 L 13.449219 15.894531 C 13.449219 15.945312 13.449219 16.003906 13.460938 16.050781 C 13.472656 16.097656 13.484375 16.148438 13.507812 16.195312 C 13.542969 16.28125 13.605469 16.351562 13.675781 16.425781 C 13.75 16.496094 13.820312 16.554688 13.90625 16.59375 C 13.953125 16.617188 14 16.628906 14.046875 16.640625 C 14.097656 16.652344 14.15625 16.664062 14.203125 16.664062 L 15.71875 16.664062 C 15.765625 16.664062 15.828125 16.652344 15.875 16.640625 C 15.921875 16.628906 15.972656 16.617188 16.019531 16.59375 C 16.101562 16.554688 16.175781 16.496094 16.246094 16.425781 C 16.320312 16.351562 16.378906 16.28125 16.414062 16.195312 C 16.4375 16.148438 16.453125 16.097656 16.464844 16.050781 C 16.476562 16.003906 16.488281 15.945312 16.488281 15.894531 L 16.488281 15.378906 C 16.488281 15.332031 16.476562 15.269531 16.464844 15.222656 Z M 16.464844 15.222656 " fill-opacity="1" fill-rule="evenodd"/></svg>