<svg xmlns="http://www.w3.org/2000/svg" xmlns:xlink="http://www.w3.org/1999/xlink" width="140" zoomAndPan="magnify" viewBox="0 0 104.88 104.999996" height="140" preserveAspectRatio="xMidYMid meet" version="1.0"><defs><clipPath id="b57bba4ac7"><path d="M 36.640625 19.042969 L 68.101562 19.042969 L 68.101562 85.714844 L 36.640625 85.714844 Z M 36.640625 19.042969 " clip-rule="nonzero"/></clipPath></defs><g clip-path="url(#b57bba4ac7)"><path fill="#ffffff" d="M 60.84375 30.117188 L 68.101562 30.117188 L 68.101562 19.164062 L 58.835938 19.164062 L 58.835938 19.207031 C 46.648438 19.65625 44.136719 26.484375 43.925781 33.707031 L 43.898438 33.707031 L 43.898438 41.304688 L 36.640625 41.304688 L 36.640625 52.269531 L 43.898438 52.269531 L 43.898438 85.59375 L 56.921875 85.59375 L 56.921875 52.269531 L 66.261719 52.269531 L 68.101562 41.304688 L 56.921875 41.304688 L 56.921875 34.5 C 56.921875 32.085938 58.542969 30.117188 60.84375 30.117188 Z M 60.84375 30.117188 " fill-opacity="1" fill-rule="nonzero"/></g></svg>