<svg xmlns="http://www.w3.org/2000/svg" xmlns:xlink="http://www.w3.org/1999/xlink" width="40" zoomAndPan="magnify" viewBox="0 0 30 30.000001" height="40" preserveAspectRatio="xMidYMid meet" version="1.0"><defs><clipPath id="fff07d4d28"><path d="M 1 1.324219 L 29 1.324219 L 29 14 L 1 14 Z M 1 1.324219 " clip-rule="nonzero"/></clipPath><clipPath id="cab595c991"><path d="M 4 7 L 27 7 L 27 27.453125 L 4 27.453125 Z M 4 7 " clip-rule="nonzero"/></clipPath></defs><g clip-path="url(#fff07d4d28)"><path fill="#000000" d="M 28.296875 10.5 L 23.828125 7.246094 L 23.828125 3.363281 C 23.828125 2.753906 23.328125 2.261719 22.714844 2.261719 L 20.90625 2.261719 C 20.292969 2.261719 19.792969 2.753906 19.792969 3.363281 L 19.792969 4.304688 L 16.386719 1.824219 C 15.648438 1.285156 14.4375 1.285156 13.699219 1.824219 L 1.792969 10.5 C 1.050781 11.039062 0.894531 12.082031 1.4375 12.816406 L 1.765625 13.257812 C 2.308594 13.988281 3.359375 14.148438 4.097656 13.609375 L 13.699219 6.609375 C 14.4375 6.070312 15.648438 6.070312 16.386719 6.609375 L 25.988281 13.609375 C 26.726562 14.148438 27.777344 13.988281 28.320312 13.257812 L 28.648438 12.816406 C 29.191406 12.082031 29.035156 11.039062 28.296875 10.5 Z M 28.296875 10.5 " fill-opacity="1" fill-rule="nonzero"/></g><g clip-path="url(#cab595c991)"><path fill="#000000" d="M 24.734375 14.21875 L 16.386719 8.105469 C 15.648438 7.566406 14.441406 7.566406 13.703125 8.105469 L 5.355469 14.21875 C 4.617188 14.757812 4.011719 15.550781 4.011719 15.976562 L 4.011719 24.839844 C 4.011719 26.277344 5.257812 27.445312 6.792969 27.445312 L 11.890625 27.445312 L 11.890625 19.605469 C 11.890625 19 12.390625 18.507812 13.003906 18.507812 L 17.082031 18.507812 C 17.695312 18.507812 18.195312 19 18.195312 19.605469 L 18.195312 27.445312 L 23.292969 27.445312 C 24.828125 27.445312 26.074219 26.277344 26.074219 24.839844 L 26.074219 15.976562 C 26.074219 15.550781 25.472656 14.757812 24.734375 14.21875 Z M 24.734375 14.21875 " fill-opacity="1" fill-rule="nonzero"/></g></svg>