<svg xmlns="http://www.w3.org/2000/svg" xmlns:xlink="http://www.w3.org/1999/xlink" width="40" zoomAndPan="magnify" viewBox="0 0 30 30.000001" height="40" preserveAspectRatio="xMidYMid meet" version="1.0"><defs><clipPath id="1d60ef7cbc"><path d="M 0.554688 0 L 29.515625 0 L 29.515625 29.03125 L 0.554688 29.03125 Z M 0.554688 0 " clip-rule="nonzero"/></clipPath></defs><g clip-path="url(#1d60ef7cbc)"><path fill="#ffffff" d="M 20.609375 20.460938 C 21.039062 21 20.523438 21.601562 20.277344 21.828125 C 19.960938 22.128906 19.550781 22.375 19.046875 22.566406 C 18.792969 22.660156 18.589844 22.71875 18.394531 22.742188 L 18.28125 22.757812 C 17.789062 22.8125 17.234375 22.761719 16.582031 22.617188 C 15.292969 22.34375 14.097656 21.5625 12.917969 20.234375 C 12.742188 20.0625 11.398438 18.714844 10.539062 16.816406 C 9.675781 14.890625 9.570312 13.011719 9.5625 12.804688 C 9.347656 10.992188 9.566406 9.578125 10.203125 8.4375 C 10.554688 7.808594 10.921875 7.332031 11.316406 6.992188 C 11.457031 6.867188 11.640625 6.75 11.886719 6.621094 C 12.34375 6.390625 12.792969 6.246094 13.214844 6.203125 C 13.480469 6.175781 14.371094 6.152344 14.488281 6.851562 L 14.601562 8.058594 C 14.65625 8.59375 14.773438 9.953125 14.773438 9.953125 C 14.859375 10.808594 14.757812 11.265625 13.921875 11.378906 C 13.859375 11.382812 13.796875 11.375 13.71875 11.375 C 13.53125 11.355469 13.363281 11.347656 13.214844 11.347656 L 12.605469 11.351562 L 12.621094 11.957031 C 12.632812 12.640625 12.875 14.390625 13.390625 15.542969 C 13.871094 16.605469 14.976562 17.960938 15.558594 18.496094 L 16.007812 18.90625 L 16.414062 18.449219 C 16.503906 18.34375 16.605469 18.210938 16.664062 18.136719 C 16.765625 18 16.8125 17.933594 16.855469 17.898438 C 17.070312 17.714844 17.265625 17.613281 17.464844 17.59375 C 17.851562 17.554688 18.140625 17.835938 18.476562 18.207031 Z M 29.507812 14.515625 C 29.507812 22.523438 23.027344 29.015625 15.03125 29.015625 C 7.035156 29.015625 0.554688 22.523438 0.554688 14.515625 C 0.554688 6.511719 7.035156 0.015625 15.03125 0.015625 C 23.027344 0.015625 29.507812 6.511719 29.507812 14.515625 Z M 27.308594 14.515625 C 27.308594 7.726562 21.8125 2.222656 15.03125 2.222656 C 8.253906 2.222656 2.757812 7.726562 2.757812 14.515625 C 2.757812 21.304688 8.253906 26.8125 15.03125 26.8125 C 21.8125 26.8125 27.308594 21.304688 27.308594 14.515625 Z M 27.308594 14.515625 " fill-opacity="1" fill-rule="nonzero"/></g></svg>