<svg xmlns="http://www.w3.org/2000/svg" xmlns:xlink="http://www.w3.org/1999/xlink" width="40" zoomAndPan="magnify" viewBox="0 0 30 30.000001" height="40" preserveAspectRatio="xMidYMid meet" version="1.0"><defs><clipPath id="5cd1e364d3"><path d="M 2 0.128906 L 29.515625 0.128906 L 29.515625 27 L 2 27 Z M 2 0.128906 " clip-rule="nonzero"/></clipPath></defs><g clip-path="url(#5cd1e364d3)"><path fill="#ffffff" d="M 22.746094 17.375 C 22.28125 17.101562 21.707031 17.105469 21.242188 17.382812 L 18.886719 18.785156 C 18.359375 19.097656 17.703125 19.0625 17.21875 18.683594 C 16.382812 18.03125 15.039062 16.933594 13.867188 15.765625 C 12.699219 14.59375 11.601562 13.25 10.949219 12.414062 C 10.570312 11.929688 10.535156 11.273438 10.847656 10.746094 L 12.25 8.394531 C 12.527344 7.929688 12.53125 7.347656 12.257812 6.882812 L 8.804688 0.984375 C 8.46875 0.414062 7.804688 0.132812 7.160156 0.289062 C 6.535156 0.441406 5.726562 0.8125 4.875 1.664062 C 2.214844 4.324219 0.800781 8.816406 10.808594 18.824219 C 20.820312 28.835938 25.308594 27.425781 27.972656 24.761719 C 28.824219 23.910156 29.195312 23.097656 29.347656 22.46875 C 29.503906 21.828125 29.226562 21.167969 28.65625 20.835938 C 27.234375 20.003906 24.167969 18.207031 22.746094 17.375 Z M 22.746094 17.375 " fill-opacity="1" fill-rule="nonzero"/></g></svg>