<svg xmlns="http://www.w3.org/2000/svg" xmlns:xlink="http://www.w3.org/1999/xlink" width="40" zoomAndPan="magnify" viewBox="0 0 30 30.000001" height="40" preserveAspectRatio="xMidYMid meet" version="1.0"><defs><clipPath id="a1eebfa9ad"><path d="M 1.664062 0 L 28.519531 0 L 28.519531 29 L 1.664062 29 Z M 1.664062 0 " clip-rule="nonzero"/></clipPath></defs><g clip-path="url(#a1eebfa9ad)"><path fill="#000000" d="M 16.625 0.15625 L 11.945312 2.839844 L 9.070312 2.839844 C 8.996094 2.839844 8.941406 2.871094 8.902344 2.910156 L 6.371094 5.421875 C 6.316406 5.476562 6.296875 5.539062 6.296875 5.601562 L 6.296875 6.074219 L 1.816406 8.648438 C 1.699219 8.710938 1.660156 8.859375 1.726562 8.972656 L 6.296875 16.835938 L 6.296875 25.914062 C 6.296875 26.046875 6.40625 26.15625 6.539062 26.15625 L 11.71875 26.15625 L 13.226562 28.75 C 13.292969 28.863281 13.441406 28.902344 13.554688 28.835938 L 18.234375 26.15625 L 23.640625 26.15625 C 23.773438 26.15625 23.882812 26.046875 23.882812 25.914062 L 23.882812 22.917969 L 28.367188 20.347656 C 28.480469 20.28125 28.519531 20.136719 28.453125 20.019531 L 25.816406 15.480469 L 27.464844 12.640625 C 27.523438 12.949219 27.53125 13.273438 27.441406 13.609375 L 26.4375 15.339844 C 26.261719 15.621094 26.699219 15.871094 26.855469 15.582031 L 27.882812 13.8125 C 27.894531 13.796875 27.902344 13.777344 27.90625 13.753906 C 28.023438 13.3125 28.082031 12.632812 27.714844 11.855469 C 27.417969 11.273438 26.902344 10.820312 26.234375 10.644531 C 26.105469 10.609375 26.007812 10.679688 25.960938 10.757812 L 24.515625 13.246094 L 23.882812 12.160156 L 23.882812 3.078125 C 23.882812 2.945312 23.773438 2.839844 23.640625 2.839844 L 18.464844 2.839844 L 16.953125 0.246094 C 16.882812 0.121094 16.738281 0.09375 16.625 0.15625 Z M 16.65625 0.691406 L 17.90625 2.839844 L 12.910156 2.839844 Z M 9.3125 3.316406 L 23.398438 3.316406 L 23.398438 15.164062 L 21.074219 19.160156 L 11.847656 19.160156 C 11.523438 19.160156 11.523438 19.640625 11.847656 19.640625 L 20.796875 19.640625 C 20.761719 19.6875 20.746094 19.738281 20.746094 19.792969 L 20.777344 21.5 C 20.777344 21.683594 20.972656 21.792969 21.132812 21.707031 L 22.636719 20.878906 C 22.675781 20.859375 22.707031 20.824219 22.730469 20.789062 C 22.953125 20.40625 23.175781 20.019531 23.402344 19.632812 L 23.402344 25.675781 L 6.78125 25.675781 L 6.78125 5.832031 L 9.070312 5.832031 C 9.207031 5.832031 9.3125 5.722656 9.3125 5.59375 Z M 8.832031 3.65625 L 8.832031 5.351562 L 7.121094 5.351562 Z M 15.089844 4.886719 C 13.886719 4.886719 12.792969 5.375 12 6.160156 C 11.210938 6.945312 10.722656 8.03125 10.722656 9.226562 C 10.722656 9.546875 11.203125 9.546875 11.203125 9.226562 C 11.203125 8.160156 11.640625 7.195312 12.34375 6.5 C 13.046875 5.800781 14.015625 5.367188 15.089844 5.367188 C 16.164062 5.367188 17.136719 5.800781 17.839844 6.5 C 18.542969 7.195312 18.976562 8.160156 18.976562 9.226562 C 18.980469 9.546875 19.457031 9.546875 19.460938 9.226562 C 19.460938 8.03125 18.96875 6.945312 18.179688 6.160156 C 17.390625 5.375 16.296875 4.886719 15.089844 4.886719 Z M 15.089844 5.964844 C 14.296875 5.964844 13.648438 6.605469 13.648438 7.394531 L 13.648438 8.347656 C 13.648438 9.132812 14.296875 9.777344 15.089844 9.777344 C 15.882812 9.777344 16.53125 9.132812 16.53125 8.347656 L 16.53125 7.394531 C 16.53125 6.605469 15.882812 5.964844 15.089844 5.964844 Z M 15.089844 6.441406 C 15.625 6.441406 16.050781 6.863281 16.050781 7.394531 L 16.050781 8.347656 C 16.050781 8.875 15.625 9.296875 15.089844 9.296875 C 14.554688 9.296875 14.132812 8.875 14.132812 8.347656 L 14.132812 7.394531 C 14.132812 6.863281 14.554688 6.441406 15.089844 6.441406 Z M 6.300781 6.628906 L 6.300781 15.878906 L 2.265625 8.941406 Z M 16.285156 9.710938 L 15.089844 10.339844 L 13.898438 9.710938 C 13.832031 9.679688 13.78125 9.679688 13.707031 9.695312 L 13.007812 9.933594 C 12.507812 10.097656 12.097656 10.429688 11.972656 10.988281 L 11.882812 11.40625 C 11.738281 11.195312 11.613281 10.96875 11.511719 10.730469 C 11.472656 10.636719 11.382812 10.578125 11.28125 10.578125 C 11.109375 10.582031 10.996094 10.757812 11.066406 10.914062 C 11.285156 11.433594 11.605469 11.902344 12.003906 12.296875 C 12.792969 13.082031 13.886719 13.566406 15.089844 13.566406 C 16.296875 13.566406 17.390625 13.082031 18.179688 12.296875 C 18.574219 11.902344 18.894531 11.433594 19.117188 10.914062 C 19.25 10.617188 18.792969 10.425781 18.671875 10.730469 C 18.570312 10.96875 18.445312 11.195312 18.296875 11.40625 L 18.207031 10.988281 C 18.085938 10.429688 17.675781 10.097656 17.175781 9.933594 L 16.472656 9.695312 C 16.40625 9.671875 16.332031 9.6875 16.285156 9.710938 Z M 13.765625 10.183594 L 14.851562 10.753906 L 14.851562 13.078125 C 13.773438 12.972656 12.929688 12.578125 12.273438 11.882812 L 12.445312 11.089844 C 12.53125 10.695312 12.75 10.523438 13.160156 10.386719 Z M 16.417969 10.183594 L 17.019531 10.386719 C 17.433594 10.523438 17.648438 10.695312 17.738281 11.089844 L 17.910156 11.882812 C 16.941406 12.84375 16.046875 13.023438 15.332031 13.078125 L 15.332031 10.753906 Z M 26.269531 11.1875 C 26.699219 11.347656 27.054688 11.632812 27.269531 12.023438 L 25.085938 15.777344 L 23.972656 15.140625 Z M 23.882812 13.117188 L 24.238281 13.726562 L 23.882812 14.332031 Z M 11.996094 14.597656 C 11.675781 14.597656 11.675781 15.074219 11.996094 15.074219 L 18.1875 15.074219 C 18.507812 15.074219 18.507812 14.597656 18.1875 14.597656 Z M 23.730469 15.554688 L 24.84375 16.195312 L 22.433594 20.339844 L 21.316406 19.703125 Z M 19.222656 15.621094 C 19.222656 15.621094 19.21875 15.621094 19.21875 15.621094 L 10.960938 15.621094 C 10.628906 15.605469 10.628906 16.113281 10.960938 16.097656 L 19.21875 16.097656 C 19.550781 16.113281 19.554688 15.613281 19.222656 15.621094 Z M 25.535156 15.960938 L 27.914062 20.054688 L 23.882812 22.363281 L 23.882812 18.804688 C 24.433594 17.855469 24.984375 16.910156 25.535156 15.960938 Z M 9.488281 17.769531 C 8.871094 17.769531 8.363281 18.273438 8.363281 18.890625 C 8.363281 19.503906 8.871094 20.003906 9.488281 20.003906 C 10.109375 20.003906 10.613281 19.503906 10.613281 18.890625 C 10.613281 18.273438 10.109375 17.769531 9.488281 17.769531 Z M 11.847656 18.136719 C 11.527344 18.136719 11.527344 18.617188 11.847656 18.617188 L 16.714844 18.617188 C 17.035156 18.617188 17.035156 18.136719 16.714844 18.136719 Z M 9.488281 18.25 C 9.847656 18.25 10.132812 18.53125 10.132812 18.890625 C 10.132812 19.246094 9.847656 19.527344 9.488281 19.527344 C 9.128906 19.527344 8.847656 19.246094 8.847656 18.890625 C 8.847656 18.53125 9.128906 18.25 9.488281 18.25 Z M 21.234375 20.210938 L 22.03125 20.664062 L 21.25 21.09375 Z M 9.488281 21.429688 C 8.871094 21.429688 8.363281 21.933594 8.363281 22.546875 C 8.363281 23.164062 8.871094 23.667969 9.488281 23.667969 C 10.109375 23.667969 10.613281 23.164062 10.613281 22.546875 C 10.613281 21.933594 10.109375 21.429688 9.488281 21.429688 Z M 11.847656 21.796875 C 11.527344 21.796875 11.527344 22.277344 11.847656 22.277344 L 16.714844 22.277344 C 17.035156 22.277344 17.035156 21.796875 16.714844 21.796875 Z M 9.488281 21.910156 C 9.847656 21.910156 10.132812 22.191406 10.132812 22.546875 C 10.132812 22.902344 9.847656 23.1875 9.488281 23.1875 C 9.128906 23.1875 8.847656 22.902344 8.847656 22.546875 C 8.847656 22.191406 9.128906 21.910156 9.488281 21.910156 Z M 11.847656 22.820312 C 11.523438 22.820312 11.523438 23.300781 11.847656 23.300781 L 21.578125 23.300781 C 21.898438 23.300781 21.898438 22.820312 21.578125 22.820312 Z M 12.273438 26.15625 L 17.273438 26.15625 L 13.523438 28.304688 Z M 12.273438 26.15625 " fill-opacity="1" fill-rule="nonzero"/></g></svg>