<svg xmlns="http://www.w3.org/2000/svg" xmlns:xlink="http://www.w3.org/1999/xlink" width="85" zoomAndPan="magnify" viewBox="0 0 63.75 22.5" height="30" preserveAspectRatio="xMidYMid meet" version="1.0"><defs><clipPath id="6978af4f59"><path d="M 35 0 L 62.871094 0 L 62.871094 21.277344 L 35 21.277344 Z M 35 0 " clip-rule="nonzero"/></clipPath><clipPath id="302bf0f6a6"><path d="M 0.589844 15.660156 L 5.636719 15.660156 L 5.636719 20.515625 L 0.589844 20.515625 Z M 0.589844 15.660156 " clip-rule="nonzero"/></clipPath><clipPath id="8d89d27dfa"><path d="M 8.019531 10.707031 L 13.15625 10.707031 L 13.15625 20.515625 L 8.019531 20.515625 Z M 8.019531 10.707031 " clip-rule="nonzero"/></clipPath><clipPath id="935bc434a8"><path d="M 15.542969 5.660156 L 20.679688 5.660156 L 20.679688 20.515625 L 15.542969 20.515625 Z M 15.542969 5.660156 " clip-rule="nonzero"/></clipPath><clipPath id="729e4468e4"><path d="M 23.066406 0.707031 L 28.109375 0.707031 L 28.109375 20.515625 L 23.066406 20.515625 Z M 23.066406 0.707031 " clip-rule="nonzero"/></clipPath></defs><g clip-path="url(#6978af4f59)"><path fill="#ffffff" d="M 61.097656 7.773438 C 60.726562 7.773438 60.410156 7.640625 60.148438 7.378906 C 53.882812 1.113281 43.683594 1.113281 37.414062 7.378906 C 37.289062 7.503906 37.144531 7.601562 36.980469 7.667969 C 36.816406 7.734375 36.644531 7.765625 36.46875 7.765625 C 36.292969 7.765625 36.121094 7.730469 35.957031 7.664062 C 35.792969 7.597656 35.648438 7.5 35.523438 7.375 C 35.398438 7.25 35.304688 7.105469 35.234375 6.941406 C 35.167969 6.777344 35.132812 6.609375 35.132812 6.429688 C 35.132812 6.253906 35.164062 6.082031 35.234375 5.917969 C 35.300781 5.757812 35.394531 5.609375 35.519531 5.484375 C 39.058594 1.949219 43.765625 0 48.78125 0 C 53.796875 0 58.507812 1.949219 62.042969 5.484375 C 62.234375 5.675781 62.355469 5.90625 62.410156 6.171875 C 62.460938 6.4375 62.4375 6.695312 62.332031 6.945312 C 62.230469 7.195312 62.066406 7.394531 61.839844 7.546875 C 61.613281 7.695312 61.367188 7.773438 61.097656 7.773438 Z M 58.257812 11.167969 C 58.382812 11.042969 58.476562 10.898438 58.546875 10.734375 C 58.613281 10.570312 58.648438 10.398438 58.648438 10.222656 C 58.648438 10.042969 58.613281 9.871094 58.546875 9.707031 C 58.476562 9.542969 58.382812 9.398438 58.257812 9.273438 C 53.03125 4.050781 44.535156 4.050781 39.308594 9.273438 C 39.1875 9.398438 39.089844 9.542969 39.023438 9.707031 C 38.957031 9.871094 38.921875 10.042969 38.921875 10.21875 C 38.925781 10.398438 38.957031 10.566406 39.027344 10.730469 C 39.09375 10.894531 39.191406 11.039062 39.316406 11.164062 C 39.441406 11.289062 39.585938 11.382812 39.75 11.453125 C 39.914062 11.519531 40.082031 11.554688 40.257812 11.554688 C 40.4375 11.554688 40.605469 11.523438 40.769531 11.457031 C 40.933594 11.386719 41.078125 11.292969 41.203125 11.167969 C 45.382812 6.988281 52.183594 6.988281 56.359375 11.167969 C 56.488281 11.292969 56.632812 11.390625 56.796875 11.460938 C 56.960938 11.527344 57.128906 11.5625 57.308594 11.5625 C 57.484375 11.5625 57.65625 11.527344 57.820312 11.460938 C 57.984375 11.390625 58.128906 11.292969 58.257812 11.167969 Z M 54.464844 14.957031 C 54.59375 14.832031 54.6875 14.6875 54.757812 14.523438 C 54.824219 14.359375 54.859375 14.1875 54.859375 14.011719 C 54.859375 13.832031 54.824219 13.660156 54.757812 13.496094 C 54.6875 13.332031 54.59375 13.1875 54.464844 13.0625 C 51.332031 9.929688 46.234375 9.929688 43.101562 13.0625 C 42.976562 13.191406 42.882812 13.335938 42.820312 13.496094 C 42.753906 13.660156 42.722656 13.828125 42.722656 14.003906 C 42.726562 14.179688 42.761719 14.351562 42.828125 14.511719 C 42.894531 14.671875 42.992188 14.816406 43.117188 14.941406 C 43.242188 15.066406 43.382812 15.160156 43.546875 15.230469 C 43.707031 15.296875 43.875 15.332031 44.050781 15.332031 C 44.226562 15.335938 44.394531 15.304688 44.558594 15.238281 C 44.722656 15.171875 44.867188 15.078125 44.992188 14.957031 C 45.242188 14.710938 45.511719 14.488281 45.804688 14.292969 C 46.097656 14.097656 46.40625 13.933594 46.734375 13.796875 C 47.058594 13.664062 47.394531 13.5625 47.738281 13.492188 C 48.082031 13.425781 48.429688 13.390625 48.78125 13.390625 C 49.136719 13.390625 49.484375 13.425781 49.828125 13.492188 C 50.171875 13.5625 50.507812 13.664062 50.832031 13.796875 C 51.160156 13.933594 51.46875 14.097656 51.761719 14.292969 C 52.050781 14.488281 52.324219 14.710938 52.574219 14.957031 C 52.699219 15.082031 52.84375 15.179688 53.007812 15.25 C 53.171875 15.316406 53.34375 15.351562 53.519531 15.351562 C 53.695312 15.351562 53.867188 15.316406 54.03125 15.25 C 54.195312 15.179688 54.339844 15.082031 54.464844 14.957031 Z M 50.675781 20.640625 C 50.820312 20.496094 50.949219 20.335938 51.058594 20.160156 C 51.167969 19.988281 51.253906 19.800781 51.320312 19.605469 C 51.386719 19.414062 51.429688 19.210938 51.449219 19.007812 C 51.472656 18.804688 51.46875 18.597656 51.441406 18.394531 C 51.414062 18.191406 51.363281 17.992188 51.292969 17.800781 C 51.21875 17.605469 51.125 17.425781 51.011719 17.253906 C 50.898438 17.082031 50.765625 16.925781 50.617188 16.785156 C 50.464844 16.644531 50.300781 16.523438 50.125 16.421875 C 49.945312 16.316406 49.757812 16.238281 49.5625 16.175781 C 49.363281 16.117188 49.164062 16.078125 48.957031 16.066406 C 48.753906 16.054688 48.546875 16.0625 48.347656 16.097656 C 48.144531 16.128906 47.945312 16.1875 47.757812 16.265625 C 47.566406 16.34375 47.386719 16.441406 47.21875 16.5625 C 47.050781 16.683594 46.902344 16.820312 46.765625 16.972656 C 46.628906 17.128906 46.511719 17.296875 46.417969 17.476562 C 46.320312 17.660156 46.242188 17.847656 46.191406 18.046875 C 46.136719 18.246094 46.105469 18.449219 46.101562 18.65625 C 46.09375 18.859375 46.109375 19.0625 46.152344 19.265625 C 46.191406 19.46875 46.253906 19.660156 46.339844 19.847656 C 46.421875 20.035156 46.527344 20.210938 46.652344 20.375 C 46.777344 20.539062 46.921875 20.6875 47.078125 20.816406 C 47.238281 20.945312 47.410156 21.058594 47.59375 21.148438 C 47.78125 21.238281 47.972656 21.308594 48.171875 21.355469 C 48.371094 21.402344 48.574219 21.425781 48.78125 21.425781 C 49.519531 21.425781 50.152344 21.164062 50.675781 20.640625 Z M 50.675781 20.640625 " fill-opacity="1" fill-rule="nonzero"/></g><g clip-path="url(#302bf0f6a6)"><path fill="#ffffff" d="M 4.59375 20.71875 L 1.589844 20.71875 C 1.039062 20.71875 0.589844 20.273438 0.589844 19.71875 L 0.589844 16.71875 C 0.589844 16.164062 1.039062 15.71875 1.589844 15.71875 L 4.59375 15.71875 C 5.144531 15.71875 5.59375 16.164062 5.59375 16.71875 L 5.59375 19.71875 C 5.59375 20.273438 5.144531 20.71875 4.59375 20.71875 " fill-opacity="1" fill-rule="nonzero"/></g><g clip-path="url(#8d89d27dfa)"><path fill="#ffffff" d="M 9.097656 10.714844 C 8.542969 10.714844 8.09375 11.160156 8.09375 11.714844 L 8.09375 19.71875 C 8.09375 20.273438 8.542969 20.71875 9.097656 20.71875 L 12.097656 20.71875 C 12.652344 20.71875 13.097656 20.273438 13.097656 19.71875 L 13.097656 11.714844 C 13.097656 11.160156 12.652344 10.714844 12.097656 10.714844 L 9.097656 10.714844 " fill-opacity="1" fill-rule="nonzero"/></g><g clip-path="url(#935bc434a8)"><path fill="#ffffff" d="M 16.601562 5.710938 C 16.050781 5.710938 15.601562 6.15625 15.601562 6.710938 L 15.601562 19.71875 C 15.601562 20.273438 16.050781 20.71875 16.601562 20.71875 L 19.605469 20.71875 C 20.15625 20.71875 20.605469 20.273438 20.605469 19.71875 L 20.605469 6.710938 C 20.605469 6.15625 20.15625 5.710938 19.605469 5.710938 L 16.601562 5.710938 " fill-opacity="1" fill-rule="nonzero"/></g><g clip-path="url(#729e4468e4)"><path fill="#ffffff" d="M 24.105469 0.707031 C 23.554688 0.707031 23.105469 1.152344 23.105469 1.707031 L 23.105469 19.71875 C 23.105469 20.273438 23.554688 20.71875 24.105469 20.71875 L 27.109375 20.71875 C 27.664062 20.71875 28.109375 20.273438 28.109375 19.71875 L 28.109375 1.707031 C 28.109375 1.152344 27.664062 0.707031 27.109375 0.707031 L 24.105469 0.707031 " fill-opacity="1" fill-rule="nonzero"/></g></svg>